<?xml version="1.0" standalone="no"?><!DOCTYPE svg PUBLIC "-//W3C//DTD SVG 1.1//EN" "http://www.w3.org/Graphics/SVG/1.1/DTD/svg11.dtd"><svg class="icon" width="200px" height="200.00px" viewBox="0 0 1024 1024" version="1.1" xmlns="http://www.w3.org/2000/svg"><path d="M511.949469 526.399339m-497.600661 0a497.600661 497.600661 0 1 0 995.201321 0 497.600661 497.600661 0 1 0-995.201321 0Z" fill="#E1E6E9" /><path d="M518.349404 920.000532C302.350033 920.000532 126.348711 743.99921 126.348711 527.999839S302.34797 135.999146 518.349404 135.999146c215.999372 0 392.000693 175.999259 392.000693 392.000693-1.6005 217.599871-176.001321 392.000693-392.000693 392.000693z" fill="#4FBF9F" /><path d="M518.349404 935.999339c-223.999807 0-406.399001-182.399194-406.399001-406.399001S294.349598 123.199275 518.349404 123.199275s406.399001 182.399194 406.399001 406.399001c0 224.001869-182.399194 406.401063-406.399001 406.401063z m0-782.398823c-207.998937 0-375.999823 168.000886-375.999822 375.999822s168.000886 375.999823 375.999822 375.999823 375.999823-168.000886 375.999823-375.999823-169.599323-375.999823-375.999823-375.999822z" fill="#193651" /><path d="M518.349404 859.200113c-180.800757 0-329.599774-147.20058-329.599774-329.599775S335.95021 200.000564 518.349404 200.000564c180.800757 0 329.599774 147.20058 329.599775 329.599774s-148.799017 329.599774-329.599775 329.599775z" fill="#FFFFFF" /><path d="M950.35021 89.599098c-55.99892-57.59942-148.799017-57.59942-204.8 0l206.400499 206.400499c55.99892-57.59942 55.99892-148.799017-1.600499-206.400499z" fill="#FDBF5E" /><path d="M961.549582 78.399726c-30.399178-30.399178-70.399291-46.400048-113.600403-46.400048-43.199049 0-83.199162 16.00087-113.600403 46.400048-6.399936 6.399936-6.399936 16.00087 0 22.400806l206.400499 206.400499c3.200999 3.200999 6.399936 4.799436 11.199372 4.799436 3.200999 0 8.000435-1.6005 11.199372-4.799436 30.399178-30.399178 48.000548-70.399291 46.400048-113.600403 0.002062-44.801611-17.599307-84.799662-47.998485-115.200902z m-11.199372 195.201128L767.951016 89.60116c22.400806-17.599307 51.199484-27.200242 80.000225-27.200242 35.200677 0 67.200354 12.799871 91.199597 38.399614 23.999243 23.999243 38.399613 57.59942 38.399614 91.199597 0 30.399178-9.600935 57.59942-27.200242 81.600725z" fill="#193651" /><path d="M819.1505 97.599533c9.600935-3.200999 19.199807-4.799436 28.800741-4.799436 27.200242 0 51.199484 9.600935 70.399291 28.800741 27.200242 27.200242 35.200677 65.599855 23.999243 99.200032l-123.199275-123.201337z" fill="#FFFFFF" /><path d="M73.548728 105.599968c56.000983-57.59942 148.799017-57.59942 204.8 0L73.548728 310.399968c-57.59942-56.000983-57.59942-148.799017 0-204.8z" fill="#FDBF5E" /><path d="M289.550162 94.400596c-30.399178-30.399178-70.399291-48.000548-113.600403-48.000548S92.750597 62.400918 62.349356 92.800097c-62.400918 62.400918-62.400918 164.799887 0 227.200805 3.200999 3.200999 6.399936 4.799436 11.199372 4.799436 3.200999 0 8.000435-1.6005 11.199371-4.799436l204.8-203.1995c6.401998-6.401998 6.401998-16.00087 0.002063-22.400806zM73.548728 287.999162c-40.000113-51.199484-36.799114-124.799774 9.600934-172.800322 25.599742-23.999243 57.59942-36.799114 92.800097-36.799114 28.800741 0 57.59942 9.600935 80.000225 27.200242L73.548728 287.999162z" fill="#193651" /><path d="M81.549163 236.799678c-9.600935-33.600177-1.6005-71.999791 23.999242-99.200032 19.199807-19.199807 43.199049-28.800741 70.399291-28.800742 9.600935 0 19.199807 1.6005 28.800742 4.799436l-123.199275 123.201338z" fill="#FFFFFF" /><path d="M745.55021 967.999017l-51.199484-91.199597c-4.799436-8.000435-14.400371-9.600935-20.800307-6.399936-8.000435 4.799436-9.600935 14.400371-6.399935 20.800307l51.199484 91.199597c3.200999 4.799436 8.000435 8.000435 12.799871 8.000435 3.200999 0 4.799436 0 8.000435-1.6005 7.998373-3.198937 11.199372-12.799871 6.399936-20.800306zM358.348953 875.19892c-8.000435-4.799436-17.599307-1.6005-20.800306 6.399936l-51.199484 91.199597c-4.799436 8.000435-1.6005 17.599307 6.399935 20.800306 3.200999 1.6005 4.799436 1.6005 8.000435 1.6005 4.799436 0 11.199372-3.200999 12.799871-8.000435l51.199485-91.199597c4.801499-8.000435 1.6005-17.599307-6.399936-20.800307zM791.950258 265.600419c-3.200999 0-8.000435-1.6005-11.199371-4.799436-6.399936-6.399936-6.399936-16.00087 0-22.400806l57.59942-57.59942c6.399936-6.399936 16.00087-6.399936 22.400805 0 6.399936 6.399936 6.399936 16.00087 0 22.400806l-57.59942 57.59942c-3.203062 3.198937-8.002498 4.799436-11.201434 4.799436zM230.350242 278.40029c-3.200999 0-8.000435-1.6005-11.199371-4.799436l-56.000983-56.000983C156.749952 211.199936 156.749952 201.599001 163.149888 195.199065s16.00087-6.399936 22.400805 0l56.000983 56.000983c6.399936 6.399936 6.399936 16.00087 0 22.400806-3.203062 3.198937-6.401998 4.799436-11.201434 4.799436z" fill="#193651" /><path d="M447.950113 76.799227L414.349936 22.398743c-4.799436-6.399936-14.400371-9.600935-20.800306-4.799436-8.000435 4.799436-9.600935 14.400371-4.799436 22.400806l33.600177 54.400483c4.799436 8.000435 14.400371 9.600935 20.800306 4.799436 7.998373-4.799436 9.598872-14.400371 4.799436-22.400805zM518.349404 86.400161c-8.000435 0-16.00087-6.399936-16.00087-16.00087V16.00087c0-8.000435 6.399936-16.00087 16.00087-16.00087 8.000435 0 16.00087 6.399936 16.00087 16.00087v54.400484c-1.6005 7.998373-8.000435 15.998808-16.00087 15.998807z" fill="#193651" /><path d="M591.949694 99.200032c-8.000435-4.799436-9.600935-14.400371-4.799436-20.800306l33.600178-54.400483c4.799436-8.000435 14.400371-9.600935 20.800306-4.799436 8.000435 4.799436 9.600935 14.400371 4.799436 20.800306L612.750001 94.400596c-3.200999 6.399936-12.799871 9.598872-20.800307 4.799436z" fill="#193651" /><path d="M518.349404 353.599017c-11.199372 0-19.199807 8.000435-19.199806 19.199807v153.600515h38.399613v-153.600515c0-11.199372-9.598872-19.199807-19.199807-19.199807z" fill="#CFD0D1" /><path d="M742.349211 508.800032H518.349404v40.000113h223.999807c11.199372 0 20.800306-9.600935 20.800306-20.800306-1.6005-9.600935-9.600935-19.199807-20.800306-19.199807z" fill="#CFD0D1" /><path d="M339.149146 708.800596c4.799436 4.799436 11.199372 4.799436 16.000871 0l147.20058-147.20058-16.00087-16.00087-147.200581 147.20058c-4.799436 4.799436-4.799436 11.199372 0 16.00087z" fill="#F16051" /><path d="M518.349404 529.600338m-48.000548 0a48.000548 48.000548 0 1 0 96.001096 0 48.000548 48.000548 0 1 0-96.001096 0Z" fill="#193651" /><path d="M502.350597 232.000242h30.399178v30.399178h-30.399178zM502.350597 796.799194h30.399178v30.399179h-30.399178z" fill="#193651" /><path d="M397.175504 289.620287l-26.325742 15.20062-15.200621-26.327804 26.325742-15.200621zM679.03873 779.676325l-26.329867 15.198557-15.198558-26.329867 26.33193-15.198557zM293.67516 382.975196l-15.20062 26.325742-26.323679-15.200621 15.20062-26.325742z" fill="#193651" /><path d="M782.351386 664.821922l-15.202683 26.325742-26.327804-15.202683 15.202683-26.327804zM219.148808 513.599468h30.399178v30.399178h-30.399178zM785.550323 513.599468h30.399178v30.399178h-30.399178z" fill="#193651" /><path d="M293.087348 675.577856l-26.331929 15.198558-15.196496-26.331929 26.329867-15.196496zM783.032011 393.69813l-26.325742 15.20062-15.20062-26.323679 26.323679-15.202683zM397.062066 768.165516l-15.196495 26.331929-26.329867-15.198558 15.196495-26.329867zM678.962418 279.511977l-15.196496 26.33193-26.331929-15.198558 15.198558-26.329867z" fill="#193651" /></svg>