<?xml version="1.0" standalone="no"?><!DOCTYPE svg PUBLIC "-//W3C//DTD SVG 1.1//EN" "http://www.w3.org/Graphics/SVG/1.1/DTD/svg11.dtd"><svg class="icon" width="200px" height="200.00px" viewBox="0 0 1024 1024" version="1.1" xmlns="http://www.w3.org/2000/svg"><path d="M511.998969 367.999388m-367.999388 0a367.999388 367.999388 0 1 0 735.998775 0 367.999388 367.999388 0 1 0-735.998775 0Z" fill="#2EA2DB" /><path d="M102.398969 345.600645h819.2v572.799387H102.398969z" fill="#E1E6E9" /><path d="M921.598969 932.800403H102.398969a14.340558 14.340558 0 0 1-14.400371-14.400371V345.600645a14.340558 14.340558 0 0 1 14.400371-14.400371h819.2a14.340558 14.340558 0 0 1 14.40037 14.400371v572.799387a14.340558 14.340558 0 0 1-14.40037 14.400371zM116.799339 903.999662h788.79876V359.998953H116.799339v544.000709z" fill="#193651" /><path d="M162.399138 405.551314h699.199662v513.599468H162.399138z" fill="#FFFFFF" /><path d="M630.40087 871.999984v46.400048H393.59913v-46.400048H48.000548v62.400918c0 41.600612 33.600177 75.20079 75.200789 75.20079h777.599388c41.600612 0 75.20079-33.600177 75.20079-75.20079v-62.400918H630.40087z" fill="#CFD0D1" /><path d="M975.999452 857.599613H630.40087a14.340558 14.340558 0 0 0-14.40037 14.400371v30.399178H409.6v-30.399178a14.340558 14.340558 0 0 0-14.400371-14.400371H48.000548a14.340558 14.340558 0 0 0-14.400371 14.400371v62.400918c0 49.598985 40.000113 89.599098 89.599098 89.599098h777.599388c49.598985 0 89.599098-40.000113 89.599097-89.599098v-62.400918a14.336433 14.336433 0 0 0-14.398308-14.400371z m-15.998807 76.799227c0 33.600177-27.200242 59.199919-59.19992 59.199919H123.199275c-33.600177 0-59.199919-27.200242-59.19992-59.199919v-46.400048h315.199404v30.399178a14.340558 14.340558 0 0 0 14.400371 14.40037h235.199178a14.340558 14.340558 0 0 0 14.400371-14.40037v-30.399178h316.799903v46.400048z" fill="#193651" /><path d="M134.400709 926.400467h30.399178v30.399179H134.400709zM211.199936 926.400467h30.399178v30.399179H211.199936zM289.599662 926.400467h30.399178v30.399179h-30.399178zM705.599597 926.400467h30.399178v30.399179h-30.399178z" fill="#193651" /><path d="M782.398824 926.400467h30.399178v30.399179h-30.399178zM859.200113 926.400467h30.399178v30.399179h-30.399178z" fill="#193651" /><path d="M511.998969 363.199952m-280.00079 0a280.00079 280.00079 0 1 0 560.001579 0 280.00079 280.00079 0 1 0-560.001579 0Z" fill="#FFFFFF" /><path d="M511.998969 657.599049c-163.199388 0-295.999597-132.800209-295.999597-295.999597S348.799581 67.200354 511.998969 67.200354 808.000628 200.000564 808.000628 363.199952 675.200419 657.599049 511.998969 657.599049z m0-559.999516c-145.600081 0-265.600419 118.399839-265.600419 265.600419s120.000338 265.600419 265.600419 265.600419 265.600419-118.399839 265.600419-265.600419S657.599049 97.599533 511.998969 97.599533z" fill="#193651" /><path d="M732.799839 363.199952c0-121.600838-99.200032-220.80087-220.80087-220.80087v220.80087h220.80087z" fill="#F16051" /><path d="M511.998969 142.399082c-121.600838 0-220.80087 99.200032-220.80087 220.80087 0 60.800419 23.999243 115.200902 63.999355 155.198952l155.198953-155.198952V142.399082h1.602562z" fill="#4FBF9F" /><path d="M732.799839 363.199952H511.998969l155.198952 155.198952c40.002175-39.99805 65.601917-94.398534 65.601918-155.198952z" fill="#FDBF5E" /><path d="M511.998969 582.400322c60.800419 0 115.200902-23.999243 155.198952-63.999355l-155.198952-155.198953v219.198308z" fill="#2EA2DB" /><path d="M356.800016 518.398904c40.000113 40.000113 94.400596 63.999355 155.201015 63.999356V363.199952l-155.201015 155.198952z" fill="#E1E6E9" /></svg>