<?xml version="1.0" standalone="no"?><!DOCTYPE svg PUBLIC "-//W3C//DTD SVG 1.1//EN" "http://www.w3.org/Graphics/SVG/1.1/DTD/svg11.dtd"><svg class="icon" width="200px" height="200.00px" viewBox="0 0 1024 1024" version="1.1" xmlns="http://www.w3.org/2000/svg"><path d="M1007.99913 122.000963H16.00087v721.598405h76.799227v124.799774l206.400499-124.799774h708.798534z" fill="#2EA2DB" /><path d="M84.799662 981.199013c-4.799436-3.200999-8.000435-8.000435-8.000435-14.400371V857.999738H16.00087C6.399936 857.999738 0 851.599803 0 841.998868V122.000963c0-9.600935 6.399936-16.00087 16.00087-16.00087h992.000322c9.600935 0 16.00087 6.399936 16.00087 16.00087v719.999968c0 9.600935-6.399936 16.00087-16.00087 16.00087h-705.601659l-200.000564 123.199275c-4.799436 3.198937-11.199372 3.198937-17.599307-0.002063z m-52.799984-153.598453h60.800419c9.600935 0 16.00087 6.399936 16.00087 16.00087v95.999033l180.800757-110.399404c3.200999-1.6005 4.799436-1.6005 8.000435-1.600499H992.000322V139.60027H31.999678v688.00029z" fill="#193651" /><path d="M584.000822 56.399045c-40.000113 0-71.999791 48.000548-71.999791 88.000661v681.600354c0-40.000113 31.999678-88.000661 71.999791-88.00066h347.199081V56.399045H584.000822z" fill="#FFFFFF" /><path d="M511.998969 843.599368c-9.600935 0-16.00087-6.399936-16.00087-16.000871V146.000205c0-48.000548 38.399613-103.999468 88.00066-103.999468H931.197841c9.600935 0 16.00087 6.399936 16.00087 16.00087v681.600355c0 9.600935-6.399936 16.00087-16.00087 16.00087H584.000822c-30.399178 0-56.000983 40.000113-56.000983 71.99979 0 7.99631-6.399936 15.996745-16.00087 15.996746z m72.001853-771.199453c-30.401241 0-56.000983 40.000113-56.000983 71.999791v604.799065c14.400371-16.00087 35.200677-27.200242 56.000983-27.200241h331.200274V72.399915H584.000822z" fill="#193651" /><path d="M576.000387 129.999335c0-4.799436 3.200999-8.000435 8.000435-8.000435h283.199726v553.599581H576.000387V129.999335z" fill="#E1E6E9" /><path d="M439.999178 56.399045c40.000113 0 71.999791 48.000548 71.999791 88.000661v681.600354c0-40.000113-31.999678-88.000661-71.999791-88.00066H92.800097V56.399045h347.199081z" fill="#FFFFFF" /><path d="M511.998969 843.599368c-9.600935 0-16.00087-6.399936-16.00087-16.000871 0-31.999678-27.200242-71.999791-56.000983-71.99979H92.800097c-9.600935 0-16.00087-6.399936-16.00087-16.00087V56.399045c0-9.600935 6.399936-16.00087 16.00087-16.00087h347.199081c49.598985 0 88.000661 56.000983 88.000661 103.999468v681.600355c0 9.600935-6.399936 17.60137-16.00087 17.60137z m-403.198002-120.000339h331.200274c20.800306 0 41.600612 11.199372 56.000983 27.200242V146.000205c0-31.999678-27.200242-71.999791-56.000983-71.99979H108.800967v649.598614z" fill="#193651" /><path d="M447.999613 675.600544H156.799452V120.400463h283.199726c4.799436 0 8.000435 3.200999 8.000435 8.000435v547.199646z" fill="#E1E6E9" /><path d="M209.599436 563.600641h31.999678v31.999677h-31.999678zM286.400725 563.600641h31.999678v31.999677h-31.999678zM364.800451 563.600641h31.999678v31.999677h-31.999678zM627.199871 189.199255h188.79913v31.999677h-188.79913zM627.199871 281.999351h188.79913v31.999678h-188.79913zM627.199871 376.399948h188.79913v31.999677h-188.79913zM627.199871 469.200044h188.79913v31.999678h-188.79913zM627.199871 563.600641h188.79913v31.999677h-188.79913zM207.998937 363.600077h188.799129v31.999677h-188.799129zM207.998937 462.800109h188.799129v31.999677h-188.799129zM230.399742 262.799545l-9.600934 22.400805h-17.599308l44.799549-100.800531h17.599307l44.799549 100.800531h-17.599307l-9.600934-22.400805h-52.797922z m43.201112-15.998808l-17.599307-41.600612-17.599307 41.600612h35.198614zM366.398888 285.20035h-44.799549V184.399819h40.000113c6.399936 0 12.799871 1.6005 17.599307 3.200999s8.000435 3.200999 11.199372 6.399935c4.799436 4.799436 6.399936 11.199372 6.399935 17.599307 0 8.000435-3.200999 14.400371-8.000435 17.599308-1.6005 1.6005-3.200999 1.6005-3.200999 3.200999 0 0-1.6005 1.6005-3.200999 1.600499 6.399936 1.6005 11.199372 4.799436 14.400371 8.000435 3.200999 4.799436 4.799436 9.600935 4.799436 16.00087 0 6.399936-3.200999 12.799871-8.000435 19.199807-3.194812 4.797374-12.795746 7.998373-27.196117 7.998372z m-27.198179-59.199919h22.400806c12.799871 0 19.199807-4.799436 19.199806-12.799871 0-4.799436-1.6005-8.000435-4.799436-9.600935-3.200999-1.6005-8.000435-3.200999-14.40037-3.200999h-22.400806v25.601805z m0 44.799549h27.200242c6.399936 0 11.199372-1.6005 14.40037-3.200999 3.200999-1.6005 4.799436-6.399936 4.799436-11.199372 0-9.600935-6.399936-12.799871-20.800306-12.799871h-23.999243v27.200242h-1.600499z" fill="#193651" /></svg>