<?xml version="1.0" standalone="no"?><!DOCTYPE svg PUBLIC "-//W3C//DTD SVG 1.1//EN" "http://www.w3.org/Graphics/SVG/1.1/DTD/svg11.dtd"><svg class="icon" width="200px" height="200.00px" viewBox="0 0 1024 1024" version="1.1" xmlns="http://www.w3.org/2000/svg"><path d="M692.38 325.4a250.17 250.17 0 0 0-178.06-73.75h-4.64a251.8 251.8 0 0 0-251.81 251.81 325.89 325.89 0 0 0 30.62 138.68c17.45 37.45 41.85 72 72.53 102.66a384.23 384.23 0 0 0 37.71 33.08h226.54A384.23 384.23 0 0 0 663 744.8c30.68-30.67 55.08-65.21 72.53-102.66a325.89 325.89 0 0 0 30.62-138.68 250.17 250.17 0 0 0-73.77-178.06zM512 681.08a39.25 39.25 0 1 1 39.25-39.25A39.25 39.25 0 0 1 512 681.08z m40.5-230.62c-3.7 61.45-27.66 100.54-40.35 99.2-17.48-1.83-35.23-40.28-40.36-99.2-4.74-54.59 0.08-99.21 40.36-99.21 42.95 0 43.65 44.51 40.35 99.21z" fill="#F9DB91" /><path d="M394.92 777.88v54.37A115.13 115.13 0 0 0 509.67 947h4.66a115.13 115.13 0 0 0 114.75-114.75v-54.37H394.92z" fill="#EF6A6A" /><path d="M512.15 351.25c-40.28 0-45.1 44.62-40.36 99.21 5.13 58.92 22.88 97.37 40.36 99.2 12.69 1.34 36.65-37.75 40.35-99.2 3.3-54.7 2.6-99.21-40.35-99.21z" fill="#AEF0FF" /><path d="M512 641.83m-39.25 0a39.25 39.25 0 1 0 78.5 0 39.25 39.25 0 1 0-78.5 0Z" fill="#AEF0FF" /><path d="M514.32 238.65h-4.64c-146.25 0-264.81 118.56-264.81 264.81 0 126.57 67.48 221.06 137.05 277.67v51.12c0 70.26 57.49 127.75 127.75 127.75h4.66c70.26 0 127.75-57.49 127.75-127.75v-51.12c69.57-56.61 137-151.1 137-277.67 0.05-146.25-118.51-264.81-264.76-264.81z m101.76 593.6A102.12 102.12 0 0 1 514.33 934h-4.66a102.12 102.12 0 0 1-101.75-101.75v-41.37h208.16z m137-328.79a313 313 0 0 1-29.4 133.19c-16.81 36.07-40.34 69.36-69.94 99a369.71 369.71 0 0 1-33 29.28H403.21a371.15 371.15 0 0 1-33-29.28c-29.6-29.59-53.13-62.88-69.94-99a313 313 0 0 1-29.4-133.19 238.57 238.57 0 0 1 238.81-238.81h4.64a238.57 238.57 0 0 1 238.81 238.81z" fill="#512C56" /><path d="M455 863.94h114a13 13 0 0 0 0-26H455a13 13 0 0 0 0 26zM512 167.56a13 13 0 0 0 13-13V77a13 13 0 0 0-26 0v77.56a13 13 0 0 0 13 13zM282 262.84a13 13 0 0 0 9.19-22.2l-54.86-54.84A13 13 0 1 0 218 204.18L272.79 259a13 13 0 0 0 9.21 3.84zM186.71 466.85h-77.56a13 13 0 1 0 0 26h77.56a13 13 0 1 0 0-26zM914.85 466.85h-77.56a13 13 0 0 0 0 26h77.56a13 13 0 0 0 0-26zM787.66 185.8l-54.84 54.84A13 13 0 1 0 751.2 259l54.85-54.85a13 13 0 1 0-18.39-18.38zM512.15 338.25c-15.2 0-27.57 5.08-36.77 15.12-15.84 17.28-20.94 47.57-16.54 98.21 2.57 29.51 8.28 55.42 16.52 74.94 11.81 28 25.78 35.06 35.43 36.07a17.14 17.14 0 0 0 2 0.11c4.14 0 9.82-1.34 16.07-6.64 15.91-13.48 33.42-51.12 36.66-104.82 2.43-40.25 3-78.07-16.19-98.47-9.11-9.64-21.61-14.52-37.18-14.52z m27.38 111.42c-1.79 29.66-8.22 50.7-13.3 63.13-5.85 14.3-11.41 21-14.09 23.35-6.21-4-22.27-27.83-27.4-86.82-1.33-15.29-5.37-61.84 9.81-78.39 2.63-2.88 7.32-6.69 17.6-6.69 11 0 15.65 3.62 18.21 6.34 12.09 12.84 11.07 47.55 9.17 79.08zM512 589.58a52.25 52.25 0 1 0 52.25 52.25A52.31 52.31 0 0 0 512 589.58z m0 78.5a26.25 26.25 0 1 1 26.25-26.25A26.29 26.29 0 0 1 512 668.08z" fill="#512C56" /></svg>