<?xml version="1.0" standalone="no"?><!DOCTYPE svg PUBLIC "-//W3C//DTD SVG 1.1//EN" "http://www.w3.org/Graphics/SVG/1.1/DTD/svg11.dtd"><svg class="icon" width="200px" height="200.00px" viewBox="0 0 1024 1024" version="1.1" xmlns="http://www.w3.org/2000/svg"><path d="M512 512m-512 0a512 512 0 1 0 1024 0 512 512 0 1 0-1024 0Z" fill="#75B600" /><path d="M832 786.4c-11.2-9.6-22.4-19.2-34.4-28.8-5.6-5.6-16.8 10.4-22.4 14.4V74.4C697.6 27.2 607.2 0 510.4 0 424.8 0 344 21.6 273.6 58.4v716.8c0 47.2 23.2 72.8 58.4 72.8h495.2c54.4 0 53.6-53.6 53.6-92.8-9.6 8-38.4 40-48.8 31.2z" fill="#FFFFFF" /><path d="M326.4 855.2c-4.8 0-8-4-8-8 0-4.8 4-8 8-8 24.8 0 44.8-20.8 44.8-46.4V752c0-3.2 1.6-6.4 4.8-7.2 3.2-1.6 6.4-0.8 8.8 0.8l36.8 32 36.8-32c3.2-2.4 7.2-2.4 10.4 0l36.8 32 36.8-32c3.2-2.4 7.2-2.4 10.4 0l36.8 32 36.8-32c3.2-2.4 7.2-2.4 10.4 0l36.8 32 36.8-32c3.2-2.4 7.2-2.4 10.4 0l36.8 32 36.8-32c3.2-3.2 8.8-2.4 11.2 0.8 3.2 3.2 2.4 8.8-0.8 11.2l-42.4 36c-3.2 2.4-7.2 2.4-10.4 0l-36.8-32-36.8 32c-3.2 2.4-7.2 2.4-10.4 0l-36.8-32-36.8 32c-3.2 2.4-7.2 2.4-10.4 0l-36.8-32-36.8 32c-3.2 2.4-7.2 2.4-10.4 0l-36.8-32-36.8 32c-3.2 2.4-7.2 2.4-10.4 0l-28.8-24.8V792c0.8 35.2-27.2 63.2-60.8 63.2z" fill="#663210" /><path d="M712.8 360H640c-8.8 0-15.2-7.2-15.2-16s7.2-16 15.2-16h72.8c8.8 0 15.2 7.2 15.2 16s-7.2 16-15.2 16zM576 352H344c-4.8 0-8-3.2-8-8s3.2-8 8-8h232c4.8 0 8 3.2 8 8s-3.2 8-8 8zM712.8 424H640c-8.8 0-15.2-7.2-15.2-16s7.2-16 15.2-16h72.8c8.8 0 15.2 7.2 15.2 16s-7.2 16-15.2 16zM504 416H344c-4.8 0-8-3.2-8-8s3.2-8 8-8h160c4.8 0 8 3.2 8 8s-3.2 8-8 8zM712.8 296H640c-8.8 0-15.2-7.2-15.2-16s7.2-16 15.2-16h72.8c8.8 0 15.2 7.2 15.2 16s-7.2 16-15.2 16zM504 288H344c-4.8 0-8-3.2-8-8s3.2-8 8-8h160c4.8 0 8 3.2 8 8s-3.2 8-8 8zM712.8 488H640c-8.8 0-15.2-7.2-15.2-16s7.2-16 15.2-16h72.8c8.8 0 15.2 7.2 15.2 16s-7.2 16-15.2 16zM576 480H472.8c-4 0-8-3.2-8-8s3.2-8 8-8H576c4 0 8 3.2 8 8s-3.2 8-8 8zM440 480H344c-4 0-8-3.2-8-8s3.2-8 8-8h96c4 0 8 3.2 8 8s-3.2 8-8 8zM712.8 552H640c-8.8 0-15.2-7.2-15.2-16s7.2-16 15.2-16h72.8c8.8 0 15.2 7.2 15.2 16s-7.2 16-15.2 16zM576 544h-40c-4.8 0-8-3.2-8-8s3.2-8 8-8h40c4.8 0 8 3.2 8 8s-3.2 8-8 8z" fill="#ADADAD" /><path d="M776 72.8C701.6 28 614.4 1.6 521.6 0h-12c-10.4 0-20.8 0-31.2 0.8-5.6 0-11.2 0.8-16.8 1.6-2.4 0-4.8 0.8-7.2 0.8-64.8 7.2-126.4 26.4-181.6 56v59.2c70.4-36.8 151.2-57.6 236.8-57.6 96.8 0 188 27.2 265.6 74.4 0-15.2 0.8-40.8 0.8-62.4z" fill="#EAEAEA" /><path d="M504 544H344c-4.8 0-8-3.2-8-8s3.2-8 8-8h160c4.8 0 8 3.2 8 8s-3.2 8-8 8zM352 184c-4.8 0-8-4-8-8V88c0-4.8 3.2-8 8-8s8 4 8 8v88c0 4-3.2 8-8 8zM416 184c-4.8 0-8-4-8-8V88c0-4.8 3.2-8 8-8s8 4 8 8v88c0 4-3.2 8-8 8zM448 184c-4.8 0-8-4-8-8V88c0-4.8 3.2-8 8-8s8 4 8 8v88c0 4-3.2 8-8 8zM472 184c-4.8 0-8-4-8-8V88c0-4.8 3.2-8 8-8s8 4 8 8v88c0 4-3.2 8-8 8zM384 184c-8.8 0-16-7.2-16-16v-72c0-8.8 7.2-16 16-16s16 7.2 16 16v72c0 8.8-7.2 16-16 16z" fill="#ADADAD" /><path d="M592 696h-39.2c-4.8 0-8.8-3.2-8.8-8 0-1.6 0-4 0.8-5.6 4.8-10.4 13.6-18.4 21.6-25.6 6.4-6.4 16-12.8 16-21.6 0-6.4-4-11.2-11.2-11.2-4 0-7.2 0.8-10.4 1.6-2.4 0.8-4.8 3.2-8.8 3.2-4 0-8-3.2-8-7.2 0-8.8 16.8-12.8 26.4-12.8 17.6 0 27.2 11.2 27.2 24 0 10.4-4 16.8-9.6 22.4-8 8-18.4 16-24.8 24.8H592c4.8 0 8 3.2 8 7.2 0 4.8-3.2 8.8-8 8.8zM642.4 644c12.8 2.4 21.6 11.2 21.6 24s-9.6 28.8-30.4 28.8c-5.6 0-25.6-1.6-25.6-11.2 0-4 3.2-7.2 8-7.2s8 4.8 16.8 4.8c10.4 0 14.4-7.2 14.4-13.6 0-8-5.6-11.2-14.4-11.2-3.2 0-3.2 1.6-6.4 1.6-4.8 0-8-3.2-8-8 0-0.8 0-2.4 0.8-3.2l18.4-21.6h-20c-4.8 0-8.8-3.2-8.8-7.2s4-8 8.8-8h34.4c5.6 0 8.8 3.2 8.8 8 0 2.4-0.8 4-1.6 5.6l-16.8 18.4zM696.8 692.8c-10.4 0-24.8-3.2-24.8-11.2 0-3.2 2.4-7.2 8.8-7.2 4.8 0 8.8 3.2 16.8 4v-17.6c-12-4-24.8-8-24.8-24 0-13.6 9.6-21.6 24.8-22.4V608c0-1.6 1.6-3.2 3.2-3.2s3.2 1.6 3.2 3.2v6.4c8 0.8 21.6 2.4 21.6 10.4 0 4-3.2 7.2-8 7.2-4 0-6.4-2.4-12.8-3.2v16.8c12.8 4 24.8 7.2 24.8 23.2 0 14.4-10.4 22.4-24.8 24v6.4c0 1.6-1.6 3.2-3.2 3.2s-3.2-1.6-3.2-3.2v-6.4z m0-49.6v-14.4c-4 0.8-7.2 2.4-7.2 6.4s3.2 5.6 4.8 6.4l2.4 1.6z m8.8 20l-2.4-0.8v15.2c4.8-0.8 7.2-4 7.2-8s-2.4-5.6-4.8-6.4z" fill="#FF4848" /><path d="M350.4 702.4c-1.6 0-3.2-0.8-4-1.6-8-8 7.2-39.2 17.6-52.8 12.8-17.6 23.2-16.8 28.8-14.4 1.6 0.8 2.4 3.2 1.6 5.6-0.8 1.6-3.2 2.4-5.6 1.6-3.2-1.6-7.2 0-12 4-14.4 12.8-25.6 41.6-24.8 49.6l0.8-0.8c5.6-4 9.6-8.8 12.8-13.6 0-9.6 5.6-21.6 8-24.8 1.6-2.4 3.2-3.2 5.6-3.2 1.6 0 3.2 1.6 4 4 0.8 4-1.6 15.2-8.8 26.4 0 1.6 0 2.4 0.8 3.2 0 0 3.2 0.8 8.8-4 4.8-3.2 8.8-6.4 12.8-8.8 14.4-9.6 23.2-16 29.6-13.6 3.2 0.8 5.6 4 6.4 8 2.4 7.2 15.2 16.8 24 17.6 4.8 0 5.6-1.6 6.4-3.2 0.8-1.6 3.2-3.2 5.6-1.6 2.4 0.8 3.2 3.2 2.4 5.6-2.4 5.6-8 8.8-14.4 8-12-0.8-27.2-12-31.2-23.2-0.8-1.6-0.8-2.4-1.6-2.4-3.2-0.8-12.8 5.6-22.4 12.8-4 3.2-8.8 5.6-13.6 8.8-8.8 5.6-15.2 6.4-19.2 2.4l-0.8-0.8c-3.2 3.2-6.4 7.2-10.4 10.4-2.4 0-4.8 0.8-7.2 0.8z" fill="#ADADAD" /><path d="M152 408c-17.6 0-32-14.4-32-32s14.4-32 32-32 32 14.4 32 32-14.4 32-32 32z m0-48c-8.8 0-16 7.2-16 16s7.2 16 16 16 16-7.2 16-16-7.2-16-16-16zM904 608c-17.6 0-32-14.4-32-32s14.4-32 32-32 32 14.4 32 32-14.4 32-32 32z m0-48c-8.8 0-16 7.2-16 16s7.2 16 16 16 16-7.2 16-16-7.2-16-16-16zM935.2 381.6c0-3.2-3.2-6.4-8-7.2l-15.2-2.4c-4-0.8-8.8-4.8-8.8-8.8l-2.4-15.2c-0.8-4-4-8-7.2-8s-6.4 3.2-7.2 8l-2.4 15.2c-0.8 4-4.8 8.8-8.8 8.8l-15.2 2.4c-4 0.8-8 4-8 7.2s3.2 6.4 8 7.2l15.2 2.4c4 0.8 8.8 4.8 8.8 8.8l2.4 15.2c0.8 4 4 8 7.2 8s6.4-3.2 6.4-8l2.4-16.8c0.8-4 4.8-8 8.8-8.8l14.4-0.8c6.4-0.8 9.6-4 9.6-7.2zM211.2 690.4c0-3.2-3.2-6.4-8-7.2l-15.2-2.4c-4-0.8-8.8-4.8-8.8-8.8l-2.4-15.2c-0.8-4-4-8-7.2-8s-6.4 3.2-7.2 8l-1.6 15.2c-0.8 4-4.8 8.8-8.8 8.8l-15.2 2.4c-4 0.8-8 4-8 7.2s3.2 6.4 8 7.2l15.2 2.4c4 0.8 8.8 4.8 8.8 8.8l2.4 15.2c0.8 4 4 8 7.2 8s6.4-3.2 7.2-8l2.4-16.8c0.8-4 4.8-8 8.8-8.8l14.4-0.8c4.8-0.8 8-4 8-7.2z" fill="#FFFFFF" opacity=".5" /><path d="M888 760v-8c0-3.2 0-8-8-8-4.8 0-9.6 9.6-13.6 12.8-7.2 6.4-23.2 22.4-29.6 22.4L800 744s-12 12.8-16 16V78.4c-5.6-3.2-10.4-6.4-16-9.6v703.2c0 3.2 0.8 5.6 4 7.2 2.4 1.6 20-19.2 20-19.2l35.2 32c2.4 2.4 5.6 3.2 9.6 3.2 10.4 0 22.4-9.6 36-22.4 0 14.4-1.6 28.8-6.4 40.8-6.4 17.6-19.2 25.6-39.2 25.6H332c-32 0-52-24-52-64.8V55.2l-14.4 7.2v712c0 49.6 25.6 80.8 66.4 80.8h495.2c27.2 0 45.6-12 54.4-36 7.2-18.4 6.4-38.4 6.4-59.2z" fill="#663210" /></svg>