<?xml version="1.0" standalone="no"?><!DOCTYPE svg PUBLIC "-//W3C//DTD SVG 1.1//EN" "http://www.w3.org/Graphics/SVG/1.1/DTD/svg11.dtd"><svg class="icon" width="200px" height="199.80px" viewBox="0 0 1025 1024" version="1.1" xmlns="http://www.w3.org/2000/svg"><path d="M512 512m-512 0a512 512 0 1 0 1024 0 512 512 0 1 0-1024 0Z" fill="#FBD000" /><path d="M129.6 576c-17.6 0-32-14.4-32-32s14.4-32 32-32 32 14.4 32 32-14.4 32-32 32z m0-48.8c-9.6 0-16.8 8-16.8 16.8 0 9.6 7.2 16.8 16.8 16.8 9.6 0 16.8-8 16.8-16.8 0-9.6-7.2-16.8-16.8-16.8zM880.8 663.2c-17.6 0-31.2-14.4-31.2-31.2 0-17.6 14.4-31.2 31.2-31.2 17.6 0 31.2 14.4 31.2 31.2 0.8 16.8-13.6 31.2-31.2 31.2z m0-48.8c-9.6 0-16.8 7.2-16.8 16.8 0 9.6 7.2 16.8 16.8 16.8 9.6 0 16.8-7.2 16.8-16.8 0-8.8-7.2-16.8-16.8-16.8zM432.8 951.2c-17.6 0-31.2-14.4-31.2-31.2 0-17.6 14.4-31.2 31.2-31.2 17.6 0 31.2 14.4 31.2 31.2 0.8 16.8-13.6 31.2-31.2 31.2z m0-48.8c-9.6 0-16.8 7.2-16.8 16.8 0 9.6 7.2 16.8 16.8 16.8 9.6 0 16.8-7.2 16.8-16.8 0-8.8-7.2-16.8-16.8-16.8zM383.2 136.8c-19.2 0-34.4-15.2-34.4-34.4s15.2-34.4 34.4-34.4 34.4 15.2 34.4 34.4c-0.8 19.2-16 34.4-34.4 34.4z m0-52c-10.4 0-18.4 8-18.4 18.4 0 10.4 8 18.4 18.4 18.4 10.4 0 18.4-8 18.4-18.4-0.8-10.4-8.8-18.4-18.4-18.4zM771.2 272.8c0-3.2 3.2-6.4 8-7.2L793.6 264c4-0.8 8.8-4.8 8.8-8.8l2.4-15.2c0.8-4 4-8 7.2-8s6.4 3.2 7.2 8l2.4 15.2c0.8 4 4.8 8.8 8.8 8.8l15.2 2.4c4 0.8 8 4 8 7.2s-3.2 6.4-8 7.2l-15.2 2.4c-4 0.8-8.8 4.8-8.8 8.8l-2.4 15.2c-0.8 4-4 8-7.2 8s-6.4-3.2-7.2-8l-2.4-16.8c-0.8-4-4.8-8-8.8-8.8l-14.4-0.8c-4.8-1.6-8-4.8-8-8zM152 772c0-3.2 3.2-6.4 8-7.2l15.2-2.4c4-0.8 8.8-4.8 8.8-8.8l2.4-15.2c0.8-4 4-8 7.2-8s6.4 3.2 7.2 8l2.4 15.2c0.8 4 4.8 8.8 8.8 8.8l15.2 2.4c4 0.8 8 4 8 7.2s-3.2 6.4-8 7.2l-15.2 2.4c-4 0.8-8.8 4.8-8.8 8.8l-2.4 15.2c-0.8 4-4 8-7.2 8s-6.4-3.2-7.2-8l-2.4-16.8c-0.8-4-4.8-8-8.8-8.8l-14.4-0.8c-4.8-1.6-8.8-4-8.8-7.2zM683.2 832.8c0-3.2 3.2-6.4 8-7.2l15.2-2.4c4-0.8 8.8-4.8 8.8-8.8l2.4-15.2c0.8-4 4-8 7.2-8s6.4 3.2 7.2 8l2.4 15.2c0.8 4 4.8 8.8 8.8 8.8l15.2 2.4c4 0.8 8 4 8 7.2s-3.2 6.4-8 7.2l-15.2 2.4c-4 0.8-8.8 4.8-8.8 8.8l-2.4 15.2c-0.8 4-4 8-7.2 8s-6.4-3.2-7.2-8l-2.4-16.8c-0.8-4-4.8-8-8.8-8.8l-14.4-0.8c-4.8-0.8-8.8-4-8.8-7.2z" fill="#FFFFFF" /><path d="M348 635.2v117.6c0 12 9.6 22.4 21.6 22.4l229.6 80c12 0 21.6-9.6 21.6-22.4V707.2s33.6 3.2 65.6 0c32-3.2 56-36.8 56-60.8s4.8-76 4.8-76l56.8-32.8c11.2-6.4 14.4-20 8-31.2 0 0-35.2-60.8-55.2-96-4-6.4-7.2-18.4-9.6-28.8-0.8-8-2.4-15.2-4-22.4v-1.6c-27.2-113.6-130.4-198.4-252.8-198.4-144 0-260 116-260 260 0.8 89.6 47.2 169.6 117.6 216z" fill="#3AD0F9" /><path d="M484.8 638.4C661.6 682.4 736.8 664 736.8 664s-5.6 49.6-118.4 42.4V768s-69.6-14.4-148-54.4-124-74.4-124-74.4l6.4-3.2c-33.6-20-60-43.2-74.4-72.8-41.6-84-44-96-44-96s77.6 128 250.4 171.2z" fill="#00B3F9" /><path d="M604.8 864c-1.6 0-4 0-5.6-0.8-13.6-3.2-218.4-75.2-230.4-80-8-3.2-27.2-10.4-27.2-29.6V640.8C268.8 590.4 225.6 508 225.6 420 225.6 272 345.6 152 492.8 152c80.8 0 147.2 26.4 196 78.4 50.4 53.6 65.6 118.4 64.8 129.6-0.8 15.2 7.2 51.2 10.4 56 19.2 33.6 56.8 85.6 56.8 85.6s0 0.8 0.8 0.8c4 7.2 5.6 15.2 3.2 23.2-2.4 8-7.2 14.4-14.4 18.4l-52.8 32c0 13.6-0.8 52.8-4.8 73.6-5.6 29.6-28 64-63.2 67.2-9.6 0.8-20.8 1.6-32 1.6s-20-0.8-26.4-0.8v116c0 7.2-2.4 14.4-6.4 20-5.6 6.4-12 10.4-20 10.4z m-112-696C354.4 168 241.6 280.8 241.6 420c0 84.8 42.4 163.2 113.6 210.4 2.4 1.6 3.2 4 3.2 6.4v116.8c0 5.6 4.8 10.4 16.8 14.4 11.2 4 215.2 76.8 228 79.2h2.4c2.4 0 4.8-1.6 6.4-4 2.4-3.2 3.2-7.2 3.2-10.4V708.8c0-2.4 0.8-4 2.4-5.6 1.6-1.6 4-2.4 6.4-2.4 0 0 15.2 1.6 33.6 1.6 11.2 0 21.6-0.8 30.4-1.6 28.8-3.2 44.8-34.4 48.8-54.4 4.8-22.4 4.8-74.4 4.8-74.4 0-3.2 1.6-5.6 4-7.2l56.8-32.8c3.2-1.6 5.6-4.8 7.2-8.8 0.8-4 0.8-8-1.6-11.2-4-4.8-38.4-53.6-57.6-87.2-4.8-8.8-13.6-47.2-12.8-65.6 0-5.6-11.2-65.6-60.8-118.4-45.6-48-107.2-72.8-184-72.8z" fill="#0C508E" /><path d="M298.4 348c0-36 29.6-65.6 65.6-65.6 3.2 0 5.6 0 8.8 0.8 6.4-28.8 32.8-50.4 64-50.4 3.2 0 6.4 0 9.6 0.8 8-7.2 18.4-11.2 30.4-11.2 8.8 0 16.8 2.4 24 7.2 11.2-4.8 23.2-8 36-8 28 0 52 13.6 67.2 33.6 1.6 0 4-0.8 5.6-0.8 16.8 0 31.2 12.8 32.8 29.6 19.2 11.2 32 32 32 56 0 20-8.8 38.4-23.2 50.4v4c0 23.2-17.6 42.4-40 45.6-10.4 22.4-32.8 37.6-59.2 37.6-8.8 0-16.8-1.6-24-4.8-6.4 8-15.2 12.8-25.6 12.8-9.6 0-18.4-4.8-24.8-11.2-7.2 3.2-15.2 4.8-24 4.8-5.6 0-11.2-0.8-16.8-2.4-3.2 7.2-7.2 17.6-7.2 31.2 0 26.4-7.2 32-17.6 15.2-8-12.8-16.8-28-22.4-43.2-2.4 0-4.8 0.8-7.2 0.8-36 0-65.6-29.6-65.6-65.6 0-6.4 0.8-12.8 3.2-19.2-13.6-12-21.6-28.8-21.6-48z" fill="#FFFFFF" /><path d="M431.2 362.4l4 14.4-9.6 9.6c1.6 4 4 8 6.4 11.2l12.8-3.2 10.4 10.4-3.2 12.8c4 2.4 7.2 4.8 11.2 6.4l9.6-9.6 14.4 4 3.2 12.8h12.8l3.2-12.8 14.4-4 9.6 9.6c4-1.6 8-4 11.2-6.4l-3.2-12.8 10.4-10.4 12.8 3.2c2.4-4 4.8-7.2 6.4-11.2l-7.2-10.4 4-14.4 12.8-3.2v-13.6l-12.8-3.2-4-14.4 9.6-9.6c-1.6-4-4-8-6.4-11.2l-12.8 3.2-10.4-10.4 3.2-12.8c-4-2.4-7.2-4.8-11.2-6.4L521.6 288.8l-14.4-4-3.2-12.8h-12.8l-3.2 12.8-14.4 4-10.4-8.8c-4 1.6-8 4-11.2 6.4l3.2 12.8-10.4 10.4-12.8-3.2c-2.4 4-4.8 7.2-6.4 11.2l9.6 9.6-4 14.4-13.6 4v13.6l13.6 3.2z m28-20.8c5.6-21.6 27.2-33.6 48.8-28 21.6 5.6 33.6 28 28 48.8-5.6 21.6-27.2 33.6-48.8 28-20.8-5.6-33.6-27.2-28-48.8z" fill="#0C508E" /><path d="M422.4 540.8c-8 0-13.6-7.2-16.8-12.8-8.8-13.6-16-27.2-20.8-39.2h-2.4c-40.8 0-73.6-32.8-73.6-73.6 0-5.6 0.8-11.2 1.6-16.8a72.8 72.8 0 0 1-20-50.4c0-40.8 32.8-73.6 73.6-73.6h3.2c9.6-29.6 37.6-50.4 69.6-50.4h7.2c16-12 39.2-14.4 57.6-5.6 11.2-4.8 23.2-7.2 35.2-7.2 28 0 53.6 12 71.2 33.6h2.4c20 0 36 13.6 40 32.8 20.8 13.6 32.8 36 32.8 60.8 0 20-8.8 39.2-23.2 53.6v0.8c0 25.6-18.4 47.2-42.4 52.8-12.8 24-37.6 38.4-64.8 38.4-7.2 0-14.4-0.8-21.6-3.2-8 7.2-17.6 11.2-28 11.2-9.6 0-19.2-4-27.2-10.4-11.2 3.2-22.4 4-33.6 2.4-2.4 7.2-4 14.4-4 21.6-0.8 10.4-0.8 35.2-16 35.2zM389.6 472c3.2 0 6.4 2.4 7.2 4.8 4.8 12.8 12 26.4 21.6 41.6 0.8 0.8 1.6 2.4 1.6 2.4 0.8-2.4 0.8-7.2 0.8-13.6 0-12 2.4-23.2 8-34.4 1.6-3.2 5.6-5.6 9.6-4 12.8 3.2 24 2.4 36-2.4 3.2-1.6 6.4 0 8.8 2.4 4.8 5.6 12 8.8 18.4 8.8 8 0 14.4-3.2 19.2-9.6 2.4-3.2 5.6-4 9.6-2.4 7.2 2.4 13.6 4 20.8 4 22.4 0 42.4-12.8 52-33.6 0.8-2.4 3.2-4 6.4-4.8 19.2-2.4 32.8-18.4 32.8-37.6v-4c0-2.4 0.8-5.6 3.2-7.2 12.8-11.2 20.8-27.2 20.8-44 0-20-10.4-38.4-28-49.6-2.4-1.6-3.2-3.2-4-6.4-1.6-12.8-12-22.4-24.8-22.4-1.6 0-2.4 0-4.8 0.8-3.2 0.8-6.4-0.8-8-3.2-14.4-19.2-36.8-30.4-60.8-30.4-11.2 0-22.4 2.4-32 7.2-2.4 0.8-5.6 0.8-7.2-0.8-13.6-8.8-32.8-7.2-44.8 4-1.6 1.6-4 2.4-6.4 1.6-3.2-0.8-5.6-0.8-8.8-0.8-27.2 0-49.6 18.4-56 44.8-0.8 4-4.8 6.4-8.8 6.4-3.2-0.8-5.6-0.8-8-0.8-32 0-57.6 25.6-57.6 57.6 0 16 6.4 31.2 18.4 41.6 2.4 2.4 3.2 5.6 2.4 8-1.6 5.6-2.4 11.2-2.4 16.8 0 32 25.6 57.6 57.6 57.6 2.4 0 4.8 0 6.4-0.8 0 2.4 0 2.4 0.8 2.4z" fill="#0C508E" /><path d="M304.8 512c-2.4 0-4.8-0.8-6.4-3.2-37.6-43.2-32-114.4-32-117.6 0.8-4.8 4.8-8 8.8-7.2 4.8 0 8 4 8 8.8 0 0.8-5.6 67.2 28 105.6 3.2 3.2 2.4 8.8-0.8 12-1.6 0.8-3.2 1.6-5.6 1.6z" fill="#FFFFFF" opacity=".5" /></svg>