<?xml version="1.0" standalone="no"?><!DOCTYPE svg PUBLIC "-//W3C//DTD SVG 1.1//EN" "http://www.w3.org/Graphics/SVG/1.1/DTD/svg11.dtd"><svg class="icon" width="200px" height="200.00px" viewBox="0 0 1024 1024" version="1.1" xmlns="http://www.w3.org/2000/svg"><path d="M1024 512c0 282.4-229.6 512-512 512S0 794.4 0 512 229.6 0 512 0s512 229.6 512 512" fill="#28A5C6" /><path d="M925.6 693.6c0-3.2-3.2-6.4-8-7.2l-15.2-2.4c-4-0.8-8.8-4.8-8.8-8.8l-2.4-15.2c-0.8-4-4-8-7.2-8s-6.4 3.2-7.2 8l-2.4 15.2c-0.8 4-4.8 8.8-8.8 8.8l-15.2 2.4c-4 0.8-8 4-8 7.2s3.2 6.4 8 7.2l15.2 2.4c4 0.8 8.8 4.8 8.8 8.8l2.4 15.2c0.8 4 4 8 7.2 8s6.4-3.2 7.2-8l2.4-16.8c0.8-4 4.8-8 8.8-8.8l14.4-0.8c4.8-1.6 8.8-4 8.8-7.2zM197.6 419.2c0-3.2-3.2-6.4-8-7.2l-15.2-2.4c-4-0.8-8.8-4.8-8.8-8.8l-2.4-15.2c-0.8-4-4-8-7.2-8s-6.4 3.2-7.2 8l-2.4 15.2c-0.8 4-4.8 8.8-8.8 8.8l-15.2 2.4c-4 0.8-8 4-8 7.2s3.2 6.4 8 7.2l15.2 2.4c4 0.8 8.8 4.8 8.8 8.8l2.4 15.2c0.8 4 4 8 7.2 8s6.4-3.2 7.2-8l2.4-16.8c0.8-4 4.8-8 8.8-8.8l14.4-0.8c4.8-0.8 8.8-4 8.8-7.2zM592 115.2c0-3.2-3.2-6.4-8-7.2l-15.2-2.4c-4-0.8-8.8-4.8-8.8-8.8l-2.4-15.2c-0.8-4-4-8-7.2-8s-6.4 3.2-7.2 8l-2.4 15.2c-0.8 4-4.8 8.8-8.8 8.8l-15.2 2.4c-4 0.8-8 4-8 7.2s3.2 6.4 8 7.2l15.2 2.4c4 0.8 8.8 4.8 8.8 8.8l2.4 15.2c0.8 4 4 8 7.2 8s6.4-3.2 7.2-8l2.4-16.8c0.8-4 4.8-8 8.8-8.8l14.4-0.8c4.8-0.8 8.8-4 8.8-7.2zM160 656c-17.6 0-32-14.4-32-32s14.4-32 32-32 32 14.4 32 32-14.4 32-32 32z m0-48.8c-9.6 0-16.8 8-16.8 16.8 0 9.6 8 16.8 16.8 16.8 9.6 0 16.8-8 16.8-16.8 0-9.6-7.2-16.8-16.8-16.8zM880 496c-17.6 0-32-14.4-32-32s14.4-32 32-32 32 14.4 32 32-14.4 32-32 32z m0-48.8c-9.6 0-16.8 8-16.8 16.8 0 9.6 8 16.8 16.8 16.8 9.6 0 16.8-8 16.8-16.8 0-9.6-7.2-16.8-16.8-16.8zM464 960c-17.6 0-32-14.4-32-32s14.4-32 32-32 32 14.4 32 32-14.4 32-32 32z m0-48.8c-9.6 0-16.8 8-16.8 16.8 0 9.6 8 16.8 16.8 16.8 9.6 0 16.8-8 16.8-16.8 0-9.6-7.2-16.8-16.8-16.8z" fill="#FFFFFF" opacity=".5" /><path d="M750.4 812.8c0 17.6-14.4 32-32 32H296.8c-17.6 0-32-14.4-32-32V271.2c0-17.6 14.4-32 32-32h421.6c17.6 0 32 14.4 32 32v541.6z" fill="#D4D6D6" /><path d="M720 856H296c-22.4 0-40-18.4-40-40V272c0-22.4 18.4-40 40-40h424c22.4 0 40 18.4 40 40v544c0 21.6-18.4 40-40 40zM296 248c-13.6 0-24 11.2-24 24v544c0 13.6 11.2 24 24 24h424c13.6 0 24-11.2 24-24V272c0-13.6-11.2-24-24-24H296z" fill="#0C508E" /><path d="M777.6 787.2c0 17.6-14.4 32-32 32H324c-17.6 0-32-14.4-32-32V245.6c0-17.6 14.4-32 32-32l420 0.8c17.6 0 32 14.4 32 32l1.6 540.8z" fill="#EAEAEA" /><path d="M744 824H328c-22.4 0-40-17.6-40-40V248c0-22.4 17.6-40 40-40h416c22.4 0 40 17.6 40 40v536c0 22.4-17.6 40-40 40zM328 224c-13.6 0-24 10.4-24 24v536c0 13.6 10.4 24 24 24h416c13.6 0 24-10.4 24-24V248c0-13.6-10.4-24-24-24H328z" fill="#0C508E" /><path d="M384.8 320c-38.4 0-64.8-22.4-64.8-55.2V184c0-28 28-48 53.6-48s42.4 19.2 42.4 48v32c0 4.8-3.2 8-8 8s-8-3.2-8-8v-32c0-16-7.2-32-26.4-32-17.6 0-37.6 14.4-37.6 32v80.8c0 28.8 25.6 39.2 48.8 39.2 25.6 0 39.2-23.2 39.2-45.6V177.6c0-4.8 3.2-8 8-8s8 3.2 8 8v80.8c0 36-23.2 61.6-55.2 61.6z" fill="#0C508E" /><path d="M504 424H360c-4.8 0-8-3.2-8-8s3.2-8 8-8h144c4.8 0 8 3.2 8 8s-3.2 8-8 8zM692 424H544c-4.8 0-8-3.2-8-8s4-8 8-8h147.2c4.8 0 8 3.2 8 8s-3.2 8-7.2 8zM515.2 480H360c-4.8 0-8-3.2-8-8s3.2-8 8-8h155.2c4.8 0 8 3.2 8 8s-3.2 8-8 8zM712 480H560c-4 0-8-3.2-8-8s3.2-8 8-8h152c4 0 8 3.2 8 8s-3.2 8-8 8zM440 536H360c-4.8 0-8-3.2-8-8s4-8 8-8h80c4.8 0 8 3.2 8 8s-4 8-8 8zM504 592H360c-4.8 0-8-3.2-8-8s3.2-8 8-8h144c4.8 0 8 3.2 8 8s-3.2 8-8 8zM695.2 592H544.8c-4.8 0-8.8-3.2-8.8-8s4-8 8.8-8H696c4.8 0 8.8 3.2 8.8 8s-4.8 8-9.6 8zM552 536H472c-4.8 0-8-3.2-8-8s4-8 8-8h80c4.8 0 8 3.2 8 8s-4 8-8 8zM664 536H584c-4.8 0-8-3.2-8-8s4-8 8-8h80c4.8 0 8 3.2 8 8s-4 8-8 8zM440 648H360c-4.8 0-8-3.2-8-8s4-8 8-8h80c4.8 0 8 3.2 8 8s-4 8-8 8zM504 704H360c-4.8 0-8-3.2-8-8s3.2-8 8-8h144c4.8 0 8 3.2 8 8s-3.2 8-8 8zM695.2 704H544.8c-4.8 0-8.8-3.2-8.8-8s4-8 8.8-8H696c4.8 0 8.8 3.2 8.8 8s-4.8 8-9.6 8zM552 648h-78.4c-4.8 0-8-3.2-8-8s4-8 8-8H552c4.8 0 8 3.2 8 8s-4 8-8 8zM664 648h-78.4c-4.8 0-8-3.2-8-8s4-8 8-8H664c4.8 0 8 3.2 8 8s-4 8-8 8z" fill="#ADADAD" /><path d="M640 312a32 32 0 1 0 64 0 32 32 0 1 0-64 0Z" fill="#D4D6D6" /><path d="M544 312a32 32 0 1 0 64 0 32 32 0 1 0-64 0Z" fill="#D4D6D6" /><path d="M721.6 256H485.6c-4.8 0-8-3.2-8-8s3.2-8 8-8h236c4.8 0 8 3.2 8 8s-3.2 8-8 8z" fill="#FFFFFF" /></svg>