<?xml version="1.0" standalone="no"?><!DOCTYPE svg PUBLIC "-//W3C//DTD SVG 1.1//EN" "http://www.w3.org/Graphics/SVG/1.1/DTD/svg11.dtd"><svg class="icon" width="200px" height="200.00px" viewBox="0 0 1024 1024" version="1.1" xmlns="http://www.w3.org/2000/svg"><path d="M511.998969 511.998969m-511.998969 0a511.998969 511.998969 0 1 0 1023.997938 0 511.998969 511.998969 0 1 0-1023.997938 0Z" fill="#E1E6E9" /><path d="M142.399082 206.4005h657.599049v100.800531H142.399082z" fill="#FFFFFF" /><path d="M800.000193 321.599339H142.399082a14.340558 14.340558 0 0 1-14.400371-14.40037v-100.800532a14.340558 14.340558 0 0 1 14.400371-14.400371h657.599049a14.340558 14.340558 0 0 1 14.40037 14.400371v100.800532a14.336433 14.336433 0 0 1-14.398308 14.40037zM156.799452 292.800661h628.800371v-71.999791H156.799452v71.999791z" fill="#193651" /><path d="M644.799178 153.600516h60.800419v102.398968H644.799178z" fill="#FFFFFF" /><path d="M703.999098 272.000354h-60.800419a14.340558 14.340558 0 0 1-14.400371-14.40037V155.198953a14.340558 14.340558 0 0 1 14.400371-14.400371h60.800419a14.340558 14.340558 0 0 1 14.40037 14.400371v102.398968a14.340558 14.340558 0 0 1-14.40037 14.402433z m-46.400049-28.800741h31.999678V169.599323h-31.999678v73.60029z" fill="#193651" /><path d="M240.000677 153.600516h60.800419v102.398968h-60.800419z" fill="#FFFFFF" /><path d="M299.200596 272.000354h-59.199919a14.340558 14.340558 0 0 1-14.400371-14.40037V155.198953a14.340558 14.340558 0 0 1 14.400371-14.400371h60.800419a14.340558 14.340558 0 0 1 14.40037 14.400371v102.398968c-1.602562 8.002498-8.002498 14.402433-16.00087 14.402433z m-46.400048-28.800741h31.999678V169.599323H252.800548v73.60029z" fill="#193651" /><path d="M800.000193 307.198969H142.399082v480.001353h417.600435l240.000676-241.601176z" fill="#FFFFFF" /><path d="M559.999517 801.600693H143.999581a14.340558 14.340558 0 0 1-14.400371-14.400371V307.198969a14.340558 14.340558 0 0 1 14.400371-14.400371h656.000612a14.340558 14.340558 0 0 1 14.400371 14.400371v240.000677c0 3.200999-1.6005 8.000435-4.799436 9.600934L569.600451 796.799194c-3.200999 3.200999-6.399936 4.801499-9.600934 4.801499zM156.799452 772.799952h396.800129l232.000242-232.000242V321.599339H156.799452v451.200613z" fill="#193651" /><path d="M483.20029 822.398937L447.999613 950.39971c-3.200999 9.600935 6.399936 19.199807 16.00087 16.00087l129.599211-35.200677 310.399968-310.399967-110.399404-108.800967-310.399968 310.399968z" fill="#FFFFFF" /><path d="M460.799484 980.798888c-8.000435 0-16.00087-4.799436-22.400805-11.199371-4.799436-6.399936-6.399936-16.00087-4.799436-23.999243l36.799113-132.80021L791.999758 491.200725l129.599211 129.599211-319.99884 323.199838-132.80021 36.799114h-8.000435z m35.200677-152.000016l-33.600177 123.199275 123.199275-33.600177 297.600096-297.600097-89.599097-89.599098-297.600097 297.600097z" fill="#193651" /><path d="M863.541674 601.428941l-300.939283 300.939284-49.780485-49.780485 300.939283-300.939283z" fill="#4FBF9F" /><path d="M483.20029 822.398937L447.999613 950.39971c-3.200999 9.600935 6.399936 19.199807 16.00087 16.00087l128.000774-35.200677" fill="#FDBF5E" /><path d="M441.599678 972.800516c-6.399936-6.399936-9.600935-17.599307-6.399936-27.200242l35.200677-128.000774 27.200242 8.000436-35.200677 126.400273 126.400274-35.200676 8.000435 27.200241-128.000774 35.200677c-9.600935 3.198937-19.199807 1.598437-27.200241-6.399935z" fill="#193651" /><path d="M945.600274 536.000274l-65.599855-65.599855c-12.799871-12.799871-31.999678-12.799871-43.199049 0l-43.19905 41.600612 110.399404 110.399404 41.600612-41.600612c11.197309-12.799871 11.197309-31.999678-0.002062-44.799549z" fill="#F16051" /><path d="M903.999662 641.600242l-131.19971-129.599211 51.199484-51.199484c17.599307-17.599307 46.400048-17.599307 63.999356 0l65.599854 65.599855c8.000435 8.000435 12.799871 19.199807 12.799872 31.999678s-4.799436 23.999243-12.799872 31.999677l-49.598984 51.199485z m-91.199598-129.601273l89.599098 89.599097 31.999678-31.999677c3.200999-3.200999 4.799436-8.000435 4.799436-11.199372 0-4.799436-1.6005-8.000435-4.799436-11.199371l-65.599855-67.200355c-6.399936-6.399936-17.599307-6.399936-23.999243 0l-31.999678 31.999678zM459.198985 913.600596l-11.199372 36.799114c-3.200999 9.600935 6.399936 19.199807 16.00087 16.00087l36.799114-9.600934-41.600612-43.19905z" fill="#193651" /><path d="M460.799484 980.798888c-8.000435 0-16.00087-4.799436-22.400805-11.199371-4.799436-6.399936-6.399936-16.00087-4.799436-23.999243l16.00087-60.800419 76.799226 76.799227-60.800419 16.00087c0 3.198937-1.598437 3.198937-4.799436 3.198936z m4.799436-40.000113l-3.200999 11.199372 11.199372-3.200999-7.998373-7.998373z" fill="#193651" /><path d="M446.399114 358.400516h51.199484v51.199484h-51.199484z" fill="#2EA2DB" /><path d="M529.600338 358.400516H580.799823v51.199484h-51.199485z" fill="#F16051" /><path d="M612.7995 358.400516h51.199485v51.199484h-51.199485zM697.599162 358.400516h51.199484v51.199484H697.599162zM195.199065 439.999178h51.199485v51.199485H195.199065zM278.40029 439.999178h51.199484v51.199485h-51.199484zM363.199952 439.999178h51.199484v51.199485h-51.199484zM446.399114 439.999178h51.199484v51.199485h-51.199484zM529.600338 439.999178H580.799823v51.199485h-51.199485zM612.7995 439.999178h51.199485v51.199485h-51.199485zM697.599162 439.999178h51.199484v51.199485H697.599162zM195.199065 521.599903h51.199485v51.199485H195.199065zM278.40029 521.599903h51.199484v51.199485h-51.199484zM363.199952 521.599903h51.199484v51.199485h-51.199484zM446.399114 521.599903h51.199484v51.199485h-51.199484z" fill="#2EA2DB" /><path d="M529.600338 521.599903H580.799823v51.199485h-51.199485z" fill="#F16051" /><path d="M612.7995 521.599903h51.199485v51.199485h-51.199485z" fill="#2EA2DB" /><path d="M195.199065 603.200628h51.199485v51.199485H195.199065z" fill="#F16051" /><path d="M278.40029 603.200628h51.199484v51.199485h-51.199484zM363.199952 603.200628h51.199484v51.199485h-51.199484zM446.399114 603.200628h51.199484v51.199485h-51.199484zM529.600338 603.200628H580.799823v51.199485h-51.199485zM195.199065 683.200854h51.199485v51.199484H195.199065zM278.40029 683.200854h51.199484v51.199484h-51.199484zM363.199952 683.200854h51.199484v51.199484h-51.199484z" fill="#2EA2DB" /><path d="M770.811702 662.231423l-20.367181 20.360994-18.098432-18.10462 20.367181-20.360994zM719.750405 712.892595l-20.358931 20.365119-18.104619-18.098432 20.360993-20.367182zM669.697671 762.341017l-20.369244 20.356869-18.09637-18.104619 20.369244-20.356869z" fill="#193651" /></svg>