<?xml version="1.0" standalone="no"?><!DOCTYPE svg PUBLIC "-//W3C//DTD SVG 1.1//EN" "http://www.w3.org/Graphics/SVG/1.1/DTD/svg11.dtd"><svg class="icon" width="200px" height="200.00px" viewBox="0 0 1024 1024" version="1.1" xmlns="http://www.w3.org/2000/svg"><path d="M469.533795 512.001033m-469.533795 0a469.533795 469.533795 0 1 0 939.06759 0 469.533795 469.533795 0 1 0-939.06759 0Z" fill="#4FBF9F" /><path d="M192.300693 169.063317h552.8632v658.628478H192.300693z" fill="#FDBF5E" /><path d="M745.163893 840.513769H192.300693c-8.012959 0-12.819908-6.409954-12.819909-12.819908V169.063317c0-8.012959 6.409954-12.819908 12.819909-12.819908h552.8632c8.012959 0 12.819908 6.409954 12.819908 12.819908v658.628478c1.603005 8.015025-4.806949 12.821974-12.819908 12.821974z m-538.440287-25.639817h525.620378V183.486231H206.723606v631.387721z" fill="#193651" /><path d="M245.39197 221.466707h447.097922v552.8632H245.39197z" fill="#FFFFFF" /><path d="M632.988661 221.945956H306.078929l62.496538-105.765277h201.916656z" fill="#E1E6E9" /><path d="M632.988661 236.36887H306.078929c-4.806949 0-9.615964-3.20601-11.216903-6.409955-1.603005-4.806949-1.603005-9.615964 0-12.819908l62.498603-105.765278c1.603005-4.806949 6.409954-6.409954 11.216903-6.409954h201.914591c4.806949 0 9.615964 3.20601 11.216904 6.409954l60.895598 104.162273c1.603005 1.603005 3.20601 4.806949 3.20601 8.012959-0.002066 6.409954-4.809015 12.819908-12.821974 12.819909zM328.512736 209.126048h280.439113l-46.472685-80.125461h-185.890738l-48.07569 80.125461zM632.988661 302.071417H306.078929c-8.012959 0-12.819908-6.409954-12.819908-12.819909s6.409954-12.819908 12.819908-12.819908h326.911797c8.012959 0 12.819908 6.409954 12.819909 12.819908s-4.809015 12.819908-12.821974 12.819909zM632.988661 380.593873H306.078929c-8.012959 0-12.819908-6.409954-12.819908-12.819909 0-8.012959 6.409954-12.819908 12.819908-12.819908h326.911797c8.012959 0 12.819908 6.409954 12.819909 12.819908-0.002066 8.012959-4.809015 12.819908-12.821974 12.819909zM632.988661 459.118394H306.078929c-8.012959 0-12.819908-6.409954-12.819908-12.819908 0-8.012959 6.409954-12.819908 12.819908-12.819909h326.911797c8.012959 0 12.819908 6.409954 12.819909 12.819909-0.002066 8.010893-4.809015 12.819908-12.821974 12.819908zM293.259021 512.001033h27.242822v27.242822h-27.242822zM363.768517 512.001033h27.242822v27.242822h-27.242822zM435.881019 512.001033h27.242822v27.242822h-27.242822z" fill="#193651" /><path d="M1007.593988 401.321388l-54.390621 54.39062-47.590243-47.594374 54.39062-54.390621z" fill="#FFFFFF" /><path d="M953.490504 468.732293c-3.20601 0-6.409954-1.603005-9.615965-3.20601l-46.472684-46.472685c-3.20601-3.20601-3.20601-6.409954-3.20601-9.615964s1.603005-6.409954 3.20601-9.615964l54.485644-54.485644c4.806949-4.806949 12.819908-4.806949 19.229862 0l46.472685 46.472684c3.203944 3.20601 3.203944 6.409954 3.203944 9.615965s-1.603005 6.409954-3.203944 9.615964l-54.485644 54.485644c-3.203944 1.603005-6.409954 3.20601-9.613898 3.20601z m-28.845827-60.895598l28.845827 28.845826 35.255781-35.255781-28.845827-28.845827-35.255781 35.255782z" fill="#193651" /><path d="M535.236342 914.229276l-96.149313 9.613898 8.010893-96.149313 302.874985-302.87292 86.53335 86.535415z" fill="#FFFFFF" /><path d="M439.087029 936.663083c-3.20601 0-6.409954-1.603005-9.615964-3.20601-3.20601-3.20601-4.806949-6.409954-3.20601-11.216904l8.012959-96.149313c0-3.20601 1.603005-6.409954 3.20601-8.012959L740.356943 515.204977c4.806949-4.806949 12.819908-4.806949 19.229863 0l88.13842 88.13842c3.20601 3.20601 3.20601 6.409954 3.20601 9.615964s-1.603005 6.409954-3.20601 9.615964L543.249302 923.843174c-1.603005 1.603005-4.806949 3.20601-8.01296 3.20601l-96.149313 9.613899z m20.830802-104.162273l-6.409954 75.318511L528.826388 901.409367l290.053011-290.053011-68.908557-68.908557-290.053011 290.053011z" fill="#193651" /><path d="M741.959948 593.727433L491.969668 843.717713l-4.809015 30.448832 30.448832-4.809015 249.99028-248.387275z" fill="#F16051" /><path d="M973.464028 475.214547l-135.974485 135.974485-87.250157-87.250157 135.974485-135.974485z" fill="#FFFFFF" /><path d="M836.506257 625.777204c-3.20601 0-6.409954-1.603005-9.615965-3.20601l-88.138419-88.13842c-4.806949-4.806949-4.806949-12.819908 0-19.229863l136.212043-136.212043c4.806949-4.806949 14.422913-4.806949 19.229863 0l88.13842 88.13842c4.806949 4.806949 4.806949 12.819908 0 19.229862l-136.209978 136.21411c-1.603005 1.603005-4.806949 3.203944-9.615964 3.203944z m-68.906492-100.956263l68.908557 68.908558 116.982182-116.982182-68.908558-68.908557-116.982181 116.982181z" fill="#193651" /><path d="M903.196222 484.278962l-57.788743 57.788743-26.063291-26.061225 57.788743-57.788743z" fill="#F16051" /><path d="M831.699307 694.685761c-4.806949-4.806949-4.806949-12.819908 0-19.229862l161.853927-160.250922-30.446766-30.446766c-4.806949-4.806949-4.806949-12.819908 0-19.229863 4.806949-4.806949 12.819908-4.806949 19.229862 0l38.459726 38.459726c3.203944 3.20601 3.203944 6.409954 3.203944 9.615964s-1.603005 6.409954-3.203944 9.615964l-169.86482 171.467825c-4.809015 6.407888-14.424979 6.407888-19.231929-0.002066zM415.048151 946.279047c-4.806949-4.806949-4.806949-12.819908 0-19.229863l14.422914-14.422913c4.806949-4.806949 12.819908-4.806949 19.229862 0 4.806949 4.806949 4.806949 12.819908 0 19.229862l-14.422913 14.422914c-4.806949 4.806949-14.422913 4.806949-19.229863 0z" fill="#193651" /></svg>