<?xml version="1.0" standalone="no"?><!DOCTYPE svg PUBLIC "-//W3C//DTD SVG 1.1//EN" "http://www.w3.org/Graphics/SVG/1.1/DTD/svg11.dtd"><svg class="icon" width="200px" height="200.00px" viewBox="0 0 1024 1024" version="1.1" xmlns="http://www.w3.org/2000/svg"><path d="M511.998969 511.998969m-511.998969 0a511.998969 511.998969 0 1 0 1023.997938 0 511.998969 511.998969 0 1 0-1023.997938 0Z" fill="#2EA2DB" /><path d="M92.800097 92.800097h504.000596v756.799081H92.800097z" fill="#FFFFFF" /><path d="M596.800693 863.999549H92.800097c-6.399936 0-12.799871-6.399936-12.799871-14.400371V92.800097c0-6.399936 6.399936-12.799871 12.799871-12.799871h504.000596c8.000435 0 12.799871 6.399936 12.799871 12.799871v756.799081c0 8.000435-6.399936 14.400371-12.799871 14.400371zM107.200467 836.799307h476.800355V107.200467H107.200467v729.59884z" fill="#193651" /><path d="M160.000451 160.000451H664.001047v756.799082H160.000451z" fill="#E1E6E9" /><path d="M663.998985 931.199903H160.000451c-8.000435 0-12.799871-6.399936-12.799871-12.799871V160.000451c0-8.000435 6.399936-12.799871 12.799871-12.799871H664.001047c8.000435 0 12.799871 6.399936 12.799871 12.799871v756.799082c-0.002062 8.000435-4.801499 14.400371-12.801933 14.40037zM174.400822 903.999662h476.800354V174.400822H174.400822v729.59884z" fill="#193651" /><path d="M215.359997 214.640184h395.199629V862.640362H215.359997z" fill="#FFFFFF" /><path d="M783.999323 812.800064l73.60029 97.599533 73.60029-97.599533v-633.599806h-147.20058z" fill="#FDBF5E" /><path d="M857.599613 932.800403l-86.400161-116.79934V164.799887h172.800322v651.199114l-86.400161 116.801402z m-60.800419-124.799775l59.19992 80.000226 59.199919-80.000226V193.600628h-120.000338l1.600499 614.4z" fill="#193651" /><path d="M820.8005 800.000193l36.799113 40.000113 36.799114-40.000113V179.200258h-73.598227z" fill="#FFFFFF" /><path d="M815.999001 92.800097H897.599726v86.400161h-81.600725z" fill="#E1E6E9" /><path d="M803.19913 80.000226v113.600402h108.798904V80.000226H803.19913z m81.600725 86.400161h-54.400483V107.200467h54.400483v59.19992zM715.200532 496.000161c-8.000435 0-12.799871-6.399936-12.799871-12.799871V262.39942c0-8.000435 6.399936-12.799871 12.799871-12.799871h68.800854c8.000435 0 12.799871 6.399936 12.799871 12.799871 0 8.000435-6.399936 12.799871-12.799871 12.799871H728.000403v206.4005c0 8.000435-4.801499 14.400371-12.799871 14.40037zM857.599613 943.999774c-8.000435 0-12.799871-6.399936-12.799871-12.799871v-20.800306c0-8.000435 6.399936-12.799871 12.799871-12.799871 8.000435 0 12.799871 6.399936 12.799871 12.799871v20.800306c0 6.399936-4.799436 12.799871-12.799871 12.799871zM292.800661 344.000145c-3.200999 0-6.399936-1.6005-9.600935-3.200999l-28.800741-28.800741c-4.799436-4.799436-4.799436-14.400371 0-19.199807 4.799436-4.799436 14.400371-4.799436 19.199807 0l19.199806 19.199807 49.598985-49.598985c4.799436-4.799436 14.400371-4.799436 19.199807 0 4.799436 4.799436 4.799436 14.400371 0 19.199807l-59.19992 59.199919c-3.196874 1.6005-6.397873 3.200999-9.596809 3.200999zM292.800661 462.399984c-3.200999 0-6.399936-1.6005-9.600935-3.200999l-28.800741-28.800741c-4.799436-4.799436-4.799436-14.400371 0-19.199807 4.799436-4.799436 14.400371-4.799436 19.199807 0l19.199806 19.199807 49.598985-49.598985c4.799436-4.799436 14.400371-4.799436 19.199807 0 4.799436 4.799436 4.799436 14.400371 0 19.199806l-59.19992 59.19992c-3.196874 3.200999-6.397873 3.200999-9.596809 3.200999zM292.800661 582.400322c-3.200999 0-6.399936-1.6005-9.600935-3.200999l-28.800741-28.800741c-4.799436-4.799436-4.799436-14.400371 0-19.199807 4.799436-4.799436 14.400371-4.799436 19.199807 0l19.199806 19.199807 49.598985-49.598985c4.799436-4.799436 14.400371-4.799436 19.199807 0s4.799436 14.400371 0 19.199807l-59.19992 59.199919c-3.196874 1.6005-6.397873 3.200999-9.596809 3.200999zM292.800661 700.800161c-3.200999 0-6.399936-1.6005-9.600935-3.200999l-28.800741-28.800741c-4.799436-4.799436-4.799436-14.400371 0-19.199807 4.799436-4.799436 14.400371-4.799436 19.199807 0l19.199806 19.199807 49.598985-49.598985c4.799436-4.799436 14.400371-4.799436 19.199807 0s4.799436 14.400371 0 19.199807l-59.19992 59.199919c-3.196874 1.6005-6.397873 3.200999-9.596809 3.200999zM292.800661 820.8005c-3.200999 0-6.399936-1.6005-9.600935-3.201l-28.800741-28.800741c-4.799436-4.799436-4.799436-14.400371 0-19.199806 4.799436-4.799436 14.400371-4.799436 19.199807 0l19.199806 19.199806 49.598985-49.598985c4.799436-4.799436 14.400371-4.799436 19.199807 0s4.799436 14.400371 0 19.199807l-59.19992 57.59942c-3.196874 3.200999-6.397873 4.801499-9.596809 4.801499zM566.399452 315.199404h-153.600515c-8.000435 0-12.799871-6.399936-12.799872-12.799871 0-8.000435 6.399936-12.799871 12.799872-12.799871h153.600515c8.000435 0 12.799871 6.399936 12.799871 12.799871s-6.399936 12.799871-12.799871 12.799871zM566.399452 433.599243h-153.600515c-8.000435 0-12.799871-6.399936-12.799872-12.799871 0-8.000435 6.399936-12.799871 12.799872-12.799872h153.600515c8.000435 0 12.799871 6.399936 12.799871 12.799872s-6.399936 12.799871-12.799871 12.799871zM566.399452 551.999082h-153.600515c-8.000435 0-12.799871-6.399936-12.799872-12.799872 0-8.000435 6.399936-12.799871 12.799872-12.799871h153.600515c8.000435 0 12.799871 6.399936 12.799871 12.799871 0 8.000435-6.399936 12.799871-12.799871 12.799872zM566.399452 671.99942h-153.600515c-8.000435 0-12.799871-6.399936-12.799872-12.799871 0-8.000435 6.399936-12.799871 12.799872-12.799871h153.600515c8.000435 0 12.799871 6.399936 12.799871 12.799871s-6.399936 12.799871-12.799871 12.799871zM566.399452 790.399259h-153.600515c-8.000435 0-12.799871-6.399936-12.799872-12.799871 0-8.000435 6.399936-12.799871 12.799872-12.799871h153.600515c8.000435 0 12.799871 6.399936 12.799871 12.799871s-6.399936 12.799871-12.799871 12.799871z" fill="#193651" /><path d="M843.199243 415.999936h27.200241v27.200241h-27.200241zM843.199243 487.999726h27.200241v27.200242h-27.200241zM843.199243 561.600016h27.200241v27.200242h-27.200241z" fill="#193651" /></svg>