<?xml version="1.0" standalone="no"?><!DOCTYPE svg PUBLIC "-//W3C//DTD SVG 1.1//EN" "http://www.w3.org/Graphics/SVG/1.1/DTD/svg11.dtd"><svg class="icon" width="200px" height="200.00px" viewBox="0 0 1024 1024" version="1.1" xmlns="http://www.w3.org/2000/svg"><path d="M975.635099 553.69503c0 256.834675-208.469773 463.636174-463.636174 463.636173s-463.634024-206.803649-463.634024-463.636173c0-216.806844 168.444093-463.636174 463.636174-463.636174 256.832525 0 463.634024 208.469773 463.634024 463.636174z" fill="#FDBF5E" /><path d="M224.94828 378.904616l-16.674142 28.88737-28.889521-16.674142 16.674142-28.88737zM303.099184 423.702936l-16.674142 28.887371-28.88952-16.674142 16.674142-28.887371zM381.265138 468.499107l-16.671993 28.88737-28.88952-16.674142 16.674142-28.88737zM493.654359 877.239172h33.354734v33.354733h-33.354734zM493.654359 787.180316h33.354734v33.354733h-33.354734zM493.654359 697.12146h33.354734v33.354733h-33.354734zM820.141629 378.233866l-28.889521 16.674142-16.674142-28.88737 28.887371-16.674143zM741.773591 423.397659L712.88622 440.071801l-16.674142-28.88952 28.887371-16.674142z" fill="#193651" /><path d="M664.869593 467.735914l-28.89812 16.663393-16.665543-28.89597 28.89812-16.665543zM505.330128 580.378817c-11.673619 0-20.01284-8.339221-20.01284-20.012841v-138.423757c0-11.673619 8.339221-20.01284 20.01284-20.01284s20.01284 8.339221 20.01284 20.01284v138.423757c0 10.005345-8.339221 20.01284-20.01284 20.012841z" fill="#193651" /><path d="M355.230602 680.443018c-6.670947-8.339221-5.002673-21.681114 3.336548-28.352061l133.421085-108.403422c8.339221-6.670947 21.681114-5.002673 28.352061 3.336548s5.002673 21.681114-3.336548 28.352061l-133.421085 108.403422c-8.339221 6.670947-20.01284 5.002673-28.352061-3.336548z" fill="#193651" /><path d="M640.417337 683.779566l-146.762978-108.403422c-8.339221-6.670947-11.673619-20.01284-5.002673-28.352061s20.01284-11.673619 28.352062-5.002673l146.762978 108.403422c8.339221 6.670947 11.673619 20.01284 5.002672 28.352061-6.670947 10.005345-18.346716 11.673619-28.352061 5.002673z" fill="#193651" /><path d="M505.330128 223.479941m-196.794004 0a196.794004 196.794004 0 1 0 393.588008 0 196.794004 196.794004 0 1 0-393.588008 0Z" fill="#4FBF9F" /><path d="M505.330128 440.286785c-120.079191 0-216.806844-98.398077-216.806844-216.806844S386.919211 6.670947 505.330128 6.670947c120.079191 0 216.806844 98.398077 216.806844 216.806844S625.40717 440.286785 505.330128 440.286785z m0-393.590158c-98.398077 0-176.781164 78.385237-176.781164 176.781164s80.051361 176.781164 176.781164 176.781164c98.398077 0 176.781164-80.051361 176.781164-176.781164 0-98.395927-78.385237-176.781164-176.781164-176.781164z" fill="#193651" /><path d="M637.080789 223.479941c0 31.68646-10.007495 60.038521-28.352061 81.719635-23.349389 30.020335-61.706795 50.033176-103.40075 50.033175s-78.385237-20.01284-103.400749-50.033175c-18.344566-21.681114-28.352061-51.6993-28.352061-81.719635 0-73.380414 58.372396-131.752811 131.75281-131.752811s131.752811 58.370247 131.752811 131.752811z" fill="#FFFFFF" /><path d="M505.330128 183.45211m-58.372396 0a58.372396 58.372396 0 1 0 116.744793 0 58.372396 58.372396 0 1 0-116.744793 0Z" fill="#E1E6E9" /><path d="M608.730878 295.192081v10.007495c-23.349389 30.020335-61.706795 50.033176-103.40075 50.033175s-78.385237-20.01284-103.400749-50.033175v-10.007495c0-21.681114 13.341893-41.693955 33.354733-50.033176 16.678442 20.01284 41.693955 31.68646 70.046016 31.68646 28.352061 0 53.367574-11.673619 70.046016-31.68646 20.01069 8.339221 33.354734 26.683787 33.354734 50.033176z" fill="#E1E6E9" /><path d="M216.806844 790.514714m-196.794004 0a196.794004 196.794004 0 1 0 393.588008 0 196.794004 196.794004 0 1 0-393.588008 0Z" fill="#2EA2DB" /><path d="M216.806844 1008.989832C96.729803 1008.989832 0 910.593905 0 792.182988c0-120.079191 98.398077-216.806844 216.806844-216.806844 120.079191 0 216.806844 98.398077 216.806844 216.806844 1.670424 118.410917-96.727653 216.806844-216.806844 216.806844z m0-395.256282c-98.398077 0-176.781164 80.051361-176.781164 176.781164 0 98.398077 80.051361 176.781164 176.781164 176.781164 98.398077 0 176.781164-80.051361 176.781164-176.781164 1.670424-96.729803-78.383087-176.781164-176.781164-176.781164z" fill="#193651" /><path d="M348.559655 790.514714c0 31.68646-10.007495 60.038521-28.352061 81.719635-23.349389 30.020335-61.706795 50.033176-103.40075 50.033176s-78.385237-20.01284-103.400749-50.033176c-18.344566-21.681114-28.352061-51.6993-28.352061-81.719635 0-73.380414 58.372396-131.752811 131.75281-131.752811s131.752811 60.040671 131.752811 131.752811z" fill="#FFFFFF" /><path d="M216.806844 750.489034m-58.372396 0a58.372396 58.372396 0 1 0 116.744793 0 58.372396 58.372396 0 1 0-116.744793 0Z" fill="#E1E6E9" /><path d="M320.207594 862.229004v10.007495c-23.349389 30.020335-61.706795 50.033176-103.40075 50.033175s-78.385237-20.01284-103.400749-50.033175v-10.007495c0-21.681114 13.341893-41.693955 33.354733-50.033176 16.678442 20.01284 41.693955 31.68646 70.046016 31.68646s53.367574-11.673619 70.046016-31.68646c20.01284 8.339221 33.354734 28.352061 33.354734 50.033176z" fill="#E1E6E9" /><path d="M807.193156 790.514714m-196.794004 0a196.794004 196.794004 0 1 0 393.588008 0 196.794004 196.794004 0 1 0-393.588008 0Z" fill="#F16051" /><path d="M807.193156 1008.989832c-120.079191 0-216.806844-98.398077-216.806844-216.806844 0-120.079191 98.398077-216.806844 216.806844-216.806844 120.079191 0 216.806844 98.398077 216.806844 216.806844s-96.729803 216.806844-216.806844 216.806844z m0-395.256282c-98.398077 0-176.781164 80.051361-176.781164 176.781164 0 98.398077 80.051361 176.781164 176.781164 176.781164 98.398077 0 176.781164-80.051361 176.781164-176.781164 0-96.729803-80.051361-176.781164-176.781164-176.781164z" fill="#193651" /><path d="M937.277692 790.514714c0 31.68646-10.007495 60.038521-28.352061 81.719635-23.349389 30.020335-61.706795 50.033176-103.400749 50.033176-41.693955 0-78.385237-20.01284-103.40075-50.033176-18.344566-21.681114-28.352061-51.6993-28.352061-81.719635 0-73.380414 58.372396-131.752811 131.752811-131.752811s131.752811 60.040671 131.75281 131.752811z" fill="#FFFFFF" /><path d="M807.193156 750.489034m-58.372397 0a58.372396 58.372396 0 1 0 116.744793 0 58.372396 58.372396 0 1 0-116.744793 0Z" fill="#E1E6E9" /><path d="M908.925631 862.229004v10.007495c-23.349389 30.020335-61.706795 50.033176-103.400749 50.033175-41.693955 0-78.385237-20.01284-103.40075-50.033175v-10.007495c0-21.681114 13.341893-41.693955 33.354734-50.033176 16.678442 20.01284 41.693955 31.68646 70.046016 31.68646 28.352061 0 53.367574-11.673619 70.046015-31.68646 20.01284 8.339221 33.354734 28.352061 33.354734 50.033176z" fill="#E1E6E9" /></svg>