<?xml version="1.0" standalone="no"?><!DOCTYPE svg PUBLIC "-//W3C//DTD SVG 1.1//EN" "http://www.w3.org/Graphics/SVG/1.1/DTD/svg11.dtd"><svg class="icon" width="200px" height="200.00px" viewBox="0 0 1024 1024" version="1.1" xmlns="http://www.w3.org/2000/svg"><path d="M103.355151 548.568354l408.644849 103.355151 408.644849-103.355151-408.644849-65.192146z" fill="#FFFFFF" /><path d="M512 667.822879h-3.181105l-410.233351-104.943654c-7.950712-1.590552-12.720319-7.950712-12.720319-15.901423s6.360159-14.310871 12.720319-14.310871l408.644849-65.192146h4.769607l408.644849 65.192146c7.950712 1.590552 12.720319 7.950712 12.720318 14.310871 0 7.950712-4.769607 14.310871-12.720318 15.901423l-408.644849 103.353102c3.179055 1.590552 1.590552 1.590552 0 1.590552z m-330.732385-116.07342l330.732385 84.272623 330.732385-84.272623-330.732385-52.471827-330.732385 52.471827z" fill="#193651" /><path d="M407.056346 535.848035c12.720319 6.360159 20.67103 20.67103 20.67103 34.981902v90.632782h168.545248v-90.632782c0-14.310871 7.950712-27.03119 20.67103-34.981902 66.782698-36.570404 112.894365-108.122709 112.894365-190.806829 0-128.793739-111.303813-232.14889-243.278656-216.247467-101.762549 11.129766-182.856118 93.813887-192.397382 195.576437-7.950712 90.634833 39.751508 170.137849 112.894365 211.477859z" fill="#FFFFFF" /><path d="M596.272624 677.364143h-168.545248c-9.541264 0-15.901423-6.360159-15.901423-15.901424v-90.632782c0-7.950712-4.769607-15.901423-12.720318-20.671031-81.093569-44.521115-128.793739-135.153898-119.254525-227.377233 9.541264-109.713261 96.992942-198.757541 206.706203-209.887308 9.541264-1.590552 17.489926-1.590552 27.03119-1.590552 128.793739 0 233.737393 104.943654 233.737392 233.737393 0 85.863176-46.111668 163.77564-120.845077 205.1177-7.950712 4.769607-12.720319 12.720319-12.720318 20.671031v90.632782c-1.586453 7.950712-7.946612 15.901423-17.487876 15.901424z m-152.645874-31.800797h136.74445v-74.733409c0-20.67103 11.129766-38.160956 28.621742-49.290723 65.192146-34.981901 104.943654-103.353102 104.943654-176.495959 0-111.303813-90.632783-201.936596-201.936596-201.936596-7.950712 0-15.901423 0-23.850085 1.590553-93.813887 11.129766-170.135799 87.453728-178.086511 181.265565-7.950712 81.093569 33.391349 157.415481 103.353102 197.166989 17.489926 9.541264 28.621742 28.621742 28.621741 49.290723v73.142857h1.588503z" fill="#193651" /><path d="M512 1008.094477l-408.644849-103.353101v-356.173022l408.644849 103.355151z" fill="#FFFFFF" /><path d="M512 1023.995901h-3.181105L98.585544 920.642799c-6.360159-1.590552-12.720319-7.950712-12.720319-15.901423v-356.173022c0-4.769607 1.590552-9.541264 6.36016-12.720319 3.181105-3.181105 9.541264-4.769607 14.310871-3.181104l408.644849 103.353101c6.360159 1.590552 12.720319 7.950712 12.720318 15.901424v356.173021c0 4.769607-1.590552 9.541264-6.360159 12.720319-3.181105 3.181105-6.362209 3.181105-9.541264 3.181105zM119.256574 892.021057l376.844053 96.992942V664.643824L119.256574 569.239384V892.021057z" fill="#193651" /><path d="M166.958794 855.450654V629.661923l281.439613 71.552305v225.78873z" fill="#F16051" /><path d="M512 1008.094477l408.644849-103.353101v-356.173022l-408.644849 103.355151z" fill="#FFFFFF" /><path d="M512 1023.995901c-3.181105 0-6.360159-1.590552-9.541264-3.179055-3.181105-3.179055-6.360159-7.950712-6.360159-12.720319v-356.173022c0-7.950712 4.769607-14.310871 12.720318-15.901423l408.644849-103.353101c4.769607-1.590552 9.541264 0 14.310871 3.181104 3.181105 3.181105 6.360159 7.950712 6.36016 12.720319v356.173022c0 7.950712-4.769607 14.310871-12.720319 15.901423l-408.644849 103.353101-4.769607-0.002049z m15.899373-359.352077v324.372225l376.844053-95.40239v-325.960728l-376.844053 96.990893z" fill="#193651" /><path d="M575.601593 701.214228L857.041206 629.661923v225.788731l-281.439613 71.552304z" fill="#F16051" /><path d="M596.272624 755.276607l408.644848-103.353102-84.272623-103.355151-408.644849 103.355151z" fill="#E1E6E9" /><path d="M596.272624 771.17598c-4.769607 0-9.541264-1.590552-12.720319-6.360159l-84.272624-103.353102c-3.181105-4.769607-4.769607-9.541264-3.181104-14.31087 1.590552-4.769607 6.360159-9.541264 11.129766-11.129767l408.644849-103.353101c6.360159-1.590552 12.720319 0 15.901423 4.769607l84.272624 103.353101c3.181105 4.769607 4.769607 9.541264 3.181104 14.310871-1.590552 4.769607-6.360159 9.541264-11.129766 11.129767l-408.644849 103.353101c0 1.590552-1.590552 1.590552-3.181104 1.590552z m-55.650882-109.713261l62.013091 76.321912 375.253499-95.40239-62.01309-76.321912-375.2535 95.40239z" fill="#193651" /><path d="M427.727376 755.276607L19.082528 651.923505l84.272623-103.355151 408.644849 103.355151z" fill="#E1E6E9" /><path d="M427.727376 771.17598h-3.181104L15.903473 667.822879c-4.769607-1.590552-9.541264-4.769607-11.129767-11.129767-1.590552-4.769607 0-11.129766 3.181105-14.310871l84.272623-103.353101c3.181105-4.769607 9.541264-6.360159 15.901424-4.769607l408.644848 103.353101c4.769607 1.590552 9.541264 4.769607 11.129767 11.129767 1.590552 4.769607 0 11.129766-3.181105 14.310871l-84.272623 103.353101c-3.183154 3.181105-7.952761 4.769607-12.722369 4.769607zM47.70427 642.382241l375.253499 95.40239 62.013091-76.321912-375.255549-95.40239-62.011041 76.321912z" fill="#193651" /><path d="M512 348.22231m-168.545247 0a168.545247 168.545247 0 1 0 337.090494 0 168.545247 168.545247 0 1 0-337.090494 0Z" fill="#FDBF5E" /><path d="M845.911439 364.121684h-36.570403c-9.541264 0-15.901423-6.360159-15.901424-15.901423 0-9.541264 6.360159-15.901423 15.901424-15.901424h36.570403c9.541264 0 15.901423 6.360159 15.901424 15.901424s-7.950712 15.901423-15.901424 15.901423zM214.658964 364.121684H178.088561c-9.541264 0-15.901423-6.360159-15.901424-15.901423 0-9.541264 6.360159-15.901423 15.901424-15.901424h36.570403c9.541264 0 15.901423 6.360159 15.901424 15.901424s-7.950712 15.901423-15.901424 15.901423z" fill="#193651" /><path d="M772.768582 241.688104c-3.181105-7.950712 0-17.489926 7.950712-20.67103l33.391349-14.310871c7.950712-3.181105 17.489926 0 20.67103 7.950712 3.181105 7.950712 0 17.489926-7.950712 20.67103l-33.391349 14.310871c-7.950712 3.179055-17.489926 0-20.67103-7.950712zM710.757541 149.464769c-6.360159-6.360159-6.360159-15.901423 0-22.261582l25.440638-25.440638c6.360159-6.360159 15.901423-6.360159 22.261582 0 6.360159 6.360159 6.360159 15.901423 0 22.261583L734.607626 149.464769c-6.360159 6.360159-17.489926 6.360159-23.850085 0z" fill="#193651" /><path d="M620.122709 89.042231c-7.950712-3.181105-12.720319-12.720319-7.950712-20.671031l12.720319-33.391349c3.181105-7.950712 12.720319-12.720319 20.67103-7.950711 7.950712 3.181105 12.720319 12.720319 7.950712 20.67103l-14.310871 33.391349c-1.588503 6.362209-11.129766 11.131816-19.080478 7.950712zM512 66.782698c-9.541264 0-15.901423-6.360159-15.901423-15.901423V15.901423c0-9.541264 6.360159-15.901423 15.901423-15.901423 9.541264 0 15.901423 6.360159 15.901423 15.901423v34.981901c-0.00205 9.539214-6.362209 15.899373-15.901423 15.899374z" fill="#193651" /><path d="M383.206261 79.503016l-14.310871-33.391348c-3.181105-7.950712 0-17.489926 7.950712-20.671031 7.950712-3.181105 17.489926 0 20.67103 7.950712l14.310871 33.391349c3.181105 7.950712 0 17.489926-7.950712 20.67103-7.950712 4.769607-17.491975 0-20.67103-7.950712zM289.392374 149.464769l-25.440638-25.440637c-6.360159-6.360159-6.360159-15.901423 0-22.261583 6.360159-6.360159 15.901423-6.360159 22.261583 0l25.440637 25.440638c6.360159 6.360159 6.360159 15.901423 0 22.261582-4.771657 6.360159-15.901423 6.360159-22.261582 0zM230.560388 249.638816l-33.391349-14.310871c-7.950712-3.181105-12.720319-12.720319-7.950712-20.67103 3.181105-7.950712 12.720319-12.720319 20.67103-7.950712l33.391349 14.310871c7.950712 3.181105 12.720319 12.720319 7.950712 20.67103-3.181105 7.950712-12.720319 11.129766-20.67103 7.950712z" fill="#193651" /><path d="M512 233.737393c-14.310871 0-25.440637 12.720319-25.440637 27.031189l11.129766 139.925555c0 7.950712 6.360159 12.720319 14.310871 12.720319s14.310871-6.360159 14.310871-12.720319l11.129766-139.925555c0-14.310871-11.129766-27.03119-25.440637-27.031189z" fill="#FFFFFF" /><path d="M512 448.396357m-15.901423 0a15.901423 15.901423 0 1 0 31.802846 0 15.901423 15.901423 0 1 0-31.802846 0Z" fill="#FFFFFF" /></svg>