<?xml version="1.0" standalone="no"?><!DOCTYPE svg PUBLIC "-//W3C//DTD SVG 1.1//EN" "http://www.w3.org/Graphics/SVG/1.1/DTD/svg11.dtd"><svg class="icon" width="200px" height="200.00px" viewBox="0 0 1024 1024" version="1.1" xmlns="http://www.w3.org/2000/svg"><path d="M511.998969 511.998969m-511.998969 0a511.998969 511.998969 0 1 0 1023.997938 0 511.998969 511.998969 0 1 0-1023.997938 0Z" fill="#2EA2DB" /><path d="M516.800467 67.200354h280.00079c20.800306 0 36.799114 16.00087 36.799114 36.799114v171.199823l73.60029 65.599855H516.800467c-20.800306 0-36.799114-16.00087-36.799113-36.799114v-200.000564c-0.002062-20.800306 17.599307-36.799114 36.799113-36.799114z" fill="#4FBF9F" /><path d="M907.200661 356.800016s-1.6005 0 0 0H516.800467c-28.800741 0-52.799984-23.999243-52.799984-52.799984v-200.000564c0-28.800741 23.999243-52.799984 52.799984-52.799984h280.00079c28.800741 0 52.799984 23.999243 52.799984 52.799984v163.199388l65.599855 59.199919c4.799436 3.200999 8.000435 8.000435 8.000435 12.799871-0.002062 9.600935-8.002498 17.60137-16.00087 17.60137zM516.800467 83.199162c-11.199372 0-20.800306 9.600935-20.800306 20.800306v200.000564c0 11.199372 9.600935 20.800306 20.800306 20.800306h347.199082l-41.600612-38.399613c-3.200999-3.200999-4.799436-8.000435-4.799437-11.199371V103.999468c0-11.199372-9.600935-20.800306-20.800306-20.800306H516.800467z" fill="#193651" /><path d="M537.600773 124.799774h236.799678v158.399952H537.600773z" fill="#FFFFFF" /><path d="M612.7995 223.999807H332.800773c-20.800306 0-36.799114 16.00087-36.799113 36.799113v171.199823l-73.60029 65.599855H611.201063c20.800306 0 36.799114-16.00087 36.799114-36.799114v-200.000564c0-20.798244-16.00087-36.799114-35.200677-36.799113z" fill="#FDBF5E" /><path d="M612.7995 513.599468H222.399307c-6.399936 0-12.799871-4.799436-14.40037-9.600934-1.6005-6.399936 0-12.799871 4.799436-17.599307l67.200354-60.800419v-164.799888c0-28.800741 23.999243-52.799984 52.799984-52.799983h280.000789c28.800741 0 52.799984 23.999243 52.799984 52.799983v200.000564c-1.6005 28.800741-23.999243 52.799984-52.799984 52.799984zM263.999919 481.599791h347.199082c11.199372 0 20.800306-9.600935 20.800306-20.800307v-200.000564c0-11.199372-9.600935-20.800306-20.800306-20.800306H332.800773c-11.199372 0-20.800306 9.600935-20.800306 20.800306v171.199823c0 4.799436-1.6005 9.600935-4.799436 11.199372L263.999919 481.599791z" fill="#193651" /><path d="M353.599017 281.599227h236.799678v158.399951H353.599017z" fill="#FFFFFF" /><path d="M494.399662 430.400306h327.999275a43.019612 43.019612 0 0 1 43.199049 43.199049v201.599001l86.400161 76.799227H494.399662a43.019612 43.019612 0 0 1-43.19905-43.199049V471.998856c1.598437-22.398743 20.798244-41.59855 43.19905-41.59855z" fill="#F16051" /><path d="M953.600709 768.000516H494.399662c-31.999678 0-59.199919-27.200242-59.19992-59.19992V471.998856c0-31.999678 27.200242-59.199919 59.19992-59.199919h327.999275c31.999678 0 59.199919 27.200242 59.199919 59.199919v193.600628l78.399726 70.399291c4.799436 3.200999 8.000435 8.000435 8.000435 12.799871 1.6005 11.201434-6.399936 19.201869-14.398308 19.20187zM494.399662 446.399114c-14.400371 0-27.200242 12.799871-27.200242 27.200241V708.798534c0 14.400371 12.799871 27.200242 27.200242 27.200241h415.999935L855.999114 686.399791c-3.200999-3.200999-4.799436-8.000435-4.799436-11.199372v-203.199501c0-14.400371-12.799871-27.200242-27.200242-27.200241H494.399662v1.598437z" fill="#193651" /><path d="M508.800032 486.399227h299.200596v206.400499H508.800032z" fill="#FFFFFF" /><path d="M745.59971 532.799275h31.999678v28.800741h-31.999678zM676.798856 532.799275h31.999678v28.800741h-31.999678zM609.600564 532.799275h31.999678v28.800741h-31.999678zM540.79971 532.799275h31.999678v28.800741h-31.999678z" fill="#193651" /><path d="M524.79884 635.200306H196.799565a43.019612 43.019612 0 0 0-43.199049 43.199049v201.599001l-86.400162 76.799227h457.600548a43.019612 43.019612 0 0 0 43.19905-43.199049V678.399355a43.019612 43.019612 0 0 0-43.201112-43.199049z" fill="#E1E6E9" /><path d="M524.79884 972.800516H67.200354c-6.399936 0-12.799871-4.799436-14.40037-9.600935-1.6005-6.399936 0-12.799871 4.799436-17.599307l81.600725-71.999791v-195.199065c0-31.999678 27.200242-59.199919 59.199919-59.199919h327.999275c31.999678 0 59.199919 27.200242 59.19992 59.199919v235.199178c-1.598437 33.600177-28.798679 59.199919-60.800419 59.19992zM108.800967 940.798775h415.999935c14.400371 0 27.200242-12.799871 27.200242-27.200241V678.399355c0-14.400371-12.799871-27.200242-27.200242-27.200241H196.799565c-14.400371 0-27.200242 12.799871-27.200242 27.200241v201.599001c0 4.799436-1.6005 9.600935-4.799436 11.199372l-55.99892 49.601047z" fill="#193651" /><path d="M211.199936 692.799726h299.200596v206.4005H211.199936z" fill="#FFFFFF" /><path d="M232.000242 764.799517c14.400371 0 27.200242 11.199372 27.200241 27.200241 0-14.400371 11.199372-27.200242 27.200242-27.200241-14.400371 0-27.200242-11.199372-27.200242-27.200242-1.6005 16.00087-12.799871 27.200242-27.200241 27.200242zM299.200596 764.799517c14.400371 0 27.200242 11.199372 27.200242 27.200241 0-14.400371 11.199372-27.200242 27.200242-27.200241-14.400371 0-27.200242-11.199372-27.200242-27.200242 0 16.00087-11.201434 27.200242-27.200242 27.200242zM367.999388 764.799517c14.400371 0 27.200242 11.199372 27.200241 27.200241 0-14.400371 11.199372-27.200242 27.200242-27.200241-14.400371 0-27.200242-11.199372-27.200242-27.200242-1.6005 16.00087-12.799871 27.200242-27.200241 27.200242zM435.199742 764.799517c14.400371 0 27.200242 11.199372 27.200242 27.200241 0-14.400371 11.199372-27.200242 27.200242-27.200241-14.400371 0-27.200242-11.199372-27.200242-27.200242 0 16.00087-11.199372 27.200242-27.200242 27.200242z" fill="#F16051" /><path d="M241.599114 825.599936h31.999678v28.800741h-31.999678z" fill="#193651" /><path d="M310.399968 825.599936h31.999678v28.800741h-31.999678zM377.600322 825.599936h31.999678v28.800741h-31.999678zM446.399114 825.599936h31.999678v28.800741h-31.999678zM531.200838 320.000902h31.999678v28.800742h-31.999678zM456.000048 320.000902h31.999678v28.800742h-31.999678zM382.399758 320.000902h31.999678v28.800742h-31.999678zM715.200532 153.600516h31.999677v28.800741h-31.999677zM639.999742 153.600516h31.999678v28.800741h-31.999678zM566.399452 153.600516h31.999678v28.800741h-31.999678z" fill="#193651" /></svg>