<?xml version="1.0" standalone="no"?><!DOCTYPE svg PUBLIC "-//W3C//DTD SVG 1.1//EN" "http://www.w3.org/Graphics/SVG/1.1/DTD/svg11.dtd"><svg class="icon" width="200px" height="200.00px" viewBox="0 0 1024 1024" version="1.1" xmlns="http://www.w3.org/2000/svg"><path d="M329.599111 694.398827m-329.599111 0a329.599111 329.599111 0 1 0 659.198221 0 329.599111 329.599111 0 1 0-659.198221 0Z" fill="#4FBF9F" /><path d="M771.197899 311.999839v289.599078c0 65.599723 52.799878 118.3996 118.3996 118.399601s118.3996-52.799878 118.399601-118.399601V311.999839H771.197899z" fill="#2EA2DB" /><path d="M889.597499 735.999355c-73.600142 0-134.400438-60.800296-134.400438-134.400438V311.999839c0-9.600915 6.399923-16.000838 16.000838-16.000838h236.799201c9.600915 0 16.000838 6.399923 16.000838 16.000838v289.599078c0 73.600142-60.800296 134.400438-134.400439 134.400438zM787.198737 327.998614v273.600303c0 56.00087 46.399955 102.398763 102.398762 102.398763 56.00087 0 102.398763-46.399955 102.398763-102.398763V327.998614h-204.797525z" fill="#193651" /><path d="M835.197125 375.999065v225.599852c0 30.399117 23.999194 54.400374 54.400374 54.400374 30.399117 0 54.400374-23.999194 54.400374-54.400374V375.999065h-108.800748z" fill="#FFFFFF" /><path d="M771.197899 601.598917c0 65.599723 52.799878 118.3996 118.3996 118.399601H358.399794c-65.599723 0-118.3996-52.799878-118.399601-118.399601V16.000838h531.199768v585.598079z" fill="#FDBF5E" /><path d="M889.597499 703.99768c-56.00087 0-102.398763-46.399955-102.398762-102.398763V16.000838c0-9.600915-6.399923-16.000838-16.000838-16.000838H240.000193c-9.600915 0-16.000838 6.399923-16.000838 16.000838v585.598079c0 73.600142 60.800296 134.400438 134.400439 134.400438h531.199768c9.600915 0 16.000838-6.399923 16.000838-16.000837s-6.401985-16.000838-16.002901-16.000838z m-531.197705 0c-56.00087 0-102.398763-46.399955-102.398763-102.398763V31.999613h499.198092v569.599304c0 41.600529 17.599272 78.399568 48.000452 102.398763H358.399794z" fill="#193651" /><path d="M303.99942 80.000064v521.598853c0 30.399117 23.999194 54.400374 54.400374 54.400374h358.399794c-4.799426-17.599272-8.000419-35.200606-8.000419-54.400374V80.000064H303.99942z" fill="#FFFFFF" /><path d="M603.199413 590.399568h-142.398794c-9.600915 0-16.000838-6.399923-16.000838-16.000838 0-9.600915 6.399923-16.000838 16.000838-16.000838h142.398794c9.600915 0 16.000838 6.399923 16.000838 16.000838-0.002062 8.000419-6.401985 16.000838-16.000838 16.000838zM603.199413 486.398247h-113.600174c-9.600915 0-16.000838-6.399923-16.000837-16.000838 0-9.600915 6.399923-16.000838 16.000837-16.000838h113.600174c9.600915 0 16.000838 6.399923 16.000838 16.000838-0.002062 9.600915-6.401985 16.000838-16.000838 16.000838zM603.199413 383.999484H377.599562c-9.600915 0-16.000838-6.399923-16.000838-16.000838 0-9.600915 6.399923-16.000838 16.000838-16.000837h225.599851c9.600915 0 16.000838 6.399923 16.000838 16.000837-0.002062 8.000419-6.401985 16.000838-16.000838 16.000838zM603.199413 280.000226H377.599562c-9.600915 0-16.000838-6.399923-16.000838-16.000838 0-9.600915 6.399923-16.000838 16.000838-16.000838h225.599851c9.600915 0 16.000838 6.399923 16.000838 16.000838-0.002062 9.600915-6.401985 16.000838-16.000838 16.000838zM543.999613 135.998872h31.999614v31.999613h-31.999614z" fill="#193651" /><path d="M404.799749 135.998872h31.999613v31.999613h-31.999613zM475.198898 135.998872h31.999613v31.999613H475.198898z" fill="#193651" /><path d="M471.997905 515.19893v-20.800264H187.200316v20.800264c0 68.800715 43.198962 131.199446 120.000096 179.199897-76.799072 48.000451-120.000097 113.600174-120.000096 182.398827v17.599272h284.799652v-17.599272c0-68.800715-43.198962-135.998872-120.000097-182.398827 76.799072-48.000451 119.998034-110.399181 119.998034-179.199897z" fill="#FFFFFF" /><path d="M471.997905 910.397763H187.200316c-9.600915 0-16.000838-6.399923-16.000838-16.000837v-17.599272c0-68.800715 38.399536-134.400438 107.200251-182.398827-68.800715-49.598885-107.200251-111.999678-107.200251-179.199897v-20.800264c0-9.600915 6.399923-16.000838 16.000838-16.000838h284.799652c9.600915 0 16.000838 6.399923 16.000838 16.000838v20.800264c0 67.200219-38.399536 129.598949-107.200252 179.199897 68.800715 49.598885 107.200251 115.20067 107.200252 182.398827v17.599272c-0.002062 8.000419-6.401985 16.000838-16.002901 16.000837zM203.199091 878.39815h252.800039v-1.600496c0-63.999227-41.600529-124.799523-111.999678-169.598982-4.799426-3.200993-8.000419-8.000419-8.000419-12.799845s3.200993-11.199349 8.000419-12.799845c73.600142-46.399955 111.999678-102.398763 111.999678-166.400052v-4.799426H203.199091v4.799426c0 62.400793 38.399536 120.000097 111.999678 166.400052 4.799426 3.200993 8.000419 8.000419 8.000419 12.799845s-3.200993 9.600915-8.000419 12.799845c-70.399149 44.799459-111.999678 107.200251-111.999678 171.199478z" fill="#193651" /><path d="M169.598982 441.598788h320.000257v51.199382H169.598982z" fill="#FFFFFF" /><path d="M505.598015 510.399504H153.600206v-83.198995H505.600077v83.198995zM185.59982 478.39989h287.998582v-19.199768H185.59982v19.199768z" fill="#193651" /><path d="M190.399246 547.198543c11.199349 56.00087 52.799878 107.200251 116.799104 147.200284h46.399955c63.999227-40.000032 105.599755-91.199413 116.799104-147.200284H190.399246zM193.600238 831.998195c-3.200993 14.400342-6.399923 28.800683-6.399922 44.799459v17.599272h284.799652v-17.599272c0-14.400342-1.600496-30.399117-6.399923-44.799459H193.600238z" fill="#E1E6E9" /><path d="M170.560104 894.238113h320.000258v51.199382H170.560104z" fill="#FFFFFF" /><path d="M505.598015 961.597145H153.600206v-83.198995H505.600077v83.198995zM185.59982 929.597531h287.998582v-19.199768H185.59982v19.199768z" fill="#193651" /><path d="M471.997905 910.397763H187.200316c-9.600915 0-16.000838-6.399923-16.000838-16.000837v-17.599272c0-68.800715 38.399536-134.400438 107.200251-182.398827-68.800715-49.598885-107.200251-111.999678-107.200251-179.199897v-20.800264c0-9.600915 6.399923-16.000838 16.000838-16.000838h284.799652c9.600915 0 16.000838 6.399923 16.000838 16.000838v20.800264c0 67.200219-38.399536 129.598949-107.200252 179.199897 68.800715 49.598885 107.200251 115.20067 107.200252 182.398827v17.599272c-0.002062 8.000419-6.401985 16.000838-16.002901 16.000837zM203.199091 878.39815h252.800039v-1.600496c0-63.999227-41.600529-124.799523-111.999678-169.598982-4.799426-3.200993-8.000419-8.000419-8.000419-12.799845s3.200993-11.199349 8.000419-12.799845c73.600142-46.399955 111.999678-102.398763 111.999678-166.400052v-4.799426H203.199091v4.799426c0 62.400793 38.399536 120.000097 111.999678 166.400052 4.799426 3.200993 8.000419 8.000419 8.000419 12.799845s-3.200993 9.600915-8.000419 12.799845c-70.399149 44.799459-111.999678 107.200251-111.999678 171.199478z" fill="#193651" /><path d="M329.599111 739.198286m-12.799846 0a12.799845 12.799845 0 1 0 25.599691 0 12.799845 12.799845 0 1 0-25.599691 0Z" fill="#E1E6E9" /><path d="M377.599562 775.997325m-12.799846 0a12.799845 12.799845 0 1 0 25.599691 0 12.799845 12.799845 0 1 0-25.599691 0Z" fill="#E1E6E9" /><path d="M316.799265 796.797589m-12.799845 0a12.799845 12.799845 0 1 0 25.599691 0 12.799845 12.799845 0 1 0-25.599691 0Z" fill="#E1E6E9" /></svg>