<?xml version="1.0" standalone="no"?><!DOCTYPE svg PUBLIC "-//W3C//DTD SVG 1.1//EN" "http://www.w3.org/Graphics/SVG/1.1/DTD/svg11.dtd"><svg class="icon" width="200px" height="199.22px" viewBox="0 0 1028 1024" version="1.1" xmlns="http://www.w3.org/2000/svg"><path d="M345.05214 725.167315s292.457588 0 377.724514 0.796887c3.984436-15.140856 11.953307-28.687938 23.109727-39.844358-3.187549-0.796887-400.037354-0.796887-400.037354-0.796887-35.063035 0-63.750973 28.687938-63.750973 63.750973 0 7.171984 0.796887 13.547082 3.187549 19.922179 7.171984-25.500389 31.875486-43.828794 59.766537-43.828794zM718.792218 798.480934c0 3.984436-0.796887 8.765759-1.593774 12.750194h9.562645c-3.984436-3.984436-6.375097-7.968872-7.968871-12.750194z" fill="#EAEAEA" /><path d="M513.992218 510.007782m-510.007782 0a510.007782 510.007782 0 1 0 1020.015564 0 510.007782 510.007782 0 1 0-1020.015564 0Z" fill="#FBD000" /><path d="M743.49572 836.731518h-406.412452c-35.063035 0-63.750973-28.687938-63.750972-63.750973v-486.101168c0-35.063035 28.687938-63.750973 63.750972-63.750972l406.412452 0.796887v612.806226z" fill="#3AD0F9" /><path d="M749.07393 848.684825H334.692607c-39.844358 0-71.719844-31.875486-71.719844-71.719844V290.863813c0-38.250584 32.672374-75.70428 74.110505-75.70428L749.07393 219.143969c4.781323 0 7.968872 3.187549 7.968872 7.968871v613.603113c0 4.781323-3.187549 7.968872-7.968872 7.968872zM337.083268 231.097276c-32.672374 0-58.172763 30.281712-58.172762 59.766537v486.101168c0 31.078599 24.703502 55.782101 55.782101 55.782101h406.412451l-3.984435-600.852919-400.037355-0.796887z" fill="#0C508E" /><path d="M719.589105 747.480156c0-23.906615 9.562646-45.422568 25.500389-61.360312-3.187549-0.796887-400.037354-0.796887-400.037354-0.796887-35.063035 0-63.750973 28.687938-63.750973 63.750973s28.687938 63.750973 63.750973 63.750973c0 0 378.521401-0.796887 382.505837-1.593775-18.328405-15.937743-7.968872-38.250584-7.968872-63.750972z" fill="#FFFFFF" /><path d="M337.083268 255.003891c0-35.063035 28.687938-63.750973 63.750973-63.750973h278.910506c35.063035 0 63.750973 28.687938 63.750973 63.750973v430.319066h-342.661479c-35.063035 0-63.750973-28.687938-63.750973-63.750973v-366.568093z" fill="#EAEAEA" /><path d="M719.589105 585.712062V220.737743c0-7.171984-0.796887-13.547082-3.187549-19.125292-5.57821-1.593774-11.953307-2.390661-18.328404-2.390661H481.319844l-107.579766 19.125292c-11.15642 11.15642-18.328405 27.094163-18.328405 44.625681v366.568093c0 35.063035 31.875486 59.766537 66.938522 59.766537h63.750972c84.470039-16.73463 170.533852-28.687938 170.533852-28.687938 34.266148-5.57821 62.954086-39.844358 62.954086-74.907393z" fill="#D4D6D6" /><path d="M749.07393 689.307393H398.44358c-39.844358 0-69.329183-27.891051-69.329183-67.735409v-366.568093c0-39.844358 31.875486-71.719844 71.719844-71.719844h278.910506c39.844358 0 73.313619 32.672374 73.313619 71.719844v430.319066c0 4.781323 0.796887 3.984436-3.984436 3.984436zM400.834241 199.22179c-31.078599 0-55.782101 24.703502-55.782101 55.782101v366.568093c0 31.078599 24.703502 55.782101 55.782101 55.782102L741.105058 673.36965V258.988327c0-30.281712-30.281712-59.766537-61.360311-59.766537h-278.910506z" fill="#0C508E" /><path d="M733.136187 824.77821H342.661479c-39.844358 0-69.329183-35.859922-69.329183-75.70428s31.875486-71.719844 71.719844-71.719844c263.76965 0 399.240467 0.796887 401.631128 0.796887 3.187549 0.796887 5.57821 2.390661 6.375098 5.57821 0.796887 3.187549 0 6.375097-1.593775 7.968871-15.937743 15.140856-26.297276 40.641245-26.297276 61.360312 0 38.250584 16.73463 54.985214 16.734631 54.985214 1.593774 2.390661 0.796887 5.57821-0.796888 8.765759-1.593774 2.390661-4.781323 7.968872-7.968871 7.968871zM342.661479 689.307393c-31.078599 0-53.39144 28.687938-53.39144 59.766537s23.109728 59.766537 53.39144 59.766537h382.505836c-4.781323-11.953307-15.937743-29.484825-15.937743-55.782101 0-19.125292 12.750195-47.81323 23.906615-63.750973H342.661479z" fill="#0C508E" /><path d="M713.214008 554.633463c0 35.063035-19.125292 68.532296-54.188327 74.907393 0 0-324.333074 62.157198-339.47393 66.938521-15.140856 4.781323-49.407004 17.531518-49.407004 53.39144V269.34786c0-35.063035 27.891051-68.532296 62.954086-74.907393l325.926848-57.375876c34.266148-6.375097 62.157198 17.531518 62.157198 52.594553l-7.968871 364.974319z" fill="#3AD0F9" /><path d="M306.801556 262.175875c0-28.687938 20.719066-56.578988 46.219456-70.922957l-19.922179 3.187549c-34.266148 6.375097-62.954086 39.844358-62.954086 74.907393v480.522957c0-29.484825 19.922179-43.031907 36.656809-49.407004v-438.287938z" fill="#00B3F9" /><path d="M278.910506 761.027237c-4.781323 0-7.968872 4.781323-7.968872 0l-7.968871-494.070039c0-37.453696 29.484825-73.313619 69.329183-79.688716l325.926848-57.375875c3.984436-0.796887 7.968872-0.796887 11.953307-0.796887 31.078599 0 55.782101 21.515953 55.782101 58.96965v366.568093c0 42.235019-28.687938 77.298054-64.54786 83.673152-129.892607 24.703502-327.520623 62.954086-337.880155 66.938521-23.906615 7.968872-47.81323 19.125292-47.81323 45.422568v2.390662c-0.796887 3.984436 7.968872 7.968872 3.187549 7.968871z m390.474708-616.790661c-3.187549 0-5.57821 0-8.765759 0.796887L334.692607 202.409339c-31.875486 5.57821-55.782101 34.266148-55.782101 64.547859l-3.984436 445.459923c13.547082-13.547082 32.672374-19.922179 42.235019-23.109728 15.937743-5.57821 307.598444-60.563424 341.067705-66.938521 32.672374-5.57821 51.797665-39.844358 51.797665-67.735409V187.268482c-0.796887-28.687938-18.328405-43.031907-40.641245-43.031906z" fill="#0C508E" /><path d="M512.398444 351.427237c-7.968872 0-14.343969-3.187549-19.922179-8.765758-6.375097-7.171984-8.765759-16.73463-7.171985-27.891051 2.390661-22.31284 19.922179-43.031907 39.047471-47.016342 10.359533-2.390661 20.719066 0.796887 27.094163 7.968871 6.375097 7.171984 8.765759 16.73463 7.171985 27.891051-2.390661 22.31284-19.922179 43.031907-39.047471 47.016342-2.390661 0.796887-4.781323 0.796887-7.171984 0.796887z m19.125291-68.532295c-0.796887 0-2.390661 0-3.984435 0.796887-12.750195 3.187549-24.703502 18.328405-26.297277 33.46926-0.796887 6.375097 0.796887 11.953307 3.187549 15.140857 2.390661 3.187549 6.375097 3.984436 11.15642 3.187548 12.750195-3.187549 24.703502-18.328405 26.297276-33.469261 0.796887-6.375097-0.796887-11.953307-3.187548-15.140856-1.593774-3.187549-3.984436-3.984436-7.171985-3.984435zM486.101167 447.850584c-11.15642 0-22.31284-2.390661-31.875486-6.375098-3.187549-1.593774-5.57821-5.57821-4.781323-8.765758 7.171984-33.469261 33.469261-62.954086 61.360311-69.329183 15.937743-3.984436 30.281712 0 39.844358 10.359533 8.765759 8.765759 13.547082 22.31284 13.547082 37.453696 0 2.390661-0.796887 4.781323-3.187549 6.375098-17.531518 14.343969-35.859922 23.906615-54.985214 28.687937-6.375097 0.796887-13.547082 1.593774-19.922179 1.593775z m-19.125292-18.328405c5.57821 1.593774 11.953307 3.187549 19.125292 3.187549 5.57821 0 11.953307-0.796887 17.531518-2.390662 15.140856-3.187549 30.281712-11.15642 45.422568-23.109727-0.796887-9.562646-3.187549-17.531518-8.765759-22.312841-6.375097-6.375097-15.140856-7.968872-24.703502-5.57821-20.719066 3.984436-40.641245 25.500389-48.610117 50.203891zM446.256809 361.78677c-6.375097 0-11.953307-2.390661-15.937743-7.171984-4.781323-5.57821-7.171984-13.547082-5.57821-22.31284 1.593774-16.73463 15.140856-33.469261 30.281712-36.65681 8.765759-2.390661 16.73463 0.796887 22.312841 6.375097 4.781323 5.57821 7.171984 13.547082 5.57821 22.312841-1.593774 16.73463-15.140856 33.469261-30.281712 36.656809-2.390661 0.796887-4.781323 0.796887-6.375098 0.796887z m13.547082-51.000778h-2.390661c-7.968872 1.593774-16.73463 12.750195-17.531518 23.109728-0.796887 3.984436 0 7.968872 2.390662 9.562646 1.593774 1.593774 3.984436 2.390661 6.375097 1.593774 7.968872-1.593774 16.73463-12.750195 17.531517-23.109728 0.796887-3.984436 0-7.968872-2.390661-9.562645-0.796887-0.796887-2.390661-1.593774-3.984436-1.593775z" fill="#FFFFFF" /><path d="M426.33463 432.709728c-8.765759 0-16.73463-1.593774-23.906614-4.781323-3.187549-1.593774-5.57821-5.57821-4.781323-8.765759 5.57821-25.500389 25.500389-47.81323 47.016342-52.594553 10.359533-2.390661 20.719066-0.796887 27.891051 4.781323 3.187549 2.390661 3.984436 7.968872 1.593774 11.156421-2.390661 3.187549-7.968872 3.984436-11.15642 1.593774-3.984436-3.187549-8.765759-3.984436-15.140856-2.390662-13.547082 3.187549-27.094163 17.531518-33.469261 34.266148 7.171984 1.593774 15.140856 1.593774 23.906615 0 3.984436-0.796887 8.765759 1.593774 9.562646 5.57821 0.796887 3.984436-1.593774 8.765759-5.57821 9.562646-5.57821 0.796887-10.359533 1.593774-15.937744 1.593775zM419.162646 512.398444c-3.984436 0-7.171984-2.390661-7.968872-6.375098-0.796887-3.984436 2.390661-8.765759 6.375098-9.562646l149.017898-27.89105c3.984436-0.796887 8.765759 2.390661 9.562646 6.375097 0.796887 3.984436-2.390661 8.765759-6.375097 9.562646l-149.017899 27.891051h-1.593774zM520.367315 537.898833c-3.984436 0-7.171984-2.390661-7.968871-6.375098-0.796887-3.984436 2.390661-8.765759 6.375097-9.562646l47.813229-8.765758c3.984436-0.796887 8.765759 2.390661 9.562646 6.375097 0.796887 3.984436-2.390661 8.765759-6.375097 9.562646l-47.81323 8.765759h-1.593774zM419.162646 556.227237c-3.984436 0-7.171984-2.390661-7.968872-6.375097-0.796887-3.984436 2.390661-8.765759 6.375098-9.562646l61.360311-11.15642c3.984436-0.796887 8.765759 2.390661 9.562646 6.375097s-2.390661 8.765759-6.375097 9.562646l-61.360312 11.15642h-1.593774z" fill="#FFFFFF" /><path d="M681.338521 554.633463c-4.781323 0-7.968872-3.187549-7.968871-7.968872V223.925292c0-15.140856 0-40.641245-4.781323-44.625681-2.390661-2.390661-11.15642-0.796887-19.125292 0.796887-11.953307 2.390661-60.563424 11.953307-145.83035 27.891051-3.984436 0.796887-8.765759-2.390661-9.562646-6.375098-0.796887-3.984436 2.390661-8.765759 6.375097-9.562646 84.470039-15.937743 133.877043-25.500389 145.033463-27.89105 12.750195-2.390661 23.906615-3.984436 31.875487 2.390661 9.562646 7.968872 11.15642 23.109728 11.15642 57.375876v322.739299c0.796887 4.781323-2.390661 7.968872-7.171985 7.968872zM364.974319 233.487938c-3.984436 0-7.171984-2.390661-7.968872-6.375098-0.796887-3.984436 2.390661-8.765759 6.375098-9.562645l85.266926-15.937744c3.984436-0.796887 8.765759 2.390661 9.562646 6.375098 0.796887 3.984436-2.390661 8.765759-6.375098 9.562646l-85.266926 15.937743h-1.593774z" fill="#FFFFFF" opacity=".5" /><path d="M924.389105 382.505837c0-3.187549-3.187549-6.375097-7.968872-7.171985l-15.140856-2.390661c-3.984436-0.796887-8.765759-4.781323-8.765758-8.765759l-2.390662-15.140856c-0.796887-3.984436-3.984436-7.968872-7.171984-7.968872s-6.375097 3.187549-7.171985 7.968872l-2.390661 15.140856c-0.796887 3.984436-4.781323 8.765759-8.765759 8.765759l-15.140856 2.390661c-3.984436 0.796887-7.968872 3.984436-7.968872 7.171985s3.187549 6.375097 7.968872 7.171984l15.140856 2.390661c3.984436 0.796887 8.765759 4.781323 8.765759 8.765759l2.390661 15.140856c0.796887 3.984436 3.984436 7.968872 7.171985 7.968872s6.375097-3.187549 7.171984-7.968872l2.390662-16.73463c0.796887-3.984436 4.781323-7.968872 8.765758-8.765759l14.343969-0.796887c4.781323-0.796887 8.765759-3.984436 8.765759-7.171984zM475.741634 82.876265c0-3.187549-3.187549-6.375097-7.968871-7.171985l-15.140856-2.390661c-3.984436-0.796887-8.765759-4.781323-8.765759-8.765759l-2.390662-15.140856c-0.796887-3.984436-3.984436-7.968872-7.171984-7.968872s-6.375097 3.187549-7.171984 7.968872l-2.390662 15.140856c-0.796887 3.984436-4.781323 8.765759-8.765759 8.765759l-15.140856 2.390661c-3.984436 0.796887-7.968872 3.984436-7.968871 7.171985s3.187549 6.375097 7.968871 7.171984l15.140856 2.390662c3.984436 0.796887 8.765759 4.781323 8.765759 8.765758l2.390662 15.140856c0.796887 3.984436 3.984436 7.968872 7.171984 7.968872s6.375097-3.187549 7.171984-7.968872l2.390662-16.73463c0.796887-3.984436 4.781323-7.968872 8.765759-8.765759l14.343968-0.796887c5.57821-0.796887 8.765759-3.984436 8.765759-7.171984zM211.175097 620.775097c0-3.187549-3.187549-6.375097-7.968871-7.171984l-15.140856-2.390662c-3.984436-0.796887-8.765759-4.781323-8.765759-8.765758l-2.390662-15.140856c-0.796887-3.984436-3.984436-7.968872-7.171984-7.968872s-6.375097 3.187549-7.171984 7.968872l-2.390662 15.140856c-0.796887 3.984436-4.781323 8.765759-8.765759 8.765758l-15.140856 2.390662c-3.984436 0.796887-7.968872 3.984436-7.968871 7.171984s3.187549 6.375097 7.968871 7.171985l15.140856 2.390661c3.984436 0.796887 8.765759 4.781323 8.765759 8.765759l2.390662 15.140856c0.796887 3.984436 3.984436 7.968872 7.171984 7.968872s6.375097-3.187549 7.171984-7.968872l2.390662-16.73463c0.796887-3.984436 4.781323-7.968872 8.765759-8.765759l14.343969-0.796887c5.57821-1.593774 8.765759-3.984436 8.765758-7.171985zM143.439689 426.33463c-17.531518 0-31.875486-14.343969-31.875487-31.875486s14.343969-31.875486 31.875487-31.875486 31.875486 14.343969 31.875486 31.875486-14.343969 31.875486-31.875486 31.875486z m0-48.610116c-9.562646 0-16.73463 7.968872-16.734631 16.73463 0 9.562646 7.968872 16.73463 16.734631 16.73463 9.562646 0 16.73463-7.968872 16.73463-16.73463 0-9.562646-7.171984-16.73463-16.73463-16.73463zM868.607004 681.338521c-17.531518 0-31.875486-14.343969-31.875486-31.875486s14.343969-31.875486 31.875486-31.875486 31.875486 14.343969 31.875486 31.875486-14.343969 31.875486-31.875486 31.875486z m0-48.610116c-9.562646 0-16.73463 7.968872-16.73463 16.73463 0 9.562646 7.968872 16.73463 16.73463 16.73463 9.562646 0 16.73463-7.968872 16.73463-16.73463 0-9.562646-7.171984-16.73463-16.73463-16.73463z" fill="#FFFFFF" /><path d="M637.509728 729.151751H390.474708c-4.781323 0-7.968872-3.187549-7.968871-7.968872s3.187549-7.968872 7.968871-7.968871h247.03502c4.781323 0 7.968872 3.187549 7.968871 7.968871s-3.187549 7.968872-7.968871 7.968872zM677.354086 761.027237H478.132296c-4.781323 0-7.968872-3.187549-7.968872-7.968871s3.187549-7.968872 7.968872-7.968872h199.22179c4.781323 0 7.968872 3.187549 7.968871 7.968872s-3.187549 7.968872-7.968871 7.968871zM424.740856 761.027237h-95.626459c-4.781323 0-7.968872-3.187549-7.968872-7.968871s3.187549-7.968872 7.968872-7.968872h95.626459c4.781323 0 7.968872 3.187549 7.968872 7.968872s-3.984436 7.968872-7.968872 7.968871z" fill="#0C508E" /></svg>