<?xml version="1.0" standalone="no"?><!DOCTYPE svg PUBLIC "-//W3C//DTD SVG 1.1//EN" "http://www.w3.org/Graphics/SVG/1.1/DTD/svg11.dtd"><svg class="icon" width="200px" height="200.00px" viewBox="0 0 1024 1024" version="1.1" xmlns="http://www.w3.org/2000/svg"><path d="M512 512m-512 0a512 512 0 1 0 1024 0 512 512 0 1 0-1024 0Z" fill="#28A5C6" /><path d="M384 608.8c0-3.2-3.2-6.4-8-7.2l-14.4-1.6c-4-0.8-8.8-4.8-8.8-8.8l-3.2-15.2c-0.8-4-4-8-7.2-8s-6.4 3.2-7.2 8l-2.4 15.2c-0.8 4-4.8 8.8-8.8 8.8l-15.2 2.4c-4 0.8-8 4-8 7.2s3.2 6.4 8 7.2l15.2 2.4c4 0.8 8.8 4.8 8.8 8.8l2.4 15.2c0.8 4 4 8 7.2 8s6.4-3.2 7.2-8l2.4-16.8c0.8-4 4.8-8 8.8-8.8l14.4-0.8c5.6-1.6 8.8-4.8 8.8-8zM946.4 495.2c0-3.2-3.2-6.4-8-7.2l-15.2-2.4c-4-0.8-8.8-4.8-8.8-8.8l-2.4-15.2c-0.8-4-4-8-7.2-8s-6.4 3.2-7.2 8l-2.4 15.2c-0.8 4-4.8 8.8-8.8 8.8l-14.4 2.4c-4 0.8-8 4-8 7.2s3.2 6.4 8 7.2l15.2 2.4c4 0.8 8.8 4.8 8.8 8.8l2.4 15.2c0.8 4 4 8 7.2 8s6.4-3.2 6.4-8l2.4-16.8c0.8-4 4.8-8 8.8-8.8l14.4-0.8c4.8-1.6 8.8-4 8.8-7.2zM464 928.8c0-3.2-3.2-6.4-8-7.2l-15.2-2.4c-4-0.8-8.8-4.8-8.8-8.8l-2.4-15.2c-0.8-4-4-8-7.2-8s-6.4 3.2-7.2 8l-2.4 15.2c-0.8 4-4.8 8.8-8.8 8.8l-15.2 2.4c-4 0.8-8 4-8 7.2s3.2 6.4 8 7.2l15.2 2.4c4 0.8 8.8 4.8 8.8 8.8l2.4 15.2c0.8 4 4 8 7.2 8s6.4-3.2 7.2-8l2.4-16.8c0.8-4 4.8-8 8.8-8.8l14.4-0.8c5.6-0.8 8.8-4 8.8-7.2zM456 111.2c0-3.2-3.2-6.4-8-7.2l-15.2-2.4c-4-0.8-8.8-4.8-8.8-8.8l-2.4-15.2c-0.8-4-4-8-7.2-8s-6.4 3.2-7.2 8l-2.4 15.2c-0.8 4-4.8 8.8-8.8 8.8l-14.4 2.4c-4 0.8-8 4-8 7.2s3.2 6.4 8 7.2l15.2 2.4c4 0.8 8.8 4.8 8.8 8.8L408 144c0.8 4 4 8 7.2 8s6.4-3.2 7.2-8l2.4-16.8c0.8-4 4.8-8 8.8-8.8l14.4-0.8c4.8-0.8 8-3.2 8-6.4zM672 608c-17.6 0-32-14.4-32-32s14.4-32 32-32 32 14.4 32 32-14.4 32-32 32z m0-48.8c-9.6 0-16.8 8-16.8 16.8 0 9.6 8 16.8 16.8 16.8 9.6 0 16.8-8 16.8-16.8 0-9.6-7.2-16.8-16.8-16.8zM616 112c-17.6 0-32-14.4-32-32s14.4-32 32-32 32 14.4 32 32-14.4 32-32 32z m0-48.8c-9.6 0-16.8 8-16.8 16.8 0 9.6 8 16.8 16.8 16.8 9.6 0 16.8-8 16.8-16.8 0-9.6-7.2-16.8-16.8-16.8zM104 520c-17.6 0-32-14.4-32-32s14.4-32 32-32 32 14.4 32 32-14.4 32-32 32z m0-48.8c-9.6 0-16.8 8-16.8 16.8 0 9.6 8 16.8 16.8 16.8 9.6 0 16.8-8 16.8-16.8 0-9.6-7.2-16.8-16.8-16.8z" fill="#FFFFFF" opacity=".5" /><path d="M520 816c0 8.8-7.2 16-16 16H384c-8.8 0-16-7.2-16-16s7.2-16 16-16h120c8.8 0 16 7.2 16 16z" fill="#AD5114" /><path d="M504 840H384c-13.6 0-24-10.4-24-24s10.4-24 24-24h120c13.6 0 24 10.4 24 24s-10.4 24-24 24z m-120-32c-4.8 0-8 3.2-8 8s3.2 8 8 8h120c4.8 0 8-3.2 8-8s-3.2-8-8-8H384z" fill="#0C508E" /><path d="M948.8 840H88.8c-4.8 0-8-3.2-8-8s3.2-8 8-8h860c4.8 0 8 3.2 8 8s-3.2 8-8 8z" fill="#0C508E" /><path d="M520.8 826.4c-51.2 0-92-27.2-98.4-83.2-6.4-54.4 24.8-72.8 56-111.2 19.2-24 28-68.8 28-68.8s43.2 31.2 50.4 69.6c6.4 37.6-5.6 80-5.6 80s11.2 0.8 25.6-17.6c15.2-18.4 20-42.4 20-42.4S624 693.6 624 742.4s-56.8 84-103.2 84z" fill="#FBD000" /><path d="M520.8 783.2c-48.8 0-87.2-24-96.8-73.6-2.4 9.6-3.2 20.8-1.6 34.4 6.4 56.8 46.4 83.2 98.4 83.2 46.4 0 103.2-35.2 103.2-84 0-8.8-0.8-17.6-2.4-26.4-11.2 39.2-60 66.4-100.8 66.4z" fill="#F4B10B" /><path d="M551.2 796c0 16.8-12.8 30.4-28 30.4-16 0-28-13.6-28-30.4 0-16.8 28-60 28-60s28 43.2 28 60z" fill="#FF4848" /><path d="M522.4 834.4c-59.2 0-98.4-34.4-105.6-91.2-5.6-47.2 15.2-70.4 38.4-96.8 6.4-7.2 12-13.6 18.4-21.6 17.6-22.4 25.6-65.6 25.6-65.6 0.8-2.4 2.4-4.8 4.8-6.4 2.4-0.8 5.6-0.8 7.2 0.8 1.6 1.6 45.6 33.6 52.8 75.2 4.8 25.6 1.6 52-1.6 68.8 2.4-2.4 4.8-4.8 8-8.8 13.6-16.8 18.4-39.2 18.4-40 0.8-3.2 3.2-5.6 6.4-6.4 3.2-0.8 6.4 0.8 8 3.2 1.6 2.4 28.8 44.8 28.8 96 0 52.8-58.4 92.8-109.6 92.8zM512 574.4c-4 16-12 42.4-26.4 60-6.4 8-12.8 15.2-19.2 22.4-22.4 25.6-39.2 44-34.4 84 5.6 48.8 38.4 76.8 89.6 76.8 43.2 0 94.4-33.6 94.4-76.8 0-28.8-9.6-54.4-16.8-70.4-3.2 8.8-8.8 19.2-16 28-15.2 19.2-28 20.8-31.2 20.8-2.4 0-4.8-1.6-6.4-3.2-1.6-1.6-2.4-4-1.6-6.4 0-0.8 11.2-41.6 4.8-77.6-4-24.8-24-46.4-36.8-57.6z" fill="#0C508E" /><path d="M523.2 720h-2.4c-4-0.8-6.4-5.6-5.6-9.6 16.8-60.8-8-91.2-9.6-92-3.2-3.2-2.4-8 0.8-11.2 3.2-3.2 8-2.4 11.2 0.8 1.6 1.6 32 37.6 12.8 107.2-0.8 2.4-4 4.8-7.2 4.8zM457.6 723.2H456c-4-0.8-7.2-4.8-6.4-8.8 0-0.8 4-24.8 24-48 3.2-3.2 8-4 11.2-0.8 3.2 3.2 4 8 0.8 11.2-16.8 20-20 40-20 40.8-0.8 3.2-4 5.6-8 5.6zM596.8 736c-4-0.8-7.2-4.8-6.4-9.6 1.6-12-2.4-22.4-2.4-22.4-1.6-4 0-8.8 4-10.4 4-1.6 8.8 0 10.4 4 0 0.8 6.4 14.4 3.2 31.2-0.8 5.6-4.8 8-8.8 7.2z" fill="#FFFFFF" /><path d="M672 384c-4.8 0-8-4-8-8 0-88-69.6-160-156-160-4.8 0-8-4-8-8 0-4.8 3.2-8 8-8C603.2 200 680 279.2 680 376c0 4-3.2 8-8 8z" fill="#0C508E" /><path d="M344 360v4C344 454.4 417.6 528 508 528S672 454.4 672 364V360H344z" fill="#415E6D" /><path d="M508 536C412.8 536 336 459.2 336 364V360c0-4 4-8 8-8h328c4 0 8 3.2 8 8v4C680 459.2 603.2 536 508 536zM352 368c2.4 84 71.2 152 156 152S661.6 452 664 368H352z" fill="#0C508E" /><path d="M236 308c-6.4 0-12-2.4-16.8-7.2-9.6-9.6-9.6-24.8 0-33.6l68-68c9.6-9.6 24.8-9.6 33.6 0 9.6 9.6 9.6 24.8 0 33.6l-68 68c-4.8 4.8-10.4 7.2-16.8 7.2zM796 308c-6.4 0-12-2.4-16.8-7.2-9.6-9.6-9.6-24.8 0-33.6l68-68c9.6-9.6 24.8-9.6 33.6 0 9.6 9.6 9.6 24.8 0 33.6l-68 68c-4.8 4.8-10.4 7.2-16.8 7.2z" fill="#993F0D" /><path d="M796 316c-8.8 0-16.8-3.2-22.4-9.6-6.4-6.4-9.6-14.4-9.6-22.4s3.2-16.8 9.6-22.4l68-68c12-12 32.8-12 45.6 0 6.4 6.4 9.6 14.4 9.6 22.4s-3.2 16.8-9.6 22.4l-68 68c-6.4 6.4-14.4 9.6-23.2 9.6zM864 200c-4 0-8 1.6-11.2 4.8l-68 68c-3.2 3.2-4.8 7.2-4.8 11.2s1.6 8 4.8 11.2c6.4 6.4 16.8 6.4 22.4 0l68-68c3.2-3.2 4.8-7.2 4.8-11.2s-1.6-8-4.8-11.2c-3.2-3.2-7.2-4.8-11.2-4.8zM236 316c-8.8 0-16.8-3.2-22.4-9.6-6.4-6.4-9.6-14.4-9.6-22.4s3.2-16.8 9.6-22.4l68-68c12-12 32.8-12 45.6 0 6.4 6.4 9.6 14.4 9.6 22.4s-3.2 16.8-9.6 22.4l-68 68c-6.4 6.4-14.4 9.6-23.2 9.6zM304 200c-4 0-8 1.6-11.2 4.8l-68 68c-3.2 3.2-4.8 7.2-4.8 11.2s1.6 8 4.8 11.2c6.4 6.4 16.8 6.4 22.4 0l68-68c3.2-3.2 4.8-7.2 4.8-11.2s-1.6-8-4.8-11.2c-3.2-3.2-7.2-4.8-11.2-4.8z" fill="#0C508E" /><path d="M904 244c0 6.4-7.2 12-16 12H136c-8.8 0-16-5.6-16-12s7.2-12 16-12h752c8.8 0 16 5.6 16 12z" fill="#AD5114" /><path d="M344 384c-4.8 0-8-4-8-8 0-96.8 76.8-176 172-176 4.8 0 8 4 8 8 0 4.8-3.2 8-8 8C421.6 216 352 288 352 376c0 4-3.2 8-8 8z" fill="#0C508E" /><path d="M888 264H136c-13.6 0-24-8.8-24-20s10.4-20 24-20h752c13.6 0 24 8.8 24 20s-10.4 20-24 20z m-752-24c-4.8 0-8 2.4-8 4s3.2 4 8 4h752c4.8 0 8-2.4 8-4s-3.2-4-8-4H136z" fill="#0C508E" /><path d="M768 832V288.8L717.6 232c-8.8-9.6-8-24.8 2.4-33.6 9.6-8.8 24.8-8 33.6 2.4l56 64c4 4 5.6 9.6 5.6 16v552H768z" fill="#AD5114" /><path d="M816 840h-48c-4.8 0-8-3.2-8-8V292l-48-55.2c-12-13.6-10.4-33.6 3.2-44.8 5.6-4.8 13.6-8 20.8-8 9.6 0 18.4 4 24 11.2l56 64c4.8 5.6 8 13.6 8 20.8v552c0 4.8-3.2 8-8 8z m-40-16h32V280c0-4-1.6-8-4-10.4l-56-64c-5.6-6.4-16-7.2-22.4-1.6-6.4 5.6-7.2 16-1.6 22.4l50.4 57.6c1.6 1.6 1.6 3.2 1.6 5.6V824z" fill="#0C508E" /><path d="M208 832V288.8L157.6 232c-8.8-9.6-8-24.8 2.4-33.6 9.6-8.8 24.8-8 33.6 2.4l56 64c4 4 5.6 9.6 5.6 16v552H208z" fill="#AD5114" /><path d="M256 840h-48c-4.8 0-8-3.2-8-8V292l-48-55.2c-12-13.6-10.4-33.6 3.2-44.8 5.6-4.8 13.6-8 20.8-8 9.6 0 18.4 4 24 11.2l56 64c4.8 5.6 8 13.6 8 20.8v552c0 4.8-3.2 8-8 8z m-40-16h32V280c0-4-1.6-8-4-10.4l-56-64c-5.6-6.4-16-7.2-22.4-1.6-6.4 5.6-7.2 16-1.6 22.4l50.4 57.6c1.6 1.6 1.6 3.2 1.6 5.6V824z" fill="#0C508E" /><path d="M508 488c-72 0-133.6-42.4-162.4-103.2C356 465.6 424.8 528 508 528s152-62.4 162.4-143.2C641.6 445.6 580 488 508 488z" fill="#2D4552" /><path d="M656 816c0 8.8-7.2 16-16 16H520c-8.8 0-16-7.2-16-16s7.2-16 16-16h120c8.8 0 16 7.2 16 16z" fill="#AD5114" /><path d="M640 840H520c-13.6 0-24-10.4-24-24s10.4-24 24-24h120c13.6 0 24 10.4 24 24s-10.4 24-24 24z m-120-32c-4.8 0-8 3.2-8 8s3.2 8 8 8h120c4.8 0 8-3.2 8-8s-3.2-8-8-8H520z" fill="#0C508E" /><path d="M232 632c-4.8 0-8-3.2-8-8V275.2l-53.6-53.6c-3.2-3.2-3.2-8 0-11.2 3.2-3.2 8-3.2 11.2 0l56 56c1.6 1.6 2.4 3.2 2.4 5.6v352c0 4.8-3.2 8-8 8zM232 800c-4.8 0-8-3.2-8-8V672c0-4.8 3.2-8 8-8s8 3.2 8 8v120c0 4.8-3.2 8-8 8zM792 616c-4.8 0-8-3.2-8-8V279.2l-17.6-17.6c-3.2-3.2-3.2-8 0-11.2 3.2-3.2 8-3.2 11.2 0l20 20c1.6 1.6 2.4 3.2 2.4 5.6V608c0 4.8-3.2 8-8 8zM632 392h-48c-4.8 0-8-3.2-8-8s3.2-8 8-8h48c4.8 0 8 3.2 8 8s-3.2 8-8 8zM544 392H392c-4.8 0-8-3.2-8-8s3.2-8 8-8h152c4.8 0 8 3.2 8 8s-3.2 8-8 8z" fill="#FFFFFF" opacity=".5" /></svg>