<?xml version="1.0" standalone="no"?><!DOCTYPE svg PUBLIC "-//W3C//DTD SVG 1.1//EN" "http://www.w3.org/Graphics/SVG/1.1/DTD/svg11.dtd"><svg class="icon" width="200px" height="200.00px" viewBox="0 0 1024 1024" version="1.1" xmlns="http://www.w3.org/2000/svg"><path d="M512 512m-512 0a512 512 0 1 0 1024 0 512 512 0 1 0-1024 0Z" fill="#3AD0F9" /><path d="M755.2 363.2C755.2 497.6 646.4 696 512 696c-134.4 0-243.2-198.4-243.2-332.8S378.4 120 512 120c134.4 0 243.2 108.8 243.2 243.2z" fill="#EAEAEA" /><path d="M512 696h6.4c-28.8-70.4-81.6-222.4-69.6-352 10.4-118.4 39.2-189.6 56.8-224-13.6 0-27.2 1.6-40 4-32 35.2-78.4 105.6-88.8 219.2-11.2 127.2 60 275.2 100 347.2 12 4 24 5.6 35.2 5.6zM526.4 696H520c28.8-70.4 82.4-222.4 70.4-352-11.2-118.4-40-189.6-57.6-224 13.6 0 27.2 1.6 40 4 32 35.2 79.2 105.6 89.6 219.2 11.2 127.2-60.8 275.2-101.6 347.2-11.2 4-22.4 5.6-34.4 5.6z" fill="#FF4848" /><path d="M512 584c-116.8 0-214.4-80-240.8-188C286.4 527.2 388.8 696 512 696c124.8 0 228-172 241.6-304C728 501.6 629.6 584 512 584z" fill="#D4D6D6" /><path d="M512 704c-63.2 0-125.6-42.4-176-120-44-67.2-72-152-72-221.6C264 224.8 375.2 112 512 112s248 112.8 248 251.2c0 68.8-27.2 153.6-72 221.6C637.6 661.6 575.2 704 512 704z m0-576c-128 0-232 105.6-232 235.2C280 491.2 384 688 512 688s232-196.8 232-324.8C744 233.6 640 128 512 128z" fill="#663210" /><path d="M592 840c0 17.6-14.4 32-32 32H464c-17.6 0-32-14.4-32-32v-24c0-17.6 14.4-32 32-32h96c17.6 0 32 14.4 32 32v24z" fill="#FBD000" /><path d="M560 832H464c-15.2 0-27.2-10.4-31.2-24-0.8 2.4-0.8 5.6-0.8 8v24c0 17.6 14.4 32 32 32h96c17.6 0 32-14.4 32-32v-24c0-2.4-0.8-5.6-0.8-8-4 13.6-16 24-31.2 24z" fill="#F4B10B" /><path d="M560 880H464c-22.4 0-40-17.6-40-40v-24c0-22.4 17.6-40 40-40h96c22.4 0 40 17.6 40 40v24c0 22.4-17.6 40-40 40zM464 792c-13.6 0-24 10.4-24 24v24c0 13.6 10.4 24 24 24h96c13.6 0 24-10.4 24-24v-24c0-13.6-10.4-24-24-24H464z" fill="#663210" /><path d="M456 792c-4 0-7.2-2.4-8-6.4l-24-104c-0.8-4 1.6-8.8 5.6-9.6 4-0.8 8.8 1.6 9.6 6.4l24 104c0.8 4-1.6 8.8-5.6 9.6H456zM568 792h-1.6c-4-0.8-7.2-5.6-6.4-9.6l24-104c0.8-4 5.6-7.2 9.6-6.4 4 0.8 7.2 5.6 6.4 9.6l-24 104c-0.8 4-4 6.4-8 6.4zM512 792c-4.8 0-8-3.2-8-8V696c0-4.8 3.2-8 8-8s8 3.2 8 8v88c0 4.8-3.2 8-8 8z" fill="#663210" /><path d="M376 464c0-8.8-11.2-16-20.8-16h-15.2C320 448 320 433.6 320 432c0-8-6.4-16-16-16H200c-9.6 0-16 8-16 16s-9.6 16-20 16h-18.4c-9.6 0-17.6 7.2-17.6 16s8 16 18.4 16h51.2c9.6 0 19.2 0.8 19.2 8s-8.8 16-19.2 16h-8.8c-9.6 0-20 7.2-20 16s10.4 16 20 16h49.6c9.6 0 18.4-8 18.4-16s6.4-16 16-16h8c9.6 0 16-8 16-16s10.4-8 20-8h39.2c8.8 0 20-7.2 20-16zM880 264c0-8.8-10.4-16-24-16H744.8c-13.6 0-24 7.2-24 16s-8.8 16-20 16-20 7.2-20 16 10.4 16 24 16h80c13.6 0 24-7.2 24-16s10.4-16 24-16h24c12.8 0 23.2-7.2 23.2-16zM320 880c-17.6 0-32-14.4-32-32s14.4-32 32-32 32 14.4 32 32-14.4 32-32 32z m0-48.8c-9.6 0-16.8 8-16.8 16.8 0 9.6 8 16.8 16.8 16.8 9.6 0 16.8-8 16.8-16.8 0-9.6-7.2-16.8-16.8-16.8zM888 536c-17.6 0-32-14.4-32-32s14.4-32 32-32 32 14.4 32 32-14.4 32-32 32z m0-48.8c-9.6 0-16.8 8-16.8 16.8 0 9.6 8 16.8 16.8 16.8 9.6 0 16.8-8 16.8-16.8 0-9.6-7.2-16.8-16.8-16.8zM816 751.2c0-3.2-3.2-6.4-8-7.2l-15.2-2.4c-4-0.8-8.8-4.8-8.8-8.8l-2.4-15.2c-0.8-4-4-8-7.2-8s-6.4 3.2-7.2 8l-2.4 15.2c-0.8 4-4.8 8.8-8.8 8.8l-14.4 2.4c-4 0.8-8 4-8 7.2s3.2 6.4 8 7.2l15.2 2.4c4 0.8 8.8 4.8 8.8 8.8L768 784c0.8 4 4 8 7.2 8s6.4-3.2 6.4-8l2.4-16.8c0.8-4 4.8-8 8.8-8.8l14.4-0.8c5.6-0.8 8.8-3.2 8.8-6.4zM218.4 304.8c0-3.2-3.2-6.4-8-7.2l-15.2-1.6c-4-0.8-8.8-4.8-8.8-8.8L184 272c-0.8-4-4-8-7.2-8s-6.4 3.2-7.2 8l-1.6 14.4c-0.8 4-4.8 8.8-8.8 8.8l-15.2 3.2c-4 0.8-8 4-8 7.2s3.2 6.4 8 7.2l15.2 2.4c4 0.8 8.8 4.8 8.8 8.8l2.4 15.2c0.8 4 4 8 7.2 8s6.4-3.2 6.4-8l2.4-16.8c0.8-4 4.8-8 8.8-8.8l14.4-0.8c4.8-1.6 8.8-4.8 8.8-8z" fill="#FFFFFF" /><path d="M320 656H96c-4.8 0-8-3.2-8-8s3.2-8 8-8h224c4.8 0 8 3.2 8 8s-3.2 8-8 8zM256 728H168c-4.8 0-8-3.2-8-8s3.2-8 8-8h88c4.8 0 8 3.2 8 8s-3.2 8-8 8zM392 728H304c-4.8 0-8-3.2-8-8s3.2-8 8-8h88c4.8 0 8 3.2 8 8s-3.2 8-8 8zM288 184h-56c-4.8 0-8-3.2-8-8s3.2-8 8-8h56c4.8 0 8 3.2 8 8s-3.2 8-8 8z" fill="#663210" /></svg>