<?xml version="1.0" standalone="no"?><!DOCTYPE svg PUBLIC "-//W3C//DTD SVG 1.1//EN" "http://www.w3.org/Graphics/SVG/1.1/DTD/svg11.dtd"><svg class="icon" width="200px" height="200.00px" viewBox="0 0 1024 1024" version="1.1" xmlns="http://www.w3.org/2000/svg"><path d="M512 512m-512 0a512 512 0 1 0 1024 0 512 512 0 1 0-1024 0Z" fill="#F99900" /><path d="M736.8 580.8c0.8 9.6 1.6 18.4 2.4 26.4 1.6 22.4 0 44.8-6.4 67.2-10.4 35.2-32 60.8-63.2 80-30.4 19.2-64 31.2-98.4 40-27.2 5.6-37.6 12.8-45.6 22.4-4 4.8-22.4 4.8-26.4-0.8-8-9.6-18.4-16.8-44-21.6-34.4-8.8-68-20.8-98.4-40-30.4-19.2-52.8-44.8-63.2-80-6.4-21.6-8-44.8-6.4-67.2 0.8-8 1.6-16.8 2.4-26.4-4 0-8 0.8-11.2 0.8-6.4 0.8-10.4-12.8-5.6-20.8 14.4-21.6 32-41.6 51.2-60.8 7.2-7.2 21.6-1.6 22.4 8.8 0.8 22.4 3.2 46.4 8 68.8 1.6 8.8-8 18.4-13.6 15.2-7.2-4-12.8-6.4-12.8-6.4-9.6 31.2-0.8 66.4 21.6 90.4 17.6 18.4 40 30.4 65.6 35.2 16.8 3.2 32.8 4 48.8-1.6 18.4-5.6 22.4-22.4 22.4-28V424.8c0-13.6-8.8-23.2-20.8-28-11.2-4-22.4-7.2-34.4-9.6-7.2-1.6-15.2-2.4-23.2-3.2-6.4-0.8-19.2-6.4-19.2-17.6 0-11.2 14.4-16.8 22.4-16.8h56c15.2 0 19.2-8.8 19.2-18.4 0-6.4-9.6-22.4-13.6-25.6-24-14.4-40-40-40-69.6 0-44.8 36-80.8 80.8-80.8s80.8 36 80.8 80.8c0 29.6-16 55.2-39.2 68.8-4.8 3.2-14.4 19.2-14.4 24.8 0 9.6 5.6 19.2 17.6 19.2h52c9.6 0 26.4 2.4 26.4 16s-12 17.6-18.4 18.4c-8 0.8-16 1.6-23.2 3.2-12 2.4-23.2 5.6-34.4 9.6-15.2 6.4-20.8 12.8-20.8 28v257.6c0 13.6 8.8 23.2 22.4 28 16 6.4 32.8 5.6 48.8 1.6 25.6-5.6 47.2-16.8 65.6-35.2 22.4-24 31.2-59.2 21.6-90.4-4 2.4-8.8 4-12.8 6.4-6.4 3.2-15.2-4-13.6-11.2 4.8-21.6 8-46.4 8-72.8 0-9.6 15.2-16 22.4-8.8 20 20 37.6 40.8 52.8 63.2 4 6.4-4 17.6-10.4 17.6-4.8 1.6-8 0.8-8 0.8z m-185.6-344c0-20.8-16.8-37.6-37.6-37.6s-37.6 16.8-37.6 37.6 16.8 37.6 37.6 37.6 37.6-16.8 37.6-37.6z" fill="#EAEAEA" /><path d="M856.8 66.4c-19.2-39.2-105.6-38.4-181.6-16.8C593.6 72 542.4 116.8 517.6 156c12 0.8 22.4 4 32.8 8.8 22.4-31.2 66.4-66.4 132.8-84.8 82.4-23.2 138.4-12 144 0 0.8 1.6-5.6 8.8-14.4 17.6 8.8 6.4 17.6 13.6 26.4 20.8 16.8-20 22.4-41.6 17.6-52z" fill="#FBD000" /><path d="M508 282.4s17.6 29.6 32.8 32.8c15.2 3.2 27.2-22.4 27.2-22.4l-32-24-28 13.6z" fill="#D4D6D6" /><path d="M732.8 641.6c-10.4 35.2-32 60.8-63.2 80-30.4 19.2-64 31.2-98.4 40-27.2 5.6-37.6 12.8-45.6 22.4-4 4.8-22.4 4.8-26.4-0.8-8-9.6-18.4-16.8-44-21.6-34.4-8.8-68-20.8-98.4-40-30.4-19.2-52.8-44.8-63.2-80-3.2-11.2-4.8-22.4-6.4-33.6-1.6 22.4 0 44.8 6.4 67.2 10.4 35.2 32 60.8 63.2 80 30.4 19.2 64 31.2 98.4 40 25.6 5.6 35.2 12 44 21.6 4.8 5.6 22.4 5.6 26.4 0.8 8-9.6 18.4-16.8 45.6-22.4 34.4-8.8 68-20.8 98.4-40 30.4-19.2 52.8-44.8 63.2-80 6.4-21.6 8-44 6.4-67.2-0.8 11.2-3.2 22.4-6.4 33.6z" fill="#D4D6D6" /><path d="M537.6 231.2c-0.8-2.4-2.4-4-3.2-6.4-2.4-4.8-3.2-6.4-2.4-12.8-4-2.4-11.2-12-16-11.2-4.8 0-11.2 7.2-13.6 10.4l4.8 23.2s9.6-9.6 24.8-1.6c4 1.6 5.6 0.8 5.6-1.6z" fill="#F4B10B" /><path d="M516 832c-4 0-15.2-0.8-20-7.2-7.2-8.8-16-14.4-40-19.2-42.4-11.2-74.4-24.8-101.6-41.6-34.4-21.6-56.8-50.4-67.2-85.6-6.4-21.6-8-44.8-6.4-70.4 0.8-5.6 0.8-11.2 1.6-16.8h-1.6-1.6c-4.8 0-9.6-3.2-12-8-3.2-6.4-4.8-17.6 0.8-24.8 13.6-20.8 30.4-40.8 52-62.4 4-4 8.8-5.6 14.4-5.6 12 0 21.6 8.8 21.6 20 0.8 22.4 3.2 46.4 7.2 68 0.8 6.4-0.8 12.8-4.8 18.4-5.6 6.4-13.6 9.6-20 6.4l-4-3.2c-4.8 26.4 3.2 54.4 22.4 73.6 16 16.8 36.8 28 61.6 33.6 18.4 4 32 3.2 44.8-1.6 10.4-3.2 9.6-8.8 8.8-17.6v-16-248c0-14.4-1.6-18.4-8-20.8-9.6-4-20.8-7.2-32.8-9.6-6.4-1.6-14.4-2.4-22.4-3.2-11.2-0.8-26.4-9.6-26.4-25.6 0-16.8 19.2-31.2 30.4-31.2h56c8.8 0 10.4-0.8 11.2-1.6v-2.4c0-4-7.2-16-10.4-19.2-27.2-16-44-45.6-44-77.6 0-49.6 40-89.6 89.6-89.6 49.6 0 89.6 40 89.6 89.6 0 32-16 60-43.2 76.8-3.2 2.4-10.4 14.4-11.2 18.4 0 3.2 0 5.6 9.6 5.6h52c13.6 0 35.2 12 35.2 30.4 0 16.8-12.8 25.6-25.6 26.4-7.2 0.8-16 1.6-22.4 3.2-12.8 2.4-23.2 5.6-33.6 9.6-10.4 4.8-13.6 8-13.6 20.8v256c0 16 7.2 21.6 16 25.6 12.8 4.8 26.4 5.6 44.8 1.6 24.8-5.6 45.6-16 61.6-33.6 18.4-20 27.2-48 22.4-73.6l-4 1.6c-6.4 3.2-16 0.8-21.6-5.6-3.2-4-4.8-9.6-4-14.4 4.8-22.4 7.2-47.2 8-72 0-12 12-20 22.4-20 5.6 0 10.4 1.6 13.6 5.6 22.4 22.4 40 44 53.6 64.8 3.2 4.8 3.2 12 0 18.4-3.2 5.6-8.8 11.2-16 11.2 0.8 6.4 0.8 12 1.6 16.8 1.6 25.6 0 48.8-6.4 70.4-10.4 35.2-32.8 64-67.2 85.6-27.2 16.8-60 30.4-101.6 41.6-25.6 5.6-34.4 11.2-41.6 20-4 7.2-12.8 8-17.6 8zM291.2 573.6c2.4 0 4 0.8 5.6 2.4 1.6 1.6 2.4 4 2.4 6.4l-0.8 9.6c-0.8 6.4-0.8 12-1.6 17.6-1.6 24 0 44.8 5.6 64.8 8.8 32 28.8 56.8 60 76 26.4 16 56.8 28.8 96.8 39.2 28 5.6 39.2 13.6 48 24.8 0.8 0 3.2 1.6 8 1.6 4 0 6.4-0.8 6.4-0.8 8.8-11.2 19.2-18.4 49.6-24.8 40-10.4 70.4-23.2 96.8-39.2 31.2-20 51.2-44.8 60-76 5.6-20 7.2-41.6 5.6-64.8-0.8-5.6-0.8-11.2-1.6-17.6l-0.8-9.6c0-2.4 0.8-4.8 2.4-6.4 1.6-1.6 4-2.4 6.4-2.4l8 0.8c1.6-0.8 3.2-4 3.2-5.6-12.8-20-29.6-40.8-51.2-62.4-0.8-0.8-1.6-0.8-2.4-0.8-3.2 0-6.4 2.4-6.4 4-0.8 25.6-3.2 51.2-8.8 74.4 0 0 0 0.8 0.8 1.6s1.6 1.6 2.4 1.6l12.8-6.4c2.4-0.8 4.8-0.8 6.4 0 2.4 0.8 4 2.4 4.8 4.8 10.4 33.6 1.6 72.8-24 99.2-18.4 19.2-41.6 32-69.6 38.4-21.6 4.8-37.6 4-53.6-2.4-16-7.2-26.4-14.4-26.4-33.6V424s5.6-28 24.8-36c10.4-4 22.4-7.2 36-10.4 7.2-1.6 16-2.4 24-3.2 2.4 0 11.2-1.6 11.2-10.4 0-7.2-12.8-14.4-18.4-14.4h-52c-17.6 0-26.4-7.2-26.4-21.6 0-8.8 12-27.2 18.4-32 22.4-13.6 35.2-36.8 35.2-63.2 0-40.8-32.8-73.6-73.6-73.6s-73.6 32.8-73.6 73.6c0 26.4 13.6 50.4 36 63.2 7.2 4 17.6 24 18.4 32.8 0 4-0.8 9.6-4.8 14.4-4.8 4.8-12.8 6.4-22.4 6.4h-56c-3.2 0-14.4 8-14.4 15.2 0 6.4 8 9.6 12 9.6 8 0.8 16.8 1.6 24 3.2 13.6 2.4 25.6 6.4 36 10.4 16.8 7.2 17.6 36 17.6 36v264s3.2 25.6-20 32.8c-14.4 5.6-32 6.4-52.8 2.4-28-5.6-52-18.4-69.6-38.4-24.8-26.4-34.4-64.8-24-99.2 1.6-4 5.6-6.4 9.6-5.6 0.8 0 0.8 0 1.6 0.8l11.2 5.6c1.6-0.8 4-4 3.2-6.4-4-22.4-7.2-47.2-8-70.4 0-2.4-3.2-4-5.6-4-0.8 0-2.4 0-3.2 0.8-20.8 20.8-36.8 40-50.4 60-1.6 1.6-0.8 5.6 0 8l11.2-0.8c-0.8 0 0 0 0 0zM516 280c-24 0-44-20-44-44s20-44 44-44 44 20 44 44-20 44-44 44z m0-72c-15.2 0-28 12.8-28 28s12.8 28 28 28 28-12.8 28-28-12.8-28-28-28z" fill="#663210" /><path d="M568 744c-56-3.2-56-55.2-56-77.6V544c0-4.8 3.2-8 8-8 4 0 8 3.2 8 8v122.4c0 36.8 7.2 60 41.6 61.6 4 0 7.2 4 7.2 8.8-0.8 4-4.8 7.2-8.8 7.2z" fill="#074370" opacity=".5" /><path d="M947.2 196c3.2 6.4-0.8 21.6-8.8 32.8 5.6 8 10.4 16 15.2 24.8 18.4-22.4 31.2-52.8 21.6-71.2-9.6-19.2-36-35.2-80-20.8-16 4.8-43.2 18.4-75.2 34.4-39.2 19.2-83.2 41.6-113.6 51.2-128 41.6-154.4 13.6-172-21.6-2.4-4.8-3.2-6.4-2.4-12.8-9.6-3.2-21.6-0.8-32-1.6-1.6 13.6 0.8 17.6 5.6 28 20 40.8 50.4 60 98.4 60 29.6 0 66.4-8 112.8-22.4 32.8-10.4 78.4-32.8 118.4-52.8 29.6-14.4 56.8-28 70.4-32.8 23.2-7.2 37.6-2.4 41.6 4.8z" fill="#FBD000" /><path d="M520 512c-4.8 0-8-3.2-8-8v-64c0-4 3.2-8 8-8s8 3.2 8 8v64c0 4.8-3.2 8-8 8zM722.4 564.8c-2.4 0-5.6-1.6-7.2-4-8-14.4-19.2-24.8-19.2-24.8-3.2-3.2-3.2-8-0.8-11.2 3.2-3.2 8-3.2 11.2-0.8 0.8 0.8 12.8 12 22.4 28.8 2.4 4 0.8 8.8-3.2 11.2-0.8 0.8-2.4 0.8-3.2 0.8zM328.8 569.6c-4 0-7.2-2.4-8-6.4-3.2-18.4-3.2-32.8-3.2-33.6 0-4.8 3.2-8 8-8s8 3.2 8 8c0 0 0 13.6 3.2 30.4 0.8 4-2.4 8.8-6.4 9.6h-1.6zM554.4 380.8c-7.2 0-16-0.8-23.2-4.8-17.6-8.8-20-40.8-20.8-44.8 0-4.8 3.2-8 7.2-8.8 4.8 0 8 3.2 8.8 7.2 0.8 10.4 5.6 28 12 32 9.6 4.8 26.4 2.4 31.2 1.6 4-0.8 8.8 1.6 9.6 5.6 0.8 4-1.6 8.8-5.6 9.6 0 0.8-8.8 2.4-19.2 2.4z" fill="#074370" opacity=".5" /><path d="M537.6 231.2c-0.8-2.4-2.4-4-3.2-6.4-2.4-4.8-3.2-6.4-2.4-12.8-4-2.4-9.6-4-14.4-4-4.8 0-12 0-15.2 3.2l4.8 23.2s9.6-9.6 24.8-1.6c4 1.6 5.6 0.8 5.6-1.6z" fill="#F4B10B" /><path d="M564 150.4c-4 0-7.2-3.2-8-7.2l-4-32c-0.8-4 2.4-8 7.2-8.8 4.8-0.8 8 2.4 8.8 7.2l4 32.8c0.8 4-2.4 8-7.2 8.8 0-0.8-0.8-0.8-0.8-0.8zM604 120c-4.8 0-8-4-8-8l1.6-32c0-4 4-7.2 8.8-7.2 4.8 0 8 4 7.2 8l-1.6 32c0 4-4 7.2-8 7.2zM651.2 96c-4.8 0-8-4-8-8l1.6-30.4c0-4 4-7.2 8.8-7.2 4.8 0 8 4 7.2 8l-1.6 30.4c0 4-4 7.2-8 7.2zM700.8 80c-4.8 0-8-4-8-8l1.6-25.6c0-4 4-7.2 8-7.2 4.8 0 8 4 8 8l-1.6 25.6c0 4-4 7.2-8 7.2zM745.6 73.6c-0.8 0-1.6 0-2.4-0.8-4-1.6-6.4-5.6-4.8-10.4l8-24c0.8-4 5.6-6.4 9.6-4.8 4 1.6 6.4 6.4 4.8 10.4l-8 24c-0.8 3.2-4 5.6-7.2 5.6zM789.6 72c-1.6 0-2.4 0-4-0.8-4-2.4-4.8-6.4-3.2-10.4l14.4-22.4c2.4-3.2 7.2-4.8 11.2-2.4 4 2.4 4.8 6.4 3.2 10.4l-14.4 22.4c-1.6 1.6-4 3.2-7.2 3.2zM830.4 92.8c-4 0-8-3.2-8-7.2 0-4.8 3.2-8 7.2-8.8l24.8-1.6c4 0 8 3.2 8.8 7.2 0 4.8-3.2 8-7.2 8.8l-25.6 1.6c0.8 0 0.8 0 0 0zM516.8 253.6c-4 0-8-3.2-8-7.2 0-4.8 3.2-8 7.2-8.8l24-1.6c4 0 8 3.2 8.8 7.2 0 4.8-3.2 8-7.2 8.8l-24.8 1.6c0-0.8 0 0 0 0zM544 289.6c-2.4 0-4.8-0.8-6.4-3.2-2.4-3.2-1.6-8.8 1.6-11.2l22.4-16c3.2-2.4 8.8-1.6 11.2 1.6 2.4 3.2 1.6 8.8-1.6 11.2l-22.4 16c-1.6 0.8-3.2 1.6-4.8 1.6zM597.6 306.4c-0.8 0-2.4 0-3.2-0.8-4-1.6-5.6-6.4-4-10.4l12-26.4c1.6-4 6.4-5.6 10.4-4 4 1.6 5.6 6.4 4 10.4l-12 26.4c-1.6 2.4-4.8 4.8-7.2 4.8zM651.2 302.4h-2.4c-4-0.8-6.4-5.6-5.6-9.6l8-28.8c0.8-4 5.6-6.4 9.6-5.6 4 0.8 6.4 5.6 5.6 9.6l-8 28.8c0 3.2-3.2 5.6-7.2 5.6zM702.4 286.4c-0.8 0-0.8 0 0 0-4.8 0-8-4-8-8l1.6-28c0-4.8 4-8 8-8 4.8 0 8 4 8 8l-1.6 28c-0.8 4.8-4 8-8 8zM748.8 268c-4.8 0-8-4-8-8l0.8-25.6c0-4.8 4-8 8-8 4.8 0 8 4 8 8l-0.8 25.6c0 4.8-4 8-8 8zM802.4 245.6c-0.8 0-0.8 0 0 0-4.8 0-8-4-8-8l1.6-29.6c0-4.8 4-8 8-8 4.8 0 8 4 8 8l-1.6 29.6c-0.8 4-4 8-8 8zM855.2 217.6h-0.8c-4-0.8-7.2-4.8-7.2-8.8l3.2-27.2c0.8-4 4.8-7.2 8.8-7.2 4 0.8 7.2 4.8 7.2 8.8l-3.2 27.2c-0.8 4.8-4 7.2-8 7.2zM907.2 195.2h-0.8c-4-0.8-7.2-4.8-7.2-8.8l3.2-24c0.8-4 4.8-7.2 8.8-7.2 4 0.8 7.2 4.8 7.2 8.8l-3.2 24c-0.8 4.8-4 7.2-8 7.2zM941.6 197.6c-2.4 0-4-0.8-5.6-2.4-3.2-3.2-3.2-8 0-11.2l19.2-17.6c3.2-3.2 8-3.2 11.2 0.8 3.2 3.2 3.2 8 0 11.2l-19.2 17.6c-1.6 0.8-4 1.6-5.6 1.6zM968.8 236.8c-0.8 0-2.4 0-3.2-0.8l-20.8-8.8c-4-1.6-5.6-6.4-4-10.4 1.6-4 6.4-5.6 10.4-4l20.8 8.8c4 1.6 5.6 6.4 4 10.4-1.6 3.2-4 4.8-7.2 4.8z" fill="#663210" /><path d="M824.8 432c-18.4 0-32.8-14.4-32.8-32s14.4-32 32.8-32 32.8 14.4 32.8 32-15.2 32-32.8 32z m0-48.8c-9.6 0-17.6 8-17.6 16.8 0 9.6 8 16.8 17.6 16.8 9.6 0 17.6-8 17.6-16.8 0-9.6-8-16.8-17.6-16.8zM336 192c-17.6 0-32-14.4-32-32s14.4-32 32-32 32 14.4 32 32-14.4 32-32 32z m0-48.8c-9.6 0-16.8 8-16.8 16.8 0 9.6 8 16.8 16.8 16.8 9.6 0 16.8-8 16.8-16.8 0-9.6-7.2-16.8-16.8-16.8zM168 712c-17.6 0-32-14.4-32-32s14.4-32 32-32 32 14.4 32 32-14.4 32-32 32z m0-48.8c-9.6 0-16.8 8-16.8 16.8 0 9.6 8 16.8 16.8 16.8 9.6 0 16.8-8 16.8-16.8 0-9.6-7.2-16.8-16.8-16.8zM236 400.8c0-3.2-3.2-6.4-8-7.2l-15.2-1.6c-4-0.8-8.8-4.8-8.8-8.8l-2.4-15.2c-0.8-4-4-8-7.2-8s-6.4 3.2-7.2 8l-2.4 15.2c-0.8 4-4.8 8.8-8.8 8.8l-15.2 2.4c-4 0.8-8 4-8 7.2s3.2 6.4 8 7.2l15.2 2.4c4 0.8 8.8 4.8 8.8 8.8l2.4 15.2c0.8 4 4 8 7.2 8s6.4-3.2 6.4-8l2.4-16.8c0.8-4 4.8-8 8.8-8.8l14.4-0.8c5.6-1.6 9.6-4.8 9.6-8zM461.6 911.2c0-3.2-3.2-6.4-8-7.2l-15.2-2.4c-4-0.8-8.8-4.8-8.8-8.8l-2.4-15.2c-0.8-4-4-8-7.2-8s-6.4 3.2-7.2 8l-2.4 15.2c-0.8 4-4.8 8.8-8.8 8.8l-15.2 2.4c-4 0.8-8 4-8 7.2s3.2 6.4 8 7.2l15.2 2.4c4 0.8 8.8 4.8 8.8 8.8l2.4 15.2c0.8 4 4 8 7.2 8s6.4-3.2 6.4-8l2.4-16.8c0.8-4 4.8-8 8.8-8.8l14.4-0.8c6.4-1.6 9.6-4 9.6-7.2zM894.4 742.4c0-3.2-3.2-6.4-8-7.2l-15.2-2.4c-4-0.8-8.8-4.8-8.8-8.8l-2.4-15.2c-0.8-4-4-8-7.2-8s-6.4 3.2-7.2 8l-2.4 15.2c-0.8 4-4.8 8.8-8.8 8.8l-15.2 2.4c-4 0.8-8 4-8 7.2s3.2 6.4 8 7.2l15.2 2.4c4 0.8 8.8 4.8 8.8 8.8l2.4 15.2c0.8 4 4 8 7.2 8s6.4-3.2 6.4-8l2.4-16.8c0.8-4 4.8-8 8.8-8.8l14.4-0.8c5.6-1.6 9.6-4.8 9.6-7.2z" fill="#FFFFFF" opacity=".5" /><path d="M831.2 74.4c-8-16.8-49.6-18.4-62.4-18.4-27.2 0-58.4 4.8-89.6 13.6-68.8 20-114.4 58.4-136.8 92 4.8 1.6 9.6 4 14.4 7.2 21.6-30.4 63.2-64.8 127.2-83.2C721.6 74.4 751.2 72 768.8 72c27.2 0 42.4 4.8 46.4 8-0.8 1.6-6.4 6.4-11.2 11.2 4.8 3.2 8.8 6.4 13.6 9.6 0 0 0.8 0 0.8 0.8 16-14.4 14.4-24 12.8-27.2z" fill="#663210" /><path d="M867.2 60.8C856 36.8 824 24 776 24c-30.4 0-66.4 5.6-100.8 15.2-88 24.8-141.6 74.4-166.4 117.6h4.8c4.8 0 8.8 0.8 13.6 0.8 24-38.4 73.6-80.8 152-102.4C712 45.6 746.4 40 776 40c41.6 0 68.8 9.6 77.6 27.2 7.2 14.4-4.8 34.4-16.8 48 4.8 4 8.8 7.2 12.8 11.2 23.2-25.6 24.8-51.2 17.6-65.6zM924 160c27.2 0 37.6 16 40.8 22.4 8.8 18.4 2.4 42.4-16 61.6 3.2 4.8 5.6 9.6 8.8 14.4 24.8-24.8 34.4-57.6 21.6-83.2-13.6-28.8-48-39.2-88.8-25.6-16 5.6-43.2 19.2-75.2 36-38.4 20-81.6 42.4-112 52-41.6 14.4-74.4 21.6-99.2 21.6-40 0-52-18.4-61.6-39.2-1.6-3.2-2.4-7.2-1.6-12-4-2.4-9.6-4-15.2-5.6-1.6 9.6 0 18.4 3.2 24.8 12 24.8 29.6 48.8 76 48.8 26.4 0 60-7.2 104-22.4 31.2-10.4 75.2-33.6 113.6-53.6 31.2-16 57.6-29.6 72.8-35.2 9.6-2.4 19.2-4.8 28.8-4.8z" fill="#663210" /><path d="M927.2 200c8.8 0 12 2.4 12.8 4 1.6 3.2 0 9.6-6.4 18.4 3.2 4.8 6.4 8.8 9.6 13.6 12.8-14.4 16-29.6 11.2-39.2-6.4-12.8-26.4-16.8-51.2-8.8-14.4 4.8-42.4 18.4-71.2 32.8-40 20-84.8 42.4-116.8 52.8C668 288.8 632 296 604 296v8-8c-44 0-72-17.6-91.2-56-4.8-9.6-6.4-20.8-4.8-32.8-5.6 0.8-12 1.6-16.8 4-0.8 12.8 1.6 24.8 6.4 36 21.6 44 55.2 64.8 105.6 64.8 30.4 0 68-7.2 115.2-23.2 33.6-11.2 79.2-33.6 119.2-53.6 28.8-14.4 56.8-28 69.6-32 8-2.4 14.4-3.2 20-3.2z" fill="#663210" /></svg>