<?xml version="1.0" standalone="no"?><!DOCTYPE svg PUBLIC "-//W3C//DTD SVG 1.1//EN" "http://www.w3.org/Graphics/SVG/1.1/DTD/svg11.dtd"><svg class="icon" width="200px" height="200.00px" viewBox="0 0 1024 1024" version="1.1" xmlns="http://www.w3.org/2000/svg"><path d="M512 512m-512 0a512 512 0 1 0 1024 0 512 512 0 1 0-1024 0Z" fill="#FBD000" /><path d="M943.2 848H86.4c-4.8 0-8-3.2-8-8s3.2-8 8-8h856.8c4.8 0 8 3.2 8 8s-4 8-8 8z" fill="#663210" /><path d="M488 560h56v280h-56z" fill="#EAEAEA" /><path d="M544 848h-56c-4.8 0-8-3.2-8-8V560c0-4.8 3.2-8 8-8h56c4.8 0 8 3.2 8 8v280c0 4.8-3.2 8-8 8z m-48-16h40V568h-40v264z" fill="#663210" /><path d="M280 576h472v48H280z" fill="#EAEAEA" /><path d="M824 536c0 35.2-28.8 64-64 64H272c-35.2 0-64-28.8-64-64V296c0-35.2 28.8-64 64-64h488c35.2 0 64 28.8 64 64v240zM576 668c0 11.2-10.4 20-24 20h-72c-12.8 0-24-8.8-24-20s11.2-20 24-20h72c13.6 0 24 8.8 24 20z" fill="#EAEAEA" /><path d="M512 728h32" fill="#FFFFFF" /><path d="M544 736h-32c-4.8 0-8-3.2-8-8s3.2-8 8-8h32c4.8 0 8 3.2 8 8s-3.2 8-8 8z" fill="#663210" /><path d="M512 760h32" fill="#FFFFFF" /><path d="M544 768h-32c-4.8 0-8-3.2-8-8s3.2-8 8-8h32c4.8 0 8 3.2 8 8s-3.2 8-8 8z" fill="#663210" /><path d="M512 792h32" fill="#FFFFFF" /><path d="M544 800h-32c-4.8 0-8-3.2-8-8s3.2-8 8-8h32c4.8 0 8 3.2 8 8s-3.2 8-8 8z" fill="#663210" /><path d="M328 272h64v32h-64z" fill="#EAEAEA" /><path d="M328 296h64v32h-64zM656 296h64v32h-64z" fill="#D4D6D6" /><path d="M360 272v-64" fill="#FFFFFF" /><path d="M360 280c-4.8 0-8-3.2-8-8v-64c0-4.8 3.2-8 8-8s8 3.2 8 8v64c0 4.8-3.2 8-8 8z" fill="#663210" /><path d="M656 272h64v32h-64z" fill="#EAEAEA" /><path d="M752 632H280c-4.8 0-8-3.2-8-8v-48c0-4.8 3.2-8 8-8h472c4.8 0 8 3.2 8 8v48c0 4.8-3.2 8-8 8z m-464-16h456v-32H288v32z" fill="#663210" /><path d="M688 272v-64" fill="#FFFFFF" /><path d="M688 280c-4.8 0-8-3.2-8-8v-64c0-4.8 3.2-8 8-8s8 3.2 8 8v64c0 4.8-3.2 8-8 8z" fill="#663210" /><path d="M760 560H272c-35.2 0-64-28.8-64-64v40c0 35.2 28.8 64 64 64h488c35.2 0 64-28.8 64-64v-40c0 35.2-28.8 64-64 64z" fill="#D4D6D6" /><path d="M760 608H272c-40 0-72-32-72-72V296c0-40 32-72 72-72h488c40 0 72 32 72 72v240c0 40-32 72-72 72zM272 240c-31.2 0-56 24.8-56 56v240c0 31.2 24.8 56 56 56h488c31.2 0 56-24.8 56-56V296c0-31.2-24.8-56-56-56H272z" fill="#663210" /><path d="M392 312h-64c-4.8 0-8-3.2-8-8v-32c0-4.8 3.2-8 8-8h64c4.8 0 8 3.2 8 8v32c0 4.8-3.2 8-8 8z m-56-16h48v-16h-48v16z" fill="#663210" /><path d="M496 696h40v16h-40zM552 672h-72c-9.6 0-18.4-4.8-21.6-12-1.6 2.4-2.4 4.8-2.4 8 0 11.2 10.4 20 24 20h72c13.6 0 24-8.8 24-20 0-3.2-0.8-5.6-2.4-8-3.2 7.2-12 12-21.6 12z" fill="#D4D6D6" /><path d="M720 312h-64c-4.8 0-8-3.2-8-8v-32c0-4.8 3.2-8 8-8h64c4.8 0 8 3.2 8 8v32c0 4.8-3.2 8-8 8z m-56-16h48v-16h-48v16zM552 696h-72c-17.6 0-32-12.8-32-28s14.4-28 32-28h72c17.6 0 32 12.8 32 28S569.6 696 552 696z m-72-40c-8.8 0-16 5.6-16 12s7.2 12 16 12h72c8.8 0 16-5.6 16-12s-7.2-12-16-12h-72z" fill="#663210" /><path d="M624 272H440c-4.8 0-8-3.2-8-8s3.2-8 8-8h184c4.8 0 8 3.2 8 8s-3.2 8-8 8zM784 520c-4.8 0-8-3.2-8-8V400c0-4.8 3.2-8 8-8s8 3.2 8 8v112c0 4.8-3.2 8-8 8zM784 360c-4.8 0-8-3.2-8-8v-32c0-4.8 3.2-8 8-8s8 3.2 8 8v32c0 4.8-3.2 8-8 8zM490.4 136.8c0-3.2-3.2-6.4-8-7.2l-15.2-1.6c-4-0.8-8.8-4.8-8.8-8.8L456 104c-0.8-4-4-8-7.2-8s-6.4 3.2-7.2 8l-1.6 14.4c-0.8 4-4.8 8.8-8.8 8.8l-15.2 3.2c-4 0.8-8 4-8 7.2s3.2 6.4 8 7.2l15.2 2.4c4 0.8 8.8 4.8 8.8 8.8l2.4 15.2c0.8 4 4 8 7.2 8s6.4-3.2 7.2-8l2.4-16.8c0.8-4 4.8-8 8.8-8.8l14.4-0.8c4-1.6 8-4.8 8-8zM154.4 480.8c0-3.2-3.2-6.4-8-7.2l-15.2-1.6c-4-0.8-8.8-4.8-8.8-8.8L120 448c-0.8-4-4-8-7.2-8s-6.4 3.2-7.2 8l-1.6 14.4c-0.8 4-4.8 8.8-8.8 8.8l-15.2 3.2c-4 0.8-8 4-8 7.2s3.2 6.4 8 7.2l15.2 2.4c4 0.8 8.8 4.8 8.8 8.8l2.4 15.2c0.8 4 4 8 7.2 8s6.4-3.2 7.2-8l2.4-16.8c0.8-4 4.8-8 8.8-8.8l14.4-0.8c4-1.6 8-4.8 8-8zM784 768c-17.6 0-32-14.4-32-32s14.4-32 32-32 32 14.4 32 32-14.4 32-32 32z m0-48c-8.8 0-16 7.2-16 16s7.2 16 16 16 16-7.2 16-16-7.2-16-16-16zM912 456c-17.6 0-32-14.4-32-32s14.4-32 32-32 32 14.4 32 32-14.4 32-32 32z m0-48c-8.8 0-16 7.2-16 16s7.2 16 16 16 16-7.2 16-16-7.2-16-16-16z" fill="#FFFFFF" /><path d="M136 712a72 60 90 1 0 120 0 72 60 90 1 0-120 0Z" fill="#84DB14" /><path d="M192 848c-4.8 0-8-3.2-8-8V728c0-4.8 3.2-8 8-8s8 3.2 8 8v112c0 4.8-3.2 8-8 8z" fill="#6B3C1C" /><path d="M224 720c-4.8 0-8-3.2-8-8 0-25.6-18.4-32-18.4-32.8-4-1.6-6.4-5.6-4.8-10.4 1.6-4 5.6-6.4 10.4-4.8 1.6 0 29.6 10.4 29.6 47.2-0.8 5.6-4 8.8-8.8 8.8z" fill="#FFFFFF" /><path d="M388 500c0 8.8-7.2 16-16 16h-72c-8.8 0-16-7.2-16-16V368.8c0-8.8 7.2-16 16-16h72c8.8 0 16 7.2 16 16v131.2zM455.2 500c2.4 8.8 0 17.6-6.4 19.2-6.4 2.4-12.8-3.2-16-12l-40-128c-2.4-8.8 0-17.6 6.4-19.2 6.4-2.4 12.8 3.2 16 12l40 128z" fill="#415E6D" /><path d="M196 792c-37.6 0-68-36-68-80s30.4-80 68-80S264 668 264 712s-30.4 80-68 80z m0-144c-28.8 0-52 28.8-52 64s23.2 64 52 64 52-28.8 52-64-23.2-64-52-64z" fill="#6B3C1C" /><path d="M368 528h-64c-13.6 0-24-10.4-24-24V368c0-13.6 10.4-24 24-24h64c13.6 0 24 10.4 24 24v136c0 13.6-10.4 24-24 24z m-64-168c-4.8 0-8 3.2-8 8v136c0 4.8 3.2 8 8 8h64c4.8 0 8-3.2 8-8V368c0-4.8-3.2-8-8-8h-64z" fill="#663210" /><path d="M446.4 528c-8.8 0-17.6-8-20.8-18.4l-40-133.6c-4-13.6 0.8-27.2 11.2-31.2 9.6-4 21.6 4.8 25.6 17.6l40 133.6c4 13.6-0.8 27.2-11.2 31.2-1.6 0.8-3.2 0.8-4.8 0.8z m-44.8-167.2c-1.6 0.8-3.2 4.8-1.6 9.6L440 504c1.6 4.8 4.8 7.2 6.4 6.4 1.6-0.8 2.4-4.8 1.6-9.6l-40-133.6c-1.6-4-4.8-6.4-6.4-6.4z" fill="#663210" /><path d="M368 464c0 8.8-7.2 16-16 16h-32c-8.8 0-16-7.2-16-16v-72c0-8.8 7.2-16 16-16h32c8.8 0 16 7.2 16 16v72z" fill="#3AD0F9" /><path d="M624 432h-64c-8.8 0-16-7.2-16-16s7.2-16 16-16h64c8.8 0 16 7.2 16 16s-7.2 16-16 16zM720 376H560c-8.8 0-16-7.2-16-16s7.2-16 16-16h160c8.8 0 16 7.2 16 16s-7.2 16-16 16z" fill="#ADADAD" /><path d="M736 496c0 8.8-7.2 16-15.2 16h-33.6c-8.8 0-15.2-7.2-15.2-16v-16c0-8.8 7.2-16 15.2-16h33.6c8.8 0 15.2 7.2 15.2 16v16z" fill="#FBD000" /><path d="M454.4 352c-1.6 0-3.2-0.8-4-1.6-2.4-2.4-3.2-7.2-0.8-10.4l18.4-24.8c2.4-3.2 6.4-3.2 9.6-0.8 2.4 2.4 3.2 7.2 0.8 10.4l-18.4 24.8c-1.6 1.6-3.2 2.4-5.6 2.4zM472 392c-3.2 0-5.6-1.6-7.2-4.8-1.6-4 0-8.8 4-11.2l32-15.2c4-1.6 8.8 0 10.4 4 1.6 4 0 8.8-4 11.2l-32 15.2c-0.8 0.8-2.4 0.8-3.2 0.8zM512.8 424l-33.6-0.8c-4 0-7.2-3.2-7.2-8 0-4 3.2-7.2 7.2-7.2l33.6 0.8c4 0 7.2 3.2 7.2 8 0 4-3.2 7.2-7.2 7.2zM512 464h-2.4l-32.8-8.8c-4-0.8-6.4-5.6-5.6-9.6 0.8-4 5.6-6.4 9.6-5.6l32.8 8.8c4 0.8 6.4 5.6 5.6 9.6-0.8 3.2-3.2 5.6-7.2 5.6z" fill="#FFFFFF" /></svg>