<?xml version="1.0" standalone="no"?><!DOCTYPE svg PUBLIC "-//W3C//DTD SVG 1.1//EN" "http://www.w3.org/Graphics/SVG/1.1/DTD/svg11.dtd"><svg class="icon" width="200px" height="200.00px" viewBox="0 0 1024 1024" version="1.1" xmlns="http://www.w3.org/2000/svg"><path d="M511.600312 511.600312m-511.600312 0a511.600312 511.600312 0 1 0 1023.200625 0 511.600312 511.600312 0 1 0-1023.200625 0Z" fill="#28A5C6" /><path d="M512.399688 215.032006c-9.592506 0-17.586261 7.993755-17.586261 17.586261v761.80484c0 9.592506 7.993755 17.586261 17.586261 17.586261 9.592506 0 17.586261-7.993755 17.58626-17.586261V232.618267c0.799375-9.592506-7.194379-17.586261-17.58626-17.586261z m-59.953162 622.713505l-96.724434 144.686964c-6.395004 6.395004-6.395004 17.586261 0 23.981264 6.395004 6.395004 17.586261 6.395004 23.981265 0l96.724434-144.686963c6.395004-6.395004 6.395004-17.586261 0-23.981265-6.395004-6.395004-17.586261-6.395004-23.981265 0z m217.430133 144.686964l-96.724434-144.686964c-6.395004-6.395004-17.586261-6.395004-23.981265 0-6.395004 6.395004-6.395004 17.586261 0 23.981265l96.724434 144.686963c6.395004 6.395004 17.586261 6.395004 23.981265 0 6.395004-6.395004 6.395004-17.586261 0-23.981264z" fill="#3AD0F9" /><path d="M513.998439 1020.003123c-14.388759 0-25.580016-11.191257-25.580016-25.580016v-132.696331c-0.799375 1.598751-2.398126 3.996877-3.996877 5.595628l-96.724434 143.887588c0 0.799375-0.799375 0.799375-0.799376 1.598751-4.796253 4.796253-11.191257 7.194379-17.586261 7.19438-6.395004 0-12.790008-2.398126-17.58626-7.19438-4.796253-4.796253-7.194379-11.191257-7.19438-17.586261 0-6.395004 2.398126-12.790008 6.395004-16.786885l96.724434-143.887588c0-0.799375 0.799375-0.799375 0.799376-1.598751 9.592506-9.592506 26.379391-9.592506 35.172521 0 1.598751 1.598751 3.197502 3.996877 4.796253 6.395004V232.618267c0-14.388759 11.990632-25.580016 25.580016-25.580016 14.388759 0 29.576893 11.191257 29.576893 25.580016v600.330991l0.799375-0.799375c9.592506-9.592506 26.379391-9.592506 35.172522 0 0 0 0.799375 0.799375 0.799375 1.598751l96.724434 143.887588c8.79313 9.592506 8.79313 25.580016-0.799375 35.172521-9.592506 9.592506-26.379391 9.592506-35.172522 0 0 0-0.799375-0.799375-0.799375-1.598751l-95.925059-143.887588v126.301327c-0.799375 15.188134-16.786885 26.379391-30.376268 26.379392z m0-796.977362c-5.595628 0-10.391881 4.796253-10.391882 9.592506v761.80484c0 5.595628 4.796253 9.592506 10.391882 9.592506 6.395004 0 13.589383-5.595628 13.589383-9.592506V232.618267c0-4.796253-7.194379-9.592506-13.589383-9.592506z m138.291959 778.591725c3.197502 3.197502 8.79313 3.197502 12.790008-0.799375 3.197502-3.197502 3.197502-9.592506 0-12.790008l-0.799376-0.799375-95.925058-143.887588c-3.197502-3.197502-8.79313-3.197502-11.990632 0.799375-1.598751 1.598751-2.398126 3.996877-2.398127 6.395004 0 2.398126 0.799375 4.796253 2.398127 6.395004 0 0 0.799375 0.799375 0.799375 1.598751l95.125683 143.088212z m-192.649492-158.276346l-95.925059 143.887588c0 0.799375-0.799375 0.799375-0.799375 0.799375-1.598751 1.598751-2.398126 3.996877-2.398127 6.395004 0 2.398126 0.799375 4.796253 2.398127 6.395004 1.598751 1.598751 3.996877 2.398126 6.395003 2.398126 2.398126 0 3.996877-0.799375 5.595629-2.398126l95.925058-143.887588c0-0.799375 0.799375-0.799375 0.799376-1.598751 1.598751-1.598751 2.398126-3.996877 2.398126-6.395004 0-2.398126-0.799375-4.796253-2.398126-6.395004-3.197502-2.398126-8.79313-2.398126-11.990632 0.799376z" fill="#074370" /><path d="M895.300546 298.167057v523.590945H136.693208V298.167057H895.300546z" fill="#EAEAEA" /><path d="M898.498048 296.568306v63.950039h-759.406713v-63.950039h759.406713z" fill="#D4D6D6" /><path d="M898.498048 820.958626h-759.406713c-12.790008 0-23.981265 10.391881-23.981265 23.981265 0 12.790008 10.391881 23.981265 23.981265 23.981264h758.607338c12.790008 0 23.981265-10.391881 23.981265-23.981264 0-12.790008-10.391881-23.981265-23.18189-23.981265z m-759.406713-522.791569h758.607338c12.790008 0 23.981265-10.391881 23.981265-23.981265 0-12.790008-10.391881-23.981265-23.981265-23.981264H139.091335c-12.790008 0-23.981265 10.391881-23.981265 23.981264 0 12.790008 11.191257 23.981265 23.981265 23.981265z" fill="#F4B459" /><path d="M898.498048 304.562061h-759.406713c-17.586261 0-31.97502-14.388759-31.97502-31.97502s14.388759-31.97502 31.97502-31.975019h758.607338c17.586261 0 31.97502 14.388759 31.975019 31.975019s-14.388759 31.97502-31.175644 31.97502z m-759.406713-47.962529c-8.79313 0-15.98751 7.194379-15.98751 15.987509s7.194379 15.98751 15.98751 15.98751h758.607338c8.79313 0 15.98751-7.194379 15.98751-15.98751s-7.194379-15.98751-15.98751-15.987509H139.091335z" fill="#074370" /><path d="M135.893833 828.952381c-4.796253 0-7.993755-3.197502-7.993755-7.993755V298.167057c0-4.796253 3.197502-7.993755 7.993755-7.993755s7.993755 3.197502 7.993755 7.993755v523.590945c0 3.996877-3.197502 7.194379-7.993755 7.194379zM895.300546 828.952381c-4.796253 0-7.993755-3.197502-7.993754-7.993755V298.167057c0-4.796253 3.197502-7.993755 7.993754-7.993755s7.993755 3.197502 7.993755 7.993755v523.590945c0 3.996877-3.197502 7.194379-7.993755 7.194379zM748.215457 1024H183.056987c-4.796253 0-7.993755-3.996877-7.993755-7.993755 0-4.796253 3.197502-7.993755 7.993755-7.993755h565.15847c4.796253 0 7.993755 3.197502 7.993755 7.993755 0 3.996877-3.996877 7.993755-7.993755 7.993755zM889.704918 1024h-67.147541c-4.796253 0-7.993755-3.996877-7.993755-7.993755 0-4.796253 3.197502-7.993755 7.993755-7.993755h67.147541c4.796253 0 7.993755 3.197502 7.993755 7.993755 0 3.996877-3.996877 7.993755-7.993755 7.993755zM291.772053 697.854801c-2.398126 0-3.996877-0.799375-5.595628-2.398127-3.197502-3.197502-3.197502-7.993755 0-11.191256l143.088212-143.088213c3.197502-3.197502 7.993755-3.197502 11.191257 0l80.736924 80.736925 192.649493-192.649493c3.197502-3.197502 7.993755-3.197502 11.191257 0 3.197502 3.197502 3.197502 7.993755 0 11.191257L526.788447 638.701015c-3.197502 3.197502-7.993755 3.197502-11.191257 0L434.860265 557.964091 297.367681 695.456674c-1.598751 1.598751-3.197502 2.398126-5.595628 2.398127z" fill="#074370" /><path d="M727.431694 470.832162c-4.796253 0-7.993755-3.197502-7.993755-7.993755V432.462139h-30.376268c-4.796253 0-7.993755-3.197502-7.993755-7.993755s3.197502-7.993755 7.993755-7.993755H727.431694c2.398126 0 3.996877 0.799375 5.595628 2.398127 1.598751 1.598751 2.398126 3.197502 2.398127 5.595628v38.370023c0 3.996877-3.197502 7.993755-7.993755 7.993755z" fill="#074370" /><path d="M437.258392 548.371585m-25.580016 0a25.580016 25.580016 0 1 0 51.160031 0 25.580016 25.580016 0 1 0-51.160031 0Z" fill="#EAEAEA" /><path d="M437.258392 581.14598c-18.385636 0-33.57377-15.188134-33.573771-33.573771 0-18.385636 15.188134-33.57377 33.573771-33.57377 18.385636 0 33.57377 15.188134 33.57377 33.57377-0.799375 19.185012-15.98751 33.57377-33.57377 33.573771z m0-50.360656c-9.592506 0-17.586261 7.993755-17.586261 17.586261 0 9.592506 7.993755 17.586261 17.586261 17.58626 9.592506 0 17.586261-7.993755 17.586261-17.58626-0.799375-9.592506-8.79313-17.586261-17.586261-17.586261z" fill="#074370" /><path d="M288.574551 689.861046m-25.580015 0a25.580016 25.580016 0 1 0 51.160031 0 25.580016 25.580016 0 1 0-51.160031 0Z" fill="#EAEAEA" /><path d="M288.574551 722.635441c-18.385636 0-33.57377-15.188134-33.57377-33.57377 0-18.385636 15.188134-33.57377 33.57377-33.573771s33.57377 15.188134 33.573771 33.573771c0 19.185012-15.188134 33.57377-33.573771 33.57377z m0-50.360656C279.781421 672.274785 271.787666 680.26854 271.787666 689.861046c0 9.592506 7.993755 17.586261 17.586261 17.586261 9.592506 0 17.586261-7.993755 17.58626-17.586261-0.799375-9.592506-8.79313-17.586261-18.385636-17.586261z" fill="#074370" /><path d="M521.192818 629.907884m-25.580016 0a25.580016 25.580016 0 1 0 51.160032 0 25.580016 25.580016 0 1 0-51.160032 0Z" fill="#EAEAEA" /><path d="M521.192818 662.682279c-18.385636 0-33.57377-15.188134-33.57377-33.57377 0-18.385636 15.188134-33.57377 33.57377-33.573771 18.385636 0 33.57377 15.188134 33.573771 33.573771 0 19.185012-15.188134 33.57377-33.573771 33.57377z m0-50.360655c-9.592506 0-17.586261 7.993755-17.586261 17.58626s7.993755 17.586261 17.586261 17.586261 17.586261-7.993755 17.586261-17.586261-7.993755-17.586261-17.586261-17.58626zM719.437939 712.24356H637.102264c-4.796253 0-7.993755-3.197502-7.993755-7.993755s3.197502-7.993755 7.993755-7.993755H719.437939c4.796253 0 7.993755 3.197502 7.993755 7.993755s-3.197502 7.993755-7.993755 7.993755zM796.977361 712.24356h-41.567525c-4.796253 0-7.993755-3.197502-7.993755-7.993755s3.197502-7.993755 7.993755-7.993755h41.567525c4.796253 0 7.993755 3.197502 7.993755 7.993755s-3.996877 7.993755-7.993755 7.993755zM776.193599 759.406714H637.102264c-4.796253 0-7.993755-3.197502-7.993755-7.993755s3.197502-7.993755 7.993755-7.19438h139.89071c4.796253-0.799375 7.993755 3.197502 7.993755 7.19438-0.799375 4.796253-3.996877 7.993755-8.79313 7.993755zM582.744731 400.487119H442.85402c-4.796253 0-7.993755-3.197502-7.993755-7.993754s3.197502-7.993755 7.993755-7.993755h139.890711c4.796253 0 7.993755 3.197502 7.993755 7.993755s-3.996877 7.993755-7.993755 7.993754z" fill="#074370" /><path d="M88.730679 563.559719c-19.185012 0-34.373146-15.188134-34.373146-34.373146s15.188134-34.373146 34.373146-34.373146 34.373146 15.188134 34.373146 34.373146c-0.799375 19.185012-15.98751 34.373146-34.373146 34.373146z m0-51.959407c-10.391881 0-18.385636 7.993755-18.385636 18.385636 0 10.391881 7.993755 18.385636 18.385636 18.385637 10.391881 0 18.385636-7.993755 18.385636-18.385637-0.799375-10.391881-8.79313-18.385636-18.385636-18.385636zM948.858704 673.074161c-19.185012 0-34.373146-15.188134-34.373146-34.373146s15.188134-34.373146 34.373146-34.373146 34.373146 15.188134 34.373146 34.373146-15.188134 34.373146-34.373146 34.373146z m0-51.959407c-10.391881 0-18.385636 7.993755-18.385636 18.385636 0 10.391881 7.993755 18.385636 18.385636 18.385637 10.391881 0 18.385636-7.993755 18.385636-18.385637 0-10.391881-7.993755-18.385636-18.385636-18.385636zM349.327088 179.859485c-19.185012 0-34.373146-15.188134-34.373146-34.373146s15.188134-34.373146 34.373146-34.373146 34.373146 15.188134 34.373146 34.373146-15.188134 34.373146-34.373146 34.373146z m0-51.959407c-10.391881 0-18.385636 7.993755-18.385636 18.385636 0 10.391881 7.993755 18.385636 18.385636 18.385637 10.391881 0 18.385636-7.993755 18.385636-18.385637 0-10.391881-7.993755-18.385636-18.385636-18.385636zM684.265418 123.103825c0-3.197502-3.197502-6.395004-7.993755-7.194379l-15.188135-2.398127c-3.996877-0.799375-8.79313-4.796253-8.79313-8.79313l-2.398126-15.188134c-0.799375-3.996877-3.996877-7.993755-7.19438-7.993755s-6.395004 3.197502-7.194379 7.993755l-1.598751 15.188134c-0.799375 3.996877-4.796253 8.79313-8.79313 8.79313l-15.188135 2.398127c-3.996877 0.799375-7.993755 3.996877-7.993755 7.194379s3.197502 6.395004 7.993755 7.19438l15.188135 2.398126c3.996877 0.799375 8.79313 4.796253 8.79313 8.79313l2.398126 15.188135c0.799375 3.996877 3.996877 7.993755 7.19438 7.993755s6.395004-3.197502 7.194379-7.993755l2.398127-16.786886c0.799375-3.996877 4.796253-7.993755 8.79313-8.79313l14.388759-0.799375c3.996877-1.598751 7.993755-3.996877 7.993755-7.19438zM999.21936 450.847775c0-3.197502-3.197502-6.395004-7.993755-7.194379l-15.188134-2.398127c-3.996877-0.799375-8.79313-4.796253-8.793131-8.79313l-2.398126-15.188134c-0.799375-3.996877-3.996877-7.993755-7.194379-7.993755s-6.395004 3.197502-7.19438 7.993755l-2.398126 15.188134c-0.799375 3.996877-4.796253 8.79313-8.793131 8.79313l-15.188134 2.398127c-3.996877 0.799375-7.993755 3.996877-7.993755 7.194379s3.197502 6.395004 7.993755 7.19438l15.188134 2.398126c3.996877 0.799375 8.79313 4.796253 8.793131 8.79313l2.398126 15.188135c0.799375 3.996877 3.996877 7.993755 7.19438 7.993755s6.395004-3.197502 7.194379-7.993755l2.398126-16.786886c0.799375-3.996877 4.796253-7.993755 8.793131-8.79313l14.388759-0.799375c5.595628-1.598751 8.79313-3.996877 8.79313-7.19438z" fill="#FFFFFF" opacity=".5" /><path d="M898.498048 880.112412h-759.406713c-17.586261 0-31.97502-14.388759-31.97502-31.975019s14.388759-31.97502 31.97502-31.97502h758.607338c17.586261 0 31.97502 14.388759 31.975019 31.97502s-14.388759 31.97502-31.175644 31.975019z m-759.406713-47.962529c-8.79313 0-15.98751 7.194379-15.98751 15.98751s7.194379 15.98751 15.98751 15.987509h758.607338c8.79313 0 15.98751-7.194379 15.98751-15.987509s-7.194379-15.98751-15.98751-15.98751H139.091335z" fill="#074370" /></svg>