<?xml version="1.0" standalone="no"?><!DOCTYPE svg PUBLIC "-//W3C//DTD SVG 1.1//EN" "http://www.w3.org/Graphics/SVG/1.1/DTD/svg11.dtd"><svg class="icon" width="200px" height="200.00px" viewBox="0 0 1024 1024" version="1.1" xmlns="http://www.w3.org/2000/svg"><path d="M512 512m-512 0a512 512 0 1 0 1024 0 512 512 0 1 0-1024 0Z" fill="#D3D1D1" /><path d="M238.4 482.4h215.2L372.8 384.8H158.4z" fill="#F99900" /><path d="M811.2 480H596.8l80.8-96.8h214.4z" fill="#D6742B" /><path d="M808.8 488.8H596.8c-3.2 0-5.6-1.6-7.2-4.8-1.6-3.2-0.8-6.4 0.8-8.8l79.2-96.8c1.6-1.6 4-3.2 6.4-3.2H888c3.2 0 5.6 1.6 7.2 4.8 1.6 3.2 0.8 6.4-0.8 8.8l-79.2 96.8c-2.4 2.4-4 3.2-6.4 3.2z m-195.2-16h191.2l66.4-80.8H680l-66.4 80.8z" fill="#6B3C1C" /><path d="M802.4 482.4H453.6l80.8 143.2h348.8z" fill="#D6742B" /><path d="M880 632H533.6c-3.2 0-5.6-1.6-7.2-4l-80-143.2c-1.6-2.4-1.6-5.6 0-8 1.6-2.4 4-4 7.2-4H800c3.2 0 5.6 1.6 7.2 4l80 143.2c1.6 2.4 1.6 5.6 0 8-1.6 2.4-4 4-7.2 4z m-341.6-16h328.8l-71.2-127.2H467.2L538.4 616z" fill="#6B3C1C" /><path d="M236 480.8h568v368h-568z" fill="#F99900" /><path d="M236 480h352v208h-352zM588 480h216v64h-216z" fill="#D6742B" /><path d="M453.6 479.2H240c-2.4 0-4.8 9.6-6.4 7.2l-80-96.8c-1.6-2.4-2.4-5.6-0.8-8.8 1.6-3.2 4-4.8 7.2-4.8h213.6c2.4 0 4.8 0.8 6.4 3.2l80 96.8c1.6 2.4 2.4 5.6 0.8 8.8-1.6 2.4-4-5.6-7.2-5.6z m-209.6-6.4h192.8L369.6 392H176.8l67.2 80.8zM592 856.8c-4.8 0-8-3.2-8-8V491.2c0-4.8 3.2-8 8-8s8 3.2 8 8v357.6c0 4.8-3.2 8-8 8z" fill="#6B3C1C" /><path d="M204 848h632" fill="#F99900" /><path d="M840 856H200c-4.8 0-8-3.2-8-8s4-8 8-8h640c4.8 0 8 3.2 8 8s-4 8-8 8zM656 608c-4.8 0-8-3.2-8-8v-55.2c0-4 3.2-8 8-8s8 3.2 8 8V600c0 4.8-3.2 8-8 8z" fill="#6B3C1C" /><path d="M680 568c-2.4 0-4.8-0.8-6.4-3.2L656 541.6l-17.6 23.2c-2.4 4-8 4-11.2 1.6-3.2-3.2-4-8-1.6-12l24-31.2c3.2-4 9.6-4 12.8 0l24 31.2c2.4 4 2.4 8.8-1.6 12-1.6 0.8-3.2 1.6-4.8 1.6zM728 608c-4.8 0-8-3.2-8-8v-55.2c0-4 3.2-8 8-8s8 3.2 8 8V600c0 4.8-3.2 8-8 8z" fill="#6B3C1C" /><path d="M752 568c-2.4 0-4.8-0.8-6.4-3.2L728 541.6l-17.6 23.2c-2.4 4-8 4-11.2 1.6-3.2-3.2-4-8-1.6-12l24-31.2c3.2-4 9.6-4 12.8 0l24 31.2c2.4 4 2.4 8.8-1.6 12-1.6 0.8-3.2 1.6-4.8 1.6z" fill="#6B3C1C" /><path d="M560 376.8c-17.6 0-32-14.4-32-32s14.4-32 32-32 32 14.4 32 32-14.4 32-32 32z m0-48.8c-9.6 0-16.8 8-16.8 16.8 0 9.6 8 16.8 16.8 16.8 9.6 0 16.8-8 16.8-16.8 0-9.6-7.2-16.8-16.8-16.8zM248 241.6c-17.6 0-32-14.4-32-32s14.4-32 32-32 32 14.4 32 32-14.4 32-32 32z m0-49.6c-9.6 0-16.8 8-16.8 16.8 0 9.6 8 16.8 16.8 16.8 9.6 0 16.8-8 16.8-16.8S257.6 192 248 192zM496 136c-17.6 0-32-14.4-32-32s14.4-32 32-32 32 14.4 32 32-14.4 32-32 32z m0-48.8c-9.6 0-16.8 8-16.8 16.8 0 9.6 8 16.8 16.8 16.8 9.6 0 16.8-8 16.8-16.8 0-9.6-7.2-16.8-16.8-16.8zM444 218.4c0-3.2-3.2-6.4-8-7.2l-15.2-2.4c-4-0.8-8.8-4.8-8.8-8.8l-2.4-15.2c-0.8-4-4-8-7.2-8s-6.4 3.2-7.2 8l-1.6 15.2c-0.8 4-4.8 8.8-8.8 8.8l-15.2 2.4c-4 0.8-8 4-8 7.2s3.2 6.4 8 7.2l15.2 2.4c4 0.8 8.8 4.8 8.8 8.8l2.4 15.2c0.8 4 4 8 7.2 8s6.4-3.2 7.2-8l2.4-16.8c0.8-4 4.8-8 8.8-8.8l14.4-0.8c4.8-1.6 8-4 8-7.2zM876 290.4c0-3.2-3.2-6.4-8-7.2l-15.2-2.4c-4-0.8-8.8-4.8-8.8-8.8l-2.4-15.2c-0.8-4-4-8-7.2-8s-6.4 3.2-7.2 8l-2.4 15.2c-0.8 4-4.8 8.8-8.8 8.8l-15.2 2.4c-4 0.8-8 4-8 7.2s3.2 6.4 8 7.2l15.2 2.4c4 0.8 8.8 12.8 8.8 16.8l2.4 7.2c0.8 4 4 8 7.2 8s6.4-3.2 7.2-8l2.4-16.8c0.8-4 4.8-8 8.8-8.8l14.4-0.8c5.6-1.6 8.8-4 8.8-7.2zM676 184c0-3.2-3.2-6.4-8-7.2l-15.2-2.4c-4-0.8-8.8-4.8-8.8-8.8l-2.4-15.2c-0.8-4-4-8-7.2-8s-6.4 3.2-7.2 8l-2.4 15.2c-0.8 4-4.8 8.8-8.8 8.8l-15.2 2.4c-4 0.8-8 4-8 7.2s3.2 6.4 8 7.2l15.2 2.4c4 0.8 8.8 4.8 8.8 8.8l2.4 15.2c0.8 4 4 8 7.2 8s6.4-3.2 7.2-8l2.4-16.8c0.8-4 4.8-8 8.8-8.8l14.4-0.8c5.6-0.8 8.8-4 8.8-7.2zM352.8 424H231.2c-4 0-7.2-3.2-7.2-8s3.2-8 7.2-8H352c4 0 7.2 3.2 7.2 8s-2.4 8-6.4 8zM768 816c-4.8 0-8-3.2-8-8V624c0-4.8 3.2-8 8-8s8 3.2 8 8v184c0 4.8-3.2 8-8 8z" fill="#FFFFFF" opacity=".5" /><path d="M800 856H232c-4.8 0-8-3.2-8-8V480c0-4.8 3.2-8 8-8h568c4.8 0 8 3.2 8 8v368c0 4.8-3.2 8-8 8z m-560-16h552V488H240v352z" fill="#6B3C1C" /><path d="M238.4 488h349.6L507.2 624H158.4z" fill="#F99900" /><path d="M507.2 632H160c-3.2 0-5.6-1.6-7.2-4-1.6-2.4-1.6-5.6 0-8l80-144c1.6-2.4 4 4 7.2 4h347.2c3.2 0 5.6-2.4 7.2 0 1.6 2.4 1.6 0.8 0 4l-80 144c-1.6 2.4-4 4-7.2 4z m-333.6-16h329.6l71.2-128H244.8l-71.2 128z" fill="#6B3C1C" /><path d="M512 520H272c-4 0-8-3.2-8-8s3.2-8 8-8h240c4 0 8 3.2 8 8s-3.2 8-8 8z" fill="#FFFFFF" opacity=".5" /></svg>