<?xml version="1.0" standalone="no"?><!DOCTYPE svg PUBLIC "-//W3C//DTD SVG 1.1//EN" "http://www.w3.org/Graphics/SVG/1.1/DTD/svg11.dtd"><svg class="icon" width="200px" height="200.00px" viewBox="0 0 1024 1024" version="1.1" xmlns="http://www.w3.org/2000/svg"><path fill="#333333" d="M734.455172 733.278161H288.367816c-20.009195 0-35.310345-15.301149-35.310345-35.310345s15.301149-35.310345 35.310345-35.310345h446.087356c20.009195 0 35.310345 15.301149 35.310345 35.310345s-15.301149 35.310345-35.310345 35.310345z"  /><path fill="#333333" d="M749.756322 873.342529H273.066667c-20.009195 0-35.310345-15.301149-35.310345-35.310345V600.275862c-87.098851-16.478161-153.011494-92.983908-153.011494-184.790805 0-103.577011 84.744828-188.321839 188.321839-188.321839 25.894253 0 51.788506 5.885057 75.328735 16.478161 32.956322-56.496552 94.16092-92.983908 162.427587-92.983908s129.471264 36.487356 162.427586 92.983908c23.54023-10.593103 49.434483-16.478161 75.328735-16.478161 103.577011 0 188.321839 84.744828 188.321839 188.321839 0 91.806897-65.912644 168.312644-153.011494 184.790805v237.756322c1.177011 20.009195-14.124138 35.310345-34.133333 35.310345z m-441.379311-70.62069h406.068966V580.266667c-1.177011-3.531034-2.354023-8.23908-2.354023-12.947127 0-20.009195 15.301149-35.310345 35.310345-35.310345h2.354023c64.735632 0 117.701149-52.965517 117.701149-117.701149s-52.965517-117.701149-117.701149-117.701149c-25.894253 0-50.611494 8.23908-70.62069 23.540229-9.416092 7.062069-21.186207 9.416092-31.77931 5.885058s-20.009195-11.770115-22.363219-23.54023c-15.301149-49.434483-60.027586-83.567816-112.993103-83.567816-51.788506 0-97.691954 32.956322-112.993103 83.567816-3.531034 10.593103-11.770115 20.009195-22.363219 23.54023s-23.54023 1.177011-31.77931-5.885058c-21.186207-15.301149-44.726437-23.54023-70.62069-23.540229-64.735632 0-117.701149 52.965517-117.701149 117.701149s52.965517 117.701149 117.701149 117.701149h2.354023c20.009195 0 35.310345 15.301149 35.310345 35.310345 0 4.708046-1.177011 8.23908-2.354023 12.947127l-1.177012 222.455172c1.177011 0 0 0 0 0z"  /></svg>