<?xml version="1.0" standalone="no"?><!DOCTYPE svg PUBLIC "-//W3C//DTD SVG 1.1//EN" "http://www.w3.org/Graphics/SVG/1.1/DTD/svg11.dtd"><svg class="icon" width="200px" height="200.00px" viewBox="0 0 1024 1024" version="1.1" xmlns="http://www.w3.org/2000/svg"><path d="M0 512A512 512 0 1 0 512 0 512 512 0 0 0 0 512z m0 0" fill="#F98073" /><path d="M802.869134 680.192293h-9.83238c0-5.209208 0.390691-10.48353 0.390691-15.757853a283.836704 283.836704 0 0 0-198.080122-270.162534 99.105176 99.105176 0 0 0 0.846496-11.590487 82.956632 82.956632 0 1 0-165.392344 9.70215A284.032049 284.032049 0 0 0 226.665649 664.173979c0 5.209208 0 10.48353 0.455806 15.757854h-6.51151a23.441435 23.441435 0 0 0 0 46.947984h582.259189a23.441435 23.441435 0 0 0 0-46.947984z m-325.57548-297.510874a35.943533 35.943533 0 1 1 71.626605 0v1.172072a279.994913 279.994913 0 0 0-39.069057-2.734834 292.041206 292.041206 0 0 0-32.557548 1.888338z m269.055577 297.575989H273.483403v-15.757853a236.432914 236.432914 0 1 1 472.800712 0c0.13023 2.930179 0.13023 9.96261 0 15.757853z m58.14778 86.017042H221.977362a23.50655 23.50655 0 0 0 0 47.013099h582.454534a23.50655 23.50655 0 0 0 0-47.013099z" fill="#194F82" /><path d="M549.18072 382.681419v1.172072a279.994913 279.994913 0 0 0-39.069058-2.734834 292.041206 292.041206 0 0 0-32.557548 1.888338 35.943533 35.943533 0 1 1 71.626606 0z" fill="#FFC10D" /><path d="M510.046547 428.066641A236.693374 236.693374 0 0 0 273.483403 664.173979v15.757854h472.475137V664.173979a236.628259 236.628259 0 0 0-235.911993-236.107338z m-36.920259 91.161135a23.311204 23.311204 0 0 1-17.711306 15.562508 100.863284 100.863284 0 0 0-76.575353 72.342871 23.63678 23.63678 0 0 1-22.660054 17.385731 23.89724 23.89724 0 0 1-6.120819-0.781381 23.571665 23.571665 0 0 1-16.669464-28.780873A148.332189 148.332189 0 0 1 445.908178 489.014371a23.441435 23.441435 0 0 1 27.21811 30.40875z" fill="#FFFFFF" /><path d="M468.372886 496.307262a23.441435 23.441435 0 0 0-22.464708-7.292891A148.332189 148.332189 0 0 0 333.389292 594.956632a23.571665 23.571665 0 0 0 16.669464 28.780873 23.89724 23.89724 0 0 0 6.120819 0.781381 23.63678 23.63678 0 0 0 22.660054-17.385731 100.863284 100.863284 0 0 1 76.575353-72.147526 23.50655 23.50655 0 0 0 13.023019-38.678367zM244.832761 404.494976a19.534529 19.534529 0 0 1-19.534529-19.534528 67.329009 67.329009 0 0 1 11.330027-38.483022 32.557548 32.557548 0 0 0 0-36.724914 71.04057 71.04057 0 0 1 0-76.900929 29.236678 29.236678 0 0 0 5.730128-18.362457 19.534529 19.534529 0 0 1 39.069058 0 67.263894 67.263894 0 0 1-11.330027 38.417907 32.231973 32.231973 0 0 0 0 36.724914 71.04057 71.04057 0 0 1 0 76.900928 29.301793 29.301793 0 0 0-5.730128 18.362458 19.534529 19.534529 0 0 1-19.534529 19.599643zM315.61287 404.494976a19.534529 19.534529 0 0 1-19.534528-19.534528 67.329009 67.329009 0 0 1 11.330026-38.483022 32.557548 32.557548 0 0 0 0-36.724914 71.04057 71.04057 0 0 1 0-76.900929 29.236678 29.236678 0 0 0 5.730129-18.362457 19.534529 19.534529 0 0 1 39.069057 0 67.263894 67.263894 0 0 1-11.330026 38.417907 32.231973 32.231973 0 0 0 0 36.724914 71.04057 71.04057 0 0 1 0 76.900928 29.301793 29.301793 0 0 0-5.730129 18.362458 19.534529 19.534529 0 0 1-19.534529 19.599643zM682.927127 404.494976a19.534529 19.534529 0 0 1-19.534529-19.534528 67.329009 67.329009 0 0 1 11.330027-38.483022 32.557548 32.557548 0 0 0 0-36.724914 71.04057 71.04057 0 0 1 0-76.900929 29.236678 29.236678 0 0 0 5.730128-18.362457 19.534529 19.534529 0 0 1 39.069058 0 67.263894 67.263894 0 0 1-11.330027 38.417907 32.231973 32.231973 0 0 0 0 36.724914 71.04057 71.04057 0 0 1 0 76.900928 29.301793 29.301793 0 0 0-5.730128 18.362458 19.534529 19.534529 0 0 1-19.534529 19.599643zM753.707236 404.494976a19.534529 19.534529 0 0 1-19.534528-19.534528 67.329009 67.329009 0 0 1 11.330026-38.483022 32.557548 32.557548 0 0 0 0-36.724914 71.04057 71.04057 0 0 1 0-76.900929 29.236678 29.236678 0 0 0 5.730129-18.362457 19.534529 19.534529 0 0 1 39.069057 0 67.263894 67.263894 0 0 1-11.330026 38.417907 32.231973 32.231973 0 0 0 0 36.724914 71.04057 71.04057 0 0 1 0 76.900928 29.301793 29.301793 0 0 0-5.730129 18.362458 19.534529 19.534529 0 0 1-19.534529 19.599643z" fill="#194F82" /></svg>