<?xml version="1.0" standalone="no"?><!DOCTYPE svg PUBLIC "-//W3C//DTD SVG 1.1//EN" "http://www.w3.org/Graphics/SVG/1.1/DTD/svg11.dtd"><svg class="icon" width="200px" height="200.00px" viewBox="0 0 1024 1024" version="1.1" xmlns="http://www.w3.org/2000/svg"><path d="M512 512m-512 0a512 512 0 1 0 1024 0 512 512 0 1 0-1024 0Z" fill="#FC8BA4" /><path d="M782.4 742.4c0 35.2-28.8 64-64 64h-400c-35.2 0-64-28.8-64-64V275.2c0-35.2 28.8-64 64-64h400c35.2 0 64 28.8 64 64v467.2z" fill="#415E6D" /><path d="M718.4 760h-400c-35.2 0-64-28.8-64-64v48c0 35.2 28.8 64 64 64h400c35.2 0 64-28.8 64-64v-48c0 35.2-28.8 64-64 64z" fill="#324D5B" /><path d="M428.8 550.4c0 17.6-14.4 32-32 32h-48c-17.6 0-32-14.4-32-32v-48c0-17.6 14.4-32 32-32h48c17.6 0 32 14.4 32 32v48z" fill="#FBD000" /><path d="M718.4 388.8c0 8.8-7.2 16-16 16H328c-8.8 0-16-7.2-16-16V287.2c0-8.8 7.2-16 16-16h374.4c8.8 0 16 7.2 16 16v101.6z" fill="#EAEAEA" /><path d="M428.8 702.4c0 17.6-14.4 32-32 32h-48c-17.6 0-32-14.4-32-32v-48c0-17.6 14.4-32 32-32h48c17.6 0 32 14.4 32 32v48z" fill="#FF4848" /><path d="M572.8 550.4c0 17.6-14.4 32-32 32H488c-17.6 0-31.2-14.4-30.4-32l2.4-48c0.8-17.6 16-32 33.6-32h48c17.6 0 32 14.4 32 32v48z" fill="#3AD0F9" /><path d="M721.6 702.4c0 17.6-14.4 32-32 32h-48c-17.6 0-32-14.4-32-32v-200c0-17.6 14.4-32 32-32h48c17.6 0 32 14.4 32 32v200z" fill="#6AE5E1" /><path d="M572.8 702.4c0 17.6-14.4 32-32 32h-48c-17.6 0-32-14.4-32-32v-48c0-17.6 14.4-32 32-32h48c17.6 0 32 14.4 32 32v48z" fill="#75B600" /><path d="M384.8 536H352c-4 0-7.2-3.2-7.2-8s3.2-8 7.2-8h32.8c4 0 7.2 3.2 7.2 8s-3.2 8-7.2 8zM384.8 688H352c-4 0-7.2-3.2-7.2-8s3.2-8 7.2-8h32.8c4 0 7.2 3.2 7.2 8s-3.2 8-7.2 8zM680.8 592H648c-4 0-7.2-3.2-7.2-8s3.2-8 7.2-8h32.8c4 0 7.2 3.2 7.2 8s-3.2 8-7.2 8zM680.8 624H648c-4 0-7.2-3.2-7.2-8s3.2-8 7.2-8h32.8c4 0 7.2 3.2 7.2 8s-3.2 8-7.2 8zM528.8 688H496c-4 0-7.2-3.2-7.2-8s3.2-8 7.2-8h32.8c4 0 7.2 3.2 7.2 8s-3.2 8-7.2 8z" fill="#233E49" /><path d="M368 552c-4.8 0-8-3.2-8-7.2V512c0-4 3.2-7.2 8-7.2s8 3.2 8 7.2v32.8c0 4-3.2 7.2-8 7.2zM528 552c-1.6 0-3.2-0.8-4.8-1.6l-32-28.8c-3.2-3.2-4-8.8-1.6-13.6 2.4-4 8-4.8 11.2-1.6l32 28.8c3.2 3.2 4 8.8 1.6 13.6-1.6 1.6-4 3.2-6.4 3.2z" fill="#233E49" /><path d="M496 552c-2.4 0-4.8-1.6-6.4-4-2.4-4-2.4-10.4 1.6-13.6l32-28.8c3.2-3.2 8.8-2.4 11.2 1.6 2.4 4 2.4 10.4-1.6 13.6l-32 28.8c-1.6 1.6-3.2 2.4-4.8 2.4zM512.8 664h-2.4c-4 0-7.2-3.2-7.2-8s3.2-8 7.2-8h2.4c4 0 7.2 3.2 7.2 8s-3.2 8-7.2 8zM512.8 712h-2.4c-4 0-7.2-3.2-7.2-8s3.2-8 7.2-8h2.4c4 0 7.2 3.2 7.2 8s-3.2 8-7.2 8z" fill="#233E49" /><path d="M702.4 271.2H328c-8.8 0-16 7.2-16 16v37.6c0-8.8 7.2-16 16-16h374.4c8.8 0 16 7.2 16 16v-37.6c0-8.8-7.2-16-16-16z" fill="#D4D6D6" /><path d="M720 816H320c-40 0-72-32-72-72V272c0-40 32-72 72-72h400c40 0 72 32 72 72v472c0 40-32 72-72 72zM320 216c-31.2 0-56 24.8-56 56v472c0 31.2 24.8 56 56 56h400c31.2 0 56-24.8 56-56V272c0-31.2-24.8-56-56-56H320z" fill="#233E49" /><path d="M704 408H328c-13.6 0-24-10.4-24-24V288c0-13.6 10.4-24 24-24h376c13.6 0 24 10.4 24 24v96c0 13.6-10.4 24-24 24zM328 280c-4.8 0-8 3.2-8 8v96c0 4.8 3.2 8 8 8h376c4.8 0 8-3.2 8-8V288c0-4.8-3.2-8-8-8H328z" fill="#233E49" /><path d="M516 376c-16 0-28-9.6-28-23.2 0-8.8 4.8-14.4 11.2-18.4-4.8-4-8-8.8-8-16 0-13.6 11.2-21.6 24.8-21.6 14.4 0 24.8 8.8 24.8 20.8 0 6.4-3.2 12-8 16 6.4 4 11.2 10.4 11.2 19.2 0 12.8-11.2 23.2-28 23.2z m0-35.2c-7.2 1.6-12 5.6-12 11.2s5.6 10.4 12.8 10.4c7.2 0 12.8-4.8 12.8-10.4-0.8-6.4-7.2-10.4-13.6-11.2z m0-31.2c-5.6 0-9.6 3.2-9.6 8s4.8 8.8 10.4 9.6c5.6-1.6 9.6-4.8 9.6-9.6-0.8-4.8-4.8-8-10.4-8zM588 376c-16 0-28-9.6-28-23.2 0-8.8 4.8-14.4 11.2-18.4-4.8-4-8-8.8-8-16 0-13.6 11.2-21.6 24.8-21.6 14.4 0 24.8 8.8 24.8 20.8 0 6.4-3.2 12-8 16 6.4 4 11.2 10.4 11.2 19.2 0 12.8-11.2 23.2-28 23.2z m0-35.2c-7.2 1.6-12 5.6-12 11.2s5.6 10.4 12.8 10.4c7.2 0 12.8-4.8 12.8-10.4-0.8-6.4-7.2-10.4-13.6-11.2z m0-31.2c-5.6 0-9.6 3.2-9.6 8s4.8 8.8 10.4 9.6c5.6-1.6 9.6-4.8 9.6-9.6-0.8-4.8-4.8-8-10.4-8zM671.2 344c-4.8 2.4-8 3.2-12.8 3.2-14.4 0-26.4-8.8-26.4-25.6 0-14.4 8.8-26.4 28-26.4 21.6 0 28 16 28 38.4 0 27.2-9.6 41.6-29.6 41.6-4.8 0-20.8-0.8-21.6-8.8-0.8-3.2 2.4-7.2 7.2-7.2 4 0 7.2 1.6 12.8 2.4 11.2 1.6 13.6-7.2 14.4-17.6z m0-15.2c0-9.6-2.4-18.4-12-18.4-8 0-11.2 5.6-11.2 12 0 8 4 11.2 11.2 11.2 4.8 0 8.8-1.6 12-4v-0.8zM392 592h-48c-22.4 0-40-17.6-40-40v-48c0-22.4 17.6-40 40-40h48c22.4 0 40 17.6 40 40v48c0 22.4-17.6 40-40 40z m-48-112c-13.6 0-24 10.4-24 24v48c0 13.6 10.4 24 24 24h48c13.6 0 24-10.4 24-24v-48c0-13.6-10.4-24-24-24h-48zM392 744h-48c-22.4 0-40-17.6-40-40v-48c0-22.4 17.6-40 40-40h48c22.4 0 40 17.6 40 40v48c0 22.4-17.6 40-40 40z m-48-112c-13.6 0-24 10.4-24 24v48c0 13.6 10.4 24 24 24h48c13.6 0 24-10.4 24-24v-48c0-13.6-10.4-24-24-24h-48zM536 592h-48c-22.4 0-40-17.6-40-40v-48c0-22.4 17.6-40 40-40h48c22.4 0 40 17.6 40 40v48c0 22.4-17.6 40-40 40z m-48-112c-13.6 0-24 10.4-24 24v48c0 13.6 10.4 24 24 24h48c13.6 0 24-10.4 24-24v-48c0-13.6-10.4-24-24-24h-48zM688 744h-48c-22.4 0-40-17.6-40-40V504c0-22.4 17.6-40 40-40h48c22.4 0 40 17.6 40 40v200c0 22.4-17.6 40-40 40z m-48-264c-13.6 0-24 10.4-24 24v200c0 13.6 10.4 24 24 24h48c13.6 0 24-10.4 24-24V504c0-13.6-10.4-24-24-24h-48zM536 744h-48c-22.4 0-40-17.6-40-40v-48c0-22.4 17.6-40 40-40h48c22.4 0 40 17.6 40 40v48c0 22.4-17.6 40-40 40z m-48-112c-13.6 0-24 10.4-24 24v48c0 13.6 10.4 24 24 24h48c13.6 0 24-10.4 24-24v-48c0-13.6-10.4-24-24-24h-48z" fill="#233E49" /><path d="M752 704c-4.8 0-8-4-8-8V608c0-4.8 3.2-8 8-8s8 4 8 8v88c0 4-3.2 8-8 8zM752 560.8c-4.8 0-8-3.2-8-8V275.2c-0.8-12.8-12-24-25.6-27.2H508c-4.8 0-8-3.2-8-8s3.2-8 8-8H720c21.6 3.2 38.4 21.6 40 42.4v278.4c0 4-3.2 8-8 8zM400 248H318.4c-4.8 0-8-3.2-8-8s3.2-8 8-8H400c4.8 0 8 3.2 8 8s-3.2 8-8 8z" fill="#FFFFFF" opacity=".5" /><path d="M136 408c-17.6 0-32-14.4-32-32s14.4-32 32-32 32 14.4 32 32-14.4 32-32 32z m0-48c-8.8 0-16 7.2-16 16s7.2 16 16 16 16-7.2 16-16-7.2-16-16-16zM912 440c-17.6 0-32-14.4-32-32s14.4-32 32-32 32 14.4 32 32-14.4 32-32 32z m0-48c-8.8 0-16 7.2-16 16s7.2 16 16 16 16-7.2 16-16-7.2-16-16-16zM544.8 112c0-3.2-3.2-6.4-8-7.2l-15.2-2.4c-4-0.8-8.8-4.8-8.8-8.8l-2.4-15.2c-0.8-4-4-8-7.2-8s-6.4 3.2-7.2 8l-2.4 15.2c-0.8 4-4.8 8.8-8.8 8.8l-15.2 2.4c-4 0.8-8 4-8 7.2s3.2 6.4 8 7.2l15.2 2.4c4 0.8 8.8 4.8 8.8 8.8l2.4 15.2c0.8 4 4 8 7.2 8s6.4-3.2 6.4-8l2.4-16.8c0.8-4 4.8-8 8.8-8.8l14.4-0.8c5.6-0.8 9.6-4 9.6-7.2zM929.6 616c0-3.2-3.2-6.4-8-7.2l-15.2-2.4c-4-0.8-8.8-4.8-8.8-8.8l-2.4-15.2c-0.8-4-4-8-7.2-8s-6.4 3.2-7.2 8l-2.4 15.2c-0.8 4-4.8 8.8-8.8 8.8l-15.2 2.4c-4 0.8-8 4-8 7.2s3.2 6.4 8 7.2l15.2 2.4c4 0.8 8.8 4.8 8.8 8.8l2.4 15.2c0.8 4 4 8 7.2 8s6.4-3.2 6.4-8l2.4-16.8c0.8-4 4.8-8 8.8-8.8l14.4-0.8c5.6-1.6 9.6-4 9.6-7.2zM193.6 644.8c0-3.2-3.2-6.4-8-7.2l-15.2-2.4c-4-0.8-8.8-4.8-8.8-8.8l-2.4-15.2c-0.8-4-4-8-7.2-8s-6.4 3.2-7.2 8l-2.4 15.2c-0.8 4-4.8 8.8-8.8 8.8l-15.2 2.4c-4 0.8-8 4-8 7.2s3.2 6.4 8 7.2l15.2 2.4c4 0.8 8.8 4.8 8.8 8.8l2.4 15.2c0.8 4 4 8 7.2 8s6.4-3.2 6.4-8l2.4-16.8c0.8-4 4.8-8 8.8-8.8l14.4-0.8c5.6-0.8 9.6-4 9.6-7.2zM620 916.8c0-3.2-3.2-6.4-8-7.2l-15.2-2.4c-4-0.8-8.8-4.8-8.8-8.8l-2.4-15.2c-0.8-4-4-8-7.2-8s-6.4 3.2-7.2 8l-2.4 15.2c-0.8 4-4.8 8.8-8.8 8.8l-15.2 2.4c-4 0.8-8 4-8 7.2s3.2 6.4 8 7.2l15.2 2.4c4 0.8 8.8 4.8 8.8 8.8l2.4 15.2c0.8 4 4 8 7.2 8s6.4-3.2 6.4-8l2.4-16.8c0.8-4 4.8-8 8.8-8.8l14.4-0.8c6.4-0.8 9.6-4 9.6-7.2z" fill="#FFFFFF" /></svg>