<?xml version="1.0" standalone="no"?><!DOCTYPE svg PUBLIC "-//W3C//DTD SVG 1.1//EN" "http://www.w3.org/Graphics/SVG/1.1/DTD/svg11.dtd"><svg class="icon" width="200px" height="200.00px" viewBox="0 0 1024 1024" version="1.1" xmlns="http://www.w3.org/2000/svg"><path d="M512 512m-512 0a512 512 0 1 0 1024 0 512 512 0 1 0-1024 0Z" fill="#FBD000" /><path d="M544 856H328c-4.8 0-8-3.2-8-8s4-8 8-8h216c4.8 0 8 3.2 8 8s-4 8-8 8zM680 856H592c-4.8 0-8-3.2-8-8s4-8 8-8h88c4.8 0 8 3.2 8 8s-4 8-8 8z" fill="#663210" /><path d="M754.4 716c0 17.6-14.4 32-32 32H310.4c-17.6 0-32-14.4-32-32V357.6c0-17.6 14.4-32 32-32h412c17.6 0 32 14.4 32 32v358.4z" fill="#D4D6D6" /><path d="M720 760H312c-10.4 0-20.8-4-28-12-7.2-8-11.2-17.6-11.2-28l6.4-362.4c0.8-21.6 18.4-40 40.8-40h400c22.4 0 40 17.6 40 40V720c0 22.4-17.6 40-40 40zM320 333.6c-13.6 0-24 11.2-24.8 24L288.8 720c0 6.4 2.4 12 6.4 16.8 4.8 4.8 10.4 7.2 16.8 7.2h408c13.6 0 24-10.4 24-24V357.6c0-13.6-10.4-24-24-24H320z" fill="#663210" /><path d="M767.2 688.8c0 17.6-14.4 32-32 32H297.6c-17.6 0-32-14.4-32-32V285.6c0-17.6 14.4-32 32-32h437.6c17.6 0 32 14.4 32 32v403.2z" fill="#EAEAEA" /><path d="M767.2 662.4H265.6v-64.8l34.4 24.8h467.2z" fill="#D4D6D6" /><path d="M767.2 387.2V285.6c0-17.6-14.4-32-32-32H297.6c-17.6 0-32 14.4-32 32v101.6h501.6z" fill="#F74541" /><path d="M736 728H296c-22.4 0-40-17.6-40-40V288c0-22.4 17.6-40 40-40h440c22.4 0 40 17.6 40 40v400c0 22.4-17.6 40-40 40zM296 264c-13.6 0-24 10.4-24 24v400c0 13.6 10.4 24 24 24h440c13.6 0 24-10.4 24-24V288c0-13.6-10.4-24-24-24H296z" fill="#663210" /><path d="M764.8 395.2H270.4c-4.8 0-8-3.2-8-8s3.2-8 8-8h495.2c4.8 0 8 3.2 8 8-0.8 4.8-4 8-8.8 8z" fill="#663210" /><path d="M767.2 568.8V386.4H265.6v184c0.8 27.2 21.6 48.8 48.8 51.2h506.4c29.6 0 52.8-24 52.8-52.8H767.2z" fill="#EAEAEA" /><path d="M265.6 392h501.6v40H265.6z" fill="#D4D6D6" /><path d="M265.6 568.8c0 29.6 24 52.8 52.8 52.8s52.8-24 52.8-52.8h396" fill="#EAEAEA" /><path d="M318.4 629.6c-33.6 0-60.8-27.2-60.8-60.8 0-4.8 3.2-8 8-8s8 3.2 8 8c0 24.8 20 44.8 44.8 44.8 24.8 0 44.8-20 44.8-44.8 0-4.8 3.2-8 8-8h396c4.8 0 8 3.2 8 8s-3.2 8-8 8H379.2c-4 29.6-29.6 52.8-60.8 52.8z" fill="#663210" /><path d="M420.8 321.6m-23.2 0a23.2 23.2 0 1 0 46.4 0 23.2 23.2 0 1 0-46.4 0Z" fill="#EAEAEA" /><path d="M424 352c-17.6 0-32-14.4-32-32s14.4-32 32-32 32 14.4 32 32-14.4 32-32 32z m0-48c-8.8 0-16 7.2-16 16s7.2 16 16 16 16-7.2 16-16-7.2-16-16-16z" fill="#663210" /><path d="M608.8 321.6m-23.2 0a23.2 23.2 0 1 0 46.4 0 23.2 23.2 0 1 0-46.4 0Z" fill="#EAEAEA" /><path d="M608 352c-17.6 0-32-14.4-32-32s14.4-32 32-32 32 14.4 32 32-14.4 32-32 32z m0-48c-8.8 0-16 7.2-16 16s7.2 16 16 16 16-7.2 16-16-7.2-16-16-16z" fill="#663210" /><path d="M420.8 320h188" fill="#EAEAEA" /><path d="M608 328H424c-4 0-8-3.2-8-8s3.2-8 8-8h184c4 0 8 3.2 8 8s-3.2 8-8 8zM819.2 632H314.4c-31.2-2.4-56.8-29.6-58.4-60.8V384c0-4.8 3.2-8 8-8h503.2c4.8 0 8 3.2 8 8v176H872c4.8 0 8 3.2 8 8 0 34.4-28 64-60.8 64zM272 392v178.4c0.8 22.4 20 43.2 42.4 45.6h504.8c21.6 0 40.8-17.6 44-40h-96c-4.8 0-8-3.2-8-8V392H272z" fill="#663210" /><path d="M478.4 504.8l25.6-18.4v76h32V464c0-8.8-7.2-16-16-16-3.2 0-5.6 0.8-8.8 2.4l-54.4 34.4c-4 2.4-6.4 7.2-6.4 12.8 0 8.8 7.2 12.8 13.6 12.8 4.8 0 9.6-2.4 14.4-5.6z" fill="#663210" /><path d="M428 680h80.8" fill="#EAEAEA" /><path d="M511.2 688H424.8c-4.8 0-8.8-3.2-8.8-8s4-8 8.8-8H512c4.8 0 8.8 3.2 8.8 8s-4.8 8-9.6 8z" fill="#663210" /><path d="M544 680h42.4" fill="#EAEAEA" /><path d="M591.2 688h-46.4c-4.8 0-8.8-3.2-8.8-8s4-8 8.8-8h46.4c4.8 0 8.8 3.2 8.8 8s-4 8-8.8 8z" fill="#663210" /><path d="M728 296h-72c-4 0-8-3.2-8-8s3.2-8 8-8h72c4 0 8 3.2 8 8s-3.2 8-8 8zM554.4 296H480c-4.8 0-8-3.2-8-8s4-8 8-8h73.6c4.8 0 8 3.2 8 8s-3.2 8-7.2 8z" fill="#FFFFFF" opacity=".5" /><path d="M831.2 600H397.6c-4.8 0-8-3.2-8-8s3.2-8 8-8h433.6c4.8 0 8 3.2 8 8s-4 8-8 8zM888 464c-17.6 0-32-14.4-32-32s14.4-32 32-32 32 14.4 32 32-14.4 32-32 32z m0-48.8c-9.6 0-16.8 8-16.8 16.8 0 9.6 8 16.8 16.8 16.8 9.6 0 16.8-8 16.8-16.8 0-9.6-7.2-16.8-16.8-16.8zM168 672c-17.6 0-32-14.4-32-32s14.4-32 32-32 32 14.4 32 32-14.4 32-32 32z m0-48.8c-9.6 0-16.8 7.2-16.8 16.8 0 9.6 8 16.8 16.8 16.8 9.6 0 16.8-7.2 16.8-16.8 0-8.8-7.2-16.8-16.8-16.8zM408 192c-17.6 0-32-14.4-32-32s14.4-32 32-32 32 14.4 32 32-14.4 32-32 32z m0-48.8c-9.6 0-16.8 8-16.8 16.8 0 9.6 8 16.8 16.8 16.8 9.6 0 16.8-8 16.8-16.8 0-9.6-7.2-16.8-16.8-16.8zM175.2 429.6c0-3.2-3.2-6.4-8-7.2l-15.2-2.4c-4-0.8-8.8-4.8-8.8-8.8l-2.4-15.2c-0.8-4-4-8-7.2-8s-6.4 3.2-7.2 8l-2.4 15.2c-0.8 4-4.8 8.8-8.8 8.8l-15.2 2.4c-4 0.8-8 4-8 7.2s3.2 6.4 8 7.2l15.2 2.4c4 0.8 8.8 4.8 8.8 8.8l2.4 15.2c0.8 4 4 8 7.2 8s6.4-3.2 7.2-8l2.4-16.8c0.8-4 4.8-8 8.8-8.8l14.4-0.8c5.6-1.6 8.8-4 8.8-7.2zM647.2 111.2c0-3.2-3.2-6.4-8-7.2l-15.2-2.4c-4-0.8-8.8-4.8-8.8-8.8l-2.4-15.2c-0.8-4-4-8-7.2-8s-6.4 3.2-7.2 8l-2.4 15.2c-0.8 4-4.8 8.8-8.8 8.8l-15.2 2.4c-4 0.8-8 4-8 7.2s3.2 6.4 8 7.2l15.2 2.4c4 0.8 8.8 4.8 8.8 8.8l2.4 15.2c0.8 4 4 8 7.2 8s6.4-3.2 7.2-8l2.4-16.8c0.8-4 4.8-8 8.8-8.8l14.4-0.8c5.6-0.8 8.8-4 8.8-7.2zM903.2 709.6c0-3.2-3.2-6.4-8-7.2l-15.2-2.4c-4-0.8-8.8-4.8-8.8-8.8l-2.4-15.2c-0.8-4-4-8-7.2-8s-6.4 3.2-7.2 8l-2.4 15.2c-0.8 4-4.8 8.8-8.8 8.8l-15.2 2.4c-4 0.8-8 4-8 7.2s3.2 6.4 8 7.2l15.2 2.4c4 0.8 8.8 4.8 8.8 8.8l2.4 15.2c0.8 4 4 8 7.2 8s6.4-3.2 7.2-8l2.4-16.8c0.8-4 4.8-8 8.8-8.8l14.4-0.8c4.8-0.8 8.8-4 8.8-7.2z" fill="#FFFFFF" /></svg>