<?xml version="1.0" standalone="no"?><!DOCTYPE svg PUBLIC "-//W3C//DTD SVG 1.1//EN" "http://www.w3.org/Graphics/SVG/1.1/DTD/svg11.dtd"><svg class="icon" width="200px" height="200.00px" viewBox="0 0 1024 1024" version="1.1" xmlns="http://www.w3.org/2000/svg"><path d="M512 512m-512 0a512 512 0 1 0 1024 0 512 512 0 1 0-1024 0Z" fill="#A7FCD0" /><path d="M405.6 139.2c0-3.2-3.2-6.4-8-7.2l-15.2-2.4c-4-0.8-8.8-4.8-8.8-8.8l-2.4-15.2c-0.8-4-4-8-7.2-8s-6.4 3.2-7.2 8l-2.4 15.2c-0.8 4-4.8 8.8-8.8 8.8l-15.2 2.4c-4 0.8-8 4-8 7.2s3.2 6.4 8 7.2l15.2 2.4c4 0.8 8.8 4.8 8.8 8.8l2.4 15.2c0.8 4 4 8 7.2 8s6.4-3.2 7.2-8l2.4-16.8c0.8-4 4.8-8 8.8-8.8l14.4-0.8c4.8-1.6 8.8-4 8.8-7.2zM986.4 452c0-3.2-3.2-6.4-8-7.2l-15.2-2.4c-4-0.8-8.8-4.8-8.8-8.8l-2.4-15.2c-0.8-4-4-8-7.2-8s-6.4 3.2-7.2 8l-2.4 15.2c-0.8 4-4.8 8.8-8.8 8.8l-15.2 2.4c-4 0.8-8 4-8 7.2s3.2 6.4 8 7.2l15.2 2.4c4 0.8 8.8 4.8 8.8 8.8l2.4 15.2c0.8 4 4 8 7.2 8s6.4-3.2 7.2-8l2.4-16.8c0.8-4 4.8-8 8.8-8.8l14.4-0.8c4.8-0.8 8.8-4 8.8-7.2zM700.8 222.4c-19.2 0-34.4-15.2-34.4-34.4s15.2-34.4 34.4-34.4 34.4 15.2 34.4 34.4c-0.8 18.4-16 34.4-34.4 34.4z m0-52.8c-10.4 0-18.4 8-18.4 18.4 0 10.4 8 18.4 18.4 18.4 10.4 0 18.4-8 18.4-18.4-0.8-10.4-8.8-18.4-18.4-18.4zM208.8 840.8c-19.2 0-34.4-15.2-34.4-34.4s15.2-34.4 34.4-34.4 34.4 15.2 34.4 34.4-15.2 34.4-34.4 34.4z m0-52.8c-10.4 0-18.4 8-18.4 18.4 0 10.4 8 18.4 18.4 18.4 10.4 0 18.4-8 18.4-18.4 0-9.6-8-18.4-18.4-18.4z" fill="#FFFFFF" /><path d="M860.8 687.2c0 26.4-21.6 48-48 48H217.6c-26.4 0-48-21.6-48-48V324.8c0-26.4 21.6-48 48-48h595.2c26.4 0 48 21.6 48 48v362.4z" fill="#EAEAEA" /><path d="M168.8 384.8h691.2V464H168.8z" fill="#105B4C" /><path d="M657.6 564.8h120v88h-120z" fill="#FFFFFF" /><path d="M428 576H225.6c-4.8 0-8-3.2-8-8s3.2-8 8-8h202.4c4.8 0 8 3.2 8 8s-4 8-8 8zM345.6 624H224.8c-4.8 0-8-3.2-8-8s3.2-8 8-8h120.8c4.8 0 8 3.2 8 8s-3.2 8-8 8zM312.8 672H225.6c-4.8 0-8-3.2-8-8s3.2-8 8-8h87.2c4.8 0 8 3.2 8 8s-4 8-8 8zM520 864H308c-4.8 0-8-3.2-8-8s3.2-8 8-8H520c4.8 0 8 3.2 8 8s-3.2 8-8 8zM740.8 864H585.6c-4.8 0-8-3.2-8-8s3.2-8 8-8h155.2c4.8 0 8 3.2 8 8s-3.2 8-8 8z" fill="#105B4C" /><path d="M816 736H224c-31.2 0-56-24.8-56-56V320c0-31.2 24.8-56 56-56h592c31.2 0 56 24.8 56 56v360c0 31.2-24.8 56-56 56zM224 280c-22.4 0-40 17.6-40 40v360c0 22.4 17.6 40 40 40h592c22.4 0 40-17.6 40-40V320c0-22.4-17.6-40-40-40H224z" fill="#105B4C" /><path d="M824 680c-4.8 0-8-3.2-8-8V499.2c0-4.8 3.2-8 8-8s8 3.2 8 8V672c0 4-3.2 8-8 8zM820.8 360.8c-4.8 0-8-3.2-8-8 0-13.6-10.4-24-24.8-24.8H408c-4.8 0-8-3.2-8-8s3.2-8 8-8h380.8c22.4 1.6 40 19.2 40 40.8 0 4.8-3.2 8-8 8zM350.4 328h-71.2c-4.8 0-8-3.2-8-8s3.2-8 8-8h71.2c4.8 0 8 3.2 8 8s-3.2 8-8 8z" fill="#FFFFFF" /><path d="M784 664H664c-4.8 0-8-3.2-8-8V568c0-4.8 3.2-8 8-8h120c4.8 0 8 3.2 8 8v88c0 4.8-3.2 8-8 8z m-112-16h104v-72H672v72z" fill="#105B4C" /></svg>