<?xml version="1.0" standalone="no"?><!DOCTYPE svg PUBLIC "-//W3C//DTD SVG 1.1//EN" "http://www.w3.org/Graphics/SVG/1.1/DTD/svg11.dtd"><svg class="icon" width="200px" height="200.00px" viewBox="0 0 1024 1024" version="1.1" xmlns="http://www.w3.org/2000/svg"><path d="M512 512m-512 0a512 512 0 1 0 1024 0 512 512 0 1 0-1024 0Z" fill="#FC8BA4" /><path d="M511.2 0C393.6 0 286.4 40 200 106.4L198.4 712c0 35.2 28.8 64 64 64h514.4c35.2 0 64-28.8 64-64l-0.8-592.8C751.2 44.8 637.6 0 512.8 0h-1.6z" fill="#EAEAEA" /><path d="M517.6 556m-140 0a140 140 0 1 0 280 0 140 140 0 1 0-280 0Z" fill="#FFFFFF" /><path d="M517.6 556m-140 0a140 140 0 1 0 280 0 140 140 0 1 0-280 0Z" fill="#FFFFFF" /><path d="M516 704C434.4 704 368 637.6 368 556S434.4 408 516 408 664 474.4 664 556 597.6 704 516 704z m0-280C443.2 424 384 483.2 384 556S443.2 688 516 688 648 628.8 648 556 588.8 424 516 424z" fill="#ADADAD" /><path d="M504.8 624c-4 0-8-1.6-11.2-4.8l-56.8-54.4c-6.4-6.4-6.4-16 0-22.4 6.4-6.4 16.8-6.4 23.2 0l44.8 43.2 163.2-157.6c6.4-6.4 16.8-6.4 23.2 0 6.4 6.4 6.4 16 0 22.4L516.8 620c-3.2 2.4-8 4-12 4z" fill="#75B600" /><path d="M752 136H592c-4.8 0-8-3.2-8-8s4-8 8-8h160c4.8 0 8 3.2 8 8s-4 8-8 8zM528 136H296c-4.8 0-8-3.2-8-8s3.2-8 8-8h232c4.8 0 8 3.2 8 8s-3.2 8-8 8zM664 80H296c-4.8 0-8-3.2-8-8s4-8 8-8h368c4.8 0 8 3.2 8 8s-4 8-8 8zM752 192H432c-4.8 0-8-3.2-8-8s4-8 8-8h320c4.8 0 8 3.2 8 8s-4 8-8 8zM360 192h-64c-4.8 0-8-3.2-8-8s3.2-8 8-8h64c4.8 0 8 3.2 8 8s-3.2 8-8 8zM751.2 248H696c-4.8 0-8.8-3.2-8.8-8s4-8 8.8-8h55.2c4.8 0 8.8 3.2 8.8 8s-4 8-8.8 8zM656 248H536c-4.8 0-8-3.2-8-8s4-8 8-8h120c4.8 0 8 3.2 8 8s-4 8-8 8zM480 248H296c-4.8 0-8-3.2-8-8s3.2-8 8-8h184c4.8 0 8 3.2 8 8s-3.2 8-8 8zM752 304H496c-4.8 0-8-3.2-8-8s3.2-8 8-8h256c4.8 0 8 3.2 8 8s-3.2 8-8 8zM424 304H296c-4.8 0-8-3.2-8-8s3.2-8 8-8h128c4.8 0 8 3.2 8 8s-3.2 8-8 8zM752 360H640c-4.8 0-8-3.2-8-8s4-8 8-8h112c4.8 0 8 3.2 8 8s-4 8-8 8zM560 360H296c-4.8 0-8-3.2-8-8s3.2-8 8-8h264c4.8 0 8 3.2 8 8s-3.2 8-8 8z" fill="#ADADAD" /><path d="M142.4 443.2c0-3.2-3.2-6.4-8-7.2l-15.2-2.4c-4-0.8-8.8-4.8-8.8-8.8l-2.4-15.2c-0.8-4-4-8-7.2-8s-6.4 3.2-7.2 8l-2.4 15.2c-0.8 4-4.8 8.8-8.8 8.8l-15.2 2.4c-4 0.8-8 4-8 7.2s3.2 6.4 8 7.2l15.2 2.4c4 0.8 8.8 4.8 8.8 8.8l2.4 15.2c0.8 4 4 8 7.2 8s6.4-3.2 7.2-8l2.4-16.8c0.8-4 4.8-8 8.8-8.8l14.4-0.8c4.8-1.6 8.8-4 8.8-7.2zM712 887.2c0-3.2-3.2-6.4-8-7.2l-15.2-2.4c-4-0.8-8.8-4.8-8.8-8.8l-2.4-15.2c-0.8-4-4-8-7.2-8s-6.4 3.2-7.2 8l-2.4 15.2c-0.8 4-4.8 8.8-8.8 8.8l-15.2 2.4c-4 0.8-8 4-8 7.2s3.2 6.4 8 7.2l15.2 2.4c4 0.8 8.8 4.8 8.8 8.8l3.2 14.4c0.8 4 4 8 7.2 8s6.4-3.2 7.2-8l2.4-16.8c0.8-4 4.8-8 8.8-8.8l14.4-0.8c4.8-0.8 8-3.2 8-6.4zM928 576c-17.6 0-32-14.4-32-32s14.4-32 32-32 32 14.4 32 32-14.4 32-32 32z m0-48.8c-9.6 0-16.8 8-16.8 16.8 0 9.6 8 16.8 16.8 16.8 9.6 0 16.8-8 16.8-16.8 0-9.6-7.2-16.8-16.8-16.8zM368 904c-17.6 0-32-14.4-32-32s14.4-32 32-32 32 14.4 32 32-14.4 32-32 32z m0-48.8c-9.6 0-16.8 8-16.8 16.8 0 9.6 8 16.8 16.8 16.8 9.6 0 16.8-8 16.8-16.8 0-9.6-7.2-16.8-16.8-16.8z" fill="#FFFFFF" opacity=".5" /><path d="M832 112.8V712c0 31.2-24.8 56-56 56H264c-31.2 0-56-24.8-56-56V100c-5.6 4-10.4 8-16 12v600c0 40 32 72 72 72h512c40 0 72-32 72-72V125.6c-5.6-4-10.4-8.8-16-12.8z" fill="#7C4119" /></svg>