<?xml version="1.0" standalone="no"?><!DOCTYPE svg PUBLIC "-//W3C//DTD SVG 1.1//EN" "http://www.w3.org/Graphics/SVG/1.1/DTD/svg11.dtd"><svg class="icon" width="200px" height="200.00px" viewBox="0 0 1024 1024" version="1.1" xmlns="http://www.w3.org/2000/svg"><path d="M512 512m-512 0a512 512 0 1 0 1024 0 512 512 0 1 0-1024 0Z" fill="#FC8BA4" /><path d="M896 648c-17.6 0-32-14.4-32-32s14.4-32 32-32 32 14.4 32 32-14.4 32-32 32z m0-48.8c-9.6 0-16.8 8-16.8 16.8 0 9.6 8 16.8 16.8 16.8s16.8-8 16.8-16.8c0-9.6-7.2-16.8-16.8-16.8zM152 432c-17.6 0-32-14.4-32-32s14.4-32 32-32 32 14.4 32 32-14.4 32-32 32z m0-48.8c-9.6 0-16.8 8-16.8 16.8 0 9.6 8 16.8 16.8 16.8 9.6 0 16.8-8 16.8-16.8 0-9.6-7.2-16.8-16.8-16.8zM162.4 632.8c0-3.2-3.2-6.4-8-7.2l-14.4-1.6c-4-0.8-8.8-4.8-8.8-8.8l-2.4-15.2c-0.8-4-4-8-7.2-8s-6.4 3.2-7.2 8l-2.4 15.2c-0.8 4-4.8 8.8-8.8 8.8l-15.2 2.4c-4 0.8-8 4-8 7.2s3.2 6.4 8 7.2l15.2 2.4c4 0.8 8.8 4.8 8.8 8.8l2.4 15.2c0.8 4 4 8 7.2 8s6.4-3.2 7.2-8l2.4-16.8c0.8-4 4.8-8 8.8-8.8l14.4-0.8c4.8-1.6 8-4.8 8-8zM938.4 394.4c0-3.2-3.2-6.4-8-7.2l-15.2-2.4c-4-0.8-8.8-4.8-8.8-8.8l-2.4-15.2c-0.8-4-4-8-7.2-8s-6.4 3.2-7.2 8L888 376c-0.8 4-4.8 8.8-8.8 8.8l-15.2 2.4c-4 0.8-8 4-8 7.2s3.2 6.4 8 7.2l15.2 2.4c4 0.8 8.8 4.8 8.8 8.8l2.4 15.2c0.8 4 4 8 7.2 8s6.4-3.2 7.2-8l2.4-16.8c0.8-4 4.8-8 8.8-8.8l14.4-0.8c4-1.6 8-4 8-7.2z" fill="#FFFFFF" opacity=".5" /><path d="M360.8 211.2h299.2c4 0 8 3.2 8 8v53.6c0 12.8-10.4 23.2-23.2 23.2H376c-12.8 0-23.2-10.4-23.2-23.2v-53.6c0.8-4.8 4-8 8-8z" fill="#D4D6D6" /><path d="M776.8 816.8c0 17.6-14.4 32-32 32H272c-17.6 0-32-14.4-32-32l0.8-578.4c0-17.6 14.4-32 32-32h472.8c17.6 0 32 14.4 32 32v578.4z" fill="#415E6D" /><path d="M724 781.6c0 8.8-7.2 16-16 16H309.6c-8.8 0-16-7.2-16-16V276c0-8.8 7.2-16 16-16h399.2c8.8 0 16 7.2 16 16v505.6z" fill="#FFFFFF" /><path d="M300 652h424V728h-424z" fill="#EAEAEA" /><path d="M721.6 641.6V280H292.8v363.2c0.8 27.2 21.6 48.8 48.8 51.2h433.6c29.6 0 52.8-24 52.8-52.8H721.6z" fill="#FFFFFF" /><path d="M344 260v18.4c0 13.6 10.4 24.8 24 24.8h280c13.6 0 24-11.2 24-24.8v-18.4H344z" fill="#EAEAEA" /><path d="M704 808H312c-13.6 0-24-10.4-24-24V280c0-13.6 10.4-24 24-24h392c13.6 0 24 10.4 24 24v504c0 13.6-10.4 24-24 24zM312 272c-4.8 0-8 3.2-8 8v504c0 4.8 3.2 8 8 8h392c4.8 0 8-3.2 8-8V280c0-4.8-3.2-8-8-8H312z" fill="#233E49" /><path d="M744 856H272c-22.4 0-40-17.6-40-40V240c0-22.4 17.6-40 40-40h472c22.4 0 40 17.6 40 40v576c0 22.4-17.6 40-40 40zM272 216c-13.6 0-24 10.4-24 24v576c0 13.6 10.4 24 24 24h472c13.6 0 24-10.4 24-24V240c0-13.6-10.4-24-24-24H272z" fill="#233E49" /><path d="M537.6 137.6h-53.6c-12 0-24 2.4-36.8 11.2-12.8 8.8-57.6 40.8-73.6 52-16 11.2-20 22.4-20 32.8v16.8c0 12.8 10.4 23.2 23.2 23.2h268c12.8 0 23.2-10.4 23.2-23.2v-16.8c0-12-9.6-25.6-19.2-32s-60-44-72-52c-11.2-7.2-23.2-12-39.2-12z" fill="#EAEAEA" /><path d="M623.2 240.8h-38.4c-4.8 0-8.8-3.2-8.8-8s4-8 8.8-8h38.4c4.8 0 8.8 3.2 8.8 8 0 4-4 8-8.8 8zM560 240H400c-4.8 0-8-3.2-8-8s4-8 8-8h160c4.8 0 8 3.2 8 8s-4 8-8 8z" fill="#FFFFFF" /><path d="M488 188a20 20 0 1 0 40 0 20 20 0 1 0-40 0Z" fill="#FC8BA4" /><path d="M648 248H376c-12 0-20.8-4.8-22.4-16v20c0 12 10.4 21.6 23.2 21.6h268c12.8 0 23.2-9.6 23.2-21.6v-16-3.2c-2.4 10.4-8.8 15.2-20 15.2z" fill="#D4D6D6" /><path d="M641.6 280H374.4c-17.6 0-30.4-12.8-30.4-28.8v-16.8c0-15.2 8-28 23.2-39.2 15.2-10.4 56-39.2 71.2-50.4l2.4-1.6c13.6-9.6 27.2-14.4 40.8-14.4h53.6c18.4 0 31.2 7.2 43.2 15.2 8.8 5.6 40 28.8 58.4 42.4 6.4 4.8 10.4 8 12.8 9.6 10.4 8 22.4 23.2 22.4 38.4v16.8c0 16-13.6 28.8-30.4 28.8z m-160-136c-10.4 0-20.8 4-32 11.2l-1.6 2.4c-15.2 11.2-56 40-71.2 50.4-15.2 10.4-16.8 20-16.8 25.6v16.8c0 8.8 8 12.8 15.2 12.8h266.4c7.2 0 15.2-4 15.2-12.8v-16.8c0-8.8-8-20-16-25.6-2.4-1.6-7.2-5.6-12.8-9.6-18.4-13.6-48.8-36-57.6-41.6C560 149.6 550.4 144 536 144h-54.4z" fill="#233E49" /><path d="M508 216c-15.2 0-28-12.8-28-28s12.8-28 28-28 28 12.8 28 28-12.8 28-28 28z m0-40c-6.4 0-12 5.6-12 12s5.6 12 12 12 12-5.6 12-12-5.6-12-12-12z" fill="#233E49" /><path d="M402.4 644s-9.6 25.6-18.4 32.8-28.8 18.4-28.8 18.4l417.6 1.6s31.2-4 42.4-24.8 12.8-30.4 12.8-30.4l-425.6 2.4z" fill="#EAEAEA" /><path d="M345.6 704c-32 0-57.6-27.2-57.6-62.4 0-4.8 3.2-8 8-8s8 3.2 8 8c0 26.4 18.4 46.4 41.6 46.4 24 0 44.8-22.4 44.8-48 0-4.8 3.2-8 8-8h323.2c4.8 0 8 3.2 8 8s-3.2 8-8 8H406.4c-4 31.2-30.4 56-60.8 56z" fill="#233E49" /><path d="M771.2 704H340.8c-2.4 0-4-0.8-5.6-2.4-27.2-4.8-45.6-28-47.2-58.4V280c0-4.8 3.2-8 8-8 4 0 8 3.2 8 8v363.2c0.8 23.2 16 41.6 37.6 43.2 1.6 0 3.2 0.8 4.8 1.6h425.6c21.6 0 40-17.6 44-40H720c-4 0-8-3.2-8-8V328c0-4.8 4-8 8-8s8 3.2 8 8v304h96c4 0 8 3.2 8 8 0 34.4-28 64-60.8 64z" fill="#233E49" /><path d="M785.6 672H424.8c-4.8 0-8-3.2-8-8s3.2-8 8-8h360.8c4.8 0 8 3.2 8 8s-3.2 8-8 8z" fill="#FFFFFF" /><path d="M568 480H360c-4.8 0-8-3.2-8-8s4-8 8-8h208c4.8 0 8 3.2 8 8s-4 8-8 8zM464 536H360c-4.8 0-8-3.2-8-8s4-8 8-8h104c4.8 0 8 3.2 8 8s-4 8-8 8zM464 360H360c-4.8 0-8-3.2-8-8s4-8 8-8h104c4.8 0 8 3.2 8 8s-4 8-8 8zM552 592H360c-4.8 0-8-3.2-8-8s4-8 8-8h192c4.8 0 8 3.2 8 8s-4 8-8 8zM608 536H512c-4 0-8-3.2-8-8s3.2-8 8-8h96c4 0 8 3.2 8 8s-3.2 8-8 8z" fill="#ADADAD" /><path d="M752 616c-4.8 0-8-3.2-8-8v-64c0-4 3.2-8 8-8s8 3.2 8 8v64c0 4.8-3.2 8-8 8zM752 496c-4.8 0-8-4-8-8V267.2c0-8-2.4-14.4-6.4-19.2-8-8-23.2-8-31.2-8h-1.6c-4.8 0-8-4-8-8 0-4.8 3.2-8 8-8h1.6c9.6 0 29.6 0 42.4 12.8 7.2 7.2 11.2 17.6 11.2 30.4V488c0 4-3.2 8-8 8zM488 832H312.8c-56.8 0-56.8-40-56.8-64V600c0-4.8 3.2-8 8-8s8 3.2 8 8v168c0 28.8 3.2 48 40.8 48H488c4.8 0 8 3.2 8 8s-3.2 8-8 8z" fill="#FFFFFF" opacity=".5" /></svg>