<?xml version="1.0" standalone="no"?><!DOCTYPE svg PUBLIC "-//W3C//DTD SVG 1.1//EN" "http://www.w3.org/Graphics/SVG/1.1/DTD/svg11.dtd"><svg class="icon" width="200px" height="200.00px" viewBox="0 0 1024 1024" version="1.1" xmlns="http://www.w3.org/2000/svg"><path d="M512 512m-512 0a512 512 0 1 0 1024 0 512 512 0 1 0-1024 0Z" fill="#3DB39E" /><path d="M248 304.8c-28.8-44-16.8-105.6 28-135.2 44.8-29.6 106.4-16 135.2 28L248 304.8z" fill="#EAEAEA" /><path d="M281.6 166.4c-1.6 0.8-4 2.4-5.6 3.2-44.8 29.6-56.8 91.2-28 135.2l30.4-20c-20-37.6-18.4-83.2 3.2-118.4z" fill="#D4D6D6" /><path d="M369.6 736.8c8.8 8.8 8 23.2-1.6 32.8l-61.6 61.6c-9.6 9.6-24 9.6-32.8 1.6-8.8-8.8-8-23.2 1.6-32.8l61.6-61.6c9.6-9.6 24.8-10.4 32.8-1.6zM658.4 736.8c-8.8 8.8-8 23.2 1.6 32.8l61.6 61.6c9.6 9.6 24 9.6 32.8 1.6 8.8-8.8 8-23.2-1.6-32.8l-61.6-61.6c-9.6-9.6-24-10.4-32.8-1.6z" fill="#FBD000" /><path d="M286.4 848c-8 0-16-3.2-21.6-8.8-12-12-11.2-32 1.6-44.8l63.2-62.4c6.4-6.4 15.2-9.6 24-9.6 8 0 16 3.2 21.6 8.8 12 12 11.2 32-1.6 44.8l-63.2 62.4c-6.4 5.6-15.2 9.6-24 9.6z m67.2-108.8c-4.8 0-8.8 1.6-12 4.8l-63.2 62.4c-6.4 6.4-7.2 16-1.6 21.6 5.6 5.6 16 4.8 22.4-1.6l63.2-62.4c6.4-6.4 7.2-16 1.6-21.6-3.2-1.6-6.4-3.2-10.4-3.2zM737.6 848c-8.8 0-17.6-4-24-9.6L650.4 776c-12.8-12.8-13.6-32.8-1.6-44.8 5.6-5.6 13.6-8.8 21.6-8.8 8.8 0 17.6 4 24 9.6l63.2 62.4c12.8 12.8 13.6 32.8 1.6 44.8-5.6 5.6-13.6 8.8-21.6 8.8z m-67.2-108.8c-4 0-7.2 1.6-9.6 4-5.6 5.6-4.8 15.2 1.6 21.6l63.2 62.4c6.4 6.4 16.8 6.4 22.4 1.6 5.6-5.6 4.8-15.2-1.6-21.6l-64-63.2c-3.2-3.2-8-4.8-12-4.8zM247.2 312.8h-1.6c-2.4-0.8-4-1.6-4.8-3.2-15.2-23.2-20-52-14.4-80s21.6-52 44.8-68c16.8-11.2 36-16.8 56.8-16.8 35.2 0 68 17.6 87.2 48 2.4 4 1.6 8.8-2.4 11.2L252 311.2c-1.6 0.8-3.2 1.6-4.8 1.6z m80-152.8c-16.8 0-33.6 4.8-48 14.4-20 12.8-32.8 33.6-37.6 57.6-4 20.8-1.6 42.4 8 60.8l147.2-98.4c-16.8-21.6-42.4-34.4-69.6-34.4z" fill="#7C4119" /><path d="M769.6 304.8c28.8-44 16.8-105.6-28-135.2-44.8-29.6-106.4-16-135.2 28l163.2 107.2z" fill="#EAEAEA" /><path d="M724.8 160.8c-42.4-16.8-92.8-2.4-118.4 36.8l26.4 16.8c23.2-29.6 56.8-48.8 92-53.6z" fill="#D4D6D6" /><path d="M768.8 312.8c-1.6 0-3.2-0.8-4-1.6L603.2 203.2c-4-2.4-4.8-7.2-2.4-11.2 19.2-30.4 52-48 87.2-48 20 0 40 5.6 56.8 17.6 23.2 15.2 39.2 40 44.8 68 5.6 28 0.8 56-14.4 80-1.6 1.6-4 3.2-6.4 3.2zM619.2 194.4l147.2 98.4c9.6-18.4 12.8-40 8-60.8-4.8-24-18.4-44-37.6-57.6-14.4-9.6-30.4-14.4-48-14.4-27.2 0-52.8 12.8-69.6 34.4z" fill="#7C4119" /><path d="M512 521.6m-320.8 0a320.8 320.8 0 1 0 641.6 0 320.8 320.8 0 1 0-641.6 0Z" fill="#FBD000" /><path d="M512 521.6m-254.4 0a254.4 254.4 0 1 0 508.8 0 254.4 254.4 0 1 0-508.8 0Z" fill="#FFFFFF" /><path d="M512 346.4c127.2 0 232 92.8 251.2 215.2 2.4-12.8 3.2-26.4 3.2-39.2 0-140.8-113.6-254.4-254.4-254.4S257.6 381.6 257.6 522.4c0 13.6 0.8 26.4 3.2 39.2C279.2 439.2 384.8 346.4 512 346.4z" fill="#EAEAEA" /><path d="M522.4 542.4c-8 3.2-17.6 0-20.8-8v-0.8c-3.2-8 0-17.6 8-20.8l132-57.6c8-3.2 17.6 0 20.8 8v0.8c3.2 8 0 17.6-8 20.8l-132 57.6z" fill="#EAEAEA" /><path d="M512 529.6m-30.4 0a30.4 30.4 0 1 0 60.8 0 30.4 30.4 0 1 0-60.8 0Z" fill="#EAEAEA" /><path d="M512 304v24" fill="#FFFFFF" /><path d="M512 336c-4.8 0-8-3.2-8-8v-24c0-4.8 3.2-8 8-8s8 3.2 8 8v24c0 4.8-3.2 8-8 8z" fill="#7C4119" /><path d="M512 720v24" fill="#FFFFFF" /><path d="M512 752c-4.8 0-8-3.2-8-8v-24c0-4.8 3.2-8 8-8s8 3.2 8 8v24c0 4.8-3.2 8-8 8z" fill="#7C4119" /><path d="M720 528h-24" fill="#FFFFFF" /><path d="M720 536h-24c-4.8 0-8-3.2-8-8s3.2-8 8-8h24c4.8 0 8 3.2 8 8s-3.2 8-8 8z" fill="#7C4119" /><path d="M336 528h-24" fill="#FFFFFF" /><path d="M336 536h-24c-4.8 0-8-3.2-8-8s3.2-8 8-8h24c4.8 0 8 3.2 8 8s-3.2 8-8 8zM950.4 856H89.6c-4.8 0-8-3.2-8-8s3.2-8 8-8h860.8c4.8 0 8 3.2 8 8s-4 8-8 8z" fill="#7C4119" /><path d="M512 794.4c-168.8 0-307.2-130.4-320-296.8-0.8 8-0.8 16-0.8 24 0 176.8 143.2 320.8 320.8 320.8 176.8 0 320.8-143.2 320.8-320.8 0-8-0.8-16-0.8-24-12.8 165.6-151.2 296.8-320 296.8z" fill="#F4B10B" /><path d="M520 552c-9.6 0-17.6-5.6-21.6-14.4v-0.8c-2.4-5.6-2.4-12 0-17.6 2.4-5.6 6.4-10.4 12.8-12.8l128.8-56c3.2-1.6 6.4-1.6 9.6-1.6 9.6 0 17.6 5.6 21.6 14.4v0.8c2.4 5.6 2.4 12 0 18.4-2.4 5.6-6.4 10.4-12.8 12.8l-128.8 56c-3.2 0-6.4 0.8-9.6 0.8z m128.8-88c-0.8 0-2.4 0-3.2 0.8l-128.8 56c-1.6 0.8-3.2 2.4-4 4-0.8 1.6-0.8 4 0 5.6v0.8c1.6 4 6.4 5.6 10.4 4l128.8-56c1.6-0.8 3.2-2.4 4-4 0.8-1.6 0.8-4 0-5.6v-0.8c-1.6-3.2-4-4.8-7.2-4.8z" fill="#7C4119" /><path d="M512 848c-180.8 0-328-147.2-328-328s147.2-328 328-328 328 147.2 328 328-147.2 328-328 328z m0-640c-172 0-312 140-312 312s140 312 312 312 312-140 312-312-140-312-312-312z" fill="#7C4119" /><path d="M512 528m-40 0a40 40 0 1 0 80 0 40 40 0 1 0-80 0Z" fill="#7C4119" /><path d="M512 784c-145.6 0-264-118.4-264-264s118.4-264 264-264 264 118.4 264 264-118.4 264-264 264z m0-512c-136.8 0-248 111.2-248 248s111.2 248 248 248 248-111.2 248-248-111.2-248-248-248z" fill="#7C4119" /><path d="M802.4 571.2h-0.8c-4-0.8-7.2-4.8-7.2-8.8 1.6-13.6 3.2-27.2 3.2-40 0-128-85.6-240.8-208.8-275.2-4-0.8-6.4-5.6-5.6-9.6 0.8-4 5.6-6.4 9.6-5.6 129.6 36 220.8 156 220.8 290.4 0 14.4-0.8 28.8-3.2 42.4-0.8 3.2-4 6.4-8 6.4zM336 294.4c-2.4 0-4.8-0.8-6.4-3.2-2.4-3.2-1.6-8.8 1.6-11.2 52-39.2 114.4-60 180-60 4.8 0 8 3.2 8 8s-3.2 8-8 8c-62.4 0-120.8 19.2-170.4 56.8-1.6 0.8-3.2 1.6-4.8 1.6z" fill="#FFFFFF" /><path d="M904 464c-17.6 0-32-14.4-32-32s14.4-32 32-32 32 14.4 32 32-14.4 32-32 32z m0-48.8c-9.6 0-16.8 8-16.8 16.8 0 9.6 8 16.8 16.8 16.8 9.6 0 16.8-8 16.8-16.8 0-9.6-7.2-16.8-16.8-16.8zM128 648c-17.6 0-32-14.4-32-32s14.4-32 32-32 32 14.4 32 32-14.4 32-32 32z m0-48.8c-9.6 0-16.8 8-16.8 16.8 0 9.6 8 16.8 16.8 16.8 9.6 0 16.8-8 16.8-16.8 0-9.6-7.2-16.8-16.8-16.8zM575.2 97.6c0-3.2-3.2-6.4-8-7.2L552 88c-4-0.8-8.8-4.8-8.8-8.8L540.8 64c-0.8-4-4-8-7.2-8s-6.4 3.2-7.2 8l-2.4 15.2c-0.8 4-4.8 8.8-8.8 8.8l-15.2 2.4c-4 0.8-8 4-8 7.2s3.2 6.4 8 7.2l15.2 2.4c4 0.8 8.8 4.8 8.8 8.8l2.4 15.2c0.8 4 4 8 7.2 8s6.4-3.2 7.2-8l2.4-16.8c0.8-4 4.8-8 8.8-8.8l14.4-0.8c5.6-0.8 8.8-4 8.8-7.2z" fill="#FFFFFF" opacity=".5" /><path d="M508.8 528.8L415.2 687.2" fill="#FFFFFF" /><path d="M415.2 695.2c-1.6 0-3.2 0-4-0.8-4-2.4-4.8-7.2-2.4-11.2l94.4-158.4c2.4-4 7.2-4.8 11.2-2.4 4 2.4 4.8 7.2 2.4 11.2L421.6 691.2c-1.6 2.4-4 4-6.4 4z" fill="#7C4119" /><path d="M757.6 271.2h-0.8c-4-0.8-7.2-4.8-7.2-8.8 4.8-43.2-22.4-66.4-23.2-68-3.2-3.2-4-8-0.8-11.2 3.2-3.2 8-4 11.2-0.8 1.6 0.8 35.2 29.6 29.6 81.6-0.8 4-4.8 7.2-8.8 7.2zM378.4 200c-1.6 0-3.2-0.8-4-1.6-36-23.2-77.6-8-77.6-8-4 1.6-8.8-0.8-10.4-4.8-1.6-4 0.8-8.8 4.8-10.4 1.6-0.8 49.6-17.6 92 9.6 4 2.4 4.8 7.2 2.4 11.2-2.4 2.4-4.8 4-7.2 4z" fill="#FFFFFF" /></svg>