<?xml version="1.0" standalone="no"?><!DOCTYPE svg PUBLIC "-//W3C//DTD SVG 1.1//EN" "http://www.w3.org/Graphics/SVG/1.1/DTD/svg11.dtd"><svg class="icon" width="200px" height="200.00px" viewBox="0 0 1024 1024" version="1.1" xmlns="http://www.w3.org/2000/svg"><path d="M943.79 483.61c-19.19-68.78-82.51-163.76-161.4-242.06-78.24-78.83-173.21-142.14-242-161.34a125.75 125.75 0 0 0-56.81 0c-68.77 19.19-163.75 82.51-242 161.41C162.72 319.85 99.4 414.83 80.21 483.6c-4.34 16.2-4.34 40.6 0 56.81 19.19 68.77 82.51 163.74 161.4 242 78.24 78.83 173.22 142.15 242 161.34a125.62 125.62 0 0 0 56.78 0c68.78-19.18 163.76-82.51 242.07-161.41 78.83-78.24 142.15-173.21 161.34-242 4.33-16.15 4.33-40.53-0.01-56.73zM505 799.44c-29.7 0-53.86-23.49-53.86-52.36s24.16-52.36 53.86-52.36 53.86 23.49 53.86 52.36-24.21 52.36-53.86 52.36z m117.7-307.37a335.68 335.68 0 0 1-49.12 41.26l-0.4 0.26c-26 16.65-36.52 25-36.52 64.18a88.63 88.63 0 0 0 0.54 9.78 32.95 32.95 0 0 1-29.1 36.4 32.43 32.43 0 0 1-3.68 0.21 32.91 32.91 0 0 1-32.73-29.31 154.51 154.51 0 0 1-0.95-17.08c0-30.65 5.35-53.77 16.83-72.78 10.17-16.86 25.07-30.84 49.79-46.74 23.75-15.84 72.58-59.36 72.58-93.29 0-53.36-34-84-93.26-84-31.52 0-61 13.36-81 36.65a33 33 0 1 1-50.05-42.89c32.49-37.92 80.25-59.68 131.05-59.68 45.93 0 85.27 13.71 113.75 39.65 29.72 27 45.43 65.18 45.43 110.24-0.05 35.07-17.94 71.07-53.21 107.14z" fill="#F9DB91" /><path d="M630.38 274.72c-28.48-25.94-67.82-39.65-113.75-39.65-50.8 0-98.56 21.76-131 59.68a33 33 0 0 0 50.05 42.89c20-23.29 49.48-36.65 81-36.65 59.27 0 93.26 30.61 93.26 84 0 33.93-48.83 77.45-72.58 93.29-24.72 15.9-39.62 29.88-49.79 46.74-11.48 19-16.83 42.13-16.83 72.78a154.51 154.51 0 0 0 0.95 17.08 32.91 32.91 0 0 0 32.73 29.31 33.1 33.1 0 0 0 25.77-12.38 32.81 32.81 0 0 0 7-24.23 88.63 88.63 0 0 1-0.54-9.78c0-39.22 10.54-47.53 36.52-64.18l0.4-0.26a335.68 335.68 0 0 0 49.12-41.26C657.92 456 675.81 420 675.81 385c0-45.1-15.71-83.23-45.43-110.28zM505 694.72c-29.7 0-53.86 23.49-53.86 52.36s24.16 52.36 53.86 52.36 53.86-23.49 53.86-52.36-24.21-52.36-53.86-52.36z" fill="#EF6A6A" /><path d="M956.33 480.18c-19.76-70.91-84-167.63-164.72-247.79-80.16-80.76-176.88-145-247.79-164.72C534.61 65.19 523.3 64 512 64s-22.61 1.23-31.82 3.71c-70.91 19.76-167.63 84-247.79 164.72-80.76 80.16-145 176.88-164.72 247.79-5 18.43-5 45.21 0 63.64 19.76 70.91 84 167.63 164.72 247.79 80.16 80.76 176.88 145 247.79 164.72 9.21 2.44 20.52 3.63 31.82 3.63s22.61-1.23 31.82-3.71c70.91-19.76 167.63-84 247.79-164.72 80.76-80.16 145-176.88 164.72-247.79 4.95-18.39 4.95-45.17 0-63.6zM931.25 537c-9 32.19-28.38 71.22-56.06 112.88-28.29 42.58-63.53 85.22-101.89 123.3l-0.14 0.13c-38.08 38.37-80.72 73.6-123.3 101.9-41.66 27.66-80.69 47.04-112.86 56.04a113.22 113.22 0 0 1-50 0c-32.2-9-71.22-28.38-112.88-56.06-42.58-28.3-85.22-63.53-123.3-101.9l-0.14-0.13c-38.36-38.08-73.59-80.72-101.89-123.3-27.66-41.66-47.05-80.69-56.04-112.86-3.74-14-3.74-35.91 0-49.94 9-32.2 28.38-71.23 56.06-112.89 28.3-42.58 63.53-85.22 101.89-123.3a0.93 0.93 0 0 0 0.14-0.14c38.08-38.36 80.72-73.59 123.3-101.89 41.65-27.68 80.68-47.06 112.88-56.06a113.22 113.22 0 0 1 50 0c32.2 9 71.22 28.38 112.88 56.06 42.58 28.3 85.22 63.53 123.3 101.89l0.14 0.14c38.36 38.08 73.6 80.72 101.89 123.3 27.68 41.66 47.06 80.69 56.06 112.88 3.71 14.01 3.71 35.89-0.04 49.95z" fill="#512C56" /><path d="M639.13 265.1c-30.91-28.15-73.28-43-122.51-43-54.59 0-105.95 23.41-140.92 64.23a46 46 0 0 0 69.81 59.8C463 325.69 488.91 314 516.62 314c36.62 0 80.27 12.31 80.27 71 0 24.74-38.68 63.7-66.7 82.42-26.45 17-42.55 32.24-53.8 50.89-12.76 21.12-18.7 46.38-18.7 79.49a168.26 168.26 0 0 0 1 18.53 46 46 0 1 0 91.35-10.19 74.53 74.53 0 0 1-0.46-8.34c0-32.42 5.83-37.4 30.53-53.22h0.12l0.33-0.22h0.12a343 343 0 0 0 51.23-43c37.73-38.54 56.87-77.64 56.87-116.2 0-23.95-4.18-46.31-12.43-66.45a146.74 146.74 0 0 0-37.22-53.61zM613.36 483a320.08 320.08 0 0 1-47 39.5l-0.25 0.17c-29.6 19-42.5 31-42.5 75.11a102.39 102.39 0 0 0 0.62 11.23 20 20 0 0 1-17.62 22 18.94 18.94 0 0 1-2.24 0.13 20 20 0 0 1-19.81-17.75 140.71 140.71 0 0 1-0.87-15.65c0-57.73 19.63-82.21 60.74-108.63 21.91-14.59 78.46-61.56 78.46-104.17 0-60.72-39.72-97-106.27-97-35.31 0-68.43 15-90.86 41.19a20 20 0 1 1-30.31-26c30-35 74.19-55.14 121.17-55.14 42.65 0 79 12.54 105 36.26 26.94 24.53 41.18 59.33 41.18 100.63 0.01 31.6-16.63 64.58-49.44 98.12zM505 681.72c-36.87 0-66.86 29.32-66.86 65.36s30 65.36 66.86 65.36 66.86-29.32 66.86-65.36-30.04-65.36-66.86-65.36z m0 104.72c-22.57 0-40.86-17.62-40.86-39.36s18.29-39.36 40.86-39.36 40.86 17.62 40.86 39.36-18.35 39.36-40.86 39.36z" fill="#512C56" /></svg>