<?xml version="1.0" standalone="no"?><!DOCTYPE svg PUBLIC "-//W3C//DTD SVG 1.1//EN" "http://www.w3.org/Graphics/SVG/1.1/DTD/svg11.dtd"><svg class="icon" width="200px" height="200.00px" viewBox="0 0 1024 1024" version="1.1" xmlns="http://www.w3.org/2000/svg"><path d="M512 512m-512 0a512 512 0 1 0 1024 0 512 512 0 1 0-1024 0Z" fill="#F99900" /><path d="M952 696c0 35.2-28.8 64-64 64H136c-35.2 0-64-28.8-64-64V224c0-35.2 28.8-64 64-64h752c35.2 0 64 28.8 64 64v472z" fill="#EAEAEA" /><path d="M887.2 160h-752C100 160 72 184.8 72 220V664h880V220c0-35.2-29.6-60-64.8-60z" fill="#3AD0F9" /><path d="M954.4 912H65.6c-4.8 0-8-3.2-8-8s3.2-8 8-8h889.6c4.8 0 8 3.2 8 8s-4 8-8.8 8zM888 768H136c-40 0-72-32-72-72V224c0-40 32-72 72-72h752c40 0 72 32 72 72v472c0 40-32 72-72 72zM136 168c-31.2 0-56 24.8-56 56v472c0 31.2 24.8 56 56 56h752c31.2 0 56-24.8 56-56V224c0-31.2-24.8-56-56-56H136z" fill="#6B3C1C" /><path d="M944 672H72c-4.8 0-8-3.2-8-8s3.2-8 8-8h872c4.8 0 8 3.2 8 8s-3.2 8-8 8z" fill="#6B3C1C" /><path d="M424 760h168v144H424z" fill="#EAEAEA" /><path d="M424 760h168v48H424z" fill="#D4D6D6" /><path d="M592 912H424c-4.8 0-8-3.2-8-8V760c0-4.8 3.2-8 8-8h168c4.8 0 8 3.2 8 8v144c0 4.8-3.2 8-8 8z m-160-16h152V768H432v128z" fill="#6B3C1C" /><path d="M698.4 904c-8.8-24-32-40-58.4-40H381.6c-26.4 0-49.6 16-58.4 40h375.2z" fill="#EAEAEA" /><path d="M698.4 912H323.2c-2.4 0-4.8-1.6-6.4-3.2-1.6-2.4-1.6-4.8-0.8-7.2 10.4-27.2 36.8-44.8 66.4-44.8H640c29.6 0 55.2 17.6 66.4 44.8 0.8 2.4 0.8 5.6-0.8 7.2-1.6 1.6-4 3.2-7.2 3.2z m-361.6-16h348.8c-9.6-15.2-26.4-24-45.6-24H381.6c-18.4 0-35.2 8.8-44.8 24z" fill="#6B3C1C" /><path d="M208 432c-1.6 0-4-0.8-5.6-2.4-3.2-3.2-3.2-8 0-11.2l176-176c3.2-3.2 8-3.2 11.2 0 3.2 3.2 3.2 8 0 11.2l-176 176c-1.6 1.6-4 2.4-5.6 2.4zM240 576c-2.4 0-4-0.8-5.6-2.4-3.2-3.2-3.2-8 0-11.2l328-328c3.2-3.2 8-3.2 11.2 0 3.2 3.2 3.2 8 0 11.2l-328 328c-1.6 1.6-3.2 2.4-5.6 2.4zM464 496c-2.4 0-4-0.8-5.6-2.4-3.2-3.2-3.2-8 0-11.2l168-168c3.2-3.2 8-3.2 11.2 0 3.2 3.2 3.2 8 0 11.2l-168 168c-1.6 1.6-3.2 2.4-5.6 2.4zM560 520c-2.4 0-4-0.8-5.6-2.4-3.2-3.2-3.2-8.8 0-12l103.2-103.2c3.2-3.2 8.8-3.2 12 0 3.2 3.2 3.2 8.8 0 12L566.4 517.6c-1.6 1.6-4 2.4-6.4 2.4zM696 384c-2.4 0-4-0.8-5.6-2.4-3.2-3.2-3.2-8 0-11.2l56-56c3.2-3.2 8-3.2 11.2 0 3.2 3.2 3.2 8 0 11.2l-56 56c-1.6 1.6-4 2.4-5.6 2.4z" fill="#FFFFFF" /><path d="M512 608m-24 0a24 24 0 1 0 48 0 24 24 0 1 0-48 0Z" fill="#92C438" /><path d="M440 608m-24 0a24 24 0 1 0 48 0 24 24 0 1 0-48 0Z" fill="#F74541" /><path d="M584 608m-24 0a24 24 0 1 0 48 0 24 24 0 1 0-48 0Z" fill="#FBD000" /><path d="M452 97.6c0-3.2-3.2-6.4-8-7.2l-15.2-2.4c-4-0.8-8.8-4.8-8.8-8.8L417.6 64c-0.8-4-4-8-7.2-8s-6.4 3.2-7.2 8l-2.4 15.2c-0.8 4-4.8 8.8-8.8 8.8l-15.2 2.4c-4 0.8-8 4-8 7.2s3.2 6.4 8 7.2l15.2 2.4c4 0.8 8.8 4.8 8.8 8.8l2.4 15.2c0.8 4 4 8 7.2 8s6.4-3.2 7.2-8l2.4-16.8c0.8-4 4.8-8 8.8-8.8l14.4-0.8c4.8-1.6 8.8-4 8.8-7.2zM843.2 821.6c0-3.2-3.2-6.4-8-7.2l-15.2-2.4c-4-0.8-8.8-4.8-8.8-8.8l-2.4-15.2c-0.8-4-4-8-7.2-8s-6.4 3.2-7.2 8l-2.4 15.2c-0.8 4-4.8 8.8-8.8 8.8l-15.2 2.4c-4 0.8-8 4-8 7.2s3.2 6.4 8 7.2l15.2 2.4c4 0.8 8.8 4.8 8.8 8.8l2.4 15.2c0.8 4 4 8 7.2 8s6.4-3.2 7.2-8l2.4-16.8c0.8-4 4.8-8 8.8-8.8l14.4-0.8c5.6-1.6 8.8-4.8 8.8-7.2zM640 128c-17.6 0-32-14.4-32-32s14.4-32 32-32 32 14.4 32 32-14.4 32-32 32z m0-48.8c-9.6 0-16.8 8-16.8 16.8 0 9.6 8 16.8 16.8 16.8 9.6 0 16.8-8 16.8-16.8 0-9.6-7.2-16.8-16.8-16.8z" fill="#FFFFFF" opacity=".5" /></svg>