<?xml version="1.0" standalone="no"?><!DOCTYPE svg PUBLIC "-//W3C//DTD SVG 1.1//EN" "http://www.w3.org/Graphics/SVG/1.1/DTD/svg11.dtd"><svg class="icon" width="200px" height="200.00px" viewBox="0 0 1024 1024" version="1.1" xmlns="http://www.w3.org/2000/svg"><path d="M512 512m-512 0a512 512 0 1 0 1024 0 512 512 0 1 0-1024 0Z" fill="#3DB39E" /><path d="M153.6 413.6c0-3.2-3.2-6.4-8-7.2l-15.2-2.4c-4-0.8-8.8-4.8-8.8-8.8l-2.4-15.2c-0.8-4-4-8-7.2-8s-6.4 3.2-7.2 8l-2.4 15.2c-0.8 4-4.8 8.8-8.8 8.8l-15.2 2.4c-4 0.8-8 4-8 7.2s3.2 6.4 8 7.2l15.2 2.4c4 0.8 8.8 4.8 8.8 8.8l2.4 15.2c0.8 4 4 8 7.2 8s6.4-3.2 7.2-8l2.4-16.8c0.8-4 4.8-8 8.8-8.8l14.4-0.8c4.8-1.6 8.8-4 8.8-7.2zM942.4 633.6c0-3.2-3.2-6.4-8-7.2l-15.2-2.4c-4-0.8-8.8-4.8-8.8-8.8l-2.4-15.2c-0.8-4-4-8-7.2-8s-6.4 3.2-7.2 8l-2.4 15.2c-0.8 4-4.8 8.8-8.8 8.8l-15.2 2.4c-4 0.8-8 4-8 7.2s3.2 6.4 8 7.2l15.2 2.4c4 0.8 8.8 4.8 8.8 8.8l2.4 15.2c0.8 4 4 8 7.2 8s6.4-3.2 7.2-8l2.4-16.8c0.8-4 4.8-8 8.8-8.8l14.4-0.8c5.6-0.8 8.8-4 8.8-7.2zM928 456c-17.6 0-32-14.4-32-32s14.4-32 32-32 32 14.4 32 32-14.4 32-32 32z m0-48c-8.8 0-16 7.2-16 16s7.2 16 16 16 16-7.2 16-16-7.2-16-16-16zM112 656c-17.6 0-32-14.4-32-32s14.4-32 32-32 32 14.4 32 32-14.4 32-32 32z m0-48c-8.8 0-16 7.2-16 16s7.2 16 16 16 16-7.2 16-16-7.2-16-16-16z" fill="#FFFFFF" opacity=".5" /><path d="M831.2 824V185.6l-52.8-44H168.8l23.2 64.8v620c0.8 34.4 28 62.4 61.6 64.8h644.8c37.6 0 67.2-30.4 67.2-67.2h-134.4z" fill="#EAEAEA" /><path d="M194.4 204.8s-17.6-64.8-66.4-64c-48.8 0.8-74.4 65.6-74.4 65.6l140.8-1.6zM266.4 893.6s45.6-13.6 49.6-28 9.6-41.6 9.6-41.6h639.2s0.8 63.2-91.2 67.2-607.2 2.4-607.2 2.4z" fill="#FF4848" /><path d="M191.2 824c0 37.6 30.4 67.2 67.2 67.2 37.6 0 67.2-30.4 67.2-67.2h504" fill="#EAEAEA" /><path d="M968 816h-128V208c0-40-16-72-73.6-72H124C81.6 136 48 168 48 208.8c0 4.8 3.2 7.2 8 7.2h128v608c0 48 32 80 68.8 80h647.2c40 0 76-37.6 76-80 0-4.8-3.2-8-8-8zM776 152c39.2 8 48 28.8 48 56v608H324c-4.8 0-8 3.2-8 8 0 32.8-34.4 64-62.4 64-28.8 0-52.8-33.6-53.6-64V208c0-23.2-4-35.2-19.2-56H776zM64 200c4-28 28.8-48 60-48s56.8 19.2 60 48H64z m836 688H296c19.2-12 32.8-32.8 35.2-56h627.2c-3.2 30.4-28.8 56-58.4 56z" fill="#663210" /><path d="M608 256H512c-4 0-8-3.2-8-8s3.2-8 8-8h96c4 0 8 3.2 8 8s-3.2 8-8 8zM680 304H512c-4 0-8-3.2-8-8s3.2-8 8-8h168c4 0 8 3.2 8 8s-3.2 8-8 8zM704 256h-56c-4.8 0-8-3.2-8-8s4-8 8-8h56c4.8 0 8 3.2 8 8s-4 8-8 8zM456 464H264c-4.8 0-8-3.2-8-8s4-8 8-8h192c4.8 0 8 3.2 8 8s-4 8-8 8zM704 464H512c-4.8 0-8-3.2-8-8s4-8 8-8h192c4.8 0 8 3.2 8 8s-4 8-8 8zM472 520H264c-4.8 0-8-3.2-8-8s4-8 8-8h208c4.8 0 8 3.2 8 8s-4 8-8 8zM728 520H528c-4 0-8-3.2-8-8s3.2-8 8-8h200c4 0 8 3.2 8 8s-3.2 8-8 8zM368 576H264c-4.8 0-8-3.2-8-8s4-8 8-8h104c4.8 0 8 3.2 8 8s-4 8-8 8zM456 632H264c-4.8 0-8-3.2-8-8s4-8 8-8h192c4.8 0 8 3.2 8 8s-4 8-8 8zM704 632H512c-4.8 0-8-3.2-8-8s4-8 8-8h192c4.8 0 8 3.2 8 8s-4 8-8 8zM512 576H416c-4 0-8-3.2-8-8s3.2-8 8-8h96c4 0 8 3.2 8 8s-3.2 8-8 8zM664 576H560c-4.8 0-8-3.2-8-8s4-8 8-8h104c4.8 0 8 3.2 8 8s-4 8-8 8zM368 696H264c-4.8 0-8-3.2-8-8s4-8 8-8h104c4.8 0 8 3.2 8 8s-4 8-8 8zM456 752H264c-4.8 0-8-3.2-8-8s4-8 8-8h192c4.8 0 8 3.2 8 8s-4 8-8 8zM704 752H512c-4.8 0-8-3.2-8-8s4-8 8-8h192c4.8 0 8 3.2 8 8s-4 8-8 8zM512 696H415.2c-4 0-8-3.2-8-8s3.2-8 8-8H512c4 0 8 3.2 8 8s-3.2 8-8 8zM664 696H560c-4.8 0-8-3.2-8-8s4-8 8-8h104c4.8 0 8 3.2 8 8s-4 8-8 8z" fill="#ADADAD" /><path d="M904 864H368c-4.8 0-8-3.2-8-8s3.2-8 8-8h536c4.8 0 8 3.2 8 8s-3.2 8-8 8z" fill="#FFFFFF" opacity=".5" /><path d="M792 416c-4.8 0-8-3.2-8-8v-64c0-4.8 3.2-8 8-8s8 3.2 8 8v64c0 4.8-3.2 8-8 8zM792 784c-4.8 0-8-3.2-8-8V464c0-4.8 3.2-8 8-8s8 3.2 8 8v312c0 4.8-3.2 8-8 8z" fill="#FFFFFF" /><path d="M377.6 260.8L301.6 296l60.8 136 32.8-28.8h42.4l-60-142.4z" fill="#FF4848" /><path d="M364.8 440h-1.6c-2.4-0.8-4.8-2.4-5.6-4.8l-60.8-134.4c-1.6-4 0-8.8 4-10.4L376 256c1.6-0.8 4-0.8 6.4 0 2.4 0.8 4 2.4 4.8 4L447.2 400c0.8 2.4 0.8 5.6-0.8 7.2-1.6 2.4-4 3.2-6.4 3.2h-40l-30.4 26.4c-0.8 2.4-2.4 3.2-4.8 3.2z m-50.4-138.4L368 419.2l24-21.6c1.6-1.6 3.2-1.6 5.6-2.4h30.4l-52.8-120.8-60.8 27.2z" fill="#663210" /><path d="M321.6 265.6l72.8 33.6L335.2 432 304 402.4h-41.6l59.2-136.8z" fill="#FF4848" /><path d="M334.4 440c-1.6 0-4-0.8-5.6-2.4l-28-27.2h-37.6c-2.4 0-4.8-1.6-6.4-4-1.6-2.4-1.6-4.8-0.8-8l57.6-137.6c0.8-1.6 2.4-3.2 4-4 1.6-0.8 4-0.8 6.4 0l71.2 33.6c4 1.6 5.6 6.4 4 10.4l-57.6 133.6c-0.8 2.4-3.2 4-5.6 4.8 0 0-0.8 0.8-1.6 0.8zM304 393.6c1.6 0 4 0.8 5.6 2.4l22.4 21.6 49.6-116-56.8-27.2-49.6 119.2H304z" fill="#663210" /><path d="M443.2 276c0 7.2-9.6 12.8-11.2 19.2-1.6 6.4 4.8 16 2.4 22.4-3.2 6.4-14.4 6.4-18.4 12-4 5.6-2.4 16.8-7.2 20.8-4.8 4-16 0-21.6 2.4-5.6 3.2-8.8 14.4-15.2 15.2-6.4 1.6-13.6-7.2-20.8-7.2-6.4 0-14.4 8.8-20.8 7.2-6.4-1.6-9.6-12.8-15.2-15.2-5.6-3.2-16.8 1.6-21.6-2.4-4.8-4-3.2-16-7.2-20.8-4-5.6-15.2-5.6-18.4-12-3.2-6.4 4-15.2 2.4-22.4-1.6-6.4-11.2-12-11.2-19.2 0-7.2 9.6-12.8 11.2-19.2 1.6-6.4-4.8-16-2.4-22.4 3.2-6.4 14.4-7.2 18.4-12 4-5.6 2.4-16.8 7.2-20.8 4.8-4 16 0 21.6-2.4 5.6-3.2 8.8-14.4 15.2-15.2 6.4-1.6 13.6 7.2 20.8 7.2 6.4 0 14.4-8.8 20.8-7.2 6.4 1.6 9.6 12.8 15.2 15.2 5.6 3.2 16.8-1.6 21.6 2.4 4.8 4 3.2 16 7.2 20.8 4 5.6 15.2 5.6 18.4 12 3.2 6.4-4 15.2-2.4 22.4 0.8 6.4 11.2 12 11.2 19.2z" fill="#FBD000" /><path d="M370.4 376c-4.8 0-8.8-2.4-12.8-4.8-1.6-0.8-4.8-2.4-5.6-2.4-0.8 0-4 1.6-5.6 2.4-4.8 2.4-10.4 5.6-16 4-6.4-1.6-9.6-6.4-12.8-11.2-0.8-1.6-3.2-4-4-4.8H304c-3.2 0-8 0-12-3.2-4.8-4-5.6-10.4-6.4-15.2 0-1.6-0.8-4.8-1.6-6.4-0.8-0.8-3.2-2.4-5.6-2.4-4.8-1.6-10.4-4.8-12.8-10.4-2.4-5.6-0.8-12 0-16.8 0.8-2.4 1.6-4.8 0.8-6.4 0-0.8-2.4-3.2-3.2-4.8-3.2-2.4-7.2-7.2-7.2-13.6 0-6.4 4-11.2 7.2-15.2 1.6-1.6 3.2-4 3.2-4.8 0-0.8-0.8-4-0.8-6.4-1.6-4.8-3.2-11.2 0-16.8 2.4-5.6 8.8-8 12.8-10.4 1.6-0.8 4.8-1.6 5.6-2.4 0.8-0.8 0.8-4 1.6-6.4 0.8-4.8 1.6-11.2 6.4-15.2 4-2.4 8.8-2.4 12-2.4h9.6c0.8-0.8 2.4-3.2 4-4.8 3.2-4 6.4-9.6 12.8-11.2 5.6-1.6 11.2 1.6 16 4 1.6 0.8 4.8 2.4 5.6 2.4 0.8 0 4-1.6 5.6-2.4 4.8-2.4 10.4-5.6 16-4 6.4 1.6 9.6 6.4 12.8 11.2 0.8 1.6 3.2 4 4 4.8H400c3.2 0 8 0 12 3.2 4.8 4 5.6 10.4 6.4 15.2 0 1.6 0.8 5.6 1.6 6.4 0.8 0.8 3.2 1.6 5.6 2.4 4.8 1.6 10.4 4.8 12.8 10.4 2.4 5.6 0.8 12 0 16.8-0.8 2.4-1.6 4.8-0.8 6.4 0 0.8 2.4 3.2 3.2 4.8 3.2 4 7.2 8.8 7.2 15.2 0 6.4-4 11.2-7.2 15.2-1.6 1.6-3.2 4-3.2 4.8 0 0.8 0.8 4 0.8 6.4 1.6 4.8 3.2 11.2 0 16.8-2.4 5.6-8.8 8-12.8 10.4-1.6 0.8-4.8 1.6-5.6 2.4-0.8 0.8-0.8 4-1.6 6.4-0.8 4.8-1.6 11.2-6.4 15.2-4 1.6-8.8 1.6-12 1.6h-9.6c-0.8 0.8-2.4 3.2-4 4.8-3.2 4-6.4 9.6-12.8 11.2h-3.2z m-59.2-31.2c2.4 0 6.4 0 9.6 1.6 4 2.4 7.2 6.4 9.6 9.6 0.8 1.6 3.2 4 4 4.8 0.8 0 3.2-1.6 4.8-2.4 4-2.4 8-4.8 12.8-4.8 4.8 0 9.6 2.4 12.8 4.8 1.6 0.8 4 2.4 4.8 2.4 0.8-0.8 2.4-3.2 4-4.8 2.4-3.2 4.8-7.2 9.6-9.6 3.2-1.6 7.2-1.6 9.6-1.6h9.6c0-0.8 0.8-4 0.8-5.6 0.8-4 1.6-8.8 4.8-12.8 3.2-4 7.2-5.6 11.2-7.2 1.6-0.8 4.8-2.4 5.6-2.4 0-0.8-0.8-4-1.6-5.6-0.8-4-2.4-8.8-1.6-13.6 0.8-4.8 4-8 7.2-11.2 1.6-1.6 3.2-4 4-4.8 0-0.8-2.4-3.2-4-4.8-2.4-3.2-5.6-6.4-7.2-11.2-0.8-4.8 0-9.6 1.6-13.6 0.8-1.6 1.6-4.8 0.8-6.4-0.8-0.8-3.2-1.6-4.8-2.4-4-1.6-8-3.2-11.2-7.2-3.2-4-4-8.8-4.8-12.8 0-1.6-0.8-4.8-1.6-5.6H392c-2.4 0-6.4 0-9.6-1.6-4-2.4-7.2-6.4-9.6-9.6-0.8-1.6-3.2-4-4-4.8-0.8 0-3.2 1.6-4.8 2.4-4 2.4-8 4.8-12.8 4.8s-9.6-2.4-12.8-4.8c-1.6-0.8-4-2.4-5.6-2.4 0 0-2.4 3.2-3.2 4.8-2.4 3.2-4.8 7.2-9.6 9.6-3.2 1.6-7.2 1.6-9.6 1.6h-9.6c0 0.8-0.8 4-0.8 5.6-0.8 4-1.6 8.8-4.8 12.8-3.2 4-7.2 5.6-11.2 7.2-1.6 0.8-4.8 2.4-5.6 2.4 0 0.8 0.8 4 1.6 5.6 0.8 4 2.4 8.8 1.6 13.6-0.8 4.8-4 8-7.2 11.2-1.6 1.6-3.2 4-4 4.8 0 0.8 2.4 3.2 4 4.8 2.4 3.2 5.6 6.4 7.2 11.2 0.8 4.8 0 9.6-1.6 13.6-0.8 1.6-1.6 4.8-0.8 6.4 0.8 0.8 3.2 1.6 4.8 2.4 4 1.6 8 3.2 11.2 7.2 3.2 4 4 8.8 4.8 12.8 0 1.6 0.8 4.8 1.6 5.6h9.6z" fill="#663210" /><path d="M352 336c-31.2 0-56-24.8-56-56s24.8-56 56-56 56 24.8 56 56-24.8 56-56 56z m0-96c-22.4 0-40 17.6-40 40s17.6 40 40 40 40-17.6 40-40-17.6-40-40-40z" fill="#663210" /><path d="M376.8 288c-4 0-7.2-3.2-7.2-8 0-9.6-7.2-16.8-16.8-16.8-9.6 0-16.8 8-16.8 16.8 0 4-3.2 8-7.2 8s-7.2-3.2-7.2-8c0-17.6 14.4-32 32-32s32 14.4 32 32c-1.6 4.8-4.8 8-8.8 8z" fill="#FFFFFF" /></svg>