<?xml version="1.0" standalone="no"?><!DOCTYPE svg PUBLIC "-//W3C//DTD SVG 1.1//EN" "http://www.w3.org/Graphics/SVG/1.1/DTD/svg11.dtd"><svg class="icon" width="200px" height="200.00px" viewBox="0 0 1024 1024" version="1.1" xmlns="http://www.w3.org/2000/svg"><path d="M512 512m-512 0a512 512 0 1 0 1024 0 512 512 0 1 0-1024 0Z" fill="#D3D1D1" /><path d="M801.6 264L616.8 168c-106.4-56-188 12-243.2 118.4-40.8-18.4-72.8 7.2-93.6 47.2l-36.8 71.2c-54.4 104-20 179.2 68.8 224.8l185.6 96.8c106.4 55.2 238.4 13.6 293.6-92.8l53.6-103.2c54.4-105.6 63.2-211.2-43.2-266.4z" fill="#FF4848" /><path d="M826.4 562.4C776 659.2 655.2 697.6 558.4 647.2L368.8 548s-79.2-30.4-59.2-76c0 0 44 21.6 67.2 32.8 23.2 10.4 76.8 13.6 76.8 13.6l147.2 79.2s60.8 27.2 124 8.8 101.6-44 101.6-44z" fill="#E02020" /><path d="M867.2 475.2c-47.2 90.4-159.2 125.6-249.6 79.2L488 487.2l-36.8 28S552 571.2 612.8 600c59.2 28 228.8-1.6 254.4-124.8" fill="#E02020" /><path d="M680 624c-32 0-64.8-8-95.2-24l-139.2-75.2c-4-2.4-5.6-7.2-3.2-11.2 2.4-4 7.2-5.6 10.4-3.2L592 584.8c93.6 50.4 208.8 12.8 257.6-84 2.4-4 7.2-5.6 10.4-3.2 4 2.4 5.6 7.2 3.2 11.2C826.4 581.6 754.4 624 680 624z" fill="#663210" /><path d="M502.4 475.2s-24.8 11.2-56.8 7.2c-32-4-78.4-26.4-98.4-37.6s-28.8-12.8-33.6-4.8-16 20.8 8.8 33.6 64.8 34.4 85.6 41.6c20 7.2 80-17.6 94.4-40z" fill="#E02020" /><path d="M599.2 760c-36 0-72-8.8-104-25.6L307.2 636.8c-99.2-52-124.8-136-72-237.6l37.6-72c20-37.6 45.6-57.6 75.2-57.6 7.2 0 15.2 1.6 23.2 4C419.2 183.2 479.2 136 544.8 136c25.6 0 51.2 7.2 77.6 20.8l186.4 96.8c97.6 50.4 113.6 150.4 46.4 280l-53.6 104C762.4 712.8 684.8 760 599.2 760zM347.2 285.6c-28.8 0-48.8 26.4-60.8 48.8l-37.6 72c-48.8 93.6-25.6 168 65.6 216L502.4 720c29.6 15.2 63.2 24 96.8 24 79.2 0 152-43.2 188-113.6l53.6-104c44.8-85.6 73.6-200-39.2-258.4L615.2 171.2c-24-12.8-48-19.2-70.4-19.2-76.8 0-132 73.6-164 135.2-1.6 4-6.4 5.6-10.4 4-7.2-3.2-15.2-5.6-23.2-5.6z" fill="#663210" /><path d="M427.2 528c-14.4 0-28.8-3.2-42.4-10.4l-78.4-41.6c-4-2.4-5.6-7.2-3.2-11.2 2.4-4 6.4-5.6 10.4-3.2l78.4 41.6c37.6 20 84 4.8 103.2-33.6l8.8-16.8c9.6-18.4 11.2-40 4.8-59.2-6.4-20-19.2-36-37.6-45.6L373.6 296c-4-2.4-5.6-7.2-3.2-11.2 2.4-4 6.4-5.6 10.4-3.2l97.6 52c21.6 11.2 37.6 31.2 45.6 55.2 7.2 24 5.6 49.6-6.4 72l-8.8 16.8c-16 32-48.8 50.4-81.6 50.4z" fill="#663210" /><path d="M543.2 865.6c-16 31.2-55.2 43.2-86.4 27.2L244.8 783.2c-31.2-16-43.2-55.2-27.2-86.4l28-54.4c16-31.2 55.2-43.2 86.4-27.2L544 724.8c31.2 16 43.2 55.2 27.2 86.4l-28 54.4z" fill="#FF4848" /><path d="M478.4 858.4l-216-112c-26.4-13.6-40-44-33.6-72l-12 22.4c-16 31.2-4 70.4 27.2 86.4L456 893.6c31.2 16 70.4 4 86.4-27.2l8.8-17.6c-18.4 17.6-48 22.4-72.8 9.6z" fill="#E02020" /><path d="M351.085067 716.800174a28 28 0 1 0 25.83798-49.682982 28 28 0 1 0-25.83798 49.682982Z" fill="#663210" /><path d="M455.296463 772.924387a28 28 0 1 0 25.837981-49.682982 28 28 0 1 0-25.837981 49.682982Z" fill="#663210" /><path d="M344.8 739.2c-13.6-7.2-30.4-1.6-37.6 12-7.2 13.6-1.6 31.2 12 38.4 13.6 7.2 30.4 1.6 37.6-12 7.2-13.6 1.6-31.2-12-38.4zM443.2 795.2c-12-6.4-26.4-1.6-32 10.4-6.4 12-1.6 26.4 10.4 32 12 6.4 26.4 1.6 32-10.4 5.6-12 1.6-26.4-10.4-32z" fill="#663210" /><path d="M483.2 912c-11.2 0-23.2-3.2-32.8-8L238.4 792c-35.2-18.4-48.8-62.4-30.4-98.4l28-55.2c12.8-24 36.8-39.2 64-39.2 11.2 0 23.2 3.2 32.8 8L545.6 720c16.8 8.8 29.6 24 35.2 42.4 5.6 18.4 4 38.4-4.8 55.2l-28 55.2c-12.8 24-37.6 39.2-64.8 39.2zM300.8 616c-20.8 0-40 12-49.6 30.4l-28 55.2c-14.4 28-3.2 61.6 24 76l212 111.2c8 4 16.8 6.4 25.6 6.4 20.8 0 40-12 49.6-30.4l28-55.2c7.2-13.6 8-28.8 4-43.2-4.8-14.4-14.4-26.4-27.2-32.8L326.4 622.4c-8-4-16.8-6.4-25.6-6.4z" fill="#663210" /><path d="M468.8 763.2c-2.4 0-4.8-0.8-7.2-1.6l-104.8-54.4c-8-4-11.2-13.6-7.2-21.6 4-8 13.6-11.2 21.6-7.2l104.8 54.4c8 4 11.2 13.6 7.2 21.6-3.2 5.6-8.8 8.8-14.4 8.8zM432.8 832c-2.4 0-4.8-0.8-7.2-1.6L320 775.2c-8-4-11.2-13.6-7.2-21.6 4-8 13.6-11.2 21.6-7.2l104.8 54.4c8 4 11.2 13.6 7.2 21.6-2.4 6.4-8 9.6-13.6 9.6z" fill="#EAEAEA" /><path d="M468.8 755.2c-1.6 0-2.4 0-4-0.8L360 699.2c-4-2.4-5.6-7.2-3.2-10.4 2.4-4 7.2-5.6 10.4-3.2L472 740c4 2.4 5.6 7.2 3.2 10.4-0.8 3.2-4 4.8-6.4 4.8zM432.8 824c-1.6 0-2.4 0-4-0.8L324 768c-4-2.4-5.6-7.2-3.2-10.4 2.4-4 7.2-5.6 10.4-3.2l104.8 54.4c4 2.4 5.6 7.2 3.2 10.4-0.8 3.2-3.2 4.8-6.4 4.8z" fill="#FFFFFF" /><path d="M669.6 244c-1.6 0-2.4 0-4-0.8l-46.4-24c-4-2.4-5.6-7.2-3.2-10.4 2.4-4 7.2-5.6 10.4-3.2l46.4 24c4 2.4 5.6 7.2 3.2 10.4-0.8 2.4-4 4-6.4 4zM827.2 489.6c-0.8 0-2.4 0-3.2-0.8-4-1.6-6.4-6.4-4.8-10.4 34.4-84.8 18.4-145.6-46.4-179.2l-76.8-40c-4-2.4-5.6-7.2-3.2-10.4 2.4-4 7.2-5.6 10.4-3.2l76.8 40c72.8 37.6 92 107.2 54.4 199.2-0.8 3.2-4 4.8-7.2 4.8zM478.4 454.4c-0.8 0-2.4 0-3.2-0.8-4-1.6-5.6-6.4-3.2-10.4 19.2-37.6-16-61.6-20-64-18.4-12-98.4-53.6-99.2-53.6-4-2.4-5.6-7.2-3.2-10.4 2.4-4 7.2-5.6 10.4-3.2 3.2 1.6 81.6 42.4 100.8 54.4 25.6 16.8 43.2 48.8 25.6 84.8-1.6 1.6-4.8 3.2-8 3.2zM522.4 846.4c-0.8 0-2.4 0-3.2-0.8-4-1.6-5.6-6.4-4-10.4l25.6-54.4c1.6-4 6.4-5.6 10.4-4 4 1.6 5.6 6.4 4 10.4l-25.6 54.4c-1.6 3.2-4 4.8-7.2 4.8zM128 557.6c-17.6 0-32-14.4-32-32s14.4-32 32-32 32 14.4 32 32c0 18.4-14.4 32-32 32z m0-48.8c-9.6 0-16.8 8-16.8 16.8 0 9.6 7.2 16.8 16.8 16.8 9.6 0 16.8-7.2 16.8-16.8 0-8.8-7.2-16.8-16.8-16.8zM640 936c-17.6 0-32-14.4-32-32s14.4-32 32-32 32 14.4 32 32-14.4 32-32 32z m0-48.8c-9.6 0-16.8 8-16.8 16.8 0 9.6 8 16.8 16.8 16.8 9.6 0 16.8-8 16.8-16.8 0-9.6-7.2-16.8-16.8-16.8zM911.2 649.6c-18.4 0-32.8-14.4-32.8-32.8s14.4-32.8 32.8-32.8 32.8 14.4 32.8 32.8-15.2 32.8-32.8 32.8z m0-50.4c-9.6 0-17.6 8-17.6 17.6 0 9.6 8 17.6 17.6 17.6 9.6 0 17.6-8 17.6-17.6 0-9.6-8-17.6-17.6-17.6zM852 777.6c0-3.2-3.2-6.4-8-7.2l-15.2-2.4c-4-0.8-8.8-4.8-8.8-8.8l-2.4-15.2c-0.8-4-4-8-7.2-8s-6.4 3.2-7.2 8l-2.4 15.2c-0.8 4-4.8 8.8-8.8 8.8l-15.2 2.4c-4 0.8-8 4-8 7.2s3.2 6.4 8 7.2l15.2 2.4c4 0.8 8.8 4.8 8.8 8.8l2.4 15.2c0.8 4 4 8 7.2 8s6.4-3.2 6.4-8l2.4-16.8c0.8-4 4.8-8 8.8-8.8l14.4-0.8c5.6-0.8 9.6-4 9.6-7.2zM298.4 195.2c0-3.2-3.2-6.4-8-7.2l-15.2-2.4c-4-0.8-8.8-4.8-8.8-8.8l-2.4-14.4c-0.8-4-4-8-7.2-8s-6.4 3.2-7.2 8l-1.6 14.4c-0.8 4-4.8 8.8-8.8 8.8l-15.2 2.4c-4 0.8-8 4-8 7.2s3.2 6.4 8 7.2l15.2 2.4c4 0.8 8.8 4.8 8.8 8.8l2.4 15.2c0.8 4 4 8 7.2 8s6.4-3.2 6.4-8l2.4-16.8c0.8-4 4.8-8 8.8-8.8l14.4-0.8c5.6-1.6 8.8-4 8.8-7.2z" fill="#FFFFFF" opacity=".5" /></svg>