<?xml version="1.0" standalone="no"?><!DOCTYPE svg PUBLIC "-//W3C//DTD SVG 1.1//EN" "http://www.w3.org/Graphics/SVG/1.1/DTD/svg11.dtd"><svg class="icon" width="200px" height="200.00px" viewBox="0 0 1024 1024" version="1.1" xmlns="http://www.w3.org/2000/svg"><path d="M512 512m-512 0a512 512 0 1 0 1024 0 512 512 0 1 0-1024 0Z" fill="#3AD0F9" /><path d="M679.2 788.8l-16-7.2c0.8-9.6-4.8-19.2-14.4-24l25.6-58.4c4-9.6 4-20.8 0.8-30.4-4-9.6-11.2-17.6-21.6-22.4l-44-19.2c-4.8-2.4-10.4-3.2-16-3.2-16 0-30.4 9.6-36.8 24l-19.2 44-7.2-3.2c-3.2-1.6-6.4-1.6-9.6-1.6-9.6 0-18.4 5.6-22.4 14.4l-2.4 8-176-76 3.2-7.2c5.6-12 0-26.4-12.8-31.2l-7.2-3.2 19.2-44c4-9.6 4-20.8 0.8-30.4-4-9.6-11.2-17.6-21.6-21.6l-44-19.2c-4.8-2.4-10.4-3.2-16-3.2-16 0-30.4 9.6-36.8 24l-25.6 58.4c-3.2-1.6-6.4-1.6-9.6-1.6-7.2 0-12.8 3.2-17.6 8l-16-7.2c-3.2-3.2-6.4-3.2-9.6-3.2-9.6 0-18.4 5.6-22.4 14.4l-6.4 14.4c-5.6 12 0 26.4 12.8 31.2l16 7.2c-0.8 9.6 4.8 19.2 14.4 24L112 708.8c-4 9.6-4 20.8-0.8 30.4 4 9.6 11.2 17.6 21.6 21.6l44 19.2c4.8 2.4 10.4 3.2 16 3.2 16 0 30.4-9.6 36.8-24l22.4-51.2 7.2 3.2c3.2 1.6 6.4 1.6 9.6 1.6 9.6 0 18.4-5.6 22.4-14.4l3.2-7.2 176 76-3.2 7.2c-5.6 12 0 26.4 12.8 31.2l7.2 3.2-22.4 51.2c-8.8 20 0.8 44 20.8 52.8l44 19.2c4.8 2.4 10.4 3.2 16 3.2 16 0 30.4-9.6 36.8-24l28.8-66.4c3.2 1.6 6.4 1.6 9.6 1.6 7.2 0 12.8-3.2 17.6-8l16 7.2c3.2 1.6 6.4 1.6 9.6 1.6 9.6 0 18.4-5.6 22.4-14.4l6.4-14.4c4-10.4-1.6-24.8-13.6-29.6zM943.2 259.2c8.8-4.8-41.6-86.4-44.8-84.8l-30.4-56.8c-7.2-12.8-20.8-21.6-35.2-21.6-6.4 0-12.8 1.6-18.4 4.8l-42.4 22.4c-19.2 10.4-27.2 34.4-16.8 54.4l22.4 42.4-7.2 4c-12 6.4-16 20.8-9.6 32.8l4 7.2-169.6 89.6-4-7.2c-4-8-12-12.8-21.6-12.8-4 0-8 0.8-11.2 2.4l-6.4 4-22.4-42.4c-7.2-12.8-20.8-21.6-35.2-21.6-6.4 0-12.8 1.6-18.4 4.8L432.8 304c-19.2 10.4-27.2 34.4-16.8 54.4l30.4 56.8c-5.6 3.2-9.6 8-12 14.4-0.8 3.2-1.6 7.2-0.8 10.4l-15.2 8c-5.6 3.2-9.6 8-12 14.4-1.6 6.4-1.6 12.8 1.6 18.4l7.2 14.4c4 8 12 12.8 21.6 12.8 4 0 8-0.8 11.2-3.2l15.2-8c4 4 10.4 6.4 16 6.4 4 0 8-0.8 11.2-2.4l33.6 63.2c7.2 12.8 20.8 21.6 35.2 21.6 6.4 0 12.8-1.6 18.4-4.8l42.4-22.4c19.2-10.4 27.2-34.4 16.8-54.4l-26.4-49.6 7.2-4c12-6.4 16-20.8 9.6-32.8l-4-7.2L794.4 320l4 7.2c4 8 12 12.8 21.6 12.8 4 0 8-0.8 11.2-2.4l7.2-4 26.4 49.6c7.2 12.8 20.8 21.6 35.2 21.6 6.4 0 12.8-1.6 18.4-4.8l42.4-22.4c19.2-10.4 27.2-34.4 16.8-54.4l-34.4-64z" fill="#00B3F9" /><path d="M667.2 785.6c-3.2 8-12.8 12-20.8 8l-544-234.4c-8-3.2-12-12.8-8-20.8l6.4-14.4c3.2-8 12.8-12 20.8-8l543.2 235.2c8 3.2 12 12.8 8 20.8l-5.6 13.6z" fill="#EAEAEA" /><path d="M87.984 552.712l9.528-22.032 572.704 247.728-9.52 22.032z" fill="#D4D6D6" /><path d="M652 803.2c-3.2 0-6.4-0.8-9.6-1.6L99.2 566.4c-12-5.6-17.6-19.2-12.8-31.2l6.4-14.4c4-8.8 12.8-14.4 22.4-14.4 3.2 0 6.4 0.8 9.6 1.6l543.2 235.2c12 5.6 17.6 19.2 12.8 31.2l-6.4 14.4c-4 8.8-12.8 14.4-22.4 14.4zM115.2 521.6c-3.2 0-6.4 1.6-7.2 4.8l-6.4 14.4c-1.6 4 0 8.8 4 10.4l543.2 235.2c4 1.6 8.8 0 10.4-4l6.4-14.4c1.6-4 0-8.8-4-10.4L118.4 522.4c-0.8-0.8-1.6-0.8-3.2-0.8z" fill="#0C508E" /><path d="M272.8 650.4c-3.2 8-12.8 12-20.8 8l-14.4-6.4c-8-3.2-12-12.8-8-20.8l32-73.6c3.2-8 12.8-12 20.8-8l14.4 6.4c8 3.2 12 12.8 8 20.8l-32 73.6zM168.8 588c-3.2 8-12.8 12-20.8 8l-14.4-6.4c-8-3.2-12-12.8-8-20.8l19.2-44c3.2-8 12.8-12 20.8-8l14.4 6.4c8 3.2 12 12.8 8 20.8l-19.2 44zM624 784.8c-3.2 8-12.8 12-20.8 8l-14.4-6.4c-8-3.2-12-12.8-8-20.8l19.2-44c3.2-8 12.8-12 20.8-8l14.4 6.4c8 3.2 12 12.8 8 20.8L624 784.8z" fill="#EAEAEA" /><path d="M264 628.8l-14.4-6.4c-8-3.2-12-12.8-8-20.8l-12.8 29.6c-3.2 8 0 17.6 8 20.8l14.4 6.4c8 3.2 17.6 0 20.8-8l12.8-29.6c-3.2 8-12.8 12-20.8 8z" fill="#D4D6D6" /><path d="M507.2 752c-3.2 8-12.8 12-20.8 8l-14.4-6.4c-8-3.2-12-12.8-8-20.8l32-73.6c3.2-8 12.8-12 20.8-8l14.4 6.4c8 3.2 12 12.8 8 20.8l-32 73.6z" fill="#EAEAEA" /><path d="M499.2 730.4l-14.4-6.4c-8-3.2-12-12.8-8-20.8L464 732.8c-3.2 8 0 17.6 8 20.8l14.4 6.4c8 3.2 17.6 0 20.8-8l12.8-29.6c-3.2 8-12.8 12-20.8 8z" fill="#D4D6D6" /><path d="M257.6 668c-3.2 0-6.4-0.8-9.6-1.6l-14.4-6.4c-12-5.6-17.6-19.2-12.8-31.2l32-73.6c4-8.8 12.8-14.4 22.4-14.4 3.2 0 6.4 0.8 9.6 1.6l14.4 6.4c12 5.6 17.6 19.2 12.8 31.2l-32 73.6c-4 8.8-12.8 14.4-22.4 14.4z m17.6-112c-3.2 0-6.4 1.6-7.2 4.8l-32 73.6c-1.6 4 0 8.8 4 10.4l14.4 6.4c4 1.6 8.8 0 10.4-4l32-73.6c1.6-4 0-8.8-4-10.4l-14.4-6.4c-1.6-0.8-2.4-0.8-3.2-0.8zM154.4 605.6c-3.2 0-6.4-0.8-9.6-1.6l-14.4-6.4c-12-5.6-17.6-19.2-12.8-31.2l19.2-44c4-8.8 12.8-14.4 22.4-14.4 3.2 0 6.4 0.8 9.6 1.6l14.4 6.4c12 5.6 17.6 19.2 12.8 31.2L176 591.2c-4 8.8-12 14.4-21.6 14.4z m4-82.4c-3.2 0-6.4 1.6-7.2 4.8l-19.2 44c-1.6 4 0 8.8 4 10.4l14.4 6.4c4 1.6 8.8 0 10.4-4l19.2-44c1.6-4 0-8.8-4-10.4l-14.4-6.4c-0.8-0.8-2.4-0.8-3.2-0.8zM609.6 802.4c-3.2 0-6.4-0.8-9.6-1.6l-14.4-6.4c-5.6-2.4-10.4-7.2-12.8-12.8-2.4-5.6-2.4-12.8 0-18.4l19.2-44c4-8.8 12.8-14.4 22.4-14.4 3.2 0 6.4 0.8 9.6 1.6l14.4 6.4c12 5.6 17.6 19.2 12.8 31.2L632 788c-4.8 8.8-12.8 14.4-22.4 14.4z m4-82.4c-3.2 0-6.4 1.6-7.2 4.8l-19.2 44c-1.6 4 0 8.8 4 10.4l14.4 6.4c4 1.6 8.8 0 10.4-4l19.2-44c1.6-4 0-8.8-4-10.4l-14.4-6.4c-0.8-0.8-1.6-0.8-3.2-0.8zM492.8 769.6c-3.2 0-6.4-0.8-9.6-1.6l-14.4-6.4c-12-5.6-17.6-19.2-12.8-31.2l32-73.6c4-8.8 12.8-14.4 22.4-14.4 3.2 0 6.4 0.8 9.6 1.6l14.4 6.4c12 5.6 17.6 19.2 12.8 31.2l-32 73.6c-4 8.8-12.8 14.4-22.4 14.4z m16.8-112c-3.2 0-6.4 1.6-7.2 4.8l-32 73.6c-0.8 1.6-0.8 4 0 6.4 0.8 1.6 2.4 3.2 4 4.8l14.4 6.4c4 1.6 8.8 0 10.4-4l32-73.6c1.6-4 0-8.8-4-10.4l-14.4-6.4c-0.8-1.6-1.6-1.6-3.2-1.6z" fill="#0C508E" /><path d="M211.2 710.4c-7.2 16-25.6 24-42.4 16.8l-44-19.2c-16-7.2-24-25.6-16.8-42.4L200 452.8c7.2-16 25.6-24 42.4-16.8l44 19.2c16 7.2 24 25.6 16.8 42.4L211.2 710.4zM564 863.2c-7.2 16-25.6 24-42.4 16.8l-44-19.2c-16-7.2-24-25.6-16.8-42.4l92-212.8c7.2-16 25.6-24 42.4-16.8l44 19.2c16 7.2 24 25.6 16.8 42.4l-92 212.8z" fill="#415E6D" /><path d="M181.6 738.4c-5.6 0-10.4-0.8-16-3.2l-44-19.2C112 712 104 704 100 694.4c-4-9.6-4-20.8 0.8-30.4l92-212.8c6.4-14.4 20.8-24 36.8-24 5.6 0 10.4 0.8 16 3.2l44 19.2c9.6 4 17.6 12 21.6 21.6 4 9.6 4 20.8-0.8 30.4L218.4 713.6c-5.6 15.2-20.8 24.8-36.8 24.8z m48.8-296c-9.6 0-18.4 5.6-22.4 14.4L116 669.6c-2.4 5.6-2.4 12 0 18.4 2.4 5.6 7.2 10.4 12.8 13.6l44 19.2c3.2 1.6 6.4 1.6 9.6 1.6 9.6 0 18.4-5.6 22.4-14.4L296 494.4c2.4-5.6 2.4-12 0-18.4-2.4-5.6-7.2-10.4-12.8-13.6L240 444c-3.2-1.6-6.4-1.6-9.6-1.6zM534.4 890.4c-5.6 0-10.4-0.8-16-3.2l-44-19.2c-20-8.8-29.6-32-20.8-52.8l92-212.8c6.4-14.4 20.8-24 36.8-24 5.6 0 10.4 0.8 16 3.2l44 19.2c9.6 4 17.6 12 21.6 22.4 4 9.6 4 20.8-0.8 30.4l-92 212.8c-6.4 14.4-20.8 24-36.8 24z m48-296c-9.6 0-18.4 5.6-22.4 14.4l-92 212.8c-5.6 12 0 26.4 12.8 31.2l44 19.2c3.2 1.6 6.4 1.6 9.6 1.6 9.6 0 18.4-5.6 22.4-14.4l92-212.8c2.4-5.6 2.4-12 0-18.4-2.4-5.6-7.2-10.4-12.8-13.6L592 596.8c-3.2-1.6-6.4-2.4-9.6-2.4z" fill="#0C508E" /><path d="M197.6 661.6l-44-19.2c-16-7.2-24-25.6-16.8-42.4l-28.8 66.4c-7.2 16 0.8 35.2 16.8 42.4l44 19.2c16 7.2 35.2-0.8 42.4-16.8l28.8-66.4c-7.2 16-25.6 23.2-42.4 16.8zM550.4 813.6l-44-19.2c-16-7.2-24-25.6-16.8-42.4l-28.8 66.4c-7.2 16 0.8 35.2 16.8 42.4l44 19.2c16 7.2 35.2-0.8 42.4-16.8l28.8-66.4c-7.2 16.8-26.4 24-42.4 16.8z" fill="#2D4552" /><path d="M567.2 795.2l-14.4-6.4 12.8-29.6c1.6-4 6.4-5.6 10.4-4 4 1.6 5.6 6.4 4 10.4l-12.8 29.6zM592 726.4c-0.8 0-2.4 0-3.2-0.8-4-1.6-5.6-6.4-4-10.4l22.4-51.2c9.6-22.4 9.6-22.4 2.4-25.6l-29.6-12.8c-4-1.6-5.6-6.4-4-10.4 1.6-4 6.4-5.6 10.4-4L616 624c22.4 9.6 15.2 24.8 6.4 46.4L600 721.6c-2.4 3.2-5.6 4.8-8 4.8zM213.6 632.8c-0.8 0-2.4 0-3.2-0.8-4-1.6-5.6-6.4-4-10.4l48-110.4c9.6-22.4 9.6-22.4 2.4-25.6l-29.6-12.8c-4-1.6-5.6-6.4-4-10.4 1.6-4 6.4-5.6 10.4-4l29.6 12.8c22.4 9.6 15.2 24.8 6.4 46.4l-48 110.4c-1.6 3.2-4.8 4.8-8 4.8z" fill="#FFFFFF" opacity=".5" /><path d="M973.6 152c4 8 0.8 17.6-6.4 21.6L444.8 452c-8 4-17.6 0.8-21.6-6.4l-7.2-14.4c-4-8-0.8-17.6 6.4-21.6l522.4-277.6c8-4 17.6-0.8 21.6 6.4l7.2 13.6z" fill="#EAEAEA" /><path d="M419.032 438.408l550.928-292.96 11.264 21.184L430.296 459.6z" fill="#D4D6D6" /><path d="M437.6 461.6c-8.8 0-16.8-4.8-21.6-12.8l-7.2-14.4c-3.2-5.6-4-12-1.6-18.4 1.6-6.4 6.4-11.2 12-14.4l522.4-277.6c3.2-1.6 7.2-2.4 11.2-2.4 8.8 0 16.8 4.8 21.6 12.8l7.2 14.4c3.2 5.6 4 12 1.6 18.4-1.6 6.4-6.4 11.2-12 14.4L448.8 458.4c-4 2.4-8 3.2-11.2 3.2zM952 137.6c-1.6 0-2.4 0-4 0.8L425.6 416.8c-1.6 0.8-3.2 2.4-4 4.8-0.8 2.4-0.8 4 0.8 6.4l7.2 14.4c1.6 4 7.2 5.6 11.2 3.2L963.2 168c1.6-0.8 3.2-2.4 4-4.8 0.8-2.4 0.8-4-0.8-6.4l-7.2-14.4c-0.8-3.2-4-4.8-7.2-4.8z" fill="#0C508E" /><path d="M621.6 376c4 8 0.8 17.6-6.4 21.6l-14.4 7.2c-8 4-17.6 0.8-21.6-6.4L541.6 328c-4-8-0.8-17.6 6.4-21.6l14.4-7.2c8-4 17.6-0.8 21.6 6.4l37.6 70.4zM508 417.6c4 8 0.8 17.6-6.4 21.6l-14.4 7.2c-8 4-17.6 0.8-21.6-6.4l-22.4-42.4c-4-8-0.8-17.6 6.4-21.6l14.4-7.2c8-4 17.6-0.8 21.6 6.4l22.4 42.4zM946.4 184.8c4 8 0.8 17.6-6.4 21.6l-14.4 7.2c-8 4-17.6 0.8-21.6-6.4l-22.4-42.4c-4-8-0.8-17.6 6.4-21.6l14.4-7.2c8-4 17.6-0.8 21.6 6.4l22.4 42.4z" fill="#EAEAEA" /><path d="M600 368.8l-14.4 7.2c-8 4-17.6 0.8-21.6-6.4l15.2 28c4 8 13.6 10.4 21.6 6.4l14.4-7.2c8-4 10.4-13.6 6.4-21.6l-15.2-28c4.8 8 1.6 17.6-6.4 21.6z" fill="#D4D6D6" /><path d="M848 255.2c4 8 0.8 17.6-6.4 21.6l-14.4 7.2c-8 4-17.6 0.8-21.6-6.4L768 207.2c-4-8-0.8-17.6 6.4-21.6l14.4-7.2c8-4 17.6-0.8 21.6 6.4l37.6 70.4z" fill="#EAEAEA" /><path d="M826.4 248.8l-14.4 7.2c-8 4-17.6 0.8-21.6-6.4l15.2 28c4 8 13.6 10.4 21.6 6.4l14.4-7.2c8-4 10.4-13.6 6.4-21.6l-15.2-28c4 8 0.8 17.6-6.4 21.6z" fill="#D4D6D6" /><path d="M593.6 414.4c-8.8 0-16.8-4.8-21.6-12.8l-37.6-70.4c-6.4-12-1.6-26.4 9.6-32.8l14.4-7.2c3.2-1.6 7.2-3.2 11.2-3.2 8.8 0 16.8 4.8 21.6 12.8l37.6 70.4c6.4 12 1.6 26.4-9.6 32.8l-14.4 7.2c-3.2 2.4-7.2 3.2-11.2 3.2z m-24-109.6c-1.6 0-2.4 0-4 0.8l-13.6 7.2c-4 2.4-5.6 7.2-3.2 11.2l37.6 70.4c1.6 4 7.2 5.6 11.2 3.2l14.4-7.2c4-2.4 5.6-7.2 3.2-11.2l-37.6-70.4c-1.6-2.4-4.8-4-8-4zM480 456.8c-8.8 0-16.8-4.8-21.6-12.8l-22.4-42.4c-3.2-5.6-4-12-1.6-18.4 1.6-6.4 6.4-11.2 12-14.4l14.4-7.2c3.2-1.6 7.2-2.4 11.2-2.4 8.8 0 16.8 4.8 21.6 12.8l22.4 42.4c3.2 5.6 4 12 1.6 18.4-1.6 6.4-6.4 11.2-12 14.4l-14.4 7.2c-3.2 1.6-7.2 2.4-11.2 2.4z m-8.8-81.6c-1.6 0-2.4 0-4 0.8l-14.4 7.2c-1.6 0.8-3.2 2.4-4 4.8-0.8 2.4-0.8 4 0.8 6.4l22.4 42.4c1.6 4 7.2 5.6 11.2 3.2l14.4-7.2c1.6-0.8 3.2-2.4 4-4.8 0.8-2.4 0.8-4-0.8-6.4l-22.4-42.4c-0.8-2.4-4-4-7.2-4zM917.6 224c-8.8 0-16.8-4.8-21.6-12.8l-22.4-42.4c-3.2-5.6-4-12-1.6-18.4 1.6-6.4 6.4-11.2 12-14.4l14.4-7.2c3.2-1.6 7.2-2.4 11.2-2.4 8.8 0 16.8 4.8 21.6 12.8l22.4 42.4c6.4 12 1.6 26.4-9.6 32.8l-14.4 7.2c-4 1.6-8 2.4-12 2.4z m-8-81.6c-1.6 0-2.4 0-4 0.8l-14.4 7.2c-1.6 0.8-3.2 2.4-4 4.8-0.8 2.4-0.8 4 0.8 6.4l22.4 42.4c1.6 4 7.2 5.6 11.2 3.2l14.4-7.2c4-2.4 5.6-7.2 3.2-11.2l-22.4-42.4c-1.6-2.4-4-4-7.2-4zM819.2 294.4c-8.8 0-16.8-4.8-21.6-12.8L760 211.2c-6.4-12-1.6-26.4 9.6-32.8l14.4-7.2c3.2-1.6 7.2-3.2 11.2-3.2 8.8 0 16.8 4.8 21.6 12.8l37.6 70.4c3.2 5.6 4 12 1.6 18.4-1.6 6.4-6.4 11.2-12 14.4l-14.4 7.2c-2.4 2.4-6.4 3.2-10.4 3.2z m-23.2-109.6c-1.6 0-2.4 0-4 0.8l-14.4 7.2c-4 2.4-5.6 7.2-3.2 11.2l37.6 70.4c1.6 4 7.2 5.6 11.2 3.2l14.4-7.2c1.6-0.8 3.2-2.4 4-4.8 0.8-2.4 0.8-4-0.8-6.4l-37.6-70.4c-1.6-2.4-4-4-7.2-4z" fill="#0C508E" /><path d="M631.2 461.6c8 15.2 2.4 35.2-13.6 43.2l-42.4 22.4c-15.2 8-35.2 2.4-43.2-13.6L423.2 308.8c-8-15.2-2.4-35.2 13.6-43.2l42.4-22.4c15.2-8 35.2-2.4 43.2 13.6l108.8 204.8zM970.4 280.8c8 15.2 2.4 35.2-13.6 43.2l-42.4 22.4c-15.2 8-35.2 2.4-43.2-13.6L762.4 128.8c-8-15.2-2.4-35.2 13.6-43.2l42.4-22.4c15.2-8 35.2-2.4 43.2 13.6l108.8 204z" fill="#415E6D" /><path d="M560.8 539.2c-15.2 0-28.8-8-35.2-21.6L416 312.8c-10.4-19.2-3.2-44 16.8-54.4l42.4-22.4c5.6-3.2 12-4.8 18.4-4.8 15.2 0 28.8 8 35.2 21.6l108.8 204.8c10.4 19.2 3.2 44-16.8 54.4l-42.4 22.4c-4.8 3.2-11.2 4.8-17.6 4.8z m-67.2-292c-4 0-8 0.8-11.2 2.4L440 272.8c-12 6.4-16 20.8-9.6 32.8l108.8 204.8c4 8 12 12.8 21.6 12.8 4 0 8-0.8 11.2-2.4l42.4-22.4c12-6.4 16-20.8 9.6-32.8L515.2 260c-4-7.2-12.8-12.8-21.6-12.8zM899.2 358.4c-15.2 0-28.8-8-35.2-21.6L755.2 132.8c-10.4-19.2-3.2-44 16.8-54.4l42.4-22.4c5.6-3.2 12-4.8 18.4-4.8 15.2 0 28.8 8 35.2 21.6l108.8 204.8c10.4 19.2 3.2 44-16.8 54.4l-42.4 22.4c-4.8 2.4-11.2 4-18.4 4z m-66.4-291.2c-4 0-8 0.8-11.2 2.4l-42.4 22.4c-5.6 3.2-9.6 8-12 14.4-1.6 6.4-1.6 12.8 1.6 18.4l108.8 204.8c4 8 12 12.8 21.6 12.8 4 0 8-0.8 11.2-2.4l42.4-22.4c12-6.4 16-20.8 9.6-32.8L854.4 80c-4.8-8-12.8-12.8-21.6-12.8z" fill="#0C508E" /><path d="M584 440.8L541.6 464c-15.2 8-35.2 2.4-43.2-13.6l33.6 63.2c8 15.2 28 21.6 43.2 13.6l42.4-22.4c15.2-8 21.6-28 13.6-43.2l-33.6-63.2c8 15.2 1.6 34.4-13.6 42.4zM923.2 260.8l-42.4 22.4c-15.2 8-35.2 2.4-43.2-13.6l33.6 63.2c8 15.2 28 21.6 43.2 13.6l42.4-22.4c15.2-8 21.6-28 13.6-43.2l-33.6-63.2c8 15.2 1.6 35.2-13.6 43.2z" fill="#2D4552" /><path d="M912 248c-3.2 0-5.6-1.6-7.2-4l-15.2-28c-2.4-4-0.8-8.8 3.2-11.2 4-2.4 8.8-0.8 11.2 3.2l15.2 28c2.4 4 0.8 8.8-3.2 11.2-1.6 0-3.2 0.8-4 0.8zM874.4 176.8c-3.2 0-5.6-1.6-7.2-4l-26.4-49.6c-4.8-8.8-8.8-16-12-18.4-0.8-0.8-1.6-1.6-6.4 1.6l-28 15.2c-4 2.4-8.8 0.8-11.2-3.2-2.4-4-0.8-8.8 3.2-11.2l28-15.2c6.4-3.2 16-7.2 24.8 0.8 5.6 4.8 9.6 12 15.2 23.2l26.4 49.6c2.4 4 0.8 8.8-3.2 11.2h-3.2zM564.8 413.6c-3.2 0-5.6-1.6-7.2-4l-56-105.6c-11.2-20.8-11.2-20.8-18.4-17.6l-28 15.2c-4 2.4-8.8 0.8-11.2-3.2s-0.8-8.8 3.2-11.2l28-15.2c20.8-11.2 28.8 3.2 40 24l56 106.4c2.4 4 0.8 8.8-3.2 11.2h-3.2z" fill="#FFFFFF" opacity=".5" /><path d="M456 168c-17.6 0-32-14.4-32-32s14.4-32 32-32 32 14.4 32 32-14.4 32-32 32z m0-48.8c-9.6 0-16.8 8-16.8 16.8 0 9.6 8 16.8 16.8 16.8 9.6 0 16.8-8 16.8-16.8 0-9.6-7.2-16.8-16.8-16.8zM800 792c-17.6 0-32-14.4-32-32s14.4-32 32-32 32 14.4 32 32-14.4 32-32 32z m0-48.8c-9.6 0-16.8 8-16.8 16.8 0 9.6 8 16.8 16.8 16.8 9.6 0 16.8-8 16.8-16.8 0-9.6-7.2-16.8-16.8-16.8zM306.4 296.8c0-3.2-3.2-6.4-8-7.2l-15.2-1.6c-4-0.8-8.8-4.8-8.8-8.8L272 264c-0.8-4-4-8-7.2-8s-6.4 3.2-7.2 8l-1.6 14.4c-0.8 4-4.8 8.8-8.8 8.8l-15.2 3.2c-4 0.8-8 4-8 7.2s3.2 6.4 8 7.2l15.2 2.4c4 0.8 8.8 4.8 8.8 8.8l2.4 15.2c0.8 4 4 8 7.2 8s6.4-3.2 7.2-8l2.4-16.8c0.8-4 4.8-8 8.8-8.8l14.4-0.8c4-1.6 8-4.8 8-8zM888 543.2c0-3.2-3.2-6.4-8-7.2l-15.2-2.4c-4-0.8-8.8-4.8-8.8-8.8l-2.4-15.2c-0.8-4-4-8-7.2-8s-6.4 3.2-7.2 8l-2.4 15.2c-0.8 4-4.8 8.8-8.8 8.8l-15.2 2.4c-4 0.8-8 4-8 7.2s3.2 6.4 8 7.2l15.2 2.4c4 0.8 8.8 4.8 8.8 8.8l3.2 14.4c0.8 4 4 8 7.2 8s6.4-3.2 6.4-8l2.4-16.8c0.8-4 4.8-8 8.8-8.8l14.4-0.8c5.6-0.8 8.8-3.2 8.8-6.4zM368 879.2c0-3.2-3.2-6.4-8-7.2l-15.2-2.4c-4-0.8-8.8-4.8-8.8-8.8l-2.4-15.2c-0.8-4-4-8-7.2-8s-6.4 3.2-7.2 8l-2.4 15.2c-0.8 4-4.8 8.8-8.8 8.8l-15.2 2.4c-4 0.8-8 4-8 7.2s3.2 6.4 8 7.2l15.2 2.4c4 0.8 8.8 4.8 8.8 8.8l3.2 14.4c0.8 4 4 8 7.2 8s6.4-3.2 7.2-8l2.4-16.8c0.8-4 4.8-8 8.8-8.8l14.4-0.8c4.8-0.8 8-3.2 8-6.4z" fill="#FFFFFF" /></svg>