<?xml version="1.0" standalone="no"?><!DOCTYPE svg PUBLIC "-//W3C//DTD SVG 1.1//EN" "http://www.w3.org/Graphics/SVG/1.1/DTD/svg11.dtd"><svg class="icon" width="200px" height="200.00px" viewBox="0 0 1024 1024" version="1.1" xmlns="http://www.w3.org/2000/svg"><path d="M512 512m-512 0a512 512 0 1 0 1024 0 512 512 0 1 0-1024 0Z" fill="#28A5C6" /><path d="M813.6 657.6c-7.2-4.8-17.6-3.2-22.4 4-9.6 13.6-20 25.6-30.4 37.6L312 250.4c12-12 25.6-22.4 40-32 7.2-4.8 8.8-15.2 4-22.4-4.8-7.2-15.2-9.6-22.4-4-16 11.2-30.4 23.2-44 36L260.8 200c-6.4-6.4-16-6.4-22.4 0-6.4 6.4-6.4 16 0 22.4l28 28a350.08 350.08 0 0 0-86.4 230.4c0 192.8 156.8 349.6 349.6 349.6 114.4 0 222.4-56 287.2-150.4 5.6-8 4-17.6-3.2-22.4zM212 480.8c0-76.8 28-150.4 77.6-207.2l448 448c-56.8 48.8-130.4 77.6-207.2 77.6-176-0.8-318.4-143.2-318.4-318.4z" fill="#FFFFFF" /><path d="M854.4 233.6c0-3.2-3.2-6.4-8-7.2l-15.2-2.4c-4-0.8-8.8-4.8-8.8-8.8l-2.4-15.2c-0.8-4-4-8-7.2-8s-6.4 3.2-7.2 8l-2.4 15.2c-0.8 4-4.8 8.8-8.8 8.8l-15.2 2.4c-4 0.8-8 4-8 7.2s3.2 6.4 8 7.2l15.2 2.4c4 0.8 8.8 4.8 8.8 8.8l2.4 15.2c0.8 4 4 8 7.2 8s6.4-3.2 6.4-8l2.4-16.8c0.8-4 4.8-8 8.8-8.8l14.4-0.8c5.6-0.8 9.6-4 9.6-7.2zM221.6 752c0-3.2-3.2-6.4-8-7.2l-15.2-2.4c-4-0.8-8.8-4.8-8.8-8.8l-2.4-15.2c-0.8-4-4-8-7.2-8s-6.4 3.2-7.2 8l-2.4 15.2c-0.8 4-4.8 8.8-8.8 8.8l-15.2 2.4c-4 0.8-8 4-8 7.2s3.2 6.4 8 7.2l15.2 2.4c4 0.8 8.8 4.8 8.8 8.8l2.4 15.2c0.8 4 4 8 7.2 8s6.4-3.2 7.2-8l2.4-16.8c0.8-4 4.8-8 8.8-8.8l14.4-0.8c4.8-0.8 8.8-4 8.8-7.2z" fill="#FFFFFF" opacity=".5" /><path d="M529.6 480.8m-284 0a284 284 0 1 0 568 0 284 284 0 1 0-568 0Z" fill="#00C9F7" /><path d="M529.6 688.8c-144 0-263.2-107.2-281.6-246.4-1.6 12-2.4 24.8-2.4 37.6 0 156.8 127.2 284 284 284s284-127.2 284-284c0-12.8-0.8-25.6-2.4-37.6-18.4 139.2-137.6 246.4-281.6 246.4z" fill="#00B3F9" /><path d="M447.2 664.8H313.6c30.4 35.2 69.6 62.4 113.6 80h20c22.4 0 40.8-17.6 40.8-40s-18.4-40-40.8-40zM245.6 480.8c0 38.4 8 74.4 21.6 108h16.8c22.4 0 40-17.6 40-40s18.4-44.8 40-44.8h34.4c22.4 0 40.8-11.2 40.8-32s-10.4-39.2-22.4-39.2c-12 0-22.4-17.6-22.4-40s18.4-40 40-40h5.6c22.4 0 40-17.6 40-39.2S461.6 272 440 272H335.2C280 324 245.6 399.2 245.6 480.8zM640 312c0 32 18.4 48 36 48s36 11.2 36 32-17.6 40-40 40h-71.2c-22.4 0-40.8 16.8-40.8 38.4s17.6 41.6 40 41.6h16c22.4 0 32 18.4 32 40s17.6 32 40 32h104.8c13.6-33.6 21.6-64.8 21.6-103.2 0-80.8-34.4-156.8-89.6-208.8h-39.2c-23.2 0-45.6 17.6-45.6 40z" fill="#35A00D" /><path d="M686.4 1016c-24.8-62.4-85.6-105.6-156.8-105.6-71.2 0-132 44-156.8 105.6h313.6z" fill="#FFFFFF" /><path d="M456 144c-17.6 0-32-14.4-32-32s14.4-32 32-32 32 14.4 32 32-14.4 32-32 32z m0-48.8c-9.6 0-16.8 8-16.8 16.8 0 9.6 8 16.8 16.8 16.8 9.6 0 16.8-8 16.8-16.8 0-9.6-7.2-16.8-16.8-16.8z" fill="#FFFFFF" opacity=".5" /><path d="M546.4 938.4c14.4 0.8 60 11.2 89.6 48.8" fill="#FFFFFF" /><path d="M635.2 994.4c-2.4 0-4.8-0.8-6.4-3.2-28-35.2-70.4-44.8-83.2-45.6-4.8 0-8-4-8-8 0-4.8 4-8 8-8 16 0.8 64 11.2 95.2 51.2 2.4 3.2 2.4 8.8-1.6 11.2 0 2.4-1.6 2.4-4 2.4z" fill="#0C508E" opacity=".5" /><path d="M768.8 444c-4 0-7.2-2.4-8-6.4-8.8-48.8-34.4-95.2-71.2-128.8-3.2-3.2-3.2-8-0.8-11.2 3.2-3.2 8-3.2 11.2-0.8 39.2 36.8 66.4 85.6 76.8 137.6 0.8 4-2.4 8.8-6.4 9.6h-1.6zM640 272c-1.6 0-2.4 0-3.2-0.8-32.8-16-70.4-23.2-108-23.2-13.6 0-25.6 0-39.2 2.4-4 0.8-8.8-2.4-9.6-6.4-0.8-4 2.4-8 6.4-8.8 14.4-2.4 29.6-4 44-4 40 0 77.6 8.8 112.8 25.6 4 1.6 5.6 6.4 3.2 10.4-0.8 3.2-3.2 4.8-6.4 4.8z" fill="#FFFFFF" opacity=".5" /><path d="M824 1024h-64c-4.8 0-8-3.2-8-8s4-8 8-8h64c4.8 0 8 3.2 8 8 0 4-4 8-8 8zM824 666.4c-0.8-6.4-4.8-12-9.6-15.2-10.4-7.2-25.6-4.8-32.8 6.4-7.2 10.4-15.2 20.8-24 30.4L744 675.2c45.6-52 72-120.8 72-195.2 0-160.8-128-288-288-288-74.4 0-142.4 24.8-193.6 70.4l-12-12c10.4-8.8 20.8-17.6 32.8-25.6 5.6-4 8.8-8.8 9.6-15.2 0.8-6.4 0-12.8-4-17.6-4.8-6.4-12-10.4-20-10.4-4.8 0-9.6 1.6-13.6 4-13.6 9.6-27.2 20-39.2 31.2l-22.4-22.4c-8.8-8.8-24.8-8.8-33.6 0-4.8 4.8-7.2 10.4-7.2 16.8s2.4 12.8 7.2 16.8l23.2 23.2c-52.8 64-79.2 144-79.2 228.8 0 193.6 152.8 354.4 344 360v64c-66.4 4-117.6 42.4-144 104H256c-4 0-8 3.2-8 8s3.2 8 8 8H720c4 0 8-3.2 8-8s-4-8-8-8h-40c-27.2-62.4-76.8-101.6-144-104v-64c114.4-1.6 218.4-60.8 284-156 3.2-4.8 4.8-11.2 4-17.6z m-78.4 32.8c-4 4-8 7.2-11.2 11.2l-12-12c4-3.2 8-7.2 11.2-11.2l12 12z m-24 21.6C667.2 764.8 600 792 528 792c-169.6 0-304-141.6-304-312 0-72 20.8-140 65.6-195.2l12 12C261.6 348 240 410.4 240 480c0 160.8 128 296 288 296 68.8 0 132-27.2 181.6-68l12 12.8zM528 208c151.2 0 272 120 272 272S679.2 760 528 760 256 632 256 480s120.8-272 272-272z m-204.8 65.6c-4 4-7.2 8-11.2 11.2l-12-12c3.2-4 7.2-8 11.2-12l12 12.8z m-79.2-56.8c-1.6-1.6-2.4-3.2-2.4-5.6s0.8-4 2.4-5.6c1.6-1.6 3.2-2.4 5.6-2.4 2.4 0 4 0.8 5.6 2.4l21.6 22.4c-4 4-7.2 8-11.2 12l-21.6-23.2zM664 1008H392c26.4-55.2 74.4-88 136-88 61.6 0 109.6 32.8 136 88z m142.4-332.8C743.2 767.2 639.2 824 528 824c-187.2 0-336-156-336-344 0-112.8 52-218.4 144.8-281.6 1.6-0.8 3.2-1.6 4.8-1.6 2.4 0 4.8 1.6 6.4 3.2 0.8 1.6 1.6 4 1.6 5.6 0 2.4-1.6 4-3.2 4.8C256.8 272 208 372 208 480c0 179.2 141.6 328 320 328 106.4 0 204.8-54.4 265.6-142.4 2.4-3.2 7.2-4.8 11.2-2.4 1.6 1.6 3.2 3.2 3.2 4.8 0 3.2 0 5.6-1.6 7.2z" fill="#0C508E" /><path d="M928 472c0-8.8-10.4-16-24-16H792.8c-13.6 0-24.8 7.2-24.8 16s-4.8 16-16 16-24 7.2-24 16 10.4 16 24 16h80c13.6 0 24-7.2 24-16s10.4-16 24-16h24c13.6 0 24-7.2 24-16z" fill="#FFFFFF" /></svg>