<?xml version="1.0" standalone="no"?><!DOCTYPE svg PUBLIC "-//W3C//DTD SVG 1.1//EN" "http://www.w3.org/Graphics/SVG/1.1/DTD/svg11.dtd"><svg t="1616550204163" class="icon" viewBox="0 0 1024 1024" version="1.1" xmlns="http://www.w3.org/2000/svg" p-id="22537" xmlns:xlink="http://www.w3.org/1999/xlink" width="200" height="200"><defs><style type="text/css"></style></defs><path d="M128 197.610667A69.824 69.824 0 0 1 197.824 127.786667h628.352A69.824 69.824 0 0 1 896 197.610667v625.792a69.824 69.824 0 0 1-69.824 69.824H197.824A69.824 69.824 0 0 1 128 823.402667V197.610667zM554.666667 394.666667a74.666667 74.666667 0 1 1 74.666666 74.666666 42.666667 42.666667 0 1 0 0 85.333334 160 160 0 1 0-160-160v213.333333a74.666667 74.666667 0 1 1-74.666666-74.666667 42.666667 42.666667 0 1 0 0-85.333333 160 160 0 1 0 160 160v-213.333333z" p-id="22538" fill="#1296db"></path></svg>