<?xml version="1.0" standalone="no"?><!DOCTYPE svg PUBLIC "-//W3C//DTD SVG 1.1//EN" "http://www.w3.org/Graphics/SVG/1.1/DTD/svg11.dtd"><svg class="icon" width="200px" height="200.00px" viewBox="0 0 1024 1024" version="1.1" xmlns="http://www.w3.org/2000/svg"><path d="M512 512m-512 0a512 512 0 1 0 1024 0 512 512 0 1 0-1024 0Z" fill="#FBD000" /><path d="M392 928c-17.6 0-32-14.4-32-32s14.4-32 32-32 32 14.4 32 32-14.4 32-32 32z m0-48.8c-9.6 0-16.8 8-16.8 16.8 0 9.6 8 16.8 16.8 16.8 9.6 0 16.8-8 16.8-16.8 0-9.6-7.2-16.8-16.8-16.8zM688 200c-17.6 0-32-14.4-32-32s14.4-32 32-32 32 14.4 32 32-14.4 32-32 32z m0-48.8c-9.6 0-16.8 8-16.8 16.8 0 9.6 8 16.8 16.8 16.8 9.6 0 16.8-8 16.8-16.8 0-9.6-7.2-16.8-16.8-16.8z" fill="#FFFFFF" /><path d="M944 832H72c-4.8 0-8-3.2-8-8s4-8 8-8h872c4.8 0 8 3.2 8 8s-4 8-8 8z" fill="#6B3C1C" /><path d="M152 344h288v480H152z" fill="#FFFFFF" /><path d="M438.4 616H156c-4.8 0-8-3.2-8-8s3.2-8 8-8h282.4c4.8 0 8 3.2 8 8s-4 8-8 8zM438.4 672H156c-4.8 0-8-3.2-8-8s3.2-8 8-8h282.4c4.8 0 8 3.2 8 8s-4 8-8 8zM438.4 728H156c-4.8 0-8-3.2-8-8s3.2-8 8-8h282.4c4.8 0 8 3.2 8 8s-4 8-8 8z" fill="#D4D6D6" /><path d="M256 592h80v152H256z" fill="#AD5114" /><path d="M224 784h144v40H224zM240.8 744h110.4v40H240.8zM438.4 448H156c-4.8 0-8-3.2-8-8s3.2-8 8-8h282.4c4.8 0 8 3.2 8 8s-4 8-8 8zM438.4 504H156c-4.8 0-8-3.2-8-8s3.2-8 8-8h282.4c4.8 0 8 3.2 8 8s-4 8-8 8zM438.4 560.8H156c-4.8 0-8-3.2-8-8s3.2-8 8-8h282.4c4.8 0 8 3.2 8 8 0 4-4 8-8 8z" fill="#D4D6D6" /><path d="M438.4 792H156c-4.8 0-8-3.2-8-8s3.2-8 8-8h282.4c4.8 0 8 3.2 8 8s-4 8-8 8z" fill="#D4D6D6" /><path d="M408 696c0 8.8-7.2 16-16 16h-8c-8.8 0-16-7.2-16-16V608c0-8.8 7.2-16 16-16h8c8.8 0 16 7.2 16 16v88zM224 696c0 8.8-7.2 16-16 16h-8c-8.8 0-16-7.2-16-16V608c0-8.8 7.2-16 16-16h8c8.8 0 16 7.2 16 16v88z" fill="#3AD0F9" /><path d="M312 688h-16c-4 0-8-3.2-8-8s3.2-8 8-8h16c4 0 8 3.2 8 8s-3.2 8-8 8z" fill="#663210" /><path d="M440 384h432v440H440z" fill="#FFFFFF" /><path d="M448 392h24v432h-24z" fill="#EAEAEA" /><path d="M440 392h432v22.4H440z" fill="#EAEAEA" /><path d="M872 448H441.6c-4.8 0-8-3.2-8-8s3.2-8 8-8H872c4.8 0 8 3.2 8 8s-3.2 8-8 8zM872 504H441.6c-4.8 0-8-3.2-8-8s3.2-8 8-8H872c4.8 0 8 3.2 8 8s-3.2 8-8 8zM872 560H441.6c-4.8 0-8-3.2-8-8s3.2-8 8-8H872c4.8 0 8 3.2 8 8s-3.2 8-8 8zM872 616H441.6c-4.8 0-8-3.2-8-8s3.2-8 8-8H872c4.8 0 8 3.2 8 8s-3.2 8-8 8zM872 671.2H441.6c-4.8 0-8-3.2-8-8s3.2-8 8-8H872c4.8 0 8 3.2 8 8s-3.2 8-8 8zM872 728H441.6c-4.8 0-8-3.2-8-8s3.2-8 8-8H872c4.8 0 8 3.2 8 8 0 4-3.2 8-8 8zM872 784H441.6c-4.8 0-8-3.2-8-8s3.2-8 8-8H872c4.8 0 8 3.2 8 8s-3.2 8-8 8z" fill="#D4D6D6" /><path d="M544 136.8c0-3.2-3.2-6.4-8-7.2l-14.4-1.6c-4-0.8-8.8-4.8-8.8-8.8l-3.2-15.2c-0.8-4-4-8-7.2-8s-6.4 3.2-7.2 8l-2.4 15.2c-0.8 4-4.8 8.8-8.8 8.8l-15.2 2.4c-4 0.8-8 4-8 7.2s3.2 6.4 8 7.2l15.2 2.4c4 0.8 8.8 4.8 8.8 8.8l2.4 15.2c0.8 4 4 8 7.2 8s6.4-3.2 7.2-8l2.4-16.8c0.8-4 4.8-8 8.8-8.8l14.4-0.8c5.6-1.6 8.8-4.8 8.8-8zM658.4 920.8c0-3.2-3.2-6.4-8-7.2l-15.2-2.4c-4-0.8-8.8-4.8-8.8-8.8L624 888c-0.8-4-4-8-7.2-8s-6.4 3.2-7.2 8l-2.4 15.2c-0.8 4-4.8 8.8-8.8 8.8l-15.2 2.4c-4 0.8-8 4-8 7.2s3.2 6.4 8 7.2l15.2 2.4c4 0.8 8.8 4.8 8.8 8.8l2.4 15.2c0.8 4 4 8 7.2 8s6.4-3.2 7.2-8l2.4-16.8c0.8-4 4.8-8 8.8-8.8l14.4-0.8c4.8-1.6 8.8-4.8 8.8-8z" fill="#FFFFFF" /><path d="M440 832H152c-4.8 0-8-3.2-8-8V344c0-4.8 3.2-8 8-8h288c4.8 0 8 3.2 8 8v480c0 4.8-3.2 8-8 8z m-280-16h272V352H160v464z" fill="#663210" /><path d="M872 832H440c-4.8 0-8-3.2-8-8V384c0-4.8 3.2-8 8-8h432c4.8 0 8 3.2 8 8v440c0 4.8-3.2 8-8 8z m-424-16h416V392H448v424z" fill="#663210" /><path d="M920.8 356c8 15.2 0.8 28-16.8 28H424c-17.6 0-32-14.4-32-32v-56c0-17.6 14.4-32 32-32h416c17.6 0 38.4 12.8 47.2 28l33.6 64z" fill="#FF4848" /><path d="M907.2 392H424.8c-20.8 0-44-15.2-51.2-35.2l-24-60.8c-4-10.4-3.2-20.8 2.4-28.8s14.4-12 25.6-12h465.6c20.8 0 44.8 14.4 54.4 32.8l34.4 63.2c5.6 9.6 5.6 20 0.8 28s-13.6 12.8-25.6 12.8zM376.8 272c-5.6 0-10.4 1.6-12.8 5.6-2.4 3.2-2.4 8 0 13.6l24 60.8c5.6 13.6 21.6 24.8 36.8 24.8h483.2c5.6 0 9.6-1.6 11.2-4.8 1.6-3.2 0.8-7.2-1.6-12l-34.4-63.2c-7.2-12.8-25.6-24-40-24H376.8z" fill="#663210" /><path d="M144.8 384c-13.6 0-17.6-8.8-10.4-20l152-216.8c7.2-11.2 20-11.2 27.2 0l152 216.8c7.2 11.2 3.2 20-10.4 20H144.8z" fill="#FF4848" /><path d="M170.4 376l113.6-162.4c8.8-12.8 24-12.8 32.8 0L430.4 376" fill="#FFFFFF" /><path d="M284 253.6c8.8-12.8 24-12.8 32.8 0L402.4 376h28L316.8 213.6c-8.8-12.8-24-12.8-32.8 0L170.4 376h28l85.6-122.4z" fill="#EAEAEA" /><path d="M456 392H144.8c-9.6 0-16.8-4-20-10.4s-2.4-14.4 3.2-22.4l152-220c4.8-7.2 12.8-12 20-12s15.2 4 20 12l152 220c5.6 8 6.4 16 3.2 22.4S465.6 392 456 392zM300.8 144c-2.4 0-4.8 1.6-7.2 4.8l-152 220c-2.4 3.2-2.4 5.6-2.4 5.6s1.6 1.6 5.6 1.6H456c4 0 5.6-0.8 5.6-1.6 0 0 0-2.4-2.4-5.6l-152-220c-1.6-3.2-4-4.8-6.4-4.8z" fill="#663210" /><path d="M430.4 384c-2.4 0-4.8-0.8-6.4-3.2L310.4 218.4c-5.6-8-13.6-8-19.2 0L176.8 380.8c-2.4 4-7.2 4.8-11.2 1.6-4-2.4-4.8-7.2-1.6-11.2l113.6-162.4c5.6-8 14.4-12.8 23.2-12.8s16.8 4.8 23.2 12.8l113.6 162.4c2.4 4 1.6 8.8-1.6 11.2-2.4 0.8-4 1.6-5.6 1.6z" fill="#663210" /><path d="M296 328m-24 0a24 24 0 1 0 48 0 24 24 0 1 0-48 0Z" fill="#3AD0F9" /><path d="M296 360c-17.6 0-32-14.4-32-32s14.4-32 32-32 32 14.4 32 32-14.4 32-32 32z m0-48c-8.8 0-16 7.2-16 16s7.2 16 16 16 16-7.2 16-16-7.2-16-16-16zM336 752H256c-4.8 0-8-3.2-8-8V592c0-4.8 3.2-8 8-8h80c4.8 0 8 3.2 8 8v152c0 4.8-3.2 8-8 8z m-72-16h64V600h-64v136zM392 720h-8c-13.6 0-24-10.4-24-24V608c0-13.6 10.4-24 24-24h8c13.6 0 24 10.4 24 24v88c0 13.6-10.4 24-24 24z m-8-120c-4.8 0-8 3.2-8 8v88c0 4.8 3.2 8 8 8h8c4.8 0 8-3.2 8-8V608c0-4.8-3.2-8-8-8h-8zM208 720h-8c-13.6 0-24-10.4-24-24V608c0-13.6 10.4-24 24-24h8c13.6 0 24 10.4 24 24v88c0 13.6-10.4 24-24 24z m-8-120c-4.8 0-8 3.2-8 8v88c0 4.8 3.2 8 8 8h8c4.8 0 8-3.2 8-8V608c0-4.8-3.2-8-8-8h-8z" fill="#663210" /><path d="M336 512c0 8.8-7.2 16-16 16h-48c-8.8 0-16-7.2-16-16v-72c0-8.8 7.2-16 16-16h48c8.8 0 16 7.2 16 16v72z" fill="#3AD0F9" /><path d="M336 472H256c-4.8 0-8-3.2-8-8s3.2-8 8-8h80c4.8 0 8 3.2 8 8s-3.2 8-8 8z" fill="#663210" /><path d="M320 536h-48c-13.6 0-24-10.4-24-24v-72c0-13.6 10.4-24 24-24h48c13.6 0 24 10.4 24 24v72c0 13.6-10.4 24-24 24z m-48-104c-4.8 0-8 3.2-8 8v72c0 4.8 3.2 8 8 8h48c4.8 0 8-3.2 8-8v-72c0-4.8-3.2-8-8-8h-48z" fill="#663210" /><path d="M288 504c-3.2 0-5.6-1.6-7.2-4.8-1.6-4 0-8.8 3.2-10.4l16-8c4-1.6 8.8 0 10.4 3.2 1.6 4 0 8.8-3.2 10.4l-16 8c-0.8 1.6-1.6 1.6-3.2 1.6z" fill="#FFFFFF" /><path d="M600 552c0 8.8-7.2 16-16 16h-48c-8.8 0-16-7.2-16-16v-72c0-8.8 7.2-16 16-16h48c8.8 0 16 7.2 16 16v72z" fill="#3AD0F9" /><path d="M600 512H520c-4.8 0-8-3.2-8-8s3.2-8 8-8h80c4.8 0 8 3.2 8 8s-3.2 8-8 8z" fill="#663210" /><path d="M584 576h-48c-13.6 0-24-10.4-24-24v-72c0-13.6 10.4-24 24-24h48c13.6 0 24 10.4 24 24v72c0 13.6-10.4 24-24 24z m-48-104c-4.8 0-8 3.2-8 8v72c0 4.8 3.2 8 8 8h48c4.8 0 8-3.2 8-8v-72c0-4.8-3.2-8-8-8h-48z" fill="#663210" /><path d="M552 544c-3.2 0-5.6-1.6-7.2-4.8-1.6-4 0-8.8 3.2-10.4l16-8c4-1.6 8.8 0 10.4 3.2 1.6 4 0 8.8-3.2 10.4l-16 8c-0.8 1.6-1.6 1.6-3.2 1.6z" fill="#FFFFFF" /><path d="M776 552c0 8.8-7.2 16-16 16h-48c-8.8 0-16-7.2-16-16v-72c0-8.8 7.2-16 16-16h48c8.8 0 16 7.2 16 16v72z" fill="#3AD0F9" /><path d="M776 512H696c-4.8 0-8-3.2-8-8s3.2-8 8-8h80c4.8 0 8 3.2 8 8s-3.2 8-8 8z" fill="#663210" /><path d="M760 576h-48c-13.6 0-24-10.4-24-24v-72c0-13.6 10.4-24 24-24h48c13.6 0 24 10.4 24 24v72c0 13.6-10.4 24-24 24z m-48-104c-4.8 0-8 3.2-8 8v72c0 4.8 3.2 8 8 8h48c4.8 0 8-3.2 8-8v-72c0-4.8-3.2-8-8-8h-48z" fill="#663210" /><path d="M728 544c-3.2 0-5.6-1.6-7.2-4.8-1.6-4 0-8.8 3.2-10.4l16-8c4-1.6 8.8 0 10.4 3.2 1.6 4 0 8.8-3.2 10.4l-16 8c-0.8 1.6-1.6 1.6-3.2 1.6z" fill="#FFFFFF" /><path d="M600 720c0 8.8-7.2 16-16 16h-48c-8.8 0-16-7.2-16-16v-72c0-8.8 7.2-16 16-16h48c8.8 0 16 7.2 16 16v72z" fill="#3AD0F9" /><path d="M600 680H520c-4.8 0-8-3.2-8-8s3.2-8 8-8h80c4.8 0 8 3.2 8 8s-3.2 8-8 8z" fill="#663210" /><path d="M584 744h-48c-13.6 0-24-10.4-24-24v-72c0-13.6 10.4-24 24-24h48c13.6 0 24 10.4 24 24v72c0 13.6-10.4 24-24 24z m-48-104c-4.8 0-8 3.2-8 8v72c0 4.8 3.2 8 8 8h48c4.8 0 8-3.2 8-8v-72c0-4.8-3.2-8-8-8h-48z" fill="#663210" /><path d="M552 712c-3.2 0-5.6-1.6-7.2-4.8-1.6-4 0-8.8 3.2-10.4l16-8c4-1.6 8.8 0 10.4 3.2 1.6 4 0 8.8-3.2 10.4l-16 8c-0.8 1.6-1.6 1.6-3.2 1.6z" fill="#FFFFFF" /><path d="M776 720c0 8.8-7.2 16-16 16h-48c-8.8 0-16-7.2-16-16v-72c0-8.8 7.2-16 16-16h48c8.8 0 16 7.2 16 16v72z" fill="#3AD0F9" /><path d="M776 680H696c-4.8 0-8-3.2-8-8s3.2-8 8-8h80c4.8 0 8 3.2 8 8s-3.2 8-8 8z" fill="#663210" /><path d="M760 744h-48c-13.6 0-24-10.4-24-24v-72c0-13.6 10.4-24 24-24h48c13.6 0 24 10.4 24 24v72c0 13.6-10.4 24-24 24z m-48-104c-4.8 0-8 3.2-8 8v72c0 4.8 3.2 8 8 8h48c4.8 0 8-3.2 8-8v-72c0-4.8-3.2-8-8-8h-48z" fill="#663210" /><path d="M728 712c-3.2 0-5.6-1.6-7.2-4.8-1.6-4 0-8.8 3.2-10.4l16-8c4-1.6 8.8 0 10.4 3.2 1.6 4 0 8.8-3.2 10.4l-16 8c-0.8 1.6-1.6 1.6-3.2 1.6z" fill="#FFFFFF" /><path d="M368 832H224c-4.8 0-8-3.2-8-8v-40c0-4.8 3.2-8 8-8h144c4.8 0 8 3.2 8 8v40c0 4.8-3.2 8-8 8z m-136-16h128v-24H232v24z" fill="#663210" /><path d="M351.2 792H240.8c-4.8 0-8-3.2-8-8v-40c0-4.8 3.2-8 8-8h110.4c4.8 0 8 3.2 8 8v40c0 4.8-4 8-8 8z m-102.4-16h94.4v-24H248.8v24z" fill="#663210" /><path d="M392 696c-4.8 0-8-3.2-8-8v-72c0-4.8 3.2-8 8-8s8 3.2 8 8v72c0 4.8-3.2 8-8 8zM208 696c-4.8 0-8-3.2-8-8v-72c0-4.8 3.2-8 8-8s8 3.2 8 8v72c0 4.8-3.2 8-8 8z" fill="#FFFFFF" /><path d="M856 352h-68c-4.8 0-8-3.2-8-8s3.2-8 8-8h68c4.8 0 8 3.2 8 8s-3.2 8-8 8zM726.4 352H639.2c-4.8 0-8-3.2-8-8s3.2-8 8-8h87.2c4.8 0 8 3.2 8 8s-4 8-8 8zM592 352H505.6c-4.8 0-8-3.2-8-8s4-8 8-8H592c4.8 0 8 3.2 8 8s-4 8-8 8zM814.4 312h-76.8c-4.8 0-8-3.2-8-8s3.2-8 8-8h76.8c4.8 0 8 3.2 8 8s-3.2 8-8 8zM688 312H601.6c-4.8 0-8-3.2-8-8s3.2-8 8-8H688c4.8 0 8 3.2 8 8s-3.2 8-8 8zM551.2 312H464.8c-4.8 0-8.8-3.2-8.8-8s4-8 8.8-8H552c4.8 0 8.8 3.2 8.8 8s-4.8 8-9.6 8z" fill="#E8372E" /><path d="M438.4 365.6c-2.4 0-4.8-0.8-6.4-3.2l-128-184c-2.4-4-1.6-8.8 2.4-11.2 4-2.4 8.8-1.6 11.2 2.4l128 184c2.4 4 1.6 8.8-2.4 11.2-1.6 0-3.2 0.8-4.8 0.8zM811.2 296H670.4c-4.8 0-8-3.2-8-8s3.2-8 8-8h140.8c4.8 0 8 3.2 8 8s-4 8-8 8zM631.2 296H464c-4.8 0-8-3.2-8-8s3.2-8 8-8h167.2c4.8 0 8 3.2 8 8s-4 8-8 8z" fill="#FFFFFF" opacity=".5" /><path d="M820.8 636a103.2 85.6 90 1 0 171.2 0 103.2 85.6 90 1 0-171.2 0Z" fill="#75B600" /><path d="M906.4 688c-40 0-73.6-32.8-83.2-77.6-1.6 8-2.4 16.8-2.4 25.6 0 56.8 38.4 103.2 85.6 103.2 47.2 0 85.6-46.4 85.6-103.2 0-8.8-0.8-17.6-2.4-25.6-9.6 44-43.2 77.6-83.2 77.6z" fill="#5C8E0D" /><path d="M908 744c-50.4 0-92-48.8-92-108S857.6 528 908 528 1000 576.8 1000 636 958.4 744 908 744z m0-200.8c-42.4 0-76 41.6-76 92.8 0 51.2 34.4 92.8 76 92.8 42.4 0 76-41.6 76-92.8 0-51.2-33.6-92.8-76-92.8z" fill="#663210" /><path d="M904 827.2c-4.8 0-8-3.2-8-8v-160c0-4.8 3.2-8 8-8s8 3.2 8 8v160.8c0 4-3.2 7.2-8 7.2z" fill="#663210" /><path d="M946.4 644c-4.8 0-8-3.2-8-8 0-40-28.8-49.6-28.8-49.6-4-1.6-6.4-5.6-4.8-10.4 1.6-4 5.6-6.4 10.4-4.8 1.6 0.8 40 13.6 40 64.8-0.8 4-4 8-8.8 8z" fill="#FFFFFF" /><path d="M167.2 719.2m-42.4 0a42.4 42.4 0 1 0 84.8 0 42.4 42.4 0 1 0-84.8 0Z" fill="#75B600" /><path d="M167.2 735.2c-18.4 0-34.4-12-40-28.8-1.6 4-2.4 8.8-2.4 12.8 0 23.2 19.2 42.4 42.4 42.4s41.6-19.2 41.6-42.4c0-4.8-0.8-8.8-2.4-12.8-4.8 16-20.8 28.8-39.2 28.8z" fill="#5C8E0D" /><path d="M166.4 768c-25.6 0-54.4-20-54.4-48.8 0-28 27.2-55.2 54.4-55.2 26.4 0 49.6 25.6 49.6 55.2 0 27.2-21.6 48.8-49.6 48.8z m0-88c-18.4 0-38.4 20-38.4 39.2 0 19.2 20.8 32.8 38.4 32.8 19.2 0 33.6-14.4 33.6-32.8S185.6 680 166.4 680z" fill="#663210" /><path d="M136 787.2h53.6v34.4H136z" fill="#FF4848" /><path d="M192 832h-48c-4.8 0-8-3.2-8-8v-40c0-4.8 3.2-8 8-8h48c4.8 0 8 3.2 8 8v40c0 4.8-3.2 8-8 8z m-40-16h32v-24h-32v24z" fill="#663210" /><path d="M168 794.4c-4.8 0-8-3.2-8-8V768c0-4.8 3.2-8 8-8s8 3.2 8 8v18.4c0 4-3.2 8-8 8z" fill="#663210" /><path d="M423.2 719.2m-42.4 0a42.4 42.4 0 1 0 84.8 0 42.4 42.4 0 1 0-84.8 0Z" fill="#75B600" /><path d="M423.2 735.2c-18.4 0-34.4-12-40-28.8-1.6 4-2.4 8.8-2.4 12.8 0 23.2 19.2 42.4 42.4 42.4s41.6-19.2 41.6-42.4c0-4.8-0.8-8.8-2.4-12.8-5.6 16-20.8 28.8-39.2 28.8z" fill="#5C8E0D" /><path d="M423.2 768c-25.6 0-55.2-20-55.2-48.8 0-28 27.2-55.2 55.2-55.2 26.4 0 49.6 25.6 49.6 55.2 0 27.2-21.6 48.8-49.6 48.8z m0-88c-19.2 0-39.2 20-39.2 39.2 0 19.2 20.8 32.8 39.2 32.8 19.2 0 33.6-14.4 33.6-32.8S441.6 680 423.2 680z" fill="#663210" /><path d="M394.4 787.2H448v34.4h-53.6z" fill="#FF4848" /><path d="M448 832h-48c-4.8 0-8-3.2-8-8v-40c0-4.8 3.2-8 8-8h48c4.8 0 8 3.2 8 8v40c0 4.8-3.2 8-8 8z m-40-16h32v-24h-32v24z" fill="#663210" /><path d="M424 794.4c-4.8 0-8-3.2-8-8V768c0-4.8 3.2-8 8-8s8 3.2 8 8v18.4c0 4-3.2 8-8 8z" fill="#663210" /></svg>