<?xml version="1.0" standalone="no"?><!DOCTYPE svg PUBLIC "-//W3C//DTD SVG 1.1//EN" "http://www.w3.org/Graphics/SVG/1.1/DTD/svg11.dtd"><svg class="icon" width="200px" height="200.00px" viewBox="0 0 1024 1024" version="1.1" xmlns="http://www.w3.org/2000/svg"><path d="M512 512m-512 0a512 512 0 1 0 1024 0 512 512 0 1 0-1024 0Z" fill="#FF4747" /><path d="M527.2 180c-96.8 34.4-147.2 141.6-112.8 238.4 27.2 76 98.4 123.2 174.4 123.2 0 0 92.8 256.8 100.8 280 8 23.2 25.6 39.2 41.6 44.8 16 5.6 45.6 16.8 60-12.8 7.2-14.4 14.4-29.6 19.2-41.6 5.6-12 5.6-29.6 0.8-43.2-4.8-13.6-9.6-29.6-9.6-29.6s8-16.8 12.8-28.8c4.8-12.8 0.8-29.6-12-36.8-4-2.4-8.8-4.8-13.6-7.2-10.4-4.8-16.8-18.4-12-28 2.4-4.8 4.8-10.4 6.4-15.2 5.6-14.4-1.6-25.6-16-31.2-6.4-2.4-12.8-4.8-18.4-8-10.4-5.6-15.2-12.8-20-29.6-4.8-16.8-20.8-55.2-20.8-55.2 58.4-48.8 83.2-130.4 56-206.4C731.2 195.2 624 144.8 527.2 180z m91.2 113.6c10.4 28-4.8 59.2-32.8 68.8-28 10.4-59.2-4.8-68.8-32.8-10.4-28 4.8-59.2 32.8-68.8 28-10.4 59.2 4.8 68.8 32.8z" fill="#FBD000" /><path d="M755.2 821.6c-16-5.6-33.6-20.8-41.6-44.8-8-23.2-100.8-280-100.8-280-76 0-147.2-48-174.4-123.2-15.2-42.4-14.4-87.2 0-126.4-34.4 48-45.6 112-24 172 27.2 76 98.4 123.2 174.4 123.2 0 0 92.8 256.8 100.8 280 8 23.2 25.6 39.2 41.6 44.8 16 5.6 45.6 16.8 60-12.8 5.6-12 12-24 16.8-35.2-16 15.2-39.2 6.4-52.8 2.4z" fill="#F4B10B" /><path d="M728 332c0-64.8-33.6-122.4-84-155.2-36.8-11.2-77.6-11.2-116.8 3.2-96.8 34.4-147.2 141.6-112.8 238.4 13.6 37.6 37.6 67.2 67.2 88.8 19.2 6.4 39.2 10.4 60.8 10.4C644.8 517.6 728 434.4 728 332z m-141.6 30.4c-28 10.4-59.2-4.8-68.8-32.8-10.4-28 4.8-59.2 32.8-68.8 28-10.4 59.2 4.8 68.8 32.8 9.6 28-4.8 58.4-32.8 68.8z" fill="#F4B10B" /><path d="M760.8 880c-11.2 0-22.4-4-30.4-6.4l-1.6-0.8c-16-5.6-36.8-21.6-46.4-49.6-7.2-21.6-85.6-237.6-98.4-274.4-79.2-2.4-149.6-53.6-176-128.8-18.4-48-16-100.8 6.4-148s60.8-82.4 109.6-100c20.8-8 43.2-11.2 65.6-11.2 81.6 0 155.2 52 182.4 128.8 27.2 74.4 4.8 158.4-54.4 211.2 4.8 11.2 14.4 36.8 18.4 50.4 4.8 16.8 8.8 20.8 16 24.8 3.2 1.6 8 4 12.8 5.6l4 1.6c19.2 8 27.2 24 20 41.6-1.6 4.8-4 10.4-6.4 15.2-2.4 5.6 1.6 14.4 8 17.6 5.6 3.2 10.4 5.6 14.4 7.2 15.2 8.8 21.6 29.6 15.2 46.4-4 9.6-9.6 21.6-12 26.4 1.6 5.6 5.6 16.8 8.8 26.4 5.6 15.2 4.8 35.2-0.8 48.8-7.2 16-13.6 29.6-20 41.6-5.6 17.6-18.4 25.6-35.2 25.6zM589.6 176.8c-20.8 0-40.8 3.2-60 10.4-44.8 16-80.8 48.8-100.8 92s-22.4 91.2-6.4 136c25.6 70.4 92 117.6 167.2 118.4 3.2 0 6.4 2.4 7.2 5.6 4 10.4 92.8 256.8 100.8 280 7.2 22.4 24 35.2 36 39.2l2.4 0.8c7.2 2.4 16.8 5.6 25.6 5.6 10.4 0 17.6-4.8 23.2-15.2 5.6-12 12-25.6 19.2-41.6 4-9.6 4.8-25.6 0.8-37.6-4.8-13.6-9.6-30.4-9.6-30.4-0.8-1.6-0.8-4 0.8-5.6 0 0 8-16.8 12.8-28.8 3.2-8.8 0.8-21.6-8.8-27.2-3.2-1.6-7.2-4-12.8-7.2-14.4-7.2-22.4-24.8-16-38.4 2.4-4.8 4-9.6 6.4-14.4 4-9.6 0-16.8-11.2-21.6l-6.4-0.8c-4.8-2.4-10.4-4-14.4-6.4-13.6-7.2-18.4-17.6-24-34.4-4.8-16.8-20-53.6-20-54.4-1.6-3.2 0-7.2 2.4-8.8 57.6-48 79.2-127.2 53.6-197.6-25.6-70.4-92.8-117.6-168-117.6zM568 376c-27.2 0-51.2-16.8-60-42.4-5.6-16-4.8-33.6 2.4-48.8 7.2-15.2 20-27.2 36-32.8 6.4-3.2 13.6-4 21.6-4 27.2 0 51.2 16.8 60 42.4 5.6 16 4.8 33.6-2.4 48.8-7.2 15.2-20 27.2-36 32.8-7.2 2.4-14.4 4-21.6 4z m0-112c-5.6 0-11.2 0.8-16 3.2-12 4-21.6 12.8-27.2 24.8-5.6 11.2-6.4 24.8-1.6 36.8 7.2 19.2 24.8 32 44.8 32 5.6 0 11.2-0.8 16-3.2 12-4 21.6-12.8 27.2-24.8 5.6-11.2 6.4-24.8 1.6-36.8-7.2-19.2-24.8-32-44.8-32z" fill="#6B3C1C" /><path d="M591.2 165.6c-86.4-56.8-201.6-32.8-258.4 53.6-44 67.2-39.2 152.8 6.4 213.6 0 0-148.8 228-163.2 248.8-14.4 20-16 44-10.4 60s14.4 46.4 46.4 40.8c16-3.2 32.8-6.4 44.8-9.6 12.8-3.2 27.2-13.6 35.2-25.6 8-12 17.6-25.6 17.6-25.6s18.4-4 31.2-7.2 24-16.8 22.4-31.2c-0.8-4.8-1.6-9.6-2.4-15.2-2.4-11.2 4.8-24 15.2-26.4 5.6-1.6 11.2-2.4 16-4 15.2-4 19.2-16.8 16-31.2-1.6-6.4-4-13.6-4.8-19.2-1.6-11.2 1.6-19.2 12-33.6 10.4-14.4 32-49.6 32-49.6 74.4 17.6 154.4-12 198.4-79.2 56-86.4 32-202.4-54.4-259.2z m-35.2 141.6c-16 24.8-49.6 32-74.4 15.2-24.8-16-32-49.6-15.2-74.4 16-24.8 49.6-32 74.4-15.2 24.8 16 31.2 49.6 15.2 74.4z" fill="#FBD000" /><path d="M320.8 398.4c-1.6-2.4-3.2-4-4-6.4 0.8 2.4 2.4 4.8 3.2 8 0.8-0.8 0.8-1.6 0.8-1.6zM643.2 216c22.4 55.2 18.4 120-16.8 172.8-44 68-128 100.8-202.4 83.2 0 0-17.6 32-28 46.4-10.4 14.4-13.6 22.4-12 33.6 0.8 5.6 3.2 12.8 4.8 19.2 4 14.4-0.8 27.2-16 31.2-4.8 1.6-10.4 2.4-16 4-10.4 2.4-17.6 15.2-15.2 26.4 0.8 5.6 1.6 10.4 2.4 15.2 1.6 14.4-9.6 28-22.4 31.2-12.8 3.2-31.2 7.2-31.2 7.2S280 700.8 272.8 712c-8 12-22.4 22.4-35.2 25.6-12.8 3.2-28.8 6.4-44.8 9.6-12 2.4-20.8-0.8-28-6.4v0.8c5.6 16 14.4 46.4 46.4 40.8 16-3.2 32.8-6.4 44.8-9.6 12.8-3.2 27.2-13.6 35.2-25.6 8-12 17.6-25.6 17.6-25.6s18.4-4 31.2-7.2 24-16.8 22.4-31.2c-0.8-4.8-1.6-9.6-2.4-15.2-2.4-11.2 4.8-24 15.2-26.4 5.6-1.6 11.2-2.4 16-4 15.2-4 19.2-16.8 16-31.2-1.6-6.4-4-13.6-4.8-19.2-1.6-11.2 1.6-19.2 12-33.6 10.4-14.4 32-49.6 32-49.6 74.4 17.6 154.4-12 198.4-79.2 43.2-65.6 40-148-1.6-208.8z" fill="#F4B10B" /><path d="M204 791.2c-30.4 0-40-28.8-45.6-44.8l-0.8-2.4c-5.6-16-5.6-42.4 12-67.2 12.8-18.4 140-211.2 161.6-244-45.6-64.8-47.2-152-3.2-218.4 36-55.2 97.6-88 164-88 38.4 0 75.2 11.2 107.2 32 44 28.8 73.6 72 84 123.2 10.4 51.2 0.8 102.4-28 146.4-36 55.2-97.6 88-164 88-12.8 0-26.4-1.6-39.2-4-6.4 10.4-20.8 34.4-29.6 45.6-10.4 13.6-12 20-10.4 28 0.8 4 1.6 8.8 3.2 13.6l1.6 4.8c5.6 20-3.2 36-21.6 40.8-4.8 1.6-11.2 3.2-16 4-6.4 1.6-11.2 9.6-9.6 17.6 1.6 6.4 2.4 11.2 2.4 16 2.4 17.6-10.4 35.2-28 40-10.4 2.4-22.4 5.6-28.8 6.4-3.2 4.8-10.4 14.4-16 23.2-9.6 13.6-25.6 25.6-40 28.8-16.8 4-32 7.2-45.6 9.6-3.2 0.8-6.4 0.8-9.6 0.8z m288-648c-60.8 0-116.8 30.4-150.4 80.8-41.6 62.4-39.2 144.8 6.4 204.8 2.4 2.4 2.4 6.4 0 8.8-6.4 9.6-150.4 228.8-164.8 248.8-13.6 20-13.6 40.8-9.6 52.8l0.8 2.4c5.6 17.6 12.8 33.6 30.4 33.6 2.4 0 4 0 6.4-0.8 12.8-2.4 28-5.6 44.8-9.6 10.4-2.4 23.2-12 30.4-21.6 8-12 18.4-26.4 18.4-26.4 0.8-1.6 3.2-3.2 4.8-3.2 0 0 18.4-4 30.4-7.2 8.8-2.4 17.6-12 16.8-23.2-0.8-4-1.6-8.8-2.4-14.4-3.2-16 6.4-32.8 21.6-36 4.8-0.8 10.4-2.4 16-4 9.6-2.4 13.6-10.4 10.4-21.6l-0.8-4.8c-1.6-5.6-3.2-10.4-3.2-15.2-2.4-15.2 3.2-25.6 13.6-40 10.4-13.6 31.2-48.8 31.2-48.8 1.6-3.2 5.6-4.8 8.8-4 13.6 3.2 27.2 4.8 41.6 4.8 60.8 0 116.8-30.4 150.4-80.8 26.4-40 35.2-87.2 25.6-134.4-9.6-46.4-37.6-87.2-77.6-112.8-30.4-17.6-64.8-28-100-28zM512 344c-12.8 0-24.8-4-35.2-10.4-14.4-9.6-24-24-27.2-40.8-3.2-16.8 0-33.6 8.8-48 12-18.4 32-28.8 53.6-28.8 12.8 0 24.8 4 35.2 10.4 14.4 9.6 24 24 27.2 40.8 3.2 16.8 0 33.6-8.8 48-12 18.4-32 28.8-53.6 28.8z m0-112c-16 0-31.2 8-40 21.6-7.2 10.4-9.6 23.2-7.2 36 2.4 12.8 9.6 23.2 20.8 30.4 8 4.8 16.8 8 26.4 8 16 0 31.2-8 40-21.6 7.2-10.4 9.6-23.2 7.2-36-2.4-12.8-9.6-23.2-20.8-30.4-8-5.6-16.8-8-26.4-8z" fill="#6B3C1C" /><path d="M336.8 328c-4.8 0-8.8-3.2-8.8-8 0-24 5.6-46.4 16-68 1.6-4 7.2-5.6 11.2-4 4 1.6 6.4 6.4 4 10.4-9.6 19.2-14.4 40-14.4 61.6 0 4.8-4 8-8 8zM632.8 272c-3.2 0-5.6-1.6-7.2-4.8-4-11.2-9.6-21.6-16.8-31.2-2.4-3.2-1.6-8 1.6-10.4 3.2-2.4 8-1.6 10.4 1.6 8 11.2 13.6 22.4 18.4 35.2 1.6 4-0.8 8-4.8 9.6h-1.6zM384 216c-2.4 0-4.8-0.8-6.4-3.2-3.2-3.2-2.4-8.8 0.8-12C408.8 174.4 448 160 488 160c4.8 0 8 4 8 8 0 4.8-4 8-8 8-36 0-71.2 13.6-98.4 37.6-1.6 1.6-3.2 2.4-5.6 2.4zM201.6 702.4c-1.6 0-3.2-0.8-4-1.6-4-2.4-4.8-7.2-2.4-11.2l30.4-47.2c2.4-4 7.2-4.8 11.2-2.4 4 2.4 4.8 7.2 2.4 11.2l-31.2 48c-1.6 2.4-4 3.2-6.4 3.2zM260.8 610.4c-1.6 0-3.2-0.8-4-1.6-4-2.4-4.8-7.2-2.4-11.2l90.4-138.4c2.4-4 7.2-4.8 11.2-2.4 4 2.4 4.8 7.2 2.4 11.2L268 607.2c-1.6 1.6-4 3.2-7.2 3.2zM736.8 616h-1.6c-0.8 0-27.2-6.4-34.4-27.2-6.4-17.6-20-54.4-20-54.4l14.4-5.6s13.6 37.6 20 54.4c4 10.4 18.4 16.8 24 17.6 4 0.8 6.4 5.6 5.6 9.6-1.6 3.2-4.8 5.6-8 5.6zM776 704c-1.6 0-2.4 0-4-0.8l-16.8-10.4c-4-2.4-4.8-7.2-2.4-11.2 2.4-4 7.2-4.8 10.4-2.4l16.8 10.4c4 2.4 4.8 7.2 2.4 11.2-0.8 1.6-3.2 3.2-6.4 3.2z" fill="#FFFFFF" /><path d="M561.6 276.8c-13.6 1.6-28 3.2-41.6 3.2-128 0-233.6-94.4-252.8-217.6-4.8 2.4-9.6 5.6-14.4 8.8C275.2 198.4 386.4 296 520 296c14.4 0 29.6-1.6 44-3.2 4-0.8 7.2-4.8 6.4-9.6-0.8-4.8-4.8-7.2-8.8-6.4zM772.8 72c-8.8 50.4-33.6 96.8-72.8 133.6-3.2 3.2 9.6 12 11.2 11.2 40-37.6 66.4-84.8 76.8-136-5.6-3.2-10.4-6.4-15.2-8.8z" fill="#6B3C1C" /><path d="M651.2 170.4c0-3.2-3.2-6.4-8-7.2l-38.4-6.4c-4-0.8-8.8-4.8-9.6-9.6l-6.4-38.4c-0.8-4-4-8-7.2-8s-6.4 3.2-7.2 8l-6.4 38.4c-0.8 4-4.8 8.8-9.6 9.6l-38.4 6.4c-4 0.8-8 4-8 7.2s3.2 6.4 8 7.2l37.6 4.8c4 0.8 8.8 4.8 9.6 8.8l7.2 40c0.8 4 4 8 7.2 8s6.4-3.2 7.2-8l7.2-40.8c0.8-4 4.8-8 9.6-8.8l37.6-4.8c4 0.8 8-3.2 8-6.4zM864 344c-17.6 0-32-14.4-32-32s14.4-32 32-32 32 14.4 32 32-14.4 32-32 32z m0-48c-8.8 0-16 7.2-16 16s7.2 16 16 16 16-7.2 16-16-7.2-16-16-16zM408 864c-17.6 0-32-14.4-32-32s14.4-32 32-32 32 14.4 32 32-14.4 32-32 32z m0-48c-8.8 0-16 7.2-16 16s7.2 16 16 16 16-7.2 16-16-7.2-16-16-16zM152.8 393.6c0-3.2 3.2-6.4 8-7.2L176 384c4-0.8 8.8-4.8 8.8-8.8l2.4-15.2c0.8-4 4-8 7.2-8s6.4 3.2 7.2 8l2.4 15.2c0.8 4 4.8 8.8 8.8 8.8l15.2 2.4c4 0.8 8 4 8 7.2s-3.2 6.4-8 7.2l-15.2 2.4c-4 0.8-8.8 4.8-8.8 8.8l-2.4 15.2c-0.8 4-4 8-7.2 8s-6.4-3.2-7.2-8l-2.4-16.8c-0.8-4-4.8-8-8.8-8.8l-15.2-1.6c-4.8 0-8-3.2-8-6.4zM859.2 572.8c0-3.2 3.2-6.4 8-7.2l15.2-2.4c4-0.8 8.8-4.8 8.8-8.8l2.4-15.2c0.8-4 4-8 7.2-8s6.4 3.2 7.2 8l2.4 15.2c0.8 4 4.8 8.8 8.8 8.8l15.2 2.4c4 0.8 8 4 8 7.2s-3.2 6.4-8 7.2l-15.2 2.4c-4 0.8-8.8 4.8-8.8 8.8l-2.4 15.2c-0.8 4-4 8-7.2 8s-6.4-3.2-7.2-8l-2.4-16.8c-0.8-4-4.8-8-8.8-8.8l-14.4-0.8c-4.8-1.6-8.8-4-8.8-7.2zM486.4 703.2c0-3.2 3.2-6.4 8-7.2l15.2-2.4c4-0.8 8.8-4.8 8.8-8.8l2.4-15.2c0.8-4 4-8 7.2-8s6.4 3.2 7.2 8l2.4 15.2c0.8 4 4.8 8.8 8.8 8.8l13.6 2.4c4 0.8 8 4 8 7.2s-3.2 6.4-8 7.2l-14.4 1.6c-4 0.8-8.8 4.8-8.8 8.8l-2.4 15.2c-0.8 4-4 8-7.2 8s-6.4-3.2-7.2-8l-2.4-16.8c-0.8-4-4.8-8-8.8-8.8l-14.4-0.8c-4.8-0.8-8-3.2-8-6.4z" fill="#FFFFFF" /></svg>