<?xml version="1.0" standalone="no"?><!DOCTYPE svg PUBLIC "-//W3C//DTD SVG 1.1//EN" "http://www.w3.org/Graphics/SVG/1.1/DTD/svg11.dtd"><svg class="icon" width="200px" height="200.00px" viewBox="0 0 1024 1024" version="1.1" xmlns="http://www.w3.org/2000/svg"><path d="M512 512m-512 0a512 512 0 1 0 1024 0 512 512 0 1 0-1024 0Z" fill="#5E52F7" /><path d="M452.8 792a60 36.8 0 1 0 120 0 60 36.8 0 1 0-120 0Z" fill="#074370" /><path d="M512.8 840c-37.6 0-68-20.8-68-46.4 0-26.4 29.6-46.4 68-46.4 37.6 0 68 20.8 68 46.4-0.8 25.6-30.4 46.4-68 46.4z m0-76.8c-28 0-52 13.6-52 29.6s24 29.6 52 29.6 52-13.6 52-29.6c-0.8-15.2-24-29.6-52-29.6z" fill="#074370" /><path d="M432 751.2a80.8 49.6 0 1 0 161.6 0 80.8 49.6 0 1 0-161.6 0Z" fill="#D4D6D6" /><path d="M512 808c-49.6 0-88-24.8-88-57.6 0-32 38.4-56.8 88-56.8s88 24.8 88 56.8c0 32.8-38.4 57.6-88 57.6z m0.8-98.4c-39.2 0-72.8 19.2-72.8 41.6 0 22.4 33.6 41.6 72.8 41.6 39.2 0 72.8-19.2 72.8-41.6-0.8-23.2-33.6-41.6-72.8-41.6z" fill="#074370" /><path d="M432 716a80.8 49.6 0 1 0 161.6 0 80.8 49.6 0 1 0-161.6 0Z" fill="#D4D6D6" /><path d="M512 774.4c-49.6 0-88-25.6-88-57.6 0-32.8 38.4-57.6 88-57.6s88 25.6 88 57.6-38.4 57.6-88 57.6z m0.8-100c-39.2 0-72.8 19.2-72.8 41.6 0 22.4 33.6 41.6 72.8 41.6 39.2 0 72.8-19.2 72.8-41.6-0.8-22.4-33.6-41.6-72.8-41.6z" fill="#074370" /><path d="M709.6 432c0-108.8-88.8-200-197.6-200S316 323.2 316 432c0 74.4 39.2 115.2 57.6 152 21.6 44 25.6 142.4 139.2 142.4S627.2 624 648 583.2c20-38.4 61.6-81.6 61.6-151.2z" fill="#FBD000" /><path d="M511.2 631.2c-59.2 0-112-25.6-149.6-65.6 4 6.4 7.2 12.8 10.4 18.4 21.6 44 25.6 142.4 139.2 142.4S625.6 624 646.4 583.2c1.6-3.2 3.2-5.6 4.8-8.8-36 35.2-85.6 56.8-140 56.8z" fill="#F4B10B" /><path d="M512.8 736c-96 0-118.4-67.2-134.4-116.8-4-12-7.2-23.2-12-31.2-4-8.8-9.6-17.6-15.2-27.2-19.2-31.2-43.2-70.4-43.2-129.6C308 316.8 400 224 512.8 224c112.8 0 204.8 92.8 204.8 206.4 0 55.2-24.8 95.2-44.8 127.2-6.4 10.4-12.8 20-17.6 29.6-4 8-8 20-11.2 32C629.6 665.6 608 736 512.8 736zM512 240c-104 0-188 85.6-188 190.4 0 54.4 21.6 90.4 40.8 121.6 6.4 9.6 12 19.2 16 28 4.8 9.6 8.8 21.6 12.8 33.6 15.2 48 34.4 106.4 119.2 106.4 83.2 0 101.6-58.4 116-105.6 4-12.8 8-24.8 12-34.4 4.8-9.6 11.2-20 18.4-30.4 20-32 42.4-68 42.4-118.4C701.6 325.6 616 240 512 240z" fill="#074370" /><path d="M512 728c-4.8 0-8-3.2-8-8V568L403.2 469.6c-3.2-3.2-3.2-8 0-11.2 3.2-3.2 8-3.2 11.2 0l104 104c1.6 1.6 1.6 3.2 1.6 5.6v152c0 4.8-3.2 8-8 8z" fill="#074370" /><path d="M527.2 556.8c-2.4 0-4-0.8-5.6-2.4-3.2-3.2-3.2-8 0-11.2l71.2-71.2h-184c-4.8 0-8-3.2-8-8s3.2-8 8-8h203.2c3.2 0 6.4 1.6 7.2 4.8 1.6 3.2 0.8 6.4-1.6 8.8L532.8 554.4c-1.6 1.6-3.2 2.4-5.6 2.4z" fill="#074370" /><path d="M256 456H176c-4 0-8-3.2-8-8s3.2-8 8-8h80c4 0 8 3.2 8 8s-3.2 8-8 8zM848 456H766.4c-4.8 0-8-3.2-8-8s3.2-8 8-8H848c4.8 0 8 3.2 8 8s-3.2 8-8 8zM512 200c-4.8 0-8-3.2-8-8V112c0-4 3.2-8 8-8s8 3.2 8 8v80c0 4.8-3.2 8-8 8zM332.8 278.4c-2.4 0-4-0.8-5.6-2.4l-58.4-58.4c-3.2-3.2-3.2-8 0-11.2 3.2-3.2 8-3.2 11.2 0l58.4 58.4c3.2 3.2 3.2 8 0 11.2-1.6 1.6-3.2 2.4-5.6 2.4zM750.4 696c-2.4 0-4-0.8-5.6-2.4l-58.4-58.4c-3.2-3.2-3.2-8 0-11.2 3.2-3.2 8-3.2 11.2 0l58.4 58.4c3.2 3.2 3.2 8 0 11.2-1.6 1.6-4 2.4-5.6 2.4zM692 278.4c-2.4 0-4-0.8-5.6-2.4-3.2-3.2-3.2-8 0-11.2l58.4-58.4c3.2-3.2 8-3.2 11.2 0 3.2 3.2 3.2 8 0 11.2l-58.4 58.4c-1.6 1.6-4 2.4-5.6 2.4zM275.2 696c-2.4 0-4-0.8-5.6-2.4-3.2-3.2-3.2-8 0-11.2L328 624c3.2-3.2 8-3.2 11.2 0 3.2 3.2 3.2 8 0 11.2l-58.4 58.4c-1.6 1.6-4 2.4-5.6 2.4z" fill="#FBD000" /><path d="M352 440.8c-4 0-8-3.2-8-8 0-76.8 52.8-143.2 128-161.6 4-0.8 8 1.6 9.6 5.6 0.8 4-1.6 8-5.6 9.6C407.2 303.2 360 363.2 360 432.8c-0.8 4.8-4 8-8 8zM583.2 292c-0.8 0-2.4 0-3.2-0.8-20.8-8.8-43.2-13.6-67.2-13.6-4.8 0-8-3.2-8-7.2s3.2-7.2 8-7.2c25.6 0 50.4 4.8 73.6 14.4 4 1.6 5.6 5.6 4 9.6-1.6 3.2-4 4.8-7.2 4.8zM671.2 440.8c-4.8 0-8.8-3.2-8.8-8 0-27.2-7.2-53.6-21.6-77.6-2.4-4-0.8-8.8 3.2-11.2 4-2.4 9.6-0.8 12 3.2 16 25.6 24 55.2 24 84.8 0 5.6-4 8.8-8.8 8.8z" fill="#FFFFFF" /><path d="M128 688.8c-17.6 0-32-14.4-32-32s14.4-32 32-32 32 14.4 32 32-14.4 32-32 32z m0-49.6c-9.6 0-16.8 8-16.8 16.8 0 9.6 8 16.8 16.8 16.8 9.6 0 16.8-8 16.8-16.8s-7.2-16.8-16.8-16.8zM831.2 360c-17.6-0.8-32-15.2-31.2-32.8 0.8-17.6 15.2-32 32.8-31.2 17.6 0.8 32 15.2 31.2 32.8-0.8 17.6-15.2 32-32.8 31.2z m0.8-48.8c-9.6 0-17.6 7.2-17.6 16.8 0 9.6 7.2 16.8 16.8 17.6 9.6 0 17.6-7.2 17.6-16.8 0-9.6-7.2-17.6-16.8-17.6zM696 896c-17.6 0-32-14.4-32-32s14.4-32 32-32 32 14.4 32 32-14.4 32-32 32z m0-48.8c-9.6 0-16.8 8-16.8 16.8 0 9.6 8 16.8 16.8 16.8s16.8-8 16.8-16.8c0-9.6-7.2-16.8-16.8-16.8zM914.4 585.6c0-3.2-3.2-6.4-8-7.2l-15.2-2.4c-4-0.8-8.8-4.8-8.8-8.8L880 552c-0.8-4-4-8-7.2-8s-6.4 3.2-7.2 8l-2.4 15.2c-0.8 4-4.8 8.8-8.8 8.8l-15.2 2.4c-4 0.8-8 4-8 7.2s3.2 6.4 8 7.2l15.2 2.4c4 0.8 8.8 4.8 8.8 8.8l2.4 15.2c0.8 4 4 8 7.2 8s6.4-3.2 7.2-8l2.4-16.8c0.8-4 4.8-8 8.8-8.8l14.4-0.8c5.6-1.6 8.8-4 8.8-7.2zM233.6 284.8c0-3.2-3.2-6.4-8-7.2l-15.2-2.4c-4-0.8-8.8-4.8-8.8-8.8l-1.6-14.4c-0.8-4-4-8-7.2-8s-6.4 3.2-7.2 8l-1.6 14.4c-0.8 4-4.8 8.8-8.8 8.8l-15.2 3.2c-4 0.8-8 4-8 7.2s3.2 6.4 8 7.2l15.2 2.4c4 0.8 8.8 4.8 8.8 8.8l2.4 15.2c0.8 4 4 8 7.2 8s6.4-3.2 7.2-8l2.4-16.8c0.8-4 4.8-8 8.8-8.8l14.4-0.8c4-1.6 7.2-4.8 7.2-8zM347.2 847.2c0-3.2-3.2-6.4-8-7.2l-15.2-2.4c-4-0.8-8.8-4.8-8.8-8.8l-2.4-15.2c-0.8-4-4-8-7.2-8s-6.4 3.2-7.2 8l-2.4 15.2c-0.8 4-4.8 8.8-8.8 8.8l-15.2 2.4c-4 0.8-8 4-8 7.2s3.2 6.4 8 7.2l16 1.6c4 0.8 8.8 4.8 8.8 8.8l2.4 15.2c0.8 4 4 8 7.2 8s6.4-3.2 7.2-8l2.4-16.8c0.8-4 4.8-8 8.8-8.8l14.4-0.8c4.8-0.8 8-3.2 8-6.4z" fill="#FFFFFF" opacity=".5" /></svg>