<?xml version="1.0" standalone="no"?><!DOCTYPE svg PUBLIC "-//W3C//DTD SVG 1.1//EN" "http://www.w3.org/Graphics/SVG/1.1/DTD/svg11.dtd"><svg class="icon" width="200px" height="200.00px" viewBox="0 0 1024 1024" version="1.1" xmlns="http://www.w3.org/2000/svg"><path d="M512 512m-512 0a512 512 0 1 0 1024 0 512 512 0 1 0-1024 0Z" fill="#F99900" /><path d="M164 328l304.8-232.8c26.4-20 69.6-19.2 96 0.8l303.2 232h-704z" fill="#FFFFFF" /><path d="M262.4 248h508.8L645.6 152H388.8z" fill="#EAEAEA" /><path d="M864 771.2c0 33.6-22.4 60.8-56 60.8H224.8c-33.6 0-64.8-27.2-64.8-60.8V328h704v443.2z" fill="#FFFFFF" /><path d="M860.8 336h-696c-3.2 0-6.4-2.4-7.2-5.6-0.8-3.2 0-7.2 2.4-8.8l304-232.8C477.6 77.6 496 72 516 72s39.2 6.4 54.4 17.6l294.4 232c2.4 1.6 4 4 4 7.2 0 4-4 7.2-8 7.2z m-672.8-16h649.6L560 101.6c-11.2-8.8-28-13.6-44-13.6s-31.2 4.8-42.4 12.8L188 320z" fill="#663210" /><path d="M816 584c0 35.2-28.8 64-64 64H280c-35.2 0-64-28.8-64-64V256c0-35.2 28.8-64 64-64h472c35.2 0 64 28.8 64 64v328z" fill="#FFFFFF" /><path d="M513.6 522.4l-296-220.8v341.6h597.6V297.6z" fill="#EAEAEA" /><path d="M582.4 264.8h149.6" fill="#FFFFFF" /><path d="M736 272H584c-4.8 0-8-3.2-8-8s4-8 8-8h152c4.8 0 8 3.2 8 8s-4 8-8 8z" fill="#0C508E" opacity=".5" /><path d="M296.8 264.8h213.6" fill="#FFFFFF" /><path d="M510.4 272H296c-4.8 0-8-3.2-8-8s3.2-8 8-8h214.4c4.8 0 8 3.2 8 8s-3.2 8-8 8z" fill="#0C508E" opacity=".5" /><path d="M448 312h232.8" fill="#FFFFFF" /><path d="M680 320H448c-4.8 0-8-3.2-8-8s3.2-8 8-8h232c4.8 0 8 3.2 8 8s-3.2 8-8 8z" fill="#0C508E" opacity=".5" /><path d="M296.8 320h96.8" fill="#FFFFFF" /><path d="M399.2 320H296.8c-4.8 0-8.8-3.2-8.8-8s4-8 8.8-8H400c4.8 0 8.8 3.2 8.8 8s-4.8 8-9.6 8z" fill="#0C508E" opacity=".5" /><path d="M647.2 368h84.8" fill="#FFFFFF" /><path d="M736 376H648.8c-4.8 0-8-3.2-8-8s4-8 8-8H736c4.8 0 8 3.2 8 8s-4 8-8 8z" fill="#0C508E" opacity=".5" /><path d="M504.8 368h91.2" fill="#FFFFFF" /><path d="M600 376H504c-4.8 0-8-3.2-8-8s4-8 8-8h96c4.8 0 8 3.2 8 8s-4 8-8 8z" fill="#0C508E" opacity=".5" /><path d="M296.8 368h155.2" fill="#FFFFFF" /><path d="M456 376H296c-4.8 0-8-3.2-8-8s4-8 8-8h160c4.8 0 8 3.2 8 8s-4 8-8 8z" fill="#0C508E" opacity=".5" /><path d="M587.2 416h81.6" fill="#FFFFFF" /><path d="M671.2 424H584.8c-4.8 0-8.8-3.2-8.8-8s4-8 8.8-8H672c4.8 0 8.8 3.2 8.8 8s-4.8 8-9.6 8z" fill="#0C508E" opacity=".5" /><path d="M296.8 416h216.8" fill="#FFFFFF" /><path d="M512 424H296c-4 0-8-3.2-8-8s3.2-8 8-8h216c4 0 8 3.2 8 8s-3.2 8-8 8z" fill="#0C508E" opacity=".5" /><path d="M296.8 472h124.8" fill="#FFFFFF" /><path d="M424 480H296.8c-4.8 0-8-3.2-8-8s4-8 8-8H424c4.8 0 8 3.2 8 8s-4 8-8 8z" fill="#0C508E" opacity=".5" /><path d="M474.4 472H600" fill="#FFFFFF" /><path d="M599.2 480H472c-4.8 0-8-3.2-8-8s4-8 8-8h127.2c4.8 0 8 3.2 8 8s-3.2 8-8 8z" fill="#0C508E" opacity=".5" /><path d="M296.8 519.2h435.2" fill="#FFFFFF" /><path d="M732 527.2H296.8c-4.8 0-8-3.2-8-8s3.2-8 8-8h435.2c4.8 0 8 3.2 8 8s-3.2 8-8 8z" fill="#0C508E" opacity=".5" /><path d="M752 656H280c-40 0-72-32-72-72V256c0-40 32-72 72-72h472c40 0 72 32 72 72v328c0 40-32 72-72 72zM280 200c-31.2 0-56 24.8-56 56v328c0 31.2 24.8 56 56 56h472c31.2 0 56-24.8 56-56V256c0-31.2-24.8-56-56-56H280z" fill="#663210" /><path d="M868 330.4L554.4 563.2s234.4 200 256 219.2c22.4 19.2 28 40 28 40s30.4-9.6 30.4-70.4c0-60-0.8-421.6-0.8-421.6zM160.8 330.4l313.6 232.8s-234.4 200-256 219.2c-22.4 19.2-28 40-28 40S160 812.8 160 752c0.8-60 0.8-421.6 0.8-421.6z" fill="#FFFFFF" /><path d="M862.4 793.6l-5.6-5.6L576 547.2l-22.4 16s234.4 200 256 219.2c22.4 19.2 28 40 28 40s16-4.8 24.8-28.8zM218.4 782.4c22.4-19.2 256-219.2 256-219.2l-19.2-14.4-277.6 239.2c-4 3.2-6.4 6.4-8.8 8.8 8.8 20.8 22.4 25.6 22.4 25.6s4.8-20.8 27.2-40z" fill="#EAEAEA" /><path d="M516.8 600.8c-1.6 0-3.2-0.8-4.8-1.6L160.8 331.2c-3.2-2.4-4-8-1.6-11.2 2.4-3.2 8-4 11.2-1.6l346.4 264.8 338.4-264.8c3.2-2.4 8.8-2.4 11.2 1.6 2.4 3.2 2.4 8.8-1.6 11.2L521.6 599.2c-0.8 1.6-3.2 1.6-4.8 1.6z" fill="#663210" /><path d="M229.6 832c-35.2 0-42.4-18.4-15.2-41.6l254.4-219.2c26.4-23.2 70.4-23.2 96.8 0l254.4 219.2c26.4 23.2 20 41.6-15.2 41.6H229.6z" fill="#FFFFFF" /><path d="M808 736H224.8c-33.6 0-60.8-30.4-60.8-64v98.4c0 33.6 27.2 60.8 60.8 60.8H808c33.6 0 60.8-27.2 60.8-60.8V672c0 33.6-27.2 64-60.8 64z" fill="#EAEAEA" /><path d="M808 840H224.8c-39.2 0-72.8-32-72.8-68.8V328c0-4.8 3.2-8 8-8s8 3.2 8 8v443.2c0 28 26.4 52.8 56.8 52.8H808c28 0 48-22.4 48-52.8V328c0-4.8 3.2-8 8-8s8 3.2 8 8v443.2c0 39.2-27.2 68.8-64 68.8z" fill="#663210" /><path d="M808 840H224c-28 0-36.8-11.2-39.2-17.6-2.4-6.4-3.2-20 17.6-38.4l258.4-220.8c14.4-12.8 33.6-19.2 54.4-19.2 20.8 0 40 7.2 54.4 19.2L828.8 784c21.6 18.4 20.8 32 17.6 38.4-2.4 6.4-10.4 17.6-38.4 17.6zM516 560c-16.8 0-32 5.6-44 15.2L213.6 796c-11.2 9.6-14.4 17.6-13.6 20.8 1.6 3.2 9.6 7.2 24 7.2h584c14.4 0 22.4-3.2 24-7.2 1.6-3.2-2.4-11.2-13.6-20.8L560 575.2c-12-9.6-27.2-15.2-44-15.2z" fill="#663210" /><path d="M824.8 532v148.8" fill="#FFFFFF" /><path d="M824 688c-4.8 0-8-3.2-8-8V536c0-4 3.2-8 8-8s8 3.2 8 8v144c0 4.8-3.2 8-8 8z" fill="#0C508E" opacity=".5" /><path d="M824.8 433.6v60" fill="#FFFFFF" /><path d="M824 504c-4.8 0-8-4-8-8.8V432c0-4.8 3.2-8.8 8-8.8s8 4 8 8.8v63.2c0 4.8-3.2 8.8-8 8.8z" fill="#0C508E" opacity=".5" /><path d="M475.2 918.4c0-3.2-3.2-6.4-8-7.2l-15.2-2.4c-4-0.8-8.8-4.8-8.8-8.8l-2.4-15.2c-0.8-4-4-8-7.2-8s-6.4 3.2-7.2 8l-2.4 15.2c-0.8 4-4.8 8.8-8.8 8.8l-15.2 2.4c-4 0.8-8 4-8 7.2s3.2 6.4 8 7.2l16 2.4c4 0.8 8.8 4.8 8.8 8.8l2.4 15.2c0.8 4 4 8 7.2 8s6.4-3.2 7.2-8l2.4-16.8c0.8-4 4.8-8 8.8-8.8l14.4-0.8c4.8-0.8 8-4 8-7.2zM987.2 560.8c0-3.2-3.2-6.4-8-7.2l-15.2-2.4c-4-0.8-8.8-4.8-8.8-8.8l-2.4-15.2c-0.8-4-4-8-7.2-8s-6.4 3.2-7.2 8l-2.4 15.2c-0.8 4-4.8 8.8-8.8 8.8l-15.2 2.4c-4 0.8-8 4-8 7.2s3.2 6.4 8 7.2l15.2 2.4c4 0.8 8.8 4.8 8.8 8.8l2.4 15.2c0.8 4 4 8 7.2 8s6.4-3.2 7.2-8l2.4-16.8c0.8-4 4.8-8 8.8-8.8l14.4-0.8c5.6-1.6 8.8-4 8.8-7.2zM78.4 504c-17.6 0-32-14.4-32-32s14.4-32 32-32 32 14.4 32 32-14.4 32-32 32z m0-48.8c-9.6 0-16.8 8-16.8 16.8 0 9.6 8 16.8 16.8 16.8 9.6 0 16.8-8 16.8-16.8 0-9.6-7.2-16.8-16.8-16.8z" fill="#FFFFFF" opacity=".5" /></svg>