<?xml version="1.0" standalone="no"?><!DOCTYPE svg PUBLIC "-//W3C//DTD SVG 1.1//EN" "http://www.w3.org/Graphics/SVG/1.1/DTD/svg11.dtd"><svg class="icon" width="200px" height="200.00px" viewBox="0 0 1024 1024" version="1.1" xmlns="http://www.w3.org/2000/svg"><path d="M512 512m-512 0a512 512 0 1 0 1024 0 512 512 0 1 0-1024 0Z" fill="#3DB39E" /><path d="M200 312c-17.6 0-32-14.4-32-32s14.4-32 32-32 32 14.4 32 32-14.4 32-32 32z m0-48.8c-9.6 0-16.8 8-16.8 16.8 0 9.6 8 16.8 16.8 16.8 9.6 0 16.8-8 16.8-16.8 0-9.6-7.2-16.8-16.8-16.8zM416 888c-17.6 0-32-14.4-32-32s14.4-32 32-32 32 14.4 32 32-14.4 32-32 32z m0-48.8c-9.6 0-16.8 8-16.8 16.8 0 9.6 8 16.8 16.8 16.8 9.6 0 16.8-8 16.8-16.8 0-9.6-7.2-16.8-16.8-16.8zM796 234.4c0-3.2-3.2-6.4-8-7.2l-15.2-2.4c-4-0.8-8.8-4.8-8.8-8.8l-2.4-15.2c-0.8-4-4-8-7.2-8s-6.4 3.2-7.2 8l-1.6 15.2c-0.8 4-4.8 8.8-8.8 8.8l-15.2 2.4c-4 0.8-8 4-8 7.2s3.2 6.4 8 7.2l15.2 2.4c4 0.8 8.8 4.8 8.8 8.8l2.4 15.2c0.8 4 4 8 7.2 8s6.4-3.2 7.2-8l2.4-16.8c0.8-4 4.8-8 8.8-8.8l14.4-0.8c4.8-1.6 8-4 8-7.2zM452 138.4c0-3.2-3.2-6.4-8-7.2l-15.2-2.4c-4-0.8-8.8-4.8-8.8-8.8l-2.4-15.2c-0.8-4-4-8-7.2-8s-6.4 3.2-7.2 8l-2.4 15.2c-0.8 4-4.8 8.8-8.8 8.8l-15.2 2.4c-4 0.8-8 4-8 7.2s3.2 6.4 8 7.2l15.2 2.4c4 0.8 8.8 4.8 8.8 8.8l2.4 15.2c0.8 4 4 8 7.2 8s6.4-3.2 7.2-8l2.4-16.8c0.8-4 4.8-8 8.8-8.8l14.4-0.8c5.6-0.8 8.8-4 8.8-7.2zM691.2 873.6c0-3.2-3.2-6.4-8-7.2l-15.2-2.4c-4-0.8-8.8-4.8-8.8-8.8l-2.4-15.2c-0.8-4-4-8-7.2-8s-6.4 3.2-7.2 8l-2.4 15.2c-0.8 4-4.8 8.8-8.8 8.8l-15.2 2.4c-4 0.8-8 4-8 7.2s3.2 6.4 8 7.2l15.2 2.4c4 0.8 8.8 4.8 8.8 8.8l2.4 15.2c0.8 4 4 8 7.2 8s6.4-3.2 7.2-8l2.4-16.8c0.8-4 4.8-8 8.8-8.8l14.4-0.8c5.6-0.8 8.8-4 8.8-7.2z" fill="#FFFFFF" opacity=".5" /><path d="M211.2 428v313.6h184.8c66.4 0 92.8 52 162.4 52h183.2c32.8 0 59.2-23.2 59.2-52s-26.4-52-59.2-52h20.8c32.8 0 68-23.2 68-52s-22.4-52-54.4-52h20.8c32.8 0 59.2-23.2 59.2-52s-26.4-52-59.2-52h20.8c32.8 0 54.4-23.2 54.4-52s-26.4-52-59.2-52h-192-20c6.4-18.4 21.6-62.4 27.2-114.4 7.2-66.4-11.2-120-48-125.6-52-7.2-44.8 68.8-70.4 142.4C488 342.4 416 406.4 390.4 428H211.2z" fill="#F9D4CA" /><path d="M808.8 635.2c0 28.8-36 52-68 52H558.4c-42.4 0-105.6-46.4-122.4-118.4-23.2-102.4 29.6-183.2 52-244-30.4 45.6-77.6 87.2-97.6 104H261.6l40.8 170.4 26.4 36.8H211.2v106.4h184.8c66.4 0 92.8 52 162.4 52h183.2c32.8 0 59.2-23.2 59.2-52s-26.4-52-59.2-52h20.8c32.8 0 68-23.2 68-52 0-27.2-19.2-48.8-49.6-51.2 10.4 7.2 28 25.6 28 48z" fill="#EFBFB4" /><path d="M780.8 587.2c-0.8-0.8-0.8-0.8 0 0H776c0.8-0.8 3.2-0.8 4.8 0zM872 431.2c0-28.8-26.4-52-59.2-52h-0.8c22.4 7.2 39.2 26.4 39.2 48.8 0 28.8-22.4 52-54.4 52 0 0 1.6 0.8 4.8 3.2h16c32 0 54.4-23.2 54.4-52zM796 483.2h4.8-4.8z" fill="#EFBFB4" /><path d="M834.4 532c0 28.8-26.4 52-59.2 52 0 0 1.6 0.8 4.8 3.2h16c32.8 0 59.2-23.2 59.2-52 0-27.2-24-48.8-54.4-51.2 11.2 7.2 33.6 25.6 33.6 48z" fill="#EFBFB4" /><path d="M740.8 800H558.4c-36.8 0-62.4-13.6-87.2-26.4-23.2-12.8-48-21.6-79.2-21.6H208c-4.8 0-4.8-5.6-4.8-10.4V432c0-4.8 3.2-8 8-8h176c32.8-27.2 96-90.4 114.4-144 8-21.6 12.8-44 16.8-64 9.6-45.6 20.8-88 57.6-88h8c40.8 5.6 64 62.4 56 136-4.8 45.6-20.8 87.2-28 109.6 4 0.8 8 2.4 10.4 2.4h190.4c38.4 0 67.2 24 67.2 55.2 0 27.2-16.8 48.8-41.6 56.8 15.2 11.2 25.6 28.8 25.6 48 0 27.2-20.8 48.8-48 56 13.6 10.4 24 28.8 24 48 0 27.2-28 48-56.8 55.2 15.2 11.2 24.8 28 24.8 46.4 0 32.8-29.6 58.4-67.2 58.4zM216 736h176c35.2 0 63.2 10.4 86.4 23.2 24 12.8 46.4 24.8 79.2 24.8h183.2c28.8 0 51.2-18.4 51.2-42.4s-23.2-44-51.2-44c-4.8 0-8-3.2-8-8s3.2-8 8-8h20.8c27.2 0 62.4-17.6 62.4-41.6 0-25.6-21.6-45.6-48.8-45.6-4.8 0-8-3.2-8-8s3.2-8 8-8h20.8c28 0 52-18.4 52-42.4s-23.2-44.8-52-44.8c-4.8 0-8-3.2-8-8s3.2-8 8-8h20.8c27.2 0 46.4-18.4 46.4-44 0-23.2-21.6-39.2-51.2-39.2H617.6c-4.8-1.6-12.8-4-17.6-4-2.4 0-4.8-1.6-6.4-3.2-1.6-2.4-1.6-4.8-0.8-7.2 7.2-19.2 25.6-63.2 31.2-113.6 7.2-63.2-16-120-48-120-28 0-31.2 25.6-41.6 75.2-4 20-9.6 43.2-17.6 66.4C496 344 428 411.2 395.2 439.2c-1.6 0-3.2 0.8-4.8 0.8H216v296z" fill="#176859" /><path d="M200 720c0 26.4 21.6 48 48 48h46.4c26.4 0 48-21.6 48-48V441.6c0-26.4-21.6-48-48-48H248c-26.4 0-48 21.6-48 48V720z" fill="#FFFFFF" /><path d="M295.2 692H248c-26.4 0-48-21.6-48-48V720c0 26.4 21.6 48 48 48h46.4c26.4 0 48-21.6 48-48v-76c0.8 26.4-20.8 48-47.2 48z" fill="#EAEAEA" /><path d="M296 776h-48c-31.2 0-56-24.8-56-56V440c0-31.2 24.8-56 56-56h48c31.2 0 56 24.8 56 56v280c0 31.2-24.8 56-56 56z m-48-376c-22.4 0-40 17.6-40 40v280c0 22.4 17.6 40 40 40h48c22.4 0 40-17.6 40-40V440c0-22.4-17.6-40-40-40h-48z" fill="#176859" /><path d="M592 312h-1.6c-4-0.8-7.2-5.6-6.4-9.6 16.8-71.2 0.8-116 0-116-1.6-4 0.8-8.8 4.8-10.4 4-1.6 8.8 0.8 10.4 4.8 0.8 1.6 18.4 49.6 0 125.6 0 3.2-3.2 5.6-7.2 5.6z" fill="#FFFFFF" /><path d="M272 480m-24 0a24 24 0 1 0 48 0 24 24 0 1 0-48 0Z" fill="#176859" /></svg>