<?xml version="1.0" standalone="no"?><!DOCTYPE svg PUBLIC "-//W3C//DTD SVG 1.1//EN" "http://www.w3.org/Graphics/SVG/1.1/DTD/svg11.dtd"><svg class="icon" width="200px" height="200.00px" viewBox="0 0 1024 1024" version="1.1" xmlns="http://www.w3.org/2000/svg"><path d="M512 512m-512 0a512 512 0 1 0 1024 0 512 512 0 1 0-1024 0Z" fill="#28A5C6" /><path d="M511.2 509.6m-77.6 0a77.6 77.6 0 1 0 155.2 0 77.6 77.6 0 1 0-155.2 0Z" fill="#FBD000" /><path d="M511.2 547.2c-36 0-65.6-24-74.4-57.6-1.6 6.4-2.4 12.8-2.4 20 0 42.4 34.4 77.6 77.6 77.6 42.4 0 77.6-34.4 77.6-77.6 0-7.2-0.8-13.6-2.4-20-10.4 32.8-40.8 57.6-76 57.6z" fill="#F4B10B" /><path d="M508 592C461.6 592 424 554.4 424 508S461.6 424 508 424 592 461.6 592 508 554.4 592 508 592z m0-152c-37.6 0-68 30.4-68 68s30.4 68 68 68 68-30.4 68-68-30.4-68-68-68zM216 656c-0.8 0-2.4 0-3.2-0.8C127.2 616.8 80 564.8 80 508.8c0-85.6 110.4-160 280.8-189.6 4-0.8 8.8 2.4 9.6 6.4 0.8 4-2.4 8.8-6.4 9.6C203.2 362.4 96 432.8 96 508.8c0 49.6 44 96 123.2 132 4 1.6 5.6 6.4 4 10.4-1.6 3.2-4.8 4.8-7.2 4.8zM512 712c-86.4 0-170.4-11.2-241.6-32.8-4-1.6-6.4-5.6-5.6-9.6 1.6-4 5.6-6.4 10.4-4.8 70.4 20.8 152 32 236.8 32 21.6 0 42.4-0.8 64-2.4 4.8 0 8 3.2 8.8 7.2 0 4-3.2 8-7.2 8-22.4 1.6-44 2.4-65.6 2.4zM656 704c-4 0-7.2-3.2-8-6.4-0.8-4.8 2.4-8.8 6.4-9.6l4.8-0.8c160.8-28 268.8-100 268.8-177.6 0-50.4-43.2-97.6-121.6-133.6-4-1.6-5.6-6.4-4-11.2 1.6-4 6.4-5.6 10.4-4C897.6 400 944 452.8 944 509.6c0 87.2-110.4 163.2-281.6 193.6l-4.8 0.8H656zM744 352h-2.4c-68.8-20.8-148-32-231.2-32-22.4 0-44.8 0.8-66.4 2.4-4.8 0-8-3.2-8.8-7.2 0-4 3.2-8 7.2-8.8 22.4-1.6 44.8-2.4 67.2-2.4 84 0 165.6 11.2 236 32.8 4 1.6 6.4 5.6 5.6 9.6 0 3.2-3.2 5.6-7.2 5.6z" fill="#074370" /><path d="M544 792c-2.4 0-4-0.8-5.6-2.4-3.2-3.2-2.4-8 0-11.2 48-45.6 92.8-104.8 131.2-169.6 12.8-22.4 24.8-45.6 36-68 1.6-4 6.4-5.6 10.4-4 4 1.6 5.6 6.4 3.2 10.4-11.2 23.2-23.2 46.4-36.8 69.6-39.2 66.4-84.8 126.4-133.6 173.6-1.6 0.8-3.2 1.6-4.8 1.6zM304 486.4c-0.8 0-2.4 0-3.2-0.8-4-1.6-5.6-6.4-4-10.4 11.2-23.2 24-46.4 37.6-68.8 122.4-202.4 300-320.8 396-263.2 72.8 43.2 81.6 173.6 21.6 331.2-1.6 4-6.4 6.4-10.4 4.8-4-1.6-6.4-6.4-4.8-10.4C762.4 401.6 776 339.2 776 288c0-64-17.6-110.4-53.6-132-88.8-52.8-256.8 63.2-374.4 257.6-13.6 22.4-25.6 44.8-36.8 68-1.6 3.2-4 4.8-7.2 4.8zM348.8 892.8c-20.8 0-40-4.8-56-15.2-71.2-43.2-80-171.2-23.2-327.2 1.6-4 6.4-6.4 10.4-4.8 4 1.6 6.4 6.4 4.8 10.4-53.6 146.4-46.4 269.6 16.8 308 41.6 25.6 105.6 11.2 176-38.4 3.2-2.4 8.8-1.6 11.2 1.6 2.4 4 1.6 8.8-1.6 11.2-52 36-98.4 54.4-138.4 54.4z" fill="#074370" /><path d="M768 624c-3.2 0-7.2-2.4-8-5.6-17.6-66.4-48-137.6-89.6-205.6-12.8-20.8-25.6-40.8-39.2-59.2-2.4-3.2-1.6-8.8 1.6-11.2 3.2-2.4 8.8-1.6 11.2 1.6 14.4 19.2 27.2 40 40 60.8 41.6 68.8 73.6 141.6 91.2 209.6 0.8 4-1.6 8.8-5.6 9.6H768zM674.4 896c-72.8 0-168.8-59.2-256.8-164-3.2-3.2-2.4-8.8 0.8-11.2 3.2-3.2 8.8-2.4 11.2 0.8 107.2 128 224.8 186.4 292 146.4 41.6-25.6 60-85.6 51.2-170.4-0.8-4.8 2.4-8.8 7.2-8.8 4-0.8 8 2.4 8.8 7.2 9.6 91.2-12 157.6-59.2 186.4-15.2 8.8-34.4 13.6-55.2 13.6zM376 671.2c-2.4 0-4.8-1.6-6.4-3.2-12-17.6-24-36-35.2-55.2-44.8-75.2-76.8-153.6-94.4-227.2-0.8-4 1.6-8.8 5.6-9.6 4-0.8 8.8 1.6 9.6 6.4 16.8 72 48.8 148.8 92 222.4 11.2 18.4 22.4 36.8 34.4 54.4 2.4 4 1.6 8.8-1.6 11.2-0.8 0.8-2.4 0.8-4 0.8zM241.6 328c-4 0-7.2-3.2-8-7.2-8.8-87.2 12.8-150.4 58.4-178.4 73.6-44 193.6 12 305.6 142.4 3.2 3.2 2.4 8-0.8 11.2-3.2 3.2-8 2.4-11.2-0.8-104.8-122.4-219.2-177.6-284.8-139.2-40.8 24-59.2 82.4-51.2 163.2 0.8 4.8-2.4 8-8 8.8 0.8 0 0 0 0 0z" fill="#074370" /><path d="M636 140.8m-44.8 0a44.8 44.8 0 1 0 89.6 0 44.8 44.8 0 1 0-89.6 0Z" fill="#FF4848" /><path d="M636 156.8c-20 0-36-12.8-42.4-30.4a44.72 44.72 0 0 0 42.4 59.2c24.8 0 44.8-20 44.8-44.8 0-4.8-0.8-10.4-2.4-14.4-6.4 17.6-23.2 30.4-42.4 30.4z" fill="#E02020" /><path d="M636 192c-28.8 0-52-23.2-52-52s23.2-52 52-52 52 23.2 52 52-23.2 52-52 52z m0-88C616 104 600 120 600 140s16 36 36 36 36-16 36-36-16-36-36-36z" fill="#074370" /><path d="M768.8 812.8m-44.8 0a44.8 44.8 0 1 0 89.6 0 44.8 44.8 0 1 0-89.6 0Z" fill="#FF4848" /><path d="M768.8 828.8c-20 0-36-12.8-42.4-30.4a44.72 44.72 0 0 0 42.4 59.2c24.8 0 44.8-20 44.8-44.8 0-4.8-0.8-10.4-2.4-14.4-6.4 17.6-22.4 30.4-42.4 30.4z" fill="#E02020" /><path d="M772 864c-28.8 0-52-23.2-52-52s23.2-52 52-52 52 23.2 52 52-23.2 52-52 52z m0-88c-20 0-36 16-36 36s16 36 36 36 36-16 36-36-16-36-36-36z" fill="#074370" /><path d="M148.8 608.8m-44.8 0a44.8 44.8 0 1 0 89.6 0 44.8 44.8 0 1 0-89.6 0Z" fill="#FF4848" /><path d="M148.8 624.8c-20 0-36-12.8-42.4-30.4a44.72 44.72 0 0 0 42.4 59.2c24.8 0 44.8-20 44.8-44.8 0-4.8-0.8-10.4-2.4-14.4-6.4 17.6-22.4 30.4-42.4 30.4z" fill="#E02020" /><path d="M148 664c-28.8 0-52-23.2-52-52s23.2-52 52-52 52 23.2 52 52-23.2 52-52 52z m0-88C128 576 112 592 112 612s16 36 36 36 36-16 36-36-16-36-36-36z" fill="#074370" /><path d="M650.4 134.4c-2.4 0-4.8-1.6-6.4-4-1.6-3.2-4-3.2-4.8-4-4-0.8-10.4 2.4-12 3.2-4 2.4-8.8 1.6-11.2-1.6-2.4-3.2-1.6-8.8 1.6-11.2 1.6-0.8 12-8 24-6.4 6.4 0.8 12 4.8 15.2 11.2 2.4 4 1.6 8.8-2.4 11.2-1.6 1.6-3.2 1.6-4 1.6zM782.4 806.4c-2.4 0-4.8-1.6-6.4-4-1.6-3.2-4-3.2-4.8-4-4-0.8-10.4 2.4-12 3.2-4 2.4-8.8 1.6-11.2-1.6-2.4-3.2-1.6-8.8 1.6-11.2 1.6-0.8 12-8 24-6.4 6.4 0.8 12 4.8 15.2 11.2 2.4 4 1.6 8.8-2.4 11.2-0.8 1.6-2.4 1.6-4 1.6zM163.2 606.4c-2.4 0-4.8-1.6-6.4-4-1.6-3.2-4-3.2-4.8-4-4-0.8-10.4 2.4-12 3.2-4 2.4-8.8 1.6-11.2-1.6-2.4-3.2-1.6-8.8 1.6-11.2 1.6-0.8 12-8 24-6.4 6.4 0.8 12 4.8 15.2 11.2 2.4 4 1.6 8.8-2.4 11.2-1.6 0.8-3.2 1.6-4 1.6zM880 352c-17.6 0-32-14.4-32-32s14.4-32 32-32 32 14.4 32 32-14.4 32-32 32z m0-48.8c-9.6 0-16.8 8-16.8 16.8 0 9.6 8 16.8 16.8 16.8 9.6 0 16.8-8 16.8-16.8 0-9.6-7.2-16.8-16.8-16.8zM368 264c-17.6 0-32-14.4-32-32s14.4-32 32-32 32 14.4 32 32-14.4 32-32 32z m0-48.8c-9.6 0-16.8 8-16.8 16.8 0 9.6 8 16.8 16.8 16.8 9.6 0 16.8-8 16.8-16.8 0-9.6-7.2-16.8-16.8-16.8zM548 925.6c0-3.2-3.2-6.4-8-7.2l-15.2-2.4c-4-0.8-8.8-4.8-8.8-8.8l-2.4-15.2c-0.8-4-4-8-7.2-8s-6.4 3.2-7.2 8l-2.4 15.2c-0.8 4-4.8 8.8-8.8 8.8l-15.2 2.4c-4 0.8-8 4-8 7.2s3.2 6.4 8 7.2l15.2 2.4c4 0.8 8.8 4.8 8.8 8.8l2.4 15.2c0.8 4 4 8 7.2 8s6.4-3.2 6.4-8l2.4-16.8c0.8-4 4.8-8 8.8-8.8l14.4-0.8c5.6-0.8 9.6-4 9.6-7.2zM189.6 315.2c0-3.2-3.2-6.4-8-7.2l-15.2-2.4c-4-0.8-8.8-4.8-8.8-8.8l-2.4-15.2c-0.8-4-4-8-7.2-8s-6.4 3.2-7.2 8l-2.4 15.2c-0.8 4-4.8 8.8-8.8 8.8l-15.2 2.4c-4 0.8-8 4-8 7.2s3.2 6.4 8 7.2l15.2 2.4c4 0.8 8.8 4.8 8.8 8.8l2.4 15.2c0.8 4 4 8 7.2 8s6.4-3.2 6.4-8l2.4-16.8c0.8-4 4.8-8 8.8-8.8l14.4-0.8c6.4-1.6 9.6-4.8 9.6-7.2zM952.8 692c0-3.2-3.2-6.4-8-7.2l-15.2-2.4c-4-0.8-8.8-4.8-8.8-8.8l-2.4-15.2c-0.8-4-4-8-7.2-8s-6.4 3.2-7.2 8l-2.4 15.2c-0.8 4-4.8 8.8-8.8 8.8l-15.2 2.4c-4 0.8-8 4-8 7.2s3.2 6.4 8 7.2l15.2 2.4c4 0.8 8.8 4.8 8.8 8.8l2.4 15.2c0.8 4 4 8 7.2 8s6.4-3.2 6.4-8l2.4-16.8c0.8-4 4.8-8 8.8-8.8l14.4-0.8c6.4-0.8 9.6-4 9.6-7.2z" fill="#FFFFFF" opacity=".5" /><path d="M609.6 484.8c0-3.2-3.2-6.4-8-7.2l-38.4-6.4c-4-0.8-8.8-4.8-9.6-9.6l-6.4-38.4c-0.8-4-4-8-7.2-8s-6.4 3.2-7.2 8l-6.4 38.4c-0.8 4-4.8 8.8-9.6 9.6l-38.4 6.4c-4 0.8-8 4-8 7.2s3.2 6.4 8 7.2l37.6 4.8c4 0.8 8.8 4.8 9.6 8.8l7.2 40c0.8 4 4 8 7.2 8s6.4-3.2 7.2-8l7.2-40.8c0.8-4 4.8-8 9.6-8.8l37.6-4.8c4 0 8-3.2 8-6.4z" fill="#FFFFFF" /></svg>