<?xml version="1.0" standalone="no"?><!DOCTYPE svg PUBLIC "-//W3C//DTD SVG 1.1//EN" "http://www.w3.org/Graphics/SVG/1.1/DTD/svg11.dtd"><svg class="icon" width="200px" height="200.00px" viewBox="0 0 1024 1024" version="1.1" xmlns="http://www.w3.org/2000/svg"><path d="M512 512m-512 0a512 512 0 1 0 1024 0 512 512 0 1 0-1024 0Z" fill="#3AD0F9" /><path d="M976 400c0-8.8-11.2-16-24-16h-111.2c-13.6 0-24.8 7.2-24.8 16s-8.8 16-20 16-20 7.2-20 16 11.2 16 24 16h83.2c13.6 0 20.8-7.2 20.8-16s14.4-16 28-16h20c12.8 0 24-7.2 24-16zM352 248c0-8.8-11.2-16-24-16H216.8c-13.6 0-24.8 7.2-24.8 16s-8.8 16-20 16-20 7.2-20 16 11.2 16 24 16h83.2c13.6 0 20.8-7.2 20.8-16s14.4-16 28-16H328c12.8 0 24-7.2 24-16zM360 176c-17.6 0-32-14.4-32-32s14.4-32 32-32 32 14.4 32 32-14.4 32-32 32z m0-48.8c-9.6 0-16.8 8-16.8 16.8 0 9.6 8 16.8 16.8 16.8 9.6 0 16.8-8 16.8-16.8 0-9.6-7.2-16.8-16.8-16.8zM552 432c-17.6 0-32-14.4-32-32s14.4-32 32-32 32 14.4 32 32-14.4 32-32 32z m0-48.8c-9.6 0-16.8 8-16.8 16.8 0 9.6 8 16.8 16.8 16.8 9.6 0 16.8-8 16.8-16.8 0-9.6-7.2-16.8-16.8-16.8zM592.8 208c0-3.2-3.2-6.4-8-7.2l-15.2-2.4c-4-0.8-8.8-4.8-8.8-8.8l-2.4-15.2c-0.8-4-4-8-7.2-8s-6.4 3.2-7.2 8l-2.4 15.2c-0.8 4-4.8 8.8-8.8 8.8l-15.2 2.4c-4 0.8-8 4-8 7.2s3.2 6.4 8 7.2l15.2 2.4c4 0.8 8.8 4.8 8.8 8.8l2.4 15.2c0.8 4 4 8 7.2 8s6.4-3.2 7.2-8l2.4-16.8c0.8-4 4.8-8 8.8-8.8l14.4-0.8c4.8-1.6 8.8-4 8.8-7.2zM176 399.2c0-3.2-3.2-6.4-8-7.2l-15.2-2.4c-4-0.8-8.8-4.8-8.8-8.8l-2.4-15.2c-0.8-4-4-8-7.2-8s-6.4 3.2-7.2 8l-2.4 15.2c-0.8 4-4.8 8.8-8.8 8.8l-14.4 2.4c-4 0.8-8 4-8 7.2s3.2 6.4 8 7.2l15.2 2.4c4 0.8 8.8 4.8 8.8 8.8L128 432c0.8 4 4 8 7.2 8s6.4-3.2 7.2-8l2.4-16.8c0.8-4 4.8-8 8.8-8.8l14.4-0.8c4.8-0.8 8-3.2 8-6.4z" fill="#FFFFFF" /><path d="M868.8 880c38.4-37.6 71.2-80.8 96.8-129.6l-216-261.6c-17.6-21.6-46.4-21.6-64 0L363.2 880h505.6z" fill="#C68D55" /><path d="M363.2 880h484L604.8 586.4z" fill="#A85F1D" /><path d="M969.6 743.2L756 484c-10.4-12-24-19.2-38.4-19.2-14.4 0-28 6.4-38.4 19.2l-322.4 391.2c-3.2 3.2-2.4 8.8 0.8 11.2 3.2 3.2 8.8 2.4 11.2-0.8l322.4-391.2c7.2-8.8 16-13.6 26.4-13.6 9.6 0 19.2 4.8 26.4 13.6l217.6 264.8c2.4-5.6 5.6-11.2 8-16z" fill="#6B3C1C" /><path d="M396 427.2c-20.8-24.8-54.4-24.8-74.4 0l-264 320.8c25.6 48.8 58.4 93.6 97.6 132h613.6L396 427.2z" fill="#C68D55" /><path d="M176 752a72 60 90 1 0 120 0 72 60 90 1 0-120 0Z" fill="#84DB14" /><path d="M236 832c-37.6 0-68-36-68-80s30.4-80 68-80S304 708 304 752s-30.4 80-68 80z m0-144c-28.8 0-52 28.8-52 64s23.2 64 52 64 52-28.8 52-64-23.2-64-52-64z" fill="#6B3C1C" /><path d="M344 752a72 60 90 1 0 120 0 72 60 90 1 0-120 0Z" fill="#84DB14" /><path d="M401.6 422.4c-11.2-13.6-27.2-21.6-43.2-21.6-16.8 0-32 8-43.2 21.6L52.8 740c2.4 5.6 4.8 10.4 8 15.2L327.2 432c8-10.4 19.2-16 31.2-16s22.4 5.6 31.2 16l372.8 452.8c3.2 3.2 8 4 11.2 0.8 3.2-3.2 4-8 0.8-11.2L401.6 422.4z" fill="#6B3C1C" /><path d="M404 832c-37.6 0-68-36-68-80s30.4-80 68-80S472 708 472 752s-30.4 80-68 80z m0-144c-28.8 0-52 28.8-52 64s23.2 64 52 64 52-28.8 52-64-23.2-64-52-64z" fill="#6B3C1C" /><path d="M616 716a92 60 90 1 0 120 0 92 60 90 1 0-120 0Z" fill="#84DB14" /><path d="M152 880c92.8 94.4 216.8 144 360 144s267.2-49.6 360-144H152z" fill="#84DB14" /><path d="M676 816c-37.6 0-68-44.8-68-100S638.4 616 676 616 744 660.8 744 716 713.6 816 676 816z m0-184C648 632 624 670.4 624 716s24 84 52 84S728 761.6 728 716 704 632 676 632zM971.2 888H42.4c-4.8 0-8-3.2-8-8s3.2-8 8-8h928.8c4.8 0 8 3.2 8 8s-3.2 8-8 8z" fill="#6B3C1C" /><path d="M232 888c-4.8 0-8-3.2-8-8V768c0-4.8 3.2-8 8-8s8 3.2 8 8v112c0 4.8-3.2 8-8 8zM400 888c-4.8 0-8-3.2-8-8V768c0-4.8 3.2-8 8-8s8 3.2 8 8v112c0 4.8-3.2 8-8 8zM672 888c-4.8 0-8-3.2-8-8V696c0-4.8 3.2-8 8-8s8 3.2 8 8v184c0 4.8-3.2 8-8 8z" fill="#6B3C1C" /><path d="M680 760c-2.4 0-4-0.8-5.6-2.4-3.2-3.2-3.2-8 0-11.2l24-24c3.2-3.2 8-3.2 11.2 0 3.2 3.2 3.2 8 0 11.2l-24 24c-1.6 1.6-3.2 2.4-5.6 2.4z" fill="#6B3C1C" /><path d="M800 176.8m-88 0a88 88 0 1 0 176 0 88 88 0 1 0-176 0Z" fill="#FBD000" /><path d="M800 272c-52.8 0-96-43.2-96-96s43.2-96 96-96 96 43.2 96 96-43.2 96-96 96z m0-176c-44 0-80 36-80 80s36 80 80 80 80-36 80-80-36-80-80-80zM800 56c-4.8 0-8-3.2-8-8V8c0-4.8 3.2-8 8-8s8 3.2 8 8v40c0 4.8-3.2 8-8 8zM800 360c-4.8 0-8-3.2-8-8v-40c0-4.8 3.2-8 8-8s8 3.2 8 8v40c0 4.8-3.2 8-8 8zM968 184h-40c-4.8 0-8-3.2-8-8s3.2-8 8-8h40c4.8 0 8 3.2 8 8s-3.2 8-8 8zM672 184h-40c-4.8 0-8-3.2-8-8s3.2-8 8-8h40c4.8 0 8 3.2 8 8s-3.2 8-8 8zM920 303.2c-1.6 0-4-0.8-4.8-2.4l-24.8-24.8c-2.4-2.4-2.4-7.2 0-9.6 2.4-2.4 7.2-2.4 9.6 0l24.8 24.8c2.4 2.4 2.4 7.2 0 9.6-1.6 1.6-3.2 2.4-4.8 2.4zM704.8 88c-1.6 0-4-0.8-4.8-2.4l-24.8-24.8c-2.4-2.4-2.4-7.2 0-9.6 2.4-2.4 7.2-2.4 9.6 0l24.8 24.8c2.4 2.4 2.4 7.2 0 9.6-0.8 1.6-3.2 2.4-4.8 2.4zM680 303.2c-1.6 0-4-0.8-4.8-2.4-2.4-2.4-2.4-7.2 0-9.6l24.8-24.8c2.4-2.4 7.2-2.4 9.6 0 2.4 2.4 2.4 7.2 0 9.6l-24.8 24.8c-0.8 1.6-3.2 2.4-4.8 2.4zM894.4 88.8c-1.6 0-4-0.8-5.6-2.4-3.2-3.2-3.2-7.2 0-10.4l26.4-26.4c3.2-3.2 7.2-3.2 10.4 0s3.2 7.2 0 10.4l-26.4 26.4c-0.8 1.6-3.2 2.4-4.8 2.4z" fill="#6B3C1C" /><path d="M840 224.8c-2.4 0-4-0.8-5.6-2.4-3.2-3.2-3.2-8 0-11.2 18.4-19.2 18.4-49.6 0-68.8-18.4-19.2-48.8-19.2-68 0-3.2 3.2-8 3.2-11.2 0-3.2-3.2-3.2-8 0-11.2 24.8-25.6 65.6-25.6 90.4 0 24.8 25.6 24.8 66.4 0 91.2-1.6 1.6-4 2.4-5.6 2.4zM264 760c-4.8 0-8-3.2-8-8 0-25.6-18.4-32-18.4-32.8-4-1.6-6.4-5.6-4.8-10.4 1.6-4 5.6-6.4 10.4-4.8 1.6 0 29.6 10.4 29.6 47.2-0.8 5.6-4 8.8-8.8 8.8zM432.8 760s-0.8 0 0 0c-4.8-0.8-7.2-4-7.2-8 3.2-25.6-13.6-34.4-13.6-35.2-3.2-1.6-4.8-5.6-3.2-9.6 1.6-3.2 6.4-4.8 9.6-3.2 0.8 0.8 25.6 12.8 21.6 48.8 0 4.8-3.2 7.2-7.2 7.2zM704 697.6c-4.8 0-8-3.2-8-8 0-17.6-20.8-33.6-20.8-33.6-3.2-2.4-4-8-1.6-11.2 2.4-3.2 8-4 11.2-1.6 0.8 0.8 27.2 20.8 27.2 46.4 0 4.8-3.2 8-8 8z" fill="#FFFFFF" /><path d="M568.8 712c-2.4 0-4-0.8-5.6-2.4L457.6 580.8c-2.4-3.2-2.4-8 0.8-11.2 3.2-2.4 8-2.4 10.4 0.8l104.8 128.8c2.4 3.2 2.4 8-0.8 11.2-0.8 0.8-2.4 1.6-4 1.6zM419.2 536c-2.4 0-4.8-0.8-6.4-3.2l-50.4-56c-3.2-3.2-2.4-8 0.8-11.2 3.2-3.2 8.8-2.4 12 0.8l50.4 56c3.2 3.2 2.4 8-0.8 11.2-2.4 1.6-4 2.4-5.6 2.4zM856 696c-2.4 0-4.8-0.8-6.4-3.2l-119.2-144c-3.2-3.2-2.4-8.8 1.6-11.2 3.2-2.4 8.8-2.4 11.2 1.6l119.2 144c3.2 3.2 2.4 8.8-1.6 11.2-1.6 0.8-3.2 1.6-4.8 1.6z" fill="#FFFFFF" opacity=".5" /></svg>