<?xml version="1.0" standalone="no"?><!DOCTYPE svg PUBLIC "-//W3C//DTD SVG 1.1//EN" "http://www.w3.org/Graphics/SVG/1.1/DTD/svg11.dtd"><svg class="icon" width="200px" height="200.00px" viewBox="0 0 1024 1024" version="1.1" xmlns="http://www.w3.org/2000/svg"><path d="M511.600312 511.600312m-511.600312 0a511.600312 511.600312 0 1 0 1023.200625 0 511.600312 511.600312 0 1 0-1023.200625 0Z" fill="#D3D1D1" /><path d="M206.238876 131.896956v-30.376269c-11.990632 8.79313-23.181889 18.385636-33.573771 27.978142v765.002342c89.530055 79.138173 207.038251 127.900078 335.737705 129.498829h4.796253c134.295082 0 255.800156-51.959407 346.928962-136.693208V136.693208c-11.990632-11.191257-24.78064-21.583138-38.370023-31.975019v27.178767h-55.956285v-55.956285h14.388759C701.851678 27.978142 609.923497 0 511.600312 0 418.07338 0 330.142077 25.580016 255.000781 68.746292l7.194379 7.194379v55.956285h-55.956284z m55.956284 780.190476h-55.956284v-55.956284h55.956284v55.956284z m0-111.912569h-55.956284v-55.956284h55.956284v55.956284z m0-111.113192h-55.956284v-55.956285h55.956284v55.956285z m0-111.912569h-55.956284v-55.956284h55.956284v55.956284z m0-111.113193h-55.956284v-55.956284h55.956284v55.956284z m0-111.113192h-55.956284v-55.956285h55.956284v55.956285z m0-111.912569h-55.956284v-55.956284h55.956284v55.956284z m503.606557-55.956284h55.956285v55.956284h-55.956285v-55.956284z m0 111.912568h55.956285v55.956285h-55.956285v-55.956285z m0 111.113193h55.956285v55.956284h-55.956285v-55.956284z m0 111.113193h55.956285v55.956284h-55.956285v-55.956284z m0 111.912568h55.956285v55.956285h-55.956285v-55.956285z m0 111.113193h55.956285v55.956284h-55.956285v-55.956284z m0 111.912569h55.956285v55.956284h-55.956285v-55.956284z" fill="#415E6D" /><path d="M703.450429 768.999219H331.740827c-17.586261 0-31.97502 14.388759-31.975019 31.97502v176.661983c64.749415 29.576893 135.893833 45.564403 211.834504 45.564403 79.937549 0 155.87822-18.385636 223.825137-51.160032v-171.066354c0-17.586261-14.388759-31.97502-31.97502-31.97502z" fill="#FBD000" /><path d="M727.431694 319.750195c0 17.586261-14.388759 31.97502-31.97502 31.97502H335.737705c-17.586261 0-31.97502-14.388759-31.97502-31.97502V95.925059c0-17.586261 14.388759-31.97502 31.97502-31.97502h359.718969c17.586261 0 31.97502 14.388759 31.97502 31.97502v223.825136z" fill="#75B600" /><path d="M727.431694 671.47541c0 17.586261-14.388759 31.97502-31.97502 31.975019H335.737705c-17.586261 0-31.97502-14.388759-31.97502-31.975019V447.650273c0-17.586261 14.388759-31.97502 31.97502-31.975019h359.718969c17.586261 0 31.97502 14.388759 31.97502 31.975019v223.825137z" fill="#FF4848" /><path d="M695.456674 359.71897H335.737705c-22.382514 0-39.968774-17.586261-39.968774-39.968775V95.925059c0-22.382514 17.586261-39.968774 39.968774-39.968775h359.718969c22.382514 0 39.968774 17.586261 39.968775 39.968775v223.825136c0 22.382514-17.586261 39.968774-39.968775 39.968775zM335.737705 71.943794c-13.589383 0-23.981265 10.391881-23.981265 23.981265v223.825136c0 13.589383 10.391881 23.981265 23.981265 23.981265h359.718969c13.589383 0 23.981265-10.391881 23.981265-23.981265V95.925059c0-13.589383-10.391881-23.981265-23.981265-23.981265H335.737705zM695.456674 711.444184H335.737705c-22.382514 0-39.968774-17.586261-39.968774-39.968774V447.650273c0-22.382514 17.586261-39.968774 39.968774-39.968774h359.718969c22.382514 0 39.968774 17.586261 39.968775 39.968774v223.825137c0 22.382514-17.586261 39.968774-39.968775 39.968774zM335.737705 423.669009c-13.589383 0-23.981265 10.391881-23.981265 23.981264v223.825137c0 13.589383 10.391881 23.981265 23.981265 23.981264h359.718969c13.589383 0 23.981265-10.391881 23.981265-23.981264V447.650273c0-13.589383-10.391881-23.981265-23.981265-23.981264H335.737705zM206.238876 920.081187H263.793911c4.796253 0 7.993755-3.996877 7.993755-8.793131v-55.956284c0-4.796253-3.197502-7.993755-7.993755-7.993755h-55.956284c-4.796253 0-7.993755 3.197502-7.993755 7.993755v55.956284c0 0.799375-1.598751 2.398126-1.598751 3.197502 2.398126 1.598751 3.996877 3.197502 6.395004 4.796253 0 0 0.799375 0.799375 1.598751 0.799376zM215.831382 863.325527h39.968774v39.968774h-39.968774v-39.968774zM199.843872 351.725215c0 4.796253 3.197502 7.993755 7.993755 7.993755h55.956284c4.796253 0 7.993755-3.197502 7.993755-7.993755v-55.956284c0-4.796253-3.197502-7.993755-7.993755-7.993755h-55.956284c-4.796253 0-7.993755 3.197502-7.993755 7.993755v55.956284z m15.98751-47.96253h39.968774v39.968775h-39.968774v-39.968775zM199.843872 463.637783c0 4.796253 3.197502 7.993755 7.993755 7.993755h55.956284c4.796253 0 7.993755-3.197502 7.993755-7.993755v-55.956284c0-4.796253-3.197502-7.993755-7.993755-7.993755h-55.956284c-4.796253 0-7.993755 3.197502-7.993755 7.993755v55.956284z m15.98751-47.962529h39.968774v39.968774h-39.968774v-39.968774zM199.843872 575.550351c0 4.796253 3.197502 7.993755 7.993755 7.993755h55.956284c4.796253 0 7.993755-3.197502 7.993755-7.993755v-55.956284c0-4.796253-3.197502-7.993755-7.993755-7.993755h-55.956284c-4.796253 0-7.993755 3.197502-7.993755 7.993755v55.956284z m15.98751-47.962529h39.968774v39.968774h-39.968774v-39.968774zM199.843872 687.46292c0 4.796253 3.197502 7.993755 7.993755 7.993754h55.956284c4.796253 0 7.993755-3.197502 7.993755-7.993754v-55.956285c0-4.796253-3.197502-7.993755-7.993755-7.993754h-55.956284c-4.796253 0-7.993755 3.197502-7.993755 7.993754v55.956285z m15.98751-47.96253h39.968774v39.968775h-39.968774v-39.968775zM199.843872 799.375488c0 4.796253 3.197502 7.993755 7.993755 7.993755h55.956284c4.796253 0 7.993755-3.197502 7.993755-7.993755v-55.956284c0-4.796253-3.197502-7.993755-7.993755-7.993755h-55.956284c-4.796253 0-7.993755 3.197502-7.993755 7.993755v55.956284z m15.98751-47.962529h39.968774v39.968774h-39.968774v-39.968774zM207.837627 247.806401h55.956284c4.796253 0 7.993755-3.197502 7.993755-7.993755v-55.956284c0-4.796253-3.197502-7.993755-7.993755-7.993755h-55.956284c-4.796253 0-7.993755 3.197502-7.993755 7.993755v55.956284c0 4.796253 3.197502 7.993755 7.993755 7.993755z m7.993755-55.956284h39.968774v39.968774h-39.968774v-39.968774zM759.406714 351.725215c0 4.796253 3.197502 7.993755 7.993754 7.993755h55.956285c4.796253 0 7.993755-3.197502 7.993754-7.993755v-55.956284c0-4.796253-3.197502-7.993755-7.993754-7.993755h-55.956285c-4.796253 0-7.993755 3.197502-7.993754 7.993755v55.956284z m15.987509-47.96253h39.968775v39.968775h-39.968775v-39.968775zM759.406714 463.637783c0 4.796253 3.197502 7.993755 7.993754 7.993755h55.956285c4.796253 0 7.993755-3.197502 7.993754-7.993755v-55.956284c0-4.796253-3.197502-7.993755-7.993754-7.993755h-55.956285c-4.796253 0-7.993755 3.197502-7.993754 7.993755v55.956284z m15.987509-47.962529h39.968775v39.968774h-39.968775v-39.968774zM759.406714 575.550351c0 4.796253 3.197502 7.993755 7.993754 7.993755h55.956285c4.796253 0 7.993755-3.197502 7.993754-7.993755v-55.956284c0-4.796253-3.197502-7.993755-7.993754-7.993755h-55.956285c-4.796253 0-7.993755 3.197502-7.993754 7.993755v55.956284z m15.987509-47.962529h39.968775v39.968774h-39.968775v-39.968774zM759.406714 687.46292c0 4.796253 3.197502 7.993755 7.993754 7.993754h55.956285c4.796253 0 7.993755-3.197502 7.993754-7.993754v-55.956285c0-4.796253-3.197502-7.993755-7.993754-7.993754h-55.956285c-4.796253 0-7.993755 3.197502-7.993754 7.993754v55.956285z m15.987509-47.96253h39.968775v39.968775h-39.968775v-39.968775zM759.406714 799.375488c0 4.796253 3.197502 7.993755 7.993754 7.993755h55.956285c4.796253 0 7.993755-3.197502 7.993754-7.993755v-55.956284c0-4.796253-3.197502-7.993755-7.993754-7.993755h-55.956285c-4.796253 0-7.993755 3.197502-7.993754 7.993755v55.956284z m15.987509-47.962529h39.968775v39.968774h-39.968775v-39.968774zM767.400468 247.806401h55.956285c4.796253 0 7.993755-3.197502 7.993754-7.993755v-55.956284c0-4.796253-3.197502-7.993755-7.993754-7.993755h-55.956285c-4.796253 0-7.993755 3.197502-7.993754 7.993755v55.956284c0 4.796253 3.197502 7.993755 7.993754 7.993755z m7.993755-55.956284h39.968775v39.968774h-39.968775v-39.968774z" fill="#074370" /><path d="M695.456674 664.28103c-4.796253 0-7.993755-3.197502-7.993754-7.993754V462.838407v-1.59875c0-2.398126-0.799375-3.197502-1.598751-3.996878-0.799375-1.598751-2.398126-1.598751-3.996878-1.598751H499.60968c-4.796253 0-7.993755-3.197502-7.993755-7.993755s3.197502-7.993755 7.993755-7.993755h180.65886c6.395004-0.799375 12.790008 1.598751 17.586261 6.395004 3.996877 4.796253 6.395004 10.391881 5.595628 16.786885v193.448869c0 4.796253-3.197502 7.993755-7.993755 7.993754zM439.656518 455.644028H354.123341c-4.796253 0-7.993755-3.197502-7.993755-7.993755s3.197502-7.993755 7.993755-7.993755H439.656518c4.796253 0 7.993755 3.197502 7.993755 7.993755s-3.197502 7.993755-7.993755 7.993755zM695.456674 289.373927c-4.796253 0-7.993755-3.197502-7.993754-7.993755v-167.868853c0-4.796253 3.197502-7.993755 7.993754-7.993755s7.993755 3.197502 7.993755 7.993755v167.868853c0 4.796253-3.197502 7.993755-7.993755 7.993755zM677.870414 807.369243h-63.950039c-4.796253 0-7.993755-3.197502-7.993755-7.993755s3.197502-7.993755 7.993755-7.993755h63.950039c4.796253 0 7.993755 3.197502 7.993755 7.993755s-3.996877 7.993755-7.993755 7.993755zM569.155347 807.369243h-191.850117c-4.796253 0-7.993755-3.197502-7.993755-7.993755s3.197502-7.993755 7.993755-7.993755h191.850117c4.796253 0 7.993755 3.197502 7.993755 7.993755s-3.197502 7.993755-7.993755 7.993755z" fill="#FFFFFF" /><path d="M935.269321 447.650273c-17.586261 0-31.97502-14.388759-31.97502-31.975019s14.388759-31.97502 31.97502-31.97502 31.97502 14.388759 31.975019 31.97502-14.388759 31.97502-31.975019 31.975019z m0-48.761905c-9.592506 0-16.786885 7.993755-16.786885 16.786886 0 9.592506 7.993755 16.786885 16.786885 16.786885 9.592506 0 16.786885-7.993755 16.786885-16.786885 0-9.592506-7.194379-16.786885-16.786885-16.786886zM123.903201 497.211553c0-3.197502-3.197502-6.395004-7.993755-7.194379l-15.188135-2.398126c-3.996877-0.799375-8.79313-4.796253-8.79313-8.793131l-2.398126-15.188134c-0.799375-3.996877-3.996877-7.993755-7.19438-7.993755s-6.395004 3.197502-7.194379 7.993755l-1.598751 15.98751c-0.799375 3.996877-4.796253 8.79313-8.79313 8.79313l-15.188135 2.398127c-3.996877 0.799375-7.993755 3.996877-7.993755 7.194379s3.197502 6.395004 7.993755 7.194379l15.188135 2.398127c3.996877 0.799375 8.79313 4.796253 8.79313 8.79313l2.398126 15.188134c0.799375 3.996877 3.996877 7.993755 7.19438 7.993755s6.395004-3.197502 7.194379-7.993755l2.398127-16.786885c0.799375-3.996877 4.796253-7.993755 8.79313-8.79313l14.388759-0.799376c4.796253-1.598751 7.993755-4.796253 7.993755-7.993755zM971.241218 607.525371c0-3.197502-3.197502-6.395004-7.993755-7.19438l-15.188134-2.398126c-3.996877-0.799375-8.79313-4.796253-8.793131-8.79313l-2.398126-15.188135c-0.799375-3.996877-3.996877-7.993755-7.19438-7.993755s-6.395004 3.197502-7.194379 7.993755l-2.398126 15.188135c-0.799375 3.996877-4.796253 8.79313-8.793131 8.79313l-15.188134 2.398126c-3.996877 0.799375-7.993755 3.996877-7.993755 7.19438s3.197502 6.395004 7.993755 7.194379l15.188134 2.398127c3.996877 0.799375 8.79313 4.796253 8.793131 8.79313l2.398126 15.188134c0.799375 3.996877 3.996877 7.993755 7.194379 7.993755s6.395004-3.197502 7.19438-7.993755l2.398126-16.786885c0.799375-3.996877 4.796253-7.993755 8.793131-8.79313l14.388758-0.799376c5.595628-1.598751 8.79313-3.996877 8.793131-7.194379z" fill="#FFFFFF" opacity=".5" /><path d="M159.875098 883.309914c5.595628 4.796253 10.391881 9.592506 15.987509 14.388759V125.501952c-5.595628 4.796253-10.391881 9.592506-15.987509 14.388758v743.419204zM815.362998 99.921936V119.906323h-39.968775v-39.968774h10.391882c-6.395004-3.996877-12.790008-7.993755-19.984388-11.990633h-0.799375c-3.996877 0-5.595628-0.799375-5.595628 3.996878v55.956284c0 4.796253 3.197502 7.993755 7.993754 7.993755h54.357534c4.796253 0 9.592506-3.197502 9.592505-7.993755v-15.188134c-5.595628-4.796253-10.391881-8.79313-15.987509-12.790008zM855.331772 890.504294c5.595628-4.796253 10.391881-10.391881 15.98751-15.188135v-727.431694c-5.595628-4.796253-10.391881-10.391881-15.98751-15.188134v757.807963zM823.356753 847.338017h-55.956285c-4.796253 0-7.993755 3.197502-7.993754 7.993755v55.956284c0 4.796253 3.197502 7.993755 7.993754 7.993755h53.558158c3.996877-2.398126 7.194379-5.595628 10.391881-8.79313V855.331772c0-4.796253-3.197502-7.993755-7.993754-7.993755z m-7.993755 55.956284h-39.968775v-39.968774h39.968775v39.968774zM703.450429 759.406714H331.740827c-22.382514 0-35.971897 15.98751-35.971896 38.370023V975.238095c5.595628 2.398126 10.391881 4.796253 15.987509 7.19438V797.776737c0-13.589383 6.395004-22.382514 19.984387-22.382514H703.450429c13.589383 0 15.98751 8.79313 15.98751 22.382514v181.458236c5.595628-2.398126 10.391881-4.796253 15.98751-7.19438V797.776737c0-22.382514-9.592506-38.370023-31.97502-38.370023zM255.800156 71.943794v47.962529h-39.968774v-25.580015c-5.595628 3.996877-10.391881 7.993755-15.98751 11.990632v17.586261c0 4.796253 3.197502 11.990632 7.993755 11.990632h54.357533c4.796253 0 9.592506-7.194379 9.592506-11.990632v-55.956285c0-2.398126-1.598751-4.796253-3.996878-6.395003-6.395004 3.197502-11.990632 7.194379-17.58626 10.391881h5.595628z" fill="#074370" /></svg>