<?xml version="1.0" standalone="no"?><!DOCTYPE svg PUBLIC "-//W3C//DTD SVG 1.1//EN" "http://www.w3.org/Graphics/SVG/1.1/DTD/svg11.dtd"><svg class="icon" width="200px" height="200.00px" viewBox="0 0 1024 1024" version="1.1" xmlns="http://www.w3.org/2000/svg"><path d="M512 512m-512 0a512 512 0 1 0 1024 0 512 512 0 1 0-1024 0Z" fill="#FBD000" /><path d="M876.8 696c0 35.2-28.8 64-64 64h-592c-35.2 0-64-28.8-64-64V354.4c0-35.2 28.8-64 64-64h592c35.2 0 64 28.8 64 64V696z" fill="#3AD0F9" /><path d="M253.6 710.4m-17.6 0a17.6 17.6 0 1 0 35.2 0 17.6 17.6 0 1 0-35.2 0Z" fill="#00B3F9" /><path d="M192 348a12 12 0 1 0 24 0 12 12 0 1 0-24 0Z" fill="#00B3F9" /><path d="M828 348m-12 0a12 12 0 1 0 24 0 12 12 0 1 0-24 0Z" fill="#00B3F9" /><path d="M204 724m-12 0a12 12 0 1 0 24 0 12 12 0 1 0-24 0Z" fill="#00B3F9" /><path d="M828 724m-12 0a12 12 0 1 0 24 0 12 12 0 1 0-24 0Z" fill="#00B3F9" /><path d="M812.8 289.6h-592c-35.2 0-64 28.8-64 64v32c0-35.2 28.8-64 64-64h592c35.2 0 64 28.8 64 64v-32c0-35.2-28.8-64-64-64z" fill="#00B3F9" /><path d="M667.2 551.2m-81.6 0a81.6 81.6 0 1 0 163.2 0 81.6 81.6 0 1 0-163.2 0Z" fill="#00B3F9" /><path d="M667.2 527.2m-81.6 0a81.6 81.6 0 1 0 163.2 0 81.6 81.6 0 1 0-163.2 0Z" fill="#415E6D" /><path d="M816 768H224c-40 0-72-32-72-72V352c0-40 32-72 72-72h592c40 0 72 32 72 72v344c0 40-32 72-72 72zM224 296c-15.2 0-28.8 5.6-39.2 16.8-11.2 10.4-16.8 24-16.8 39.2v344c0 31.2 24.8 56 56 56h592c31.2 0 56-24.8 56-56V352c0-31.2-24.8-56-56-56H224z" fill="#074370" /><path d="M356.8 553.6m-124 0a124 124 0 1 0 248 0 124 124 0 1 0-248 0Z" fill="#00B3F9" /><path d="M356.8 527.2m-124 0a124 124 0 1 0 248 0 124 124 0 1 0-248 0Z" fill="#415E6D" /><path d="M312.8 525.6a44 42.4 0 1 0 88 0 44 42.4 0 1 0-88 0Z" fill="#FBD000" /><path d="M728.8 763.2c3.2 17.6-8.8 31.2-26.4 31.2H331.2c-17.6 0-29.6-14.4-26.4-31.2l6.4-38.4c3.2-17.6 20-31.2 37.6-31.2h336c17.6 0 34.4 14.4 37.6 31.2l6.4 38.4z" fill="#3AD0F9" /><path d="M623.2 525.6a45.6 44 90 1 0 88 0 45.6 44 90 1 0-88 0Z" fill="#FBD000" /><path d="M368 768c-13.6 0-24-10.4-24-24s10.4-24 24-24 24 10.4 24 24-10.4 24-24 24z m0-32.8c-4.8 0-8.8 4-8.8 8.8 0 4.8 4 8.8 8.8 8.8 4.8 0 8.8-4 8.8-8.8 0-4.8-4-8.8-8.8-8.8z" fill="#074370" /><path d="M253.6 692.8m-17.6 0a17.6 17.6 0 1 0 35.2 0 17.6 17.6 0 1 0-35.2 0Z" fill="#FFFFFF" /><path d="M253.6 718.4c-13.6 0-25.6-11.2-25.6-25.6 0-13.6 11.2-25.6 25.6-25.6 13.6 0 25.6 11.2 25.6 25.6 0 13.6-11.2 25.6-25.6 25.6z m0-35.2c-4.8 0-9.6 4-9.6 9.6 0 4.8 4 9.6 9.6 9.6 4.8 0 9.6-4 9.6-9.6 0-4.8-4-9.6-9.6-9.6z" fill="#074370" /><path d="M782.4 692.8m-17.6 0a17.6 17.6 0 1 0 35.2 0 17.6 17.6 0 1 0-35.2 0Z" fill="#FFFFFF" /><path d="M672 768c-13.6 0-24-10.4-24-24s10.4-24 24-24 24 10.4 24 24-10.4 24-24 24z m0-32.8c-4.8 0-8.8 4-8.8 8.8 0 4.8 4 8.8 8.8 8.8 4.8 0 8.8-4 8.8-8.8 0-4.8-4-8.8-8.8-8.8z" fill="#074370" /><path d="MNaN NaNaNaN NaN NaN 1 0 NaN NaN NaN NaN NaN 1 0 NaN NaNZ" fill="#074370" /><path d="M816 332.8a12.8 12.8 0 1 0 25.6 0 12.8 12.8 0 1 0-25.6 0Z" fill="#074370" /><path d="M782.4 714.4m-17.6 0a17.6 17.6 0 1 0 35.2 0 17.6 17.6 0 1 0-35.2 0Z" fill="#00B3F9" /><path d="M192 716a12 12 0 1 0 24 0 12 12 0 1 0-24 0Z" fill="#074370" /><path d="M828 716m-12 0a12 12 0 1 0 24 0 12 12 0 1 0-24 0Z" fill="#074370" /><path d="M233.6 700.8c-3.2 0-6.4-3.2-6.4-8L224 521.6c0-4.8 3.2-8 6.4-8s6.4 3.2 6.4 8l3.2 171.2c0 4-3.2 8-6.4 8zM724.8 750.4c-3.2 0-5.6-1.6-7.2-4.8-1.6-4 0-8.8 4-10.4 46.4-20.8 59.2-26.4 61.6-28 6.4-3.2 11.2-12 10.4-15.2-2.4-8-54.4-175.2-54.4-175.2l15.2-4.8s52 167.2 54.4 175.2c4 13.6-8.8 29.6-19.2 34.4-4 1.6-24.8 11.2-62.4 28 0 0-0.8 0.8-2.4 0.8zM308.8 749.6c-1.6 0-2.4 0-4-0.8l-60.8-32.8c-4-2.4-5.6-7.2-3.2-11.2 2.4-4 7.2-5.6 11.2-3.2l60.8 32.8c4 2.4 5.6 7.2 3.2 11.2-1.6 2.4-4 4-7.2 4z" fill="#074370" /><path d="M712 362.4c0 8.8-7.2 16-16 16H336.8c-8.8 0-16-7.2-16-16v-16c0-8.8 7.2-16 16-16h360c8.8 0 16 7.2 16 16l-0.8 16z" fill="#FFFFFF" /><path d="M696 384H336.8c-12.8 0-24-10.4-24-24v-16c0-6.4 2.4-12.8 6.4-16.8 4.8-4.8 10.4-7.2 16.8-7.2h360c13.6 0 24 10.4 24 24v16c0 6.4-2.4 12.8-7.2 16.8-4 4.8-10.4 7.2-16.8 7.2z m-360-48c-2.4 0-4 0.8-5.6 2.4-1.6 1.6-2.4 3.2-2.4 5.6v16c0 4.8 4 8 8 8h360c2.4 0 4-0.8 5.6-2.4 1.6-1.6 2.4-3.2 2.4-5.6v-16c0-4.8-4-8-8-8H336z" fill="#074370" /><path d="M668 360H528c-4.8 0-8-3.2-8-8s3.2-8 8-8h140c4.8 0 8 3.2 8 8s-4 8-8 8zM481.6 360h-112c-4.8 0-8-3.2-8-8s3.2-8 8-8h112c4.8 0 8 3.2 8 8s-3.2 8-8 8z" fill="#ADADAD" /><path d="M356 656C283.2 656 224 596.8 224 524S283.2 392 356 392 488 451.2 488 524 428.8 656 356 656z m0-248c-64 0-116 52-116 116S292 640 356 640 472 588 472 524 420 408 356 408zM668 616C617.6 616 576 574.4 576 524S617.6 432 668 432 760 473.6 760 524 718.4 616 668 616z m0-167.2c-41.6 0-75.2 33.6-75.2 75.2s33.6 75.2 75.2 75.2 75.2-33.6 75.2-75.2-33.6-75.2-75.2-75.2z" fill="#074370" /><path d="M344.8 713.6h344.8c14.4 0 28.8 9.6 35.2 22.4l-2.4-11.2c-3.2-16.8-20-30.4-37.6-30.4h-336c-17.6 0-34.4 13.6-37.6 30.4l-2.4 11.2c6.4-12.8 20.8-22.4 36-22.4z" fill="#00B3F9" /><path d="M668 576c-28.8 0-52-23.2-52-52s23.2-52 52-52 52 23.2 52 52-24 52-52 52z m0-88C648 488 632 504 632 524s16 36 36 36 36-16 36-36c-0.8-20-16.8-36-36-36zM702.4 800H331.2c-11.2 0-20.8-4-27.2-12-6.4-8-9.6-18.4-7.2-28.8l7.2-41.6c3.2-20.8 24-38.4 45.6-38.4h336c21.6 0 41.6 16.8 45.6 38.4l7.2 41.6c1.6 10.4-0.8 20.8-7.2 28.8-8.8 8-18.4 12-28.8 12zM348.8 696c-13.6 0-27.2 11.2-29.6 24.8l-7.2 41.6c-0.8 6.4 0 12 4 16 3.2 4 8.8 6.4 15.2 6.4h371.2c6.4 0 11.2-2.4 15.2-6.4 3.2-4 4.8-9.6 4-16l-7.2-41.6c-2.4-13.6-16-24.8-29.6-24.8h-336z" fill="#074370" /><path d="M262.4 535.2c-4.8 0-8-3.2-8-8 0-56 45.6-102.4 102.4-102.4 18.4 0 36.8 4.8 52.8 14.4 4 2.4 4.8 7.2 2.4 11.2-2.4 4-7.2 4.8-11.2 2.4-13.6-8-28.8-12-44-12-47.2 0-86.4 38.4-86.4 86.4 0 4.8-3.2 8-8 8zM356.8 629.6c-4.8 0-8-3.2-8-8s3.2-8 8-8c47.2 0 86.4-38.4 86.4-86.4 0-4.8 3.2-8 8-8s8 3.2 8 8c-0.8 56.8-46.4 102.4-102.4 102.4zM731.2 535.2c-4.8 0-8-3.2-8-8 0-31.2-24.8-56-56-56-4.8 0-8-3.2-8-8s3.2-8 8-8c40 0 72 32 72 72 0 4.8-3.2 8-8 8zM667.2 599.2c-40 0-72-32-72-72 0-4.8 3.2-8 8-8s8 3.2 8 8c0 31.2 24.8 56 56 56 15.2 0 30.4-6.4 40.8-17.6 3.2-3.2 8-3.2 11.2 0 3.2 3.2 3.2 8 0 11.2-12.8 14.4-32 22.4-52 22.4z" fill="#FFFFFF" opacity=".5" /><path d="M618.4 728H420c-4.8 0-8-3.2-8-8s3.2-8 8-8h198.4c4.8 0 8 3.2 8 8s-3.2 8-8 8zM848 658.4c-4.8 0-8-3.2-8-8V494.4c0-4.8 3.2-8 8-8s8 3.2 8 8v156c0 4-3.2 8-8 8zM848 462.4c-4.8 0-8-3.2-8-8v-57.6c0-4.8 3.2-8 8-8s8 3.2 8 8v57.6c0 4-3.2 8-8 8z" fill="#FFFFFF" /><path d="M252 720c-15.2 0-28-12.8-28-28s12.8-28 28-28 28 12.8 28 28-12.8 28-28 28z m0-38.4c-5.6 0-10.4 4.8-10.4 10.4 0 5.6 4.8 10.4 10.4 10.4 5.6 0 10.4-4.8 10.4-10.4 0-5.6-4.8-10.4-10.4-10.4zM780 720c-15.2 0-28-12.8-28-28s12.8-28 28-28 28 12.8 28 28-12.8 28-28 28z m0-38.4c-5.6 0-10.4 4.8-10.4 10.4 0 5.6 4.8 10.4 10.4 10.4 5.6 0 10.4-4.8 10.4-10.4-0.8-5.6-4.8-10.4-10.4-10.4z" fill="#074370" /><path d="M688 192c-17.6 0-32-14.4-32-32s14.4-32 32-32 32 14.4 32 32-14.4 32-32 32z m0-48.8c-9.6 0-16.8 8-16.8 16.8 0 9.6 8 16.8 16.8 16.8 9.6 0 16.8-8 16.8-16.8 0-9.6-7.2-16.8-16.8-16.8zM312 224c-17.6 0-32-14.4-32-32s14.4-32 32-32 32 14.4 32 32c-0.8 17.6-15.2 32-32 32z m0-48.8c-9.6 0-16.8 7.2-16.8 16.8 0 9.6 7.2 16.8 16.8 16.8 9.6 0 16.8-7.2 16.8-16.8 0-8.8-8-16.8-16.8-16.8zM413.6 921.6c-19.2 0-34.4-15.2-34.4-34.4s15.2-34.4 34.4-34.4 34.4 15.2 34.4 34.4c-0.8 19.2-16 34.4-34.4 34.4z m0-52c-10.4 0-18.4 8-18.4 18.4 0 10.4 8 18.4 18.4 18.4 10.4 0 18.4-8 18.4-18.4-0.8-10.4-8.8-18.4-18.4-18.4zM700 879.2c0-3.2-3.2-6.4-8-7.2l-15.2-2.4c-4-0.8-8.8-4.8-8.8-8.8l-2.4-15.2c-0.8-4-4-8-7.2-8s-6.4 3.2-7.2 8l-2.4 15.2c-0.8 4-4.8 8.8-8.8 8.8l-15.2 2.4c-4 0.8-8 4-8 7.2s3.2 6.4 8 7.2l15.2 2.4c4 0.8 8.8 4.8 8.8 8.8l2.4 15.2c0.8 4 4 8 7.2 8s6.4-3.2 6.4-8l2.4-16.8c0.8-4 4.8-8 8.8-8.8l14.4-0.8c5.6-1.6 9.6-4 9.6-7.2zM540.8 136c0-3.2-3.2-6.4-8-7.2l-15.2-2.4c-4-0.8-8.8-4.8-8.8-8.8l-2.4-15.2c-0.8-4-4-8-7.2-8s-6.4 3.2-7.2 8l-2.4 15.2c-0.8 4-4.8 8.8-8.8 8.8l-15.2 2.4c-4 0.8-8 4-8 7.2s3.2 6.4 8 7.2l15.2 2.4c4 0.8 8.8 4.8 8.8 8.8l2.4 15.2c0.8 4 4 8 7.2 8s6.4-3.2 6.4-8l2.4-16.8c0.8-4 4.8-8 8.8-8.8l14.4-0.8c6.4-0.8 9.6-4 9.6-7.2z" fill="#FFFFFF" /><path d="M356 576c-28.8 0-52-23.2-52-52s23.2-52 52-52 52 23.2 52 52-23.2 52-52 52z m0-88C336 488 320 504 320 524s16 36 36 36 36-16 36-36-16-36-36-36z" fill="#074370" /><path d="M336 601.6c-2.4 0-4-0.8-5.6-2.4-3.2-3.2-3.2-8 0-11.2L510.4 408c3.2-3.2 8-3.2 11.2 0 3.2 3.2 3.2 8 0 11.2L341.6 599.2c-1.6 1.6-4 2.4-5.6 2.4zM468 562.4c-2.4 0-4-0.8-5.6-2.4-3.2-3.2-3.2-8 0-11.2l86.4-86.4c3.2-3.2 8-3.2 11.2 0 3.2 3.2 3.2 8 0 11.2L474.4 560c-1.6 1.6-4 2.4-6.4 2.4z" fill="#FFFFFF" /></svg>