<?xml version="1.0" standalone="no"?><!DOCTYPE svg PUBLIC "-//W3C//DTD SVG 1.1//EN" "http://www.w3.org/Graphics/SVG/1.1/DTD/svg11.dtd"><svg class="icon" width="200px" height="200.00px" viewBox="0 0 1024 1024" version="1.1" xmlns="http://www.w3.org/2000/svg"><path d="M424.88 771.17a237.79 237.79 0 0 0-74.6 42.54c-41.89 35.47-66.78 82.67-70.43 133.29h464.3c-3.65-50.62-28.54-97.82-70.43-133.29a237.79 237.79 0 0 0-74.6-42.54 282.48 282.48 0 0 1-174.24 0z" fill="#F9DB91" /><path d="M785.12 439.31a119.86 119.86 0 1 1-1.59-2.5 280 280 0 0 0-543.06 0 120.34 120.34 0 1 1-1.59 2.5 73.73 73.73 0 0 0 0.53 147.45c1.59 0 3.16-0.07 4.72-0.17a280.09 280.09 0 0 0 535.74 0c1.56 0.1 3.13 0.17 4.72 0.17a73.73 73.73 0 0 0 0.53-147.45z" fill="#FFD4C7" /><path d="M340.79 622.35a119.92 119.92 0 1 0-100.32-185.54c-0.54 0.83-1.07 1.66-1.59 2.5a119.85 119.85 0 0 0 101.91 183zM683.21 382.52a120 120 0 1 0 101.91 56.79c-0.52-0.84-1-1.67-1.59-2.5a119.92 119.92 0 0 0-100.32-54.29z" fill="#AEF0FF" /><path d="M789.25 599.64a86.73 86.73 0 0 0 5-172.8 291.44 291.44 0 0 0-28.18-67.48H768a13.71 13.71 0 0 0 11.87-20.57 309.38 309.38 0 0 0-183.75-143.18l23.59-25.16a13.7 13.7 0 0 0-1.71-20.27l-67.52-51.7a13.71 13.71 0 0 0-20.48 4.57l-24.92 48-40.35-79.54a13.71 13.71 0 0 0-18.31-6.08l-102.35 50.64a13.72 13.72 0 0 0-2.72 22.81l72.75 60.94a310.94 310.94 0 0 0-169.94 138.72A13.72 13.72 0 0 0 256 359.12h2a291.09 291.09 0 0 0-28.32 67.72 86.73 86.73 0 0 0 5 172.8 293.74 293.74 0 0 0 155.9 172c-71.31 35.8-120.31 102.17-124 178.9a9 9 0 0 0 9.05 9.42h472.71a9 9 0 0 0 9-9.42c-3.73-76.73-52.73-143.1-124-178.9a293.71 293.71 0 0 0 155.91-172z m-30.44-172.8a106.9 106.9 0 1 1-75.6-31.32 106.18 106.18 0 0 1 75.6 31.32zM845.32 513a60.82 60.82 0 0 1-48.26 59.43c0.18-0.76 0.36-1.53 0.53-2.3a133.16 133.16 0 0 0 10.6-113.07A60.82 60.82 0 0 1 845.32 513zM582.69 359.27L598 294.84l17.76 64.46 119.86 0.05a265 265 0 0 1 16.7 29.52 132.95 132.95 0 0 0-201.39 100.57h-77.86a132.95 132.95 0 0 0-201.38-100.57 265.52 265.52 0 0 1 16.84-29.73zM265.19 578a106.93 106.93 0 1 1 75.6 31.31 106.22 106.22 0 0 1-75.6-31.31z m-86.51-65a60.78 60.78 0 0 1 37.13-55.93 133.13 133.13 0 0 0 10.6 113.06c0.17 0.76 0.35 1.52 0.53 2.28A60.81 60.81 0 0 1 178.68 513z m486.64 310.6c35.29 29.92 57.68 68.59 64.27 110.4H294.41c6.58-41.81 29-80.48 64.27-110.37a224.37 224.37 0 0 1 66.58-38.76 294.36 294.36 0 0 0 173.48 0 224.24 224.24 0 0 1 66.58 38.76zM615.87 751a267.19 267.19 0 0 1-347.65-137.2 132.93 132.93 0 0 0 204.85-98.36h77.86a132.93 132.93 0 0 0 204.85 98.36A267.95 267.95 0 0 1 615.87 751z" fill="#512C56" /></svg>