<?xml version="1.0" standalone="no"?><!DOCTYPE svg PUBLIC "-//W3C//DTD SVG 1.1//EN" "http://www.w3.org/Graphics/SVG/1.1/DTD/svg11.dtd"><svg class="icon" width="200px" height="200.00px" viewBox="0 0 1024 1024" version="1.1" xmlns="http://www.w3.org/2000/svg"><path d="M512 512m-512 0a512 512 0 1 0 1024 0 512 512 0 1 0-1024 0Z" fill="#FBD000" /><path d="M352 344H208c-35.2 0-64 28.8-64 64v364c0 28.8 23.2 52 52 52h155.2c20 0 38.4-9.6 49.6-24h14.4V408c0.8-35.2-28-64-63.2-64z" fill="#D4D6D6" /><path d="M352 832H196c-32.8 0-60-27.2-60-60V408c0-19.2 7.2-37.6 20.8-51.2 13.6-13.6 32-20.8 51.2-20.8h144c40 0 72 32 72 72v392c0 4.8-3.2 8-8 8h-10.4c-13.6 15.2-32.8 24-53.6 24zM208 352c-15.2 0-28.8 5.6-39.2 16.8-11.2 10.4-16.8 24-16.8 39.2v368c0 24 20 40 44 40H352c16.8 0 32.8-8 43.2-20.8 1.6-1.6 4-3.2 6.4-3.2h6.4V408c0-31.2-24.8-56-56-56H208z" fill="#663210" /><path d="M264 408h-64.8c-16 0-28.8 12-28.8 28V768c0 12.8 2.4 24 15.2 24H264c8.8 0 16.8-8 22.4-16h1.6V435.2c0-15.2-8-27.2-24-27.2z" fill="#D4D6D6" /><path d="M264 800h-70.4c-16.8 0-25.6-8-25.6-24V432c0-21.6 9.6-32 30.4-32H264c19.2 0 32 13.6 32 35.2v336.8c0.8 0.8 0.8 2.4 0.8 3.2 0 4-2.4 7.2-6.4 8-4.8 8-14.4 16.8-26.4 16.8z m-65.6-384c-11.2 0-14.4 2.4-14.4 16v344c0 5.6 0 8 9.6 8H264c4.8 0 10.4-4.8 16-12.8v-336c0-7.2-2.4-19.2-16-19.2h-65.6z" fill="#663210" /><path d="M513.6 232H238.4c-19.2 0-30.4 15.2-30.4 34.4v500.8c0 14.4-1.6 24.8-16.8 24.8h321.6c19.2 0 38.4-15.2 38.4-34.4V266.4c0.8-19.2-18.4-34.4-37.6-34.4z" fill="#EAEAEA" /><path d="M513.6 800H191.2c-4.8 0-8-3.2-8-8s3.2-8 8-8 8.8 0 8.8-16.8V266.4c0-24.8 16-42.4 38.4-42.4h275.2c24.8 0 46.4 20 46.4 42.4v491.2c0 22.4-21.6 42.4-46.4 42.4z m-299.2-16h299.2c16 0 30.4-12.8 30.4-26.4V266.4c0-15.2-16-26.4-30.4-26.4H238.4c-16.8 0-22.4 14.4-22.4 26.4v500.8c0 4 0 10.4-1.6 16.8z" fill="#663210" /><path d="M816 192H312c-35.2 0-64 28.8-64 64v522.4c0 25.6-24.8 45.6-52 45.6H816c35.2 0 64-28.8 64-64V256c0-35.2-28.8-64-64-64z" fill="#EAEAEA" /><path d="M816 712H248v66.4c0 25.6-24.8 45.6-52 45.6H816c35.2 0 64-28.8 64-64V648c0 35.2-28.8 64-64 64z" fill="#D4D6D6" /><path d="M816 832H196c-4.8 0-8-3.2-8-8s3.2-8 8-8c23.2 0 44-17.6 44-37.6V256c0-40 32-72 72-72h504c40 0 72 32 72 72v504c0 40-32 72-72 72z m-577.6-16H816c31.2 0 56-24.8 56-56V256c0-31.2-24.8-56-56-56H312c-31.2 0-56 24.8-56 56v522.4c0 14.4-7.2 28-17.6 37.6z" fill="#663210" /><path d="M665.6 912.8c0-3.2-3.2-6.4-8-7.2l-15.2-2.4c-4-0.8-8.8-4.8-8.8-8.8L632 880c-0.8-4-4-8-7.2-8s-6.4 3.2-7.2 8l-2.4 15.2c-0.8 4-4.8 8.8-8.8 8.8l-15.2 2.4c-4 0.8-8 4-8 7.2s3.2 6.4 8 7.2l15.2 2.4c4 0.8 8.8 4.8 8.8 8.8l2.4 15.2c0.8 4 4 8 7.2 8s6.4-3.2 6.4-8l2.4-16.8c0.8-4 4.8-8 8.8-8.8l14.4-0.8c5.6-1.6 8.8-4.8 8.8-8zM472 88.8c0-3.2-3.2-6.4-8-7.2l-15.2-1.6c-4-0.8-8.8-4.8-8.8-8.8L437.6 56c-0.8-4-4-8-7.2-8s-6.4 3.2-7.2 8l-2.4 15.2c-0.8 4-4.8 8.8-8.8 8.8l-15.2 2.4c-4 0.8-8 4-8 7.2s3.2 6.4 8 7.2l15.2 2.4c4 0.8 8.8 4.8 8.8 8.8l2.4 15.2c0.8 4 4 8 7.2 8s6.4-3.2 6.4-8l2.4-16.8c0.8-4 4.8-8 8.8-8.8l14.4-0.8c5.6-1.6 9.6-4.8 9.6-8zM424 952c-17.6 0-32-14.4-32-32s14.4-32 32-32 32 14.4 32 32-14.4 32-32 32z m0-48.8c-9.6 0-16.8 8-16.8 16.8 0 9.6 8 16.8 16.8 16.8 9.6 0 16.8-8 16.8-16.8 0-9.6-7.2-16.8-16.8-16.8zM616 136c-17.6 0-32-14.4-32-32s14.4-32 32-32 32 14.4 32 32-14.4 32-32 32z m0-48.8c-9.6 0-16.8 8-16.8 16.8 0 9.6 8 16.8 16.8 16.8 9.6 0 16.8-8 16.8-16.8 0-9.6-7.2-16.8-16.8-16.8z" fill="#FFFFFF" /><path d="M584.8 265.6H816V448H584.8z" fill="#C4C4C4" /><path d="M415.2 296H312.8c-8.8 0-16.8-7.2-16.8-16s7.2-16 16.8-16H416c8.8 0 16.8 7.2 16.8 16s-8 16-17.6 16zM528 296h-56c-8.8 0-16-7.2-16-16s7.2-16 16-16h56c8.8 0 16 7.2 16 16s-7.2 16-16 16z" fill="#7C7C7C" /><path d="M536 376H304c-4 0-8-3.2-8-8s3.2-8 8-8h232c4 0 8 3.2 8 8s-3.2 8-8 8zM536 424H304c-4 0-8-3.2-8-8s3.2-8 8-8h232c4 0 8 3.2 8 8s-3.2 8-8 8zM536 472H304c-4 0-8-3.2-8-8s3.2-8 8-8h232c4 0 8 3.2 8 8s-3.2 8-8 8zM824 520H304c-4.8 0-8-3.2-8-8s3.2-8 8-8h520c4.8 0 8 3.2 8 8s-3.2 8-8 8zM525.6 568H304c-4.8 0-8-3.2-8-8s3.2-8 8-8h221.6c4.8 0 8 3.2 8 8s-3.2 8-8 8zM824 568H589.6c-4.8 0-8-3.2-8-8s3.2-8 8-8H824c4.8 0 8 3.2 8 8s-3.2 8-8 8zM425.6 616H304c-4.8 0-8-3.2-8-8s3.2-8 8-8h121.6c4.8 0 8 3.2 8 8s-3.2 8-8 8zM676.8 616H483.2c-4.8 0-8-3.2-8-8s3.2-8 8-8h193.6c4.8 0 8 3.2 8 8s-4 8-8 8zM824 616H736c-4.8 0-8-3.2-8-8s3.2-8 8-8h88c4.8 0 8 3.2 8 8s-3.2 8-8 8zM384 664H304c-4.8 0-8-3.2-8-8s3.2-8 8-8h80c4.8 0 8 3.2 8 8s-4 8-8 8zM576 664H432c-4.8 0-8-3.2-8-8s3.2-8 8-8h144c4.8 0 8 3.2 8 8s-4 8-8 8zM824 664H632.8c-4.8 0-8-3.2-8-8s3.2-8 8-8H824c4.8 0 8 3.2 8 8s-3.2 8-8 8zM462.4 712H304c-4.8 0-8-3.2-8-8s3.2-8 8-8h158.4c4.8 0 8 3.2 8 8s-4 8-8 8zM676 712H513.6c-4.8 0-8-3.2-8-8s3.2-8 8-8h161.6c4.8 0 8 3.2 8 8s-3.2 8-7.2 8zM824 712H724c-4.8 0-8-3.2-8-8s3.2-8 8-8H824c4.8 0 8 3.2 8 8s-3.2 8-8 8zM633.6 760H304c-4.8 0-8-3.2-8-8s3.2-8 8-8h329.6c4.8 0 8 3.2 8 8s-3.2 8-8 8zM824 760H685.6c-4.8 0-8-3.2-8-8s3.2-8 8-8H824c4.8 0 8 3.2 8 8s-3.2 8-8 8z" fill="#ADADAD" /><path d="M746.4 352l53.6 96H648.8l53.6-96c12-21.6 32-21.6 44 0z" fill="#9B9B9B" /><path d="M608 328.8a24 23.2 0 1 0 48 0 24 23.2 0 1 0-48 0Z" fill="#FFFFFF" /><path d="M715.2 304c7.2 0 12.8-4 12.8-7.2s10.4-8 24-8h14.4c13.6 0 25.6-2.4 25.6 8 0 3.2-7.2 8-14.4 8s-17.6 1.6-17.6 4.8c0 3.2-5.6 11.2-19.2 11.2H720c-13.6 0-16.8-4.8-16.8-8 0-4 5.6-8.8 12-8.8z" fill="#FFFFFF" /></svg>