<?xml version="1.0" standalone="no"?><!DOCTYPE svg PUBLIC "-//W3C//DTD SVG 1.1//EN" "http://www.w3.org/Graphics/SVG/1.1/DTD/svg11.dtd"><svg class="icon" width="200px" height="200.00px" viewBox="0 0 1024 1024" version="1.1" xmlns="http://www.w3.org/2000/svg"><path d="M511.201248 511.201248m-511.201248 0a511.201248 511.201248 0 1 0 1022.402496 0 511.201248 511.201248 0 1 0-1022.402496 0Z" fill="#6AE5E1" /><path d="M1008.024961 218.858034L282.75819 494.427457l18.371295 236.430577z" fill="#FFFFFF" /><path d="M439.313573 637.404056l-143.775351 95.850234 62.302652-174.127925z" fill="#D4D6D6" /><path d="M301.129485 738.845554c-2.396256 0-4.792512-0.798752-6.390015-3.195008-2.396256-3.195008-1.597504-8.786271 1.597503-11.182527l706.895476-512c3.195008-2.396256 8.786271-1.597504 11.182528 1.597504 2.396256 3.195008 1.597504 8.786271-1.597504 11.182527L305.123245 737.24805c-0.798752 1.597504-2.396256 1.597504-3.99376 1.597504z" fill="#074370" /><path d="M113.422777 347.457098l894.602184-128.599064-477.653666 488.037442z" fill="#FFFFFF" /><path d="M968.886115 234.833073l-686.926677 268.380656L295.538222 738.046802l69.491419-183.712949z" fill="#EAEAEA" /><path d="M530.371295 714.882995c-1.597504 0-3.99376-0.798752-5.591264-1.597504L350.652106 563.120125c-3.195008-3.195008-3.99376-7.98752-0.798752-11.182527 3.195008-3.195008 7.98752-3.99376 11.182527-0.798752L529.572543 696.5117l455.288611-465.672386L131.794072 353.048362l162.945398 140.580343c3.195008 3.195008 3.99376 7.98752 0.798752 11.182527-3.195008 3.195008-7.98752 3.99376-11.182528 0.798752l-175.725429-151.76287c-2.396256-2.396256-3.195008-5.591264-2.396256-7.98752 0.798752-3.195008 3.195008-5.591264 6.390016-5.591263L1006.427457 211.669267c3.195008-0.798752 6.390016 1.597504 7.98752 3.99376 1.597504 3.195008 0.798752 6.390016-1.597504 9.585023L535.962559 712.486739c-1.597504 1.597504-3.195008 2.396256-5.591264 2.396256z" fill="#074370" /><path d="M301.129485 738.845554h-2.396256c-3.99376-1.597504-6.390016-5.591264-5.591263-10.383776l55.912636-178.920436c0.798752-2.396256 2.396256-3.99376 3.99376-4.792512l508.804992-259.594384L299.531981 504.811232c-3.99376 1.597504-8.786271-0.798752-10.383775-4.792511-1.597504-3.99376 0.798752-8.786271 4.792512-10.383776l710.889235-277.965678c3.99376-1.597504 8.786271 0 10.383776 3.99376 1.597504 3.99376 0 8.786271-3.99376 10.383775L362.633385 557.528861l-54.315132 175.725429c-0.798752 3.99376-3.99376 5.591264-7.188768 5.591264z" fill="#074370" /><path d="M301.129485 738.845554c-3.99376 0-7.98752-3.195008-7.987519-7.188768l-18.371295-237.229329c0-4.792512 3.195008-7.98752 7.188767-8.786271 4.792512 0 7.98752 3.195008 8.786272 7.188767l18.371295 237.229329c0 4.792512-3.195008 8.786271-7.98752 8.786272z" fill="#074370" /><path d="M614.24025 312.312012c-3.99376 0-7.188768-3.195008-7.98752-6.390015-0.798752-3.99376 2.396256-8.786271 6.390016-8.786272L718.876755 280.361934c3.99376-0.798752 8.786271 2.396256 8.786272 6.390016 0.798752 3.99376-2.396256 8.786271-6.390016 8.786272L615.039002 312.312012h-0.798752zM201.285491 377.809672c-3.99376 0-7.188768-3.195008-7.987519-6.390015-0.798752-3.99376 2.396256-8.786271 6.390016-8.786272l317.104524-50.321373c3.99376-0.798752 8.786271 2.396256 8.786271 6.390016 0.798752 3.99376-2.396256 8.786271-6.390015 8.786272l-317.104525 50.321372h-0.798752zM535.163807 654.976599c-2.396256 0-3.99376-0.798752-5.591264-2.396256-3.195008-3.195008-3.195008-7.98752 0-11.182527l223.650546-215.663027c3.195008-3.195008 7.98752-3.195008 11.182527 0 3.195008 3.195008 3.195008 7.98752 0 11.182528l-223.650546 215.663026c-1.597504 1.597504-3.99376 2.396256-5.591263 2.396256z" fill="#0C508E" opacity=".5" /><path d="M135.787832 632.611544c-17.572543 0-31.950078-14.377535-31.950078-31.950078s14.377535-31.950078 31.950078-31.950078 31.950078 14.377535 31.950078 31.950078-14.377535 31.950078-31.950078 31.950078z m0-48.723868c-9.585023 0-16.773791 7.98752-16.773791 16.77379 0 9.585023 7.98752 16.773791 16.773791 16.773791 9.585023 0 16.773791-7.98752 16.77379-16.773791 0-9.585023-7.188768-16.773791-16.77379-16.77379zM670.951638 848.274571c-17.572543 0-31.950078-14.377535-31.950078-31.950078s14.377535-31.950078 31.950078-31.950078 31.950078 14.377535 31.950078 31.950078-14.377535 31.950078-31.950078 31.950078z m0-48.723869c-9.585023 0-16.773791 7.98752-16.773791 16.773791 0 9.585023 7.98752 16.773791 16.773791 16.773791 9.585023 0 16.773791-7.98752 16.773791-16.773791 0-9.585023-7.188768-16.773791-16.773791-16.773791zM702.901716 201.285491c-17.572543 0-31.950078-14.377535-31.950078-31.950078s14.377535-31.950078 31.950078-31.950078 31.950078 14.377535 31.950078 31.950078-14.377535 31.950078-31.950078 31.950078z m0-48.723869c-9.585023 0-16.773791 7.98752-16.773791 16.773791 0 9.585023 7.98752 16.773791 16.773791 16.773791 9.585023 0 16.773791-7.98752 16.773791-16.773791 0-9.585023-7.188768-16.773791-16.773791-16.773791zM477.653666 170.932917c0-3.195008-3.195008-6.390016-7.987519-7.188767l-15.176287-2.396256c-3.99376-0.798752-8.786271-4.792512-8.786272-8.786272l-2.396256-15.176287c-0.798752-3.99376-3.99376-7.98752-7.188767-7.987519s-6.390016 3.195008-7.188768 7.987519l-2.396256 15.176287c-0.798752 3.99376-4.792512 8.786271-8.786271 8.786272l-15.176287 2.396256c-3.99376 0.798752-7.98752 3.99376-7.98752 7.188767s3.195008 6.390016 7.98752 7.188768l15.176287 2.396256c3.99376 0.798752 8.786271 4.792512 8.786271 8.786271l2.396256 15.176287c0.798752 3.99376 3.99376 7.98752 7.188768 7.98752s6.390016-3.195008 6.390015-7.98752l2.396256-16.773791c0.798752-3.99376 4.792512-7.98752 8.786272-8.786271l14.377535-0.798752c5.591264-0.798752 9.585023-3.99376 9.585023-7.188768zM866.645866 615.039002c0-3.195008-3.195008-6.390016-7.98752-7.188768l-15.176287-2.396256c-3.99376-0.798752-8.786271-4.792512-8.786271-8.786271l-2.396256-15.176287c-0.798752-3.99376-3.99376-7.98752-7.188768-7.98752s-6.390016 3.195008-7.188767 7.98752l-2.396256 15.176287c-0.798752 3.99376-4.792512 8.786271-8.786271 8.786271l-15.176287 2.396256c-3.99376 0.798752-7.98752 3.99376-7.98752 7.188768s3.195008 6.390016 7.98752 7.188767l15.176287 2.396256c3.99376 0.798752 8.786271 4.792512 8.786271 8.786271l2.396256 15.176287c0.798752 3.99376 3.99376 7.98752 7.188767 7.98752s6.390016-3.195008 6.390016-7.98752l2.396256-16.77379c0.798752-3.99376 4.792512-7.98752 8.786271-8.786272l14.377535-0.798752c6.390016-1.597504 9.585023-3.99376 9.585024-7.188767zM311.513261 856.26209c0 8.786271 13.578783 15.975039 26.358814 15.975039h111.026521c13.578783 0 21.566303-7.188768 21.566303-15.975039s12.780031-15.975039 23.962558-15.975039 15.975039-7.188768 15.975039-15.975039-7.98752-15.975039-21.566303-15.975039H407.363495c-13.578783 0-23.962559 7.188768-23.962559 15.975039s-7.98752 15.975039-21.566303 15.975039h-23.962558c-12.780031 0-26.358814 7.188768-26.358814 15.975039z" fill="#FFFFFF" /></svg>