<?xml version="1.0" standalone="no"?><!DOCTYPE svg PUBLIC "-//W3C//DTD SVG 1.1//EN" "http://www.w3.org/Graphics/SVG/1.1/DTD/svg11.dtd"><svg class="icon" width="200px" height="200.00px" viewBox="0 0 1024 1024" version="1.1" xmlns="http://www.w3.org/2000/svg"><path d="M512 512m-512 0a512 512 0 1 0 1024 0 512 512 0 1 0-1024 0Z" fill="#FBD000" /><path d="M820.8 608.8c5.6 34.4-17.6 68-52.8 73.6L262.4 767.2c-34.4 5.6-68-17.6-73.6-52.8l-58.4-349.6c-5.6-34.4 17.6-68 52.8-73.6L688 206.4c34.4-5.6 68 17.6 73.6 52.8l59.2 349.6z" fill="#FFFFFF" /><path d="M252 768c-35.2 0-65.6-24.8-71.2-59.2l-59.2-343.2c-6.4-38.4 20-75.2 59.2-81.6L688 200.8c4-0.8 8-0.8 12-0.8 35.2 0 65.6 24.8 71.2 59.2l59.2 343.2c6.4 38.4-20 75.2-59.2 81.6L264 767.2c-4 0.8-8 0.8-12 0.8z m448.8-552c-3.2 0-6.4 0-9.6 0.8L184 300c-30.4 4.8-51.2 33.6-46.4 63.2l59.2 343.2c4.8 26.4 28 45.6 55.2 45.6 3.2 0 6.4 0 9.6-0.8l507.2-83.2c30.4-4.8 51.2-33.6 46.4-63.2l-59.2-343.2C752 235.2 728 216 700.8 216z" fill="#663210" /><path d="M784 596.8c4 26.4-13.6 51.2-39.2 55.2l-469.6 79.2c-26.4 4-51.2-13.6-55.2-39.2l-52.8-313.6c-4-26.4 13.6-51.2 39.2-55.2l469.6-79.2c26.4-4 51.2 13.6 55.2 39.2L784 596.8z" fill="#75B600" /><path d="M860.8 726.4c0 35.2-28.8 64-64 64H227.2c-35.2 0-64-28.8-64-64V328c0-35.2 28.8-64 64-64h570.4c35.2 0 64 28.8 64 64v398.4z" fill="#FFFFFF" /><path d="M824 704c0 26.4-21.6 48-48 48H248c-26.4 0-48-21.6-48-48V352c0-26.4 21.6-48 48-48h528c26.4 0 48 21.6 48 48v352z" fill="#3AD0F9" /><path d="M384 408m-40 0a40 40 0 1 0 80 0 40 40 0 1 0-80 0Z" fill="#FBD000" /><path d="M800 800H224c-40 0-72-32-72-72V328c0-40 32-72 72-72h576c40 0 72 32 72 72v400c0 40-32 72-72 72zM224 272c-31.2 0-56 24.8-56 56v400c0 31.2 24.8 56 56 56h576c31.2 0 56-24.8 56-56V328c0-31.2-24.8-56-56-56H224z" fill="#663210" /><path d="M248.8 752H776c26.4 0 48-20 48-46.4V568L710.4 461.6c-20-16.8-51.2-15.2-69.6 4.8L502.4 616c-17.6 19.2-45.6 18.4-62.4-2.4l-64-80.8c-16-20.8-46.4-24-67.2-7.2L200 613.6v92c0.8 26.4 22.4 46.4 48.8 46.4z" fill="#AD5114" /><path d="M823.2 575.2v-19.2L715.2 453.6c-23.2-20-59.2-17.6-80 5.6L496.8 610.4c-7.2 8-15.2 14.4-24.8 13.6-9.6 0-19.2-7.2-25.6-15.2l-64-81.6C373.6 515.2 360 504 344 504c-15.2 0-28 4.8-40 14.4L200 603.2v18.4c1.6 0 3.2-0.8 4.8-1.6l108.8-88.8c8-6.4 19.2-10.4 29.6-10.4 8 0 20 8.8 26.4 16.8l64 81.6c9.6 12 24 20.8 37.6 21.6 0.8 0-0.8 0 0 0 13.6 0 27.2-8 36.8-18.4l138.4-151.2c15.2-16.8 41.6-18.4 58.4-4l112.8 107.2c1.6 0 4 0.8 5.6 0.8zM384 456c-26.4 0-48-21.6-48-48s21.6-48 48-48 48 21.6 48 48-21.6 48-48 48z m0-80c-17.6 0-32 14.4-32 32s14.4 32 32 32 32-14.4 32-32-14.4-32-32-32z" fill="#663210" /><path d="M792 489.6c-4.8 0-8-3.2-8-8V370.4c0-28.8-12-34.4-34.4-34.4H625.6c-4.8 0-8-3.2-8-8s3.2-8 8-8h124c21.6 0 50.4 5.6 50.4 50.4v110.4c0 4.8-3.2 8.8-8 8.8zM584 336h-56c-4 0-8-3.2-8-8s3.2-8 8-8h56c4 0 8 3.2 8 8s-3.2 8-8 8zM88 568c-17.6 0-32-14.4-32-32s14.4-32 32-32 32 14.4 32 32-14.4 32-32 32z m0-48.8c-9.6 0-16.8 8-16.8 16.8 0 9.6 7.2 16.8 16.8 16.8 9.6 0 16.8-8 16.8-16.8 0-9.6-7.2-16.8-16.8-16.8zM424 944c-17.6 0-32-14.4-32-32s14.4-32 32-32 32 14.4 32 32-14.4 32-32 32z m0-48.8c-9.6 0-16.8 8-16.8 16.8 0 9.6 8 16.8 16.8 16.8 9.6 0 16.8-8 16.8-16.8 0-9.6-7.2-16.8-16.8-16.8zM705.6 877.6c0-3.2-3.2-6.4-8-7.2l-15.2-2.4c-4-0.8-8.8-4.8-8.8-8.8l-2.4-15.2c-0.8-4-4-8-7.2-8s-6.4 3.2-7.2 8l-2.4 15.2c-0.8 4-4.8 8.8-8.8 8.8l-15.2 2.4c-4 0.8-8 4-8 7.2s3.2 6.4 8 7.2l15.2 2.4c4 0.8 8.8 4.8 8.8 8.8l2.4 15.2c0.8 4 4 8 7.2 8s6.4-3.2 6.4-8l2.4-16.8c0.8-4 4.8-8 8.8-8.8l14.4-0.8c5.6-0.8 9.6-4 9.6-7.2zM467.2 124c0-3.2-3.2-6.4-8-7.2l-15.2-2.4c-4-0.8-8.8-4.8-8.8-8.8l-2.4-15.2c-0.8-4-4-8-7.2-8s-6.4 3.2-7.2 8l-2.4 15.2c-0.8 4-4.8 8.8-8.8 8.8l-15.2 2.4c-4 0.8-8 4-8 7.2s3.2 6.4 8 7.2l15.2 2.4c4 0.8 8.8 4.8 8.8 8.8l2.4 15.2c0.8 4 4 8 7.2 8s6.4-3.2 6.4-8l2.4-16.8c0.8-4 4.8-8 8.8-8.8l14.4-0.8c6.4-1.6 9.6-4.8 9.6-7.2zM983.2 509.6c0-3.2-3.2-6.4-8-7.2l-15.2-2.4c-4-0.8-8.8-4.8-8.8-8.8l-2.4-15.2c-0.8-4-4-8-7.2-8s-6.4 3.2-7.2 8l-2.4 15.2c-0.8 4-4.8 8.8-8.8 8.8l-15.2 2.4c-4 0.8-8 4-8 7.2s3.2 6.4 8 7.2l15.2 2.4c4 0.8 8.8 4.8 8.8 8.8l2.4 15.2c0.8 4 4 8 7.2 8s6.4-3.2 6.4-8l2.4-16.8c0.8-4 4.8-8 8.8-8.8l14.4-0.8c6.4-0.8 9.6-4 9.6-7.2z" fill="#FFFFFF" /></svg>