<?xml version="1.0" standalone="no"?><!DOCTYPE svg PUBLIC "-//W3C//DTD SVG 1.1//EN" "http://www.w3.org/Graphics/SVG/1.1/DTD/svg11.dtd"><svg class="icon" width="200px" height="200.00px" viewBox="0 0 1024 1024" version="1.1" xmlns="http://www.w3.org/2000/svg"><path d="M512 512m-512 0a512 512 0 1 0 1024 0 512 512 0 1 0-1024 0Z" fill="#A7FCD0" /><path d="M347.2 282.4s-45.6-59.2-119.2-62.4c-73.6-3.2-40 17.6-27.2 39.2 12 21.6 30.4 107.2 30.4 107.2" fill="#FC8BA4" /><path d="M232 373.6c-4 0-7.2-2.4-8-6.4-4.8-24-20-89.6-29.6-106.4-2.4-4-4.8-8-8-12-7.2-9.6-14.4-19.2-9.6-29.6 4.8-9.6 19.2-12.8 52-11.2 75.2 4 121.6 64.8 123.2 67.2 2.4 3.2 2.4 8.8-1.6 11.2-3.2 2.4-8.8 2.4-11.2-1.6-0.8-0.8-44-57.6-112-60.8-26.4-1.6-34.4 0.8-36.8 2.4 0.8 2.4 4.8 8 8 12s6.4 8.8 8.8 13.6c12.8 22.4 30.4 108 31.2 111.2 0.8 4.8-1.6 8.8-6.4 9.6 1.6 0.8 0.8 0.8 0 0.8z" fill="#A81000" /><path d="M416 800c0 17.6-14.4 32-32 32h-72c-17.6 0-32-14.4-32-32v-56c0-17.6 14.4-32 32-32h72c17.6 0 32 14.4 32 32v56zM736 808c0 17.6-14.4 32-32 32h-72c-17.6 0-32-14.4-32-32v-56c0-17.6 14.4-32 32-32h72c17.6 0 32 14.4 32 32v56z" fill="#E26082" /><path d="M384 840h-72c-22.4 0-40-17.6-40-40v-56c0-22.4 17.6-40 40-40h72c22.4 0 40 17.6 40 40v56c0 22.4-17.6 40-40 40z m-72-120c-13.6 0-24 10.4-24 24v56c0 13.6 10.4 24 24 24h72c13.6 0 24-10.4 24-24v-56c0-13.6-10.4-24-24-24h-72zM704 840h-72c-22.4 0-40-17.6-40-40v-56c0-22.4 17.6-40 40-40h72c22.4 0 40 17.6 40 40v56c0 22.4-17.6 40-40 40z m-72-120c-13.6 0-24 10.4-24 24v56c0 13.6 10.4 24 24 24h72c13.6 0 24-10.4 24-24v-56c0-13.6-10.4-24-24-24h-72z" fill="#A81000" /><path d="M640 256H400c-136.8 0-248 112.8-248 249.6v24c0 108.8 70.4 201.6 168.8 235.2 0 1.6-0.8 3.2-0.8 4.8v32c0 17.6 14.4 30.4 32 30.4h72c17.6 0 32-12.8 32-30.4V776h184v25.6c0 17.6 14.4 30.4 32 30.4h72c17.6 0 32-12.8 32-30.4v-56c0-2.4-0.8-5.6-0.8-8 68-44 112.8-120.8 112.8-208v-24C888 368.8 776.8 256 640 256z" fill="#FC8BA4" /><path d="M304 424a24 16 90 1 0 32 0 24 16 90 1 0-32 0Z" fill="#A81000" /><path d="M744 792h-72c-17.6 0-32-28-32-40s-7.2-16-16-16H472c-5.6 0-16 4-16 16s-14.4 32-32 32h-56c-17.6 0-32-13.6-32-31.2 0 0 0-35.2 0.8-36.8-93.6-31.2-177.6-124.8-184-227.2 0 5.6-0.8 11.2-0.8 16.8v24c0 108.8 70.4 201.6 168.8 235.2 0 1.6-0.8 3.2-0.8 4.8v32c0 17.6 14.4 30.4 32 30.4h72c17.6 0 32-12.8 32-30.4V776h184v25.6c0 17.6 14.4 30.4 32 30.4h72c17.6 0 32-12.8 32-30.4v-56c0 17.6-14.4 46.4-32 46.4z" fill="#ED7494" /><path d="M208 424a24 16 90 1 0 32 0 24 16 90 1 0-32 0Z" fill="#A81000" /><path d="M272 656c-4.8 0-8-4-8-8 0-4.8 4-8 8-8 1.6 0 39.2-0.8 55.2-50.4 1.6-4 6.4-6.4 10.4-4.8 4 1.6 6.4 6.4 5.6 10.4-20 60-68.8 60.8-71.2 60.8zM860 385.6c-3.2 0-6.4-1.6-7.2-4.8-1.6-4 0-8.8 4-10.4 1.6-0.8 24.8-11.2 37.6-30.4-11.2-2.4-22.4-7.2-30.4-12.8-15.2-9.6-24-22.4-24-35.2 0-17.6 12-32.8 28-36 6.4-1.6 29.6-3.2 44.8 32.8 5.6 13.6 6.4 26.4 4 37.6 12.8 0 26.4-1.6 39.2-8 4-1.6 8.8 0 10.4 4 1.6 4 0 8.8-4 10.4-16.8 8-35.2 10.4-52 9.6-11.2 20.8-32.8 36-48 42.4 0 0.8-0.8 0.8-2.4 0.8z m14.4-114.4h-3.2c-8.8 1.6-15.2 10.4-15.2 20.8 0 6.4 6.4 14.4 16.8 21.6 8 4.8 17.6 8.8 28.8 11.2 2.4-8.8 1.6-18.4-3.2-29.6-6.4-15.2-15.2-24-24-24z" fill="#A81000" /><path d="M578.4 119.2m-74.4 0a74.4 74.4 0 1 0 148.8 0 74.4 74.4 0 1 0-148.8 0Z" fill="#FBD000" /><path d="M648 320H504c-8.8 0-16-7.2-16-16s7.2-16 16-16h144c8.8 0 16 7.2 16 16s-7.2 16-16 16z" fill="#A81000" /><path d="M744 840h-72c-23.2 0-40-16.8-40-38.4V784H464v17.6c0 21.6-16.8 38.4-40 38.4h-72c-23.2 0-40-16.8-40-38.4v-32c-100.8-36.8-168-132.8-168-240v-24C144 364 259.2 248 400 248h240c140.8 0 256 116 256 257.6v24c0 84.8-41.6 164-112 212v60c0 21.6-16.8 38.4-40 38.4z m-288-72h184c4.8 0 8 3.2 8 8v25.6c0 12.8 10.4 22.4 24 22.4h72c13.6 0 24-9.6 24-22.4v-56c0-1.6 0-4-0.8-5.6-0.8-3.2 0.8-7.2 3.2-8.8 68.8-44.8 109.6-120 109.6-201.6v-24C880 372.8 772 264 640 264H400c-132 0-240 108.8-240 241.6v24c0 103.2 65.6 194.4 163.2 227.2 4 1.6 5.6 4.8 5.6 8.8 0 1.6-0.8 2.4-0.8 4v32c0 12.8 10.4 22.4 24 22.4h72c13.6 0 24-9.6 24-22.4V776c0-4.8 3.2-8 8-8z" fill="#A81000" /><path d="M456.8 282.4s-45.6-59.2-119.2-62.4c-73.6-3.2-40 17.6-27.2 39.2 5.6 9.6 12.8 32.8 18.4 55.2" fill="#FC8BA4" /><path d="M325.6 320c-4 0-7.2-2.4-8-6.4-9.6-35.2-15.2-48.8-17.6-54.4-2.4-4-5.6-8-8-11.2-7.2-9.6-15.2-19.2-9.6-28.8 4.8-9.6 20-12.8 53.6-11.2 77.6 4 125.6 64 128 66.4 2.4 3.2 2.4 8.8-1.6 11.2-3.2 2.4-8.8 2.4-11.2-1.6-0.8-0.8-45.6-56.8-115.2-60-27.2-1.6-36 0.8-38.4 2.4 0.8 2.4 5.6 8 8 12 3.2 4 6.4 8.8 9.6 13.6 4.8 8.8 12 28.8 19.2 57.6 0.8 4-1.6 8.8-5.6 9.6-1.6 0.8-2.4 0.8-3.2 0.8z" fill="#A81000" /><path d="M288 544c0 40-32 72-72 72h-32c-40 0-72-32-72-72s32-72 72-72h32c40 0 72 32 72 72z" fill="#FC8BA4" /><path d="M216 584h-32c-34.4 0-63.2-23.2-70.4-55.2-0.8 4.8-1.6 10.4-1.6 15.2 0 40 32 71.2 72 71.2h32c40 0 72-31.2 72-71.2 0-5.6-0.8-11.2-1.6-16.8-7.2 33.6-36 56.8-70.4 56.8z" fill="#ED7494" /><path d="M216 624h-32c-44 0-80-36-80-80s36-80 80-80h32c44 0 80 36 80 80s-36 80-80 80z m-32-144c-35.2 0-64 28.8-64 64s28.8 64 64 64h32c35.2 0 64-28.8 64-64s-28.8-64-64-64h-32z" fill="#A81000" /><path d="M152 539.2a12 11.2 0 1 0 24 0 12 11.2 0 1 0-24 0Z" fill="#E25D80" /><path d="M200 539.2a12 11.2 0 1 0 24 0 12 11.2 0 1 0-24 0Z" fill="#E25D80" /><path d="M580 200C533.6 200 496 162.4 496 116S533.6 32 580 32 664 69.6 664 116 626.4 200 580 200z m0-152C542.4 48 512 78.4 512 116s30.4 68 68 68 68-30.4 68-68S617.6 48 580 48z" fill="#A81000" /><path d="M536 115.2a44 43.2 0 1 0 88 0 44 43.2 0 1 0-88 0Z" fill="#F4B10B" /><path d="M744 772c-4.8 0-8-3.2-8-8 0-52.8 16-65.6 28-74.4l2.4-1.6c7.2-6.4 73.6-62.4 73.6-188 0-31.2-8.8-60.8-25.6-88-2.4-4-0.8-8.8 2.4-11.2 4-2.4 8.8-0.8 11.2 2.4 18.4 29.6 27.2 62.4 27.2 96 0 132.8-71.2 193.6-80 200l-2.4 2.4c-9.6 7.2-21.6 16-21.6 61.6 0.8 4.8-2.4 8.8-7.2 8.8zM783.2 370.4c-2.4 0-4-0.8-5.6-2.4-32-32-64.8-48-65.6-48-4-1.6-5.6-7.2-4-11.2 1.6-4 6.4-5.6 10.4-4 1.6 0.8 36 17.6 69.6 51.2 3.2 3.2 3.2 8.8 0 12 0 1.6-2.4 2.4-4.8 2.4zM256 537.6c-3.2 0-6.4-2.4-8-5.6-5.6-19.2-27.2-20-53.6-20h-8c-4.8 0-8-4-8-8 0-4.8 4-8 8-8h8c24-0.8 59.2-0.8 69.6 31.2 1.6 4-0.8 8.8-5.6 10.4H256zM416 288c-1.6 0-4-0.8-5.6-2.4-36.8-33.6-74.4-38.4-74.4-38.4-4-0.8-7.2-4.8-7.2-8.8 0.8-4 4.8-7.2 8.8-6.4 1.6 0 43.2 5.6 83.2 42.4 3.2 3.2 3.2 8 0 11.2-0.8 1.6-2.4 2.4-4.8 2.4zM272.8 271.2c-1.6 0-4-0.8-5.6-2.4-10.4-10.4-34.4-13.6-43.2-14.4-4.8 0-8-4-7.2-8.8 0-4.8 4-8 8.8-7.2 1.6 0 36 3.2 52.8 19.2 3.2 3.2 3.2 8 0 11.2-0.8 1.6-3.2 2.4-5.6 2.4zM640 352H512c-4.8 0-8-3.2-8-8s3.2-8 8-8h128c4.8 0 8 3.2 8 8s-3.2 8-8 8zM232 376c-1.6 0-2.4 0-4-0.8-3.2-2.4-4.8-7.2-2.4-10.4 23.2-36.8 65.6-56.8 67.2-57.6 4-1.6 8 0 10.4 4 1.6 4 0 8-4 10.4 0 0-40 19.2-60.8 52-1.6 0.8-4 2.4-6.4 2.4z" fill="#FFFFFF" opacity=".5" /><path d="M792.8 840H192c-4.8 0-8-3.2-8-8s3.2-8 8-8h600.8c4.8 0 8 3.2 8 8s-4 8-8 8zM920 840h-80c-4 0-8-3.2-8-8s3.2-8 8-8h80c4 0 8 3.2 8 8s-3.2 8-8 8z" fill="#A81000" /><path d="M375.2 176c-16.8 0-31.2-14.4-31.2-32s13.6-32 31.2-32 31.2 14.4 31.2 32-14.4 32-31.2 32z m0-48.8c-8.8 0-16.8 8-16.8 16.8 0 9.6 7.2 16.8 16.8 16.8s16.8-8 16.8-16.8c0-9.6-8-16.8-16.8-16.8zM424 952c-17.6 0-32-14.4-32-32s14.4-32 32-32 32 14.4 32 32-14.4 32-32 32z m0-48.8c-9.6 0-16.8 8-16.8 16.8 0 9.6 8 16.8 16.8 16.8s16.8-8 16.8-16.8c0-9.6-7.2-16.8-16.8-16.8zM678.4 178.4c0-3.2 3.2-6.4 8-7.2l15.2-2.4c4-0.8 8.8-4.8 8.8-8.8l2.4-15.2c0.8-4 4-8 7.2-8s6.4 3.2 7.2 8L728 160c0.8 4 4.8 8.8 8.8 8.8l15.2 2.4c4 0.8 8 4 8 7.2s-3.2 6.4-8 7.2l-15.2 2.4c-4 0.8-8.8 4.8-8.8 8.8l-2.4 15.2c-0.8 4-4 8-7.2 8s-6.4-3.2-6.4-8l-2.4-16.8c-0.8-4-4.8-8-8.8-8.8l-14.4-0.8c-4.8-1.6-8-4-8-7.2zM733.6 347.2c0-3.2-3.2-6.4-8-7.2l-38.4-6.4c-4-0.8-8.8-4.8-9.6-9.6l-6.4-38.4c-0.8-4-4-8-7.2-8s-6.4 3.2-7.2 8l-6.4 38.4c-0.8 4-4.8 8.8-9.6 9.6l-38.4 6.4c-4 0.8-8 4-8 7.2s3.2 6.4 8 7.2l37.6 5.6c4 0.8 8.8 4.8 9.6 8.8l7.2 40c0.8 4 4 8 7.2 8s6.4-3.2 7.2-8l7.2-40.8c0.8-4 4.8-8 9.6-8.8l37.6-4.8c4 0 8-3.2 8-7.2z" fill="#FFFFFF" /><path d="M562.4 712c-32.8 0-65.6-3.2-96.8-9.6-4-0.8-7.2-5.6-6.4-9.6 0.8-4.8 4.8-7.2 9.6-6.4 29.6 6.4 60.8 9.6 93.6 9.6 126.4 0 192.8-64 193.6-64.8 3.2-3.2 8-3.2 11.2 0 3.2 3.2 3.2 8.8 0 12-2.4 2.4-71.2 68.8-204.8 68.8z" fill="#FFFFFF" opacity=".5" /></svg>