<?xml version="1.0" standalone="no"?><!DOCTYPE svg PUBLIC "-//W3C//DTD SVG 1.1//EN" "http://www.w3.org/Graphics/SVG/1.1/DTD/svg11.dtd"><svg class="icon" width="200px" height="200.00px" viewBox="0 0 1024 1024" version="1.1" xmlns="http://www.w3.org/2000/svg"><path d="M512 512m-512 0a512 512 0 1 0 1024 0 512 512 0 1 0-1024 0Z" fill="#3AD0F9" /><path d="M196 635.2V436c0-92 76-168 168-168h328c92 0 168 76 168 168v199.2h-664z" fill="#EAEAEA" /><path d="M692 268H592c92 0 168 76 168 168v199.2h100V436c0-92.8-75.2-168-168-168z" fill="#D4D6D6" /><path d="M864 648H196c-4.8 0-8-3.2-8-8V436c0-97.6 80.8-180 176-180h328C789.6 256 872 338.4 872 436V640c0 4.8-3.2 8-8 8z m-660-16H856V436C856 348.8 779.2 272 692 272h-328c-86.4 0-160 75.2-160 164V632z" fill="#663210" /><path d="M173.6 635.2V436c0-92 76-168 168-168h5.6c92 0 168 76 168 168v199.2H173.6z" fill="#FFFFFF" /><path d="M512 648H168c-4.8 0-8-3.2-8-8V436C160 340 244.8 256 341.6 256h5.6C444.8 256 520 333.6 520 432v208c0 4.8-3.2 8-8 8z m-336-16h328V432c0-89.6-68.8-160-156-160h-5.6C253.6 272 176 348.8 176 436V632z" fill="#663210" /><path d="M614.4 113.6l128 51.2-128 51.2z" fill="#FF4848" /><path d="M576 113.6h37.6v301.6H576z" fill="#EAEAEA" /><path d="M616 423.2h-40c-4.8 0-8-3.2-8-8V112c0-4.8 3.2-8 8-8h40c4.8 0 8 3.2 8 8v303.2c0 4.8-3.2 8-8 8z m-32-16h24V120h-24v287.2z" fill="#663210" /><path d="M621.6 432m-50.4 0a50.4 50.4 0 1 0 100.8 0 50.4 50.4 0 1 0-100.8 0Z" fill="#EAEAEA" /><path d="M624 432m-24 0a24 24 0 1 0 48 0 24 24 0 1 0-48 0Z" fill="#FFFFFF" /><path d="M448 496c0 17.6-14.4 32-32 32H264c-17.6 0-32-14.4-32-32v-32c0-17.6 14.4-32 32-32h152c17.6 0 32 14.4 32 32v32z" fill="#EAEAEA" /><path d="M408 472H272c-4.8 0-8-3.2-8-8s4-8 8-8h136c4.8 0 8 3.2 8 8s-4 8-8 8zM384 504h-32c-4.8 0-8-3.2-8-8s4-8 8-8h32c4.8 0 8 3.2 8 8s-4 8-8 8z" fill="#ADADAD" /><path d="M485.6 1023.2c9.6 0.8 19.2 0.8 28.8 0.8 17.6 0 34.4-0.8 51.2-2.4V636h-80v387.2z" fill="#AD5114" /><path d="M485.6 638.4h80V672h-80z" fill="#993F0D" /><path d="M320 504h-48c-4 0-8-3.2-8-8s3.2-8 8-8h48c4 0 8 3.2 8 8s-3.2 8-8 8z" fill="#ADADAD" /><path d="M520 968c-4.8 0-8-4-8-8V696c0-4.8 3.2-8 8-8s8 4 8 8v264c0 4-3.2 8-8 8z" fill="#663210" /><path d="M565.6 632h-80c-4.8 0-5.6-0.8-5.6 4V1024c5.6 0 10.4-0.8 16 0V648h64v374.4c5.6-0.8 10.4-0.8 16-1.6V636c0-4.8-6.4-4-10.4-4zM624 488c-32.8 0-56-23.2-56-56s23.2-56 56-56 56 23.2 56 56-23.2 56-56 56z m0-96c-23.2 0-40 16.8-40 40s16.8 40 40 40 40-16.8 40-40-16.8-40-40-40zM616 224c-3.2 0 2.4-1.6 1.6-4.8-1.6-4-8-8.8-4-10.4l109.6-44L612.8 120c-4-1.6-6.4-6.4-4.8-10.4 1.6-4 6.4-6.4 10.4-4.8l128 52c3.2 1.6 4.8 4 4.8 7.2s-1.6 6.4-4.8 7.2l-128 52c-0.8 0-1.6 0.8-2.4 0.8z" fill="#663210" /><path d="M824 608c-4 0-8-3.2-8-8V431.2c0-28-10.4-60-25.6-79.2-17.6-21.6-41.6-32-41.6-32.8-4-1.6-5.6-6.4-4-10.4 1.6-4 6.4-6.4 10.4-4 0.8 0.8 28 12 48 36.8 17.6 21.6 29.6 57.6 29.6 89.6V600c-0.8 4.8-4 8-8.8 8zM677.6 172h-2.4L639.2 160c-4-1.6-6.4-5.6-4.8-10.4 1.6-4 5.6-6.4 10.4-4.8l36 12c4 1.6 6.4 5.6 4.8 10.4-1.6 2.4-4.8 4.8-8 4.8zM456 184c-17.6 0-32-14.4-32-32s14.4-32 32-32 32 14.4 32 32-14.4 32-32 32z m0-48c-8.8 0-16 7.2-16 16s7.2 16 16 16 16-7.2 16-16-7.2-16-16-16zM344 856c-17.6 0-32-14.4-32-32s14.4-32 32-32 32 14.4 32 32-14.4 32-32 32z m0-48c-8.8 0-16 7.2-16 16s7.2 16 16 16 16-7.2 16-16-7.2-16-16-16zM770.4 824c0-3.2-3.2-6.4-8-7.2l-15.2-2.4c-4-0.8-8.8-4.8-8.8-8.8l-2.4-15.2c-0.8-4-4-8-7.2-8s-6.4 3.2-7.2 8l-2.4 15.2c-0.8 4-4.8 8.8-8.8 8.8l-15.2 2.4c-4 0.8-8 4-8 7.2s3.2 6.4 8 7.2l15.2 2.4c4 0.8 8.8 4.8 8.8 8.8l2.4 15.2c0.8 4 4 8 7.2 8s6.4-3.2 6.4-8l2.4-16.8c0.8-4 4.8-8 8.8-8.8l14.4-0.8c6.4-1.6 9.6-4 9.6-7.2zM326.4 176c0-3.2-3.2-6.4-8-7.2l-14.4-1.6c-4-0.8-8.8-4.8-8.8-8.8l-2.4-15.2c-0.8-4-4-8-7.2-8s-6.4 3.2-7.2 8l-2.4 15.2c-0.8 4-4.8 8.8-8.8 8.8l-15.2 2.4c-4 0.8-8 4-8 7.2s3.2 6.4 8 7.2l15.2 2.4c4 0.8 8.8 4.8 8.8 8.8l2.4 15.2c0.8 4 4 8 7.2 8s6.4-3.2 6.4-8l2.4-16.8c0.8-4 4.8-8 8.8-8.8l14.4-0.8c5.6-2.4 8.8-4.8 8.8-8zM251.2 746.4c0-3.2-3.2-6.4-8-7.2l-15.2-2.4c-4-0.8-8.8-4.8-8.8-8.8l-2.4-15.2c-0.8-4-4-8-7.2-8s-6.4 3.2-7.2 8l-1.6 15.2c-0.8 4-4.8 8.8-8.8 8.8l-15.2 2.4c-4 0.8-8 4-8 7.2s3.2 6.4 8 7.2l15.2 2.4c4 0.8 8.8 4.8 8.8 8.8l2.4 15.2c0.8 4 4 8 7.2 8s6.4-3.2 6.4-8l2.4-16.8c0.8-4 4.8-8 8.8-8.8l14.4-0.8c5.6-1.6 8.8-4 8.8-7.2z" fill="#FFFFFF" /></svg>