<?xml version="1.0" standalone="no"?><!DOCTYPE svg PUBLIC "-//W3C//DTD SVG 1.1//EN" "http://www.w3.org/Graphics/SVG/1.1/DTD/svg11.dtd"><svg class="icon" width="200px" height="200.00px" viewBox="0 0 1024 1024" version="1.1" xmlns="http://www.w3.org/2000/svg"><path d="M512 512m-512 0a512 512 0 1 0 1024 0 512 512 0 1 0-1024 0Z" fill="#FF4848" /><path d="M949.6 848H92.8c-4.8 0-8-3.2-8-8s3.2-8 8-8h856.8c4.8 0 8 3.2 8 8s-4 8-8 8z" fill="#074370" /><path d="M428 824c0 8.8-7.2 16-16 16H322.4c-8.8 0-16-7.2-16-16v-68c0-8.8 7.2-16 16-16h89.6c8.8 0 16 7.2 16 16v68zM732 824c0 8.8-7.2 16-16 16H626.4c-8.8 0-16-7.2-16-16v-68c0-8.8 7.2-16 16-16h89.6c8.8 0 16 7.2 16 16v68z" fill="#3AD0F9" /><path d="M309.6 796H424v18.4H309.6zM613.6 796H728v18.4H613.6z" fill="#00B3F9" /><path d="M416 848H320c-13.6 0-24-10.4-24-24v-68c0-13.6 10.4-24 24-24h96c13.6 0 24 10.4 24 24v68c0 13.6-10.4 24-24 24zM320 748c-4.8 0-8 3.2-8 8v68c0 4.8 3.2 8 8 8h96c4.8 0 8-3.2 8-8v-68c0-4.8-3.2-8-8-8H320zM720 848H624c-13.6 0-24-10.4-24-24v-68c0-13.6 10.4-24 24-24h96c13.6 0 24 10.4 24 24v68c0 13.6-10.4 24-24 24zM624 748c-4.8 0-8 3.2-8 8v68c0 4.8 3.2 8 8 8h96c4.8 0 8-3.2 8-8v-68c0-4.8-3.2-8-8-8H624z" fill="#074370" /><path d="M826.4 728c0 35.2-28.8 64-64 64h-480c-35.2 0-64-28.8-64-64V274.4c0-35.2 28.8-64 64-64h480c35.2 0 64 28.8 64 64V728z" fill="#3AD0F9" /><path d="M762.4 682.4c0 26.4-21.6 48-48 48H356.8c-26.4 0-48-21.6-48-48V320c0-26.4 21.6-48 48-48h357.6c26.4 0 48 21.6 48 48v362.4z" fill="#3AD0F9" /><path d="M714.4 696H356.8c-26.4 0-48-21.6-48-48v28c0 26.4 21.6 48 48 48h357.6c26.4 0 48-21.6 48-48V648c0 26.4-21.6 48-48 48z" fill="#00B3F9" /><path d="M762.4 752h-480c-35.2 0-64-28.8-64-64v36c0 35.2 28.8 64 64 64h480c35.2 0 64-28.8 64-64V688c0 35.2-28.8 64-64 64z" fill="#00B3F9" /><path d="M712 736H360c-31.2 0-56-24.8-56-56V320c0-31.2 24.8-56 56-56h352c31.2 0 56 24.8 56 56v360c0 31.2-24.8 56-56 56zM360 280c-22.4 0-40 17.6-40 40v360c0 22.4 17.6 40 40 40h352c22.4 0 40-17.6 40-40V320c0-22.4-17.6-40-40-40H360z" fill="#074370" /><path d="M705.6 608c-9.6 0-17.6-7.2-17.6-16v-69.6c0-8.8 8-16 17.6-16h4.8c9.6 0 17.6 7.2 17.6 16V592c0 8.8-8 16-17.6 16h-4.8z" fill="#00B3F9" /><path d="M416 540a116 116 0 1 0 232 0 116 116 0 1 0-232 0Z" fill="#00B3F9" /><path d="M307.2 418.4c-8.8 0-16-7.2-16-16v-46.4c0-8.8 7.2-16 16-16h8c8.8 0 16 7.2 16 16v46.4c0 8.8-7.2 16-16 16h-8zM707.2 584.8c-8.8 0-16-7.2-16-16v-68c0-8.8 7.2-16 16-16h4c8.8 0 16 7.2 16 16v68c0 8.8-7.2 16-16 16h-4zM307.2 662.4c-8.8 0-16-7.2-16-16V600c0-8.8 7.2-16 16-16h8c8.8 0 16 7.2 16 16v46.4c0 8.8-7.2 16-16 16h-8z" fill="#3AD0F9" /><path d="M534.4 508m-115.2 0a115.2 115.2 0 1 0 230.4 0 115.2 115.2 0 1 0-230.4 0Z" fill="#3AD0F9" /><path d="M536 528m-56 0a56 56 0 1 0 112 0 56 56 0 1 0-112 0Z" fill="#00B3F9" /><path d="M534.4 508m-58.4 0a58.4 58.4 0 1 0 116.8 0 58.4 58.4 0 1 0-116.8 0Z" fill="#3AD0F9" /><path d="M536 452.8c-4.8 0-8-4-8-8.8v-19.2c0-4.8 3.2-8.8 8-8.8s8 4 8 8.8v19.2c0 4.8-3.2 8.8-8 8.8zM536 584c-4.8 0-8-3.2-8-7.2V560c0-4 3.2-7.2 8-7.2s8 3.2 8 7.2v16.8c0 4-3.2 7.2-8 7.2zM615.2 512h-19.2c-4.8 0-8.8-3.2-8.8-8s4-8 8.8-8h19.2c4.8 0 8.8 3.2 8.8 8s-4 8-8.8 8zM473.6 512H456c-4.8 0-8-3.2-8-8s3.2-8 8-8h17.6c4.8 0 8 3.2 8 8s-3.2 8-8 8zM592 568c-2.4 0-4-0.8-5.6-2.4l-12.8-12c-3.2-3.2-3.2-8 0-10.4 3.2-3.2 8.8-3.2 12 0l12.8 12c3.2 3.2 3.2 8 0 10.4-2.4 1.6-4.8 2.4-6.4 2.4zM492 471.2c-1.6 0-4-0.8-5.6-2.4l-12-13.6c-3.2-3.2-3.2-8.8 0-12 3.2-3.2 8-3.2 11.2 0l12 13.6c3.2 3.2 3.2 8.8 0 12-1.6 1.6-4 2.4-5.6 2.4zM480 568c-1.6 0-4-0.8-5.6-2.4-3.2-3.2-3.2-8 0-10.4l12-12c3.2-3.2 8-3.2 11.2 0 3.2 3.2 3.2 8 0 10.4l-12 12c-1.6 1.6-4 2.4-5.6 2.4zM578.4 471.2c-2.4 0-4-0.8-5.6-2.4-3.2-3.2-3.2-8.8 0-12l13.6-13.6c3.2-3.2 8.8-3.2 12 0s3.2 8.8 0 12L584 468.8c-1.6 1.6-3.2 2.4-5.6 2.4z" fill="#074370" /><path d="M760 800H280c-40 0-72-32-72-72V272c0-40 32-72 72-72h480c40 0 72 32 72 72v456c0 40-32 72-72 72zM280 216c-31.2 0-56 24.8-56 56v456c0 31.2 24.8 56 56 56h480c31.2 0 56-24.8 56-56V272c0-31.2-24.8-56-56-56H280z" fill="#074370" /><path d="M320 424h-16c-13.6 0-24-10.4-24-24v-48c0-13.6 10.4-24 24-24h16c13.6 0 24 10.4 24 24v48c0 13.6-10.4 24-24 24z m-16-80c-4.8 0-8 3.2-8 8v48c0 4.8 3.2 8 8 8h16c4.8 0 8-3.2 8-8v-48c0-4.8-3.2-8-8-8h-16zM320 672h-16c-13.6 0-24-10.4-24-24v-48c0-13.6 10.4-24 24-24h16c13.6 0 24 10.4 24 24v48c0 13.6-10.4 24-24 24z m-16-80c-4.8 0-8 3.2-8 8v48c0 4.8 3.2 8 8 8h16c4.8 0 8-3.2 8-8v-48c0-4.8-3.2-8-8-8h-16zM704 592c-12.8 0-24-10.4-24-24v-64c0-12.8 10.4-24 24-24h8c13.6 0 24 10.4 24 24v64c0 12.8-10.4 24-24 24h-8z m0-96c-4.8 0-8 3.2-8 8v64c0 4 3.2 8 8 8v8-8h8c4.8 0 8-4 8-8v-64c0-4-3.2-8-8-8h-8zM534.4 632C465.6 632 408 575.2 408 508S465.6 384 534.4 384C601.6 384 656 439.2 656 508 656 576 601.6 632 534.4 632z m0-232C474.4 400 424 449.6 424 508S474.4 616 534.4 616C592.8 616 640 567.2 640 508 640 448 592.8 400 534.4 400z" fill="#074370" /><path d="M536 568c-35.2 0-64-28.8-64-64s28.8-64 64-64 64 28.8 64 64-28.8 64-64 64z m0-112.8c-26.4 0-48.8 21.6-48.8 48.8 0 26.4 21.6 48.8 48.8 48.8s48.8-21.6 48.8-48.8c0-26.4-22.4-48.8-48.8-48.8z" fill="#074370" /><path d="M552 536c-1.6 0-4-0.8-5.6-2.4-3.2-3.2-3.2-8 0-10.4 8-8 8-21.6 0-29.6s-21.6-8-29.6 0c-3.2 3.2-8 3.2-10.4 0-3.2-3.2-3.2-8 0-10.4 14.4-14.4 36.8-14.4 51.2 0 14.4 14.4 14.4 36.8 0 51.2-1.6 0.8-3.2 1.6-5.6 1.6zM792 724c-4.8 0-8-3.2-8-8V585.6c0-4.8 3.2-8 8-8s8 3.2 8 8v130.4c0 4-3.2 8-8 8zM792 505.6c-4.8 0-8-3.2-8-8V288c0-22.4-17.6-40-40-40H419.2c-4.8 0-8-3.2-8-8s3.2-8 8-8H744c31.2 0 56 24.8 56 56v209.6c0 4.8-3.2 8-8 8zM376 248H295.2c-4 0-8-3.2-8-8s3.2-8 8-8H376c4 0 8 3.2 8 8s-3.2 8-8 8zM312 392c-4.8 0-8-4-8-8.8v-22.4c0-4.8 3.2-8.8 8-8.8s8 4 8 8.8v22.4c0 4.8-4 8.8-8 8.8zM312 640c-4.8 0-8-4-8-8.8v-22.4c0-4.8 3.2-8.8 8-8.8s8 4 8 8.8v22.4c0 4.8-4 8.8-8 8.8z" fill="#FFFFFF" /><path d="M147.2 421.6c0-3.2-3.2-6.4-8-7.2l-15.2-2.4c-4-0.8-8.8-4.8-8.8-8.8l-2.4-15.2c-0.8-4-4-8-7.2-8s-6.4 3.2-7.2 8l-2.4 15.2c-0.8 4-4.8 8.8-8.8 8.8l-15.2 2.4c-4 0.8-8 4-8 7.2s3.2 6.4 8 7.2l15.2 2.4c4 0.8 8.8 4.8 8.8 8.8l2.4 15.2c0.8 4 4 8 7.2 8s6.4-3.2 6.4-8l2.4-16.8c0.8-4 4.8-8 8.8-8.8l14.4-0.8c6.4-0.8 9.6-4 9.6-7.2zM702.4 128c0-3.2-3.2-6.4-8-7.2l-15.2-2.4c-4-0.8-8.8-4.8-8.8-8.8l-2.4-15.2c-0.8-4-4-8-7.2-8s-6.4 3.2-7.2 8l-2.4 15.2c-0.8 4-4.8 8.8-8.8 8.8l-15.2 2.4c-4 0.8-8 4-8 7.2s3.2 6.4 8 7.2l15.2 2.4c4 0.8 8.8 4.8 8.8 8.8l2.4 15.2c0.8 4 4 8 7.2 8s6.4-3.2 6.4-8l2.4-16.8c0.8-4 4.8-8 8.8-8.8l14.4-0.8c5.6-0.8 9.6-4 9.6-7.2zM944.8 589.6c0-3.2-3.2-6.4-8-7.2l-15.2-2.4c-4-0.8-8.8-4.8-8.8-8.8l-2.4-15.2c-0.8-4-4-8-7.2-8s-6.4 3.2-7.2 8l-2.4 15.2c-0.8 4-4.8 8.8-8.8 8.8l-15.2 2.4c-4 0.8-8 4-8 7.2s3.2 6.4 8 7.2l15.2 2.4c4 0.8 8.8 4.8 8.8 8.8l2.4 15.2c0.8 4 4 8 7.2 8s6.4-3.2 6.4-8l2.4-16.8c0.8-4 4.8-8 8.8-8.8l14.4-0.8c5.6-0.8 9.6-4 9.6-7.2zM424 144c-17.6 0-32-14.4-32-32s14.4-32 32-32 32 14.4 32 32-14.4 32-32 32z m0-48c-8.8 0-16 7.2-16 16s7.2 16 16 16 16-7.2 16-16-7.2-16-16-16zM136 656c-17.6 0-32-14.4-32-32s14.4-32 32-32 32 14.4 32 32-14.4 32-32 32z m0-48.8c-9.6 0-16.8 8-16.8 16.8 0 9.6 8 16.8 16.8 16.8 9.6 0 16.8-8 16.8-16.8 0-9.6-7.2-16.8-16.8-16.8z" fill="#FFFFFF" opacity=".5" /></svg>