<?xml version="1.0" standalone="no"?><!DOCTYPE svg PUBLIC "-//W3C//DTD SVG 1.1//EN" "http://www.w3.org/Graphics/SVG/1.1/DTD/svg11.dtd"><svg class="icon" width="200px" height="200.00px" viewBox="0 0 1024 1024" version="1.1" xmlns="http://www.w3.org/2000/svg"><path d="M512 512m-512 0a512 512 0 1 0 1024 0 512 512 0 1 0-1024 0Z" fill="#FC8BA4" /><path d="M832 729.6c12.8 12.8 12.8 32.8 0 45.6l-8 8c-12.8 12.8-32.8 12.8-45.6 0l-488-488c-12.8-12.8-12.8-32.8 0-45.6l8-8c12.8-12.8 32.8-12.8 45.6 0l488 488z" fill="#AD5114" /><path d="M804 760.8L312.8 269.6c-9.6-9.6-11.2-23.2-5.6-34.4-2.4 1.6-5.6 3.2-8 5.6l-10.4 10.4c-12 12-12 30.4 0 42.4L780 784c12 12 30.4 12 42.4 0l10.4-10.4c2.4-2.4 4-4.8 5.6-8-11.2 6.4-24.8 4-34.4-4.8z" fill="#993F0D" /><path d="M800 800c-10.4 0-20.8-4-28-12l-487.2-488c-15.2-15.2-15.2-40.8 0-56.8l8-8c7.2-7.2 17.6-12 28-12 10.4 0 20.8 4 28 12l487.2 488c7.2 7.2 12 17.6 12 28 0 10.4-4 20.8-12 28l-8 8c-7.2 8.8-16.8 12.8-28 12.8zM320.8 240c-6.4 0-12.8 2.4-16.8 7.2l-8 8c-9.6 9.6-9.6 24.8 0 33.6l487.2 488c8.8 8.8 24.8 8.8 33.6 0l8-8c4.8-4.8 7.2-10.4 7.2-16.8s-2.4-12.8-7.2-16.8l-487.2-488c-4-4.8-10.4-7.2-16.8-7.2z" fill="#663210" /><path d="M388 114.4l-23.2 23.2 0.8 0.8c8.8 8.8 8.8 22.4 0 31.2s-22.4 8.8-31.2 0l-0.8-0.8-130.4 129.6c-14.4 14.4-14.4 38.4 0 52.8l52.8 52.8c14.4 14.4 38.4 14.4 52.8 0l129.6-129.6c-8-8.8-8-22.4 0.8-30.4 8.8-8.8 21.6-8.8 30.4-0.8l23.2-23.2c14.4-14.4 14.4-38.4 0-52.8L440 114.4c-13.6-15.2-37.6-15.2-52 0zM503.2 534.4c-12.8 12.8-32 12.8-44 1.6-11.2-11.2-11.2-31.2 1.6-44l304-304c12.8-12.8 32-12.8 44-1.6 11.2 11.2 11.2 31.2-1.6 44l-304 304z" fill="#EAEAEA" /><path d="M808.8 187.2c-2.4-2.4-5.6-4-8.8-5.6 4.8 11.2 2.4 25.6-7.2 35.2l-304 304c-9.6 9.6-24 12-35.2 7.2 1.6 3.2 3.2 5.6 5.6 8.8 11.2 11.2 31.2 11.2 44-1.6l304-304c12-12.8 12.8-32 1.6-44z" fill="#D3D1D1" /><path d="M480 552.8c-9.6 0-19.2-4-25.6-10.4-7.2-7.2-11.2-16.8-10.4-28 0-10.4 4.8-20 12-28l303.2-306.4c8-8 18.4-12 28.8-12 9.6 0 19.2 4 25.6 10.4 14.4 15.2 13.6 40-1.6 55.2L508.8 540c-8 8-18.4 12.8-28.8 12.8zM787.2 184c-6.4 0-12.8 2.4-17.6 7.2L467.2 497.6c-9.6 9.6-10.4 24-1.6 32.8 8 8 23.2 7.2 32-1.6l303.2-306.4c9.6-9.6 10.4-24 1.6-32.8-4-3.2-8.8-5.6-15.2-5.6z" fill="#663210" /><path d="M301.6 796c-24.8 24.8-65.6 24.8-90.4 0L199.2 784c-24.8-24.8-24.8-65.6 0-90.4L384 508.8c24.8-24.8 65.6-24.8 90.4 0l12 12c24.8 24.8 24.8 65.6 0 90.4L301.6 796z" fill="#FF4848" /><path d="M481.6 547.2c-3.2 8.8-8 16.8-14.4 24l-176 175.2c-23.2 23.2-61.6 23.2-84.8 0L188.8 728c-2.4-2.4-4.8-5.6-7.2-8.8-6.4 20.8-1.6 44.8 14.4 60.8l18.4 18.4c23.2 23.2 61.6 23.2 84.8 0L489.6 608c28-43.2 16.8-47.2-8-60.8z" fill="#A81000" opacity=".5" /><path d="M259.2 824c-19.2 0-36.8-7.2-50.4-21.6l-12-12c-13.6-13.6-20.8-32-20.8-51.2 0-19.2 7.2-37.6 20.8-51.2l182.4-186.4c13.6-13.6 31.2-21.6 50.4-21.6s36.8 7.2 50.4 21.6l12 12c28 28 28 74.4 0 103.2l-182.4 186.4c-13.6 13.6-31.2 20.8-50.4 20.8z m169.6-328c-15.2 0-28.8 5.6-39.2 16.8L208 699.2c-10.4 10.4-16 24.8-16 40s5.6 29.6 16 40l12 12c10.4 10.4 24 16.8 39.2 16.8 15.2 0 28.8-5.6 39.2-16.8L480 604.8c21.6-22.4 21.6-57.6 0-80l-12-12c-10.4-10.4-24-16.8-39.2-16.8z" fill="#663210" /><path d="M543.2 562.4c-10.4 10.4-28.8 8.8-41.6-4L438.4 496c-12.8-12.8-14.4-31.2-4-41.6 10.4-10.4 28.8-8.8 41.6 4l63.2 63.2c12.8 12 14.4 30.4 4 40.8z" fill="#FF4848" /><path d="M776.8 224c-2.4 0-4-0.8-6.4-2.4-3.2-3.2-3.2-8.8 0-12l26.4-24.8c3.2-3.2 8.8-3.2 12 0 3.2 3.2 3.2 8.8 0 12l-26.4 24.8c-1.6 1.6-4 2.4-5.6 2.4zM306.4 797.6c-2.4 0-4-0.8-5.6-2.4L205.6 700c-3.2-3.2-3.2-8 0-11.2 3.2-3.2 8-3.2 11.2 0L312 784c3.2 3.2 3.2 8 0 11.2-1.6 1.6-4 2.4-5.6 2.4zM270.4 684c-2.4 0-4-0.8-5.6-2.4-3.2-3.2-3.2-8 0-11.2l113.6-113.6c3.2-3.2 8-3.2 11.2 0 3.2 3.2 3.2 8 0 11.2L276 681.6c-1.6 1.6-4 2.4-5.6 2.4z" fill="#663210" /><path d="M258.4 669.6c-2.4 0-4-0.8-5.6-2.4-3.2-3.2-3.2-8 0-11.2 13.6-13.6 131.2-132 140-139.2 10.4-8.8 30.4-10.4 39.2-6.4 4 1.6 5.6 6.4 3.2 10.4-1.6 4-6.4 5.6-10.4 3.2-3.2-0.8-16 0-22.4 4.8-6.4 5.6-86.4 85.6-138.4 138.4-1.6 1.6-4 2.4-5.6 2.4z" fill="#FFFFFF" opacity=".5" /><path d="M472 196l-23.2 23.2c-8.8-8-22.4-8-30.4 0.8-8.8 8.8-8.8 21.6-0.8 30.4L308.8 358.4c-14.4 14.4-38.4 14.4-52.8 0l-52.8-52.8c-0.8-0.8-1.6-2.4-2.4-3.2-11.2 14.4-10.4 36 2.4 49.6l52.8 52.8c14.4 14.4 38.4 14.4 52.8 0l129.6-129.6c-8-8.8-8-22.4 0.8-30.4 8.8-8.8 21.6-8.8 30.4-0.8l23.2-23.2c13.6-13.6 14.4-35.2 2.4-49.6 0 0.8-21.6 24-23.2 24.8z" fill="#D3D1D1" /><path d="M295.2 708.8c-2.4 0-4-0.8-5.6-2.4-3.2-3.2-3.2-8 0-11.2l113.6-113.6c3.2-3.2 8-3.2 11.2 0 3.2 3.2 3.2 8 0 11.2L300.8 706.4c-1.6 1.6-4 2.4-5.6 2.4zM318.4 732.8c-2.4 0-4-0.8-5.6-2.4-3.2-3.2-3.2-8 0-11.2l113.6-113.6c3.2-3.2 8-3.2 11.2 0s3.2 8 0 11.2L324 730.4c-1.6 1.6-3.2 2.4-5.6 2.4z" fill="#663210" /><path d="M541.6 524c-0.8 4-3.2 8-6.4 11.2-10.4 10.4-28 9.6-40-2.4l-65.6-65.6c-0.8-0.8-0.8-0.8-0.8-1.6-2.4 9.6 0.8 20.8 8.8 28.8l65.6 65.6c12 12 29.6 12.8 40 2.4 9.6-9.6 8.8-27.2-1.6-38.4z" fill="#A81000" /><path d="M282.4 424c-12 0-23.2-4.8-32-13.6l-52.8-52.8c-8.8-8.8-13.6-20-13.6-32s4.8-23.2 13.6-32l129.6-129.6c1.6-1.6 3.2-2.4 5.6-2.4 2.4 0 4 0.8 5.6 2.4 0 0 0.8 0.8 0.8 1.6 4.8 4.8 14.4 4.8 20-0.8 2.4-2.4 4-6.4 4-10.4s-1.6-7.2-4-10.4l-0.8-0.8c-1.6-1.6-2.4-3.2-2.4-5.6 0-2.4 0.8-4 2.4-5.6l23.2-23.2c8.8-8.8 20-13.6 32-13.6s23.2 4.8 32 13.6l52.8 52.8c8.8 8.8 13.6 20 13.6 32s-4.8 23.2-13.6 32l-23.2 23.2c-3.2 3.2-8 3.2-11.2 0-5.6-4.8-14.4-4.8-19.2 0.8-4.8 6.4-5.6 14.4 0 20.8 3.2 3.2 2.4 8 0 11.2L314.4 410.4c-8.8 8.8-20 13.6-32 13.6z m50.4-244L208.8 304.8c-5.6 5.6-8.8 12.8-8.8 20.8s3.2 15.2 8.8 20.8l52.8 52.8c11.2 11.2 30.4 11.2 41.6 0l124.8-124.8c-5.6-11.2-4-25.6 5.6-35.2 8.8-8.8 24-11.2 35.2-5.6l18.4-18.4c5.6-5.6 8.8-12.8 8.8-20.8s-3.2-15.2-8.8-20.8l-52.8-52.8c-11.2-11.2-30.4-11.2-41.6 0l-18.4 18.4c3.2 4.8 4.8 10.4 4.8 16 0 8-3.2 16-8.8 21.6-9.6 8.8-25.6 10.4-37.6 3.2zM520.8 576c-10.4 0-21.6-4.8-29.6-12.8l-62.4-62.4c-15.2-15.2-16.8-38.4-4-52 5.6-5.6 13.6-8.8 22.4-8.8 10.4 0 21.6 4.8 29.6 12.8l62.4 62.4c7.2 7.2 12 16.8 12.8 26.4 0.8 10.4-2.4 19.2-8.8 25.6-5.6 5.6-13.6 8.8-22.4 8.8z m-73.6-120c-3.2 0-8 0.8-11.2 4-7.2 7.2-5.6 20.8 4 29.6l62.4 62.4c4.8 4.8 12 8 18.4 8 3.2 0 8-0.8 11.2-4 3.2-3.2 4.8-8 4-13.6-0.8-5.6-3.2-12-8-16L465.6 464c-4.8-5.6-12-8-18.4-8z" fill="#663210" /><path d="M508.8 527.2c-2.4 0-4-0.8-5.6-2.4l-51.2-51.2c-3.2-3.2-3.2-8 0-11.2 3.2-3.2 8-3.2 11.2 0l51.2 51.2c3.2 3.2 3.2 8 0 11.2-1.6 1.6-3.2 2.4-5.6 2.4z" fill="#FFFFFF" /><path d="M240 757.6c-1.6 0-4-0.8-5.6-2.4l-32.8-31.2c-3.2-3.2-3.2-8 0-11.2 3.2-3.2 8-3.2 11.2 0l32.8 31.2c3.2 3.2 3.2 8 0 11.2-1.6 1.6-3.2 2.4-5.6 2.4zM812 752.8c-2.4 0-4-0.8-5.6-2.4l-68.8-68.8c-3.2-3.2-3.2-8 0-11.2 3.2-3.2 8-3.2 11.2 0l68.8 68.8c3.2 3.2 3.2 8 0 11.2-1.6 1.6-3.2 2.4-5.6 2.4zM713.6 654.4c-2.4 0-4-0.8-5.6-2.4L570.4 515.2c-3.2-3.2-3.2-8 0-11.2 3.2-3.2 8-3.2 11.2 0l137.6 136.8c3.2 3.2 3.2 8 0 11.2-1.6 1.6-3.2 2.4-5.6 2.4zM480 421.6c-2.4 0-4-0.8-5.6-2.4l-67.2-66.4c-3.2-3.2-3.2-8 0-11.2 3.2-3.2 8-3.2 11.2 0l67.2 66.4c3.2 3.2 3.2 8 0 11.2-1.6 1.6-4 2.4-5.6 2.4z" fill="#FFFFFF" opacity=".5" /><path d="M461.6 178.4c-2.4 0-4-0.8-5.6-2.4 0 0-22.4-22.4-36.8-36-4-3.2-6.4-3.2-7.2-3.2-4 0.8-8.8 4.8-9.6 6.4-2.4 3.2-7.2 4-11.2 1.6-3.2-2.4-4-8-1.6-11.2 0.8-0.8 8.8-11.2 20.8-12.8 4.8-0.8 12 0.8 19.2 7.2 15.2 13.6 36.8 36 37.6 36 3.2 3.2 3.2 8 0 11.2-0.8 2.4-3.2 3.2-5.6 3.2zM524.8 469.6c-2.4 0-4-0.8-5.6-2.4-3.2-3.2-3.2-8 0-11.2l228.8-230.4c3.2-3.2 8-3.2 11.2 0 3.2 3.2 3.2 8 0 11.2L530.4 467.2c-1.6 1.6-3.2 2.4-5.6 2.4zM184 576c-17.6 0-32-14.4-32-32s14.4-32 32-32 32 14.4 32 32-14.4 32-32 32z m0-48c-8.8 0-16 7.2-16 16s7.2 16 16 16 16-7.2 16-16-7.2-16-16-16zM864 440c-17.6 0-32-14.4-32-32s14.4-32 32-32 32 14.4 32 32-14.4 32-32 32z m0-48c-8.8 0-16 7.2-16 16s7.2 16 16 16 16-7.2 16-16-7.2-16-16-16zM632 200c-17.6 0-32-14.4-32-32s14.4-32 32-32 32 14.4 32 32-14.4 32-32 32z m0-48c-8.8 0-16 7.2-16 16s7.2 16 16 16 16-7.2 16-16-7.2-16-16-16zM640 848c-17.6 0-32-14.4-32-32s14.4-32 32-32 32 14.4 32 32-14.4 32-32 32z m0-48c-8.8 0-16 7.2-16 16s7.2 16 16 16 16-7.2 16-16-7.2-16-16-16zM806.4 512c0-3.2-3.2-6.4-8-7.2l-15.2-2.4c-4-0.8-8.8-4.8-8.8-8.8l-2.4-15.2c-0.8-4-4-8-7.2-8s-6.4 3.2-7.2 8l-2.4 15.2c-0.8 4-4.8 8.8-8.8 8.8l-15.2 2.4c-4 0.8-8 4-8 7.2s3.2 6.4 8 7.2l15.2 2.4c4 0.8 8.8 4.8 8.8 8.8l2.4 15.2c0.8 4 4 8 7.2 8s6.4-3.2 6.4-8l2.4-16.8c0.8-4 4.8-8 8.8-8.8l14.4-0.8c5.6-1.6 9.6-4 9.6-7.2zM560.8 746.4c0-3.2-3.2-6.4-8-7.2l-15.2-2.4c-4-0.8-8.8-4.8-8.8-8.8l-2.4-15.2c-0.8-4-4-8-7.2-8s-6.4 3.2-7.2 8l-1.6 15.2c-0.8 4-4.8 8.8-8.8 8.8l-15.2 2.4c-4 0.8-8 4-8 7.2s3.2 6.4 8 7.2l15.2 2.4c4 0.8 8.8 4.8 8.8 8.8l2.4 15.2c0.8 4 4 8 7.2 8s6.4-3.2 6.4-8l2.4-16.8c0.8-4 4.8-8 8.8-8.8l14.4-0.8c4.8-1.6 8.8-4 8.8-7.2zM344.8 249.6c0-3.2-3.2-6.4-8-7.2l-38.4-6.4c-4-0.8-8.8-4.8-9.6-9.6l-6.4-38.4c-0.8-4-4-8-7.2-8s-6.4 3.2-7.2 8l-6.4 38.4c-0.8 4-4.8 8.8-9.6 9.6l-38.4 6.4c-4 0.8-8 4-8 7.2s3.2 6.4 8 7.2l37.6 4.8c4 0.8 8.8 4.8 9.6 8.8l7.2 40c0.8 4 4 8 7.2 8s6.4-3.2 7.2-8l7.2-40.8c0.8-4 4.8-8 9.6-8.8l37.6-4.8c4.8 0 8-3.2 8-6.4z" fill="#FFFFFF" /></svg>