<?xml version="1.0" standalone="no"?><!DOCTYPE svg PUBLIC "-//W3C//DTD SVG 1.1//EN" "http://www.w3.org/Graphics/SVG/1.1/DTD/svg11.dtd"><svg class="icon" width="200px" height="200.00px" viewBox="0 0 1024 1024" version="1.1" xmlns="http://www.w3.org/2000/svg"><path d="M512 512m-512 0a512 512 0 1 0 1024 0 512 512 0 1 0-1024 0Z" fill="#FBD000" /><path d="M280 794.4c0 13.6-8.8 24-20 24s-20-10.4-20-24V238.4c0-12.8 8.8-24 20-24s20 11.2 20 24v556z" fill="#F4B10B" /><path d="M305.6 794.4c0 13.6-8.8 24-20 24s-20-10.4-20-24V238.4c0-13.6 8.8-24 20-24s20 10.4 20 24v556z" fill="#415E6D" /><path d="M265.6 478.4v316.8c0 13.6 8.8 24 20 24s20-10.4 20-24V478.4h-40z" fill="#75B600" /><path d="M284 824c-15.2 0-28-14.4-28-32V240c0-17.6 12.8-32 28-32s28 14.4 28 32v552c0 17.6-12.8 32-28 32z m0-600c-6.4 0-12 7.2-12 16v552c0 8.8 5.6 16 12 16s12-7.2 12-16V240c0-8.8-5.6-16-12-16z" fill="#663210" /><path d="M284.8 460m-65.6 0a65.6 65.6 0 1 0 131.2 0 65.6 65.6 0 1 0-131.2 0Z" fill="#D4D6D6" /><path d="M284.8 425.6m-65.6 0a65.6 65.6 0 1 0 131.2 0 65.6 65.6 0 1 0-131.2 0Z" fill="#EAEAEA" /><path d="M284.8 460c-31.2 0-56.8-21.6-64-49.6-1.6 4.8-2.4 10.4-2.4 16 0 36.8 29.6 65.6 65.6 65.6 36.8 0 65.6-29.6 65.6-65.6 0-5.6-0.8-11.2-2.4-16-5.6 28-31.2 49.6-62.4 49.6z" fill="#D4D6D6" /><path d="M284.8 500c-40.8 0-73.6-32.8-73.6-73.6s32.8-73.6 73.6-73.6 73.6 32.8 73.6 73.6-32.8 73.6-73.6 73.6z m0-132c-32 0-57.6 26.4-57.6 57.6s26.4 57.6 57.6 57.6c32 0 57.6-26.4 57.6-57.6S316.8 368 284.8 368z" fill="#663210" /><path d="M321.6 433.6c-4.8 0-8-3.2-8-8 0-16-12.8-28.8-28.8-28.8S256 409.6 256 425.6c0 4.8-3.2 8-8 8s-8-3.2-8-8c0-24.8 20-44.8 44.8-44.8 24.8 0 44.8 20 44.8 44.8 0 4.8-3.2 8-8 8z" fill="#FFFFFF" /><path d="M512.8 794.4c0 13.6-8.8 24-20 24s-20-10.4-20-24V238.4c0-13.6 8.8-24 20-24s20 10.4 20 24v556z" fill="#F4B10B" /><path d="M532.8 794.4c0 13.6-8.8 24-20 24s-20-10.4-20-24V238.4c0-13.6 8.8-24 20-24s20 10.4 20 24v556z" fill="#415E6D" /><path d="M492.8 564v230.4c0 13.6 8.8 24 20 24s20-10.4 20-24V564h-40z" fill="#75B600" /><path d="M516 824c-15.2 0-28-14.4-28-32V240c0-17.6 12.8-32 28-32s28 14.4 28 32v552c0 17.6-12.8 32-28 32z m0-600c-6.4 0-12 7.2-12 16v552c0 8.8 5.6 16 12 16s12-7.2 12-16V240c0-8.8-5.6-16-12-16z" fill="#663210" /><path d="M512 612m-65.6 0a65.6 65.6 0 1 0 131.2 0 65.6 65.6 0 1 0-131.2 0Z" fill="#D4D6D6" /><path d="M512 577.6m-65.6 0a65.6 65.6 0 1 0 131.2 0 65.6 65.6 0 1 0-131.2 0Z" fill="#EAEAEA" /><path d="M512 612c-31.2 0-56.8-21.6-64-49.6-1.6 4.8-2.4 10.4-2.4 16 0 36.8 29.6 65.6 65.6 65.6s66.4-29.6 66.4-65.6c0-5.6-0.8-11.2-2.4-16-6.4 28-32 49.6-63.2 49.6z" fill="#D4D6D6" /><path d="M512 652c-40.8 0-73.6-32.8-73.6-73.6S471.2 504 512 504s74.4 32.8 74.4 73.6-33.6 74.4-74.4 74.4zM512 520c-32 0-57.6 26.4-57.6 57.6s26.4 57.6 57.6 57.6c32 0 58.4-26.4 58.4-57.6S544 520 512 520z" fill="#663210" /><path d="M548.8 585.6c-4.8 0-8-3.2-8-8 0-16-12.8-28.8-28.8-28.8s-28.8 12.8-28.8 28.8c0 4.8-3.2 8-8 8s-8-3.2-8-8c0-24.8 20-44.8 44.8-44.8 24.8 0 44.8 20 44.8 44.8 0 4.8-3.2 8-8 8z" fill="#FFFFFF" /><path d="M740 794.4c0 12.8-8.8 24-20 24s-20-11.2-20-24V238.4c0-13.6 8.8-24 20-24s20 10.4 20 24v556z" fill="#F4B10B" /><path d="M760 794.4c0 13.6-8.8 24-20 24s-20-10.4-20-24V238.4c0-13.6 8.8-24 20-24s20 10.4 20 24v556z" fill="#415E6D" /><path d="M720 345.6v448.8c0 13.6 8.8 24 20 24s20-10.4 20-24V345.6h-40z" fill="#75B600" /><path d="M740 824c-15.2 0-28-14.4-28-32V240c0-17.6 12.8-32 28-32s28 14.4 28 32v552c0 17.6-12.8 32-28 32z m0-600c-6.4 0-12 7.2-12 16v552c0 8.8 5.6 16 12 16s12-7.2 12-16V240c0-8.8-5.6-16-12-16z" fill="#663210" /><path d="M739.2 372m-65.6 0a65.6 65.6 0 1 0 131.2 0 65.6 65.6 0 1 0-131.2 0Z" fill="#D4D6D6" /><path d="M739.2 337.6m-65.6 0a65.6 65.6 0 1 0 131.2 0 65.6 65.6 0 1 0-131.2 0Z" fill="#EAEAEA" /><path d="M739.2 372c-31.2 0-56.8-21.6-64-49.6-1.6 4.8-2.4 10.4-2.4 16 0 36.8 29.6 65.6 65.6 65.6 36.8 0 65.6-29.6 65.6-65.6 0-5.6-0.8-11.2-2.4-16-5.6 28-31.2 49.6-62.4 49.6z" fill="#D4D6D6" /><path d="M739.2 412c-40.8 0-73.6-32.8-73.6-73.6s32.8-73.6 73.6-73.6 73.6 32.8 73.6 73.6-32.8 73.6-73.6 73.6z m0-132c-32 0-57.6 26.4-57.6 57.6s26.4 57.6 57.6 57.6c32 0 57.6-26.4 57.6-57.6S771.2 280 739.2 280z" fill="#663210" /><path d="M776 345.6c-4.8 0-8-3.2-8-8 0-16-12.8-28.8-28.8-28.8s-28.8 12.8-28.8 28.8c0 4.8-3.2 8-8 8s-8-3.2-8-8c0-24.8 20-44.8 44.8-44.8 24.8 0 44.8 20 44.8 44.8 0 4.8-3.2 8-8 8zM577.6 950.4c-19.2 0-34.4-15.2-34.4-34.4s15.2-34.4 34.4-34.4 34.4 15.2 34.4 34.4-15.2 34.4-34.4 34.4z m0-52c-10.4 0-18.4 8-18.4 18.4 0 10.4 8 18.4 18.4 18.4 10.4 0 18.4-8 18.4-18.4 0-10.4-8-18.4-18.4-18.4zM141.6 369.6c-19.2 0-34.4-15.2-34.4-34.4s15.2-34.4 34.4-34.4 34.4 15.2 34.4 34.4-15.2 34.4-34.4 34.4z m0-52.8c-10.4 0-18.4 8-18.4 18.4 0 10.4 8 18.4 18.4 18.4 10.4 0 18.4-8 18.4-18.4 0-10.4-8-18.4-18.4-18.4zM416.8 192c-19.2 0-34.4-15.2-34.4-34.4s15.2-34.4 34.4-34.4 34.4 15.2 34.4 34.4-15.2 34.4-34.4 34.4z m0-52c-10.4 0-18.4 8-18.4 18.4 0 10.4 8 18.4 18.4 18.4 10.4 0 18.4-8 18.4-18.4 0-10.4-8-18.4-18.4-18.4zM881.6 564c-19.2 0-34.4-15.2-34.4-34.4s15.2-34.4 34.4-34.4 34.4 15.2 34.4 34.4-15.2 34.4-34.4 34.4z m0-52c-10.4 0-18.4 8-18.4 18.4 0 10.4 8 18.4 18.4 18.4 10.4 0 18.4-8 18.4-18.4 0-10.4-8-18.4-18.4-18.4zM652.8 160.8c0-3.2-3.2-6.4-8-7.2l-14.4-1.6c-4-0.8-8.8-4.8-8.8-8.8l-2.4-15.2c-0.8-4-4-8-7.2-8s-6.4 3.2-7.2 8l-2.4 15.2c-0.8 4-4.8 8.8-8.8 8.8l-15.2 2.4c-4 0.8-8 4-8 7.2s3.2 6.4 8 7.2l15.2 2.4c4 0.8 8.8 4.8 8.8 8.8l2.4 15.2c0.8 4 4 8 7.2 8s6.4-3.2 6.4-8l2.4-16.8c0.8-4 4.8-8 8.8-8.8l14.4-0.8c5.6-1.6 8.8-4.8 8.8-8zM432.8 774.4c0-3.2-3.2-6.4-8-7.2l-15.2-2.4c-4-0.8-8.8-4.8-8.8-8.8l-2.4-15.2c-0.8-4-4-8-7.2-8s-6.4 3.2-7.2 8l-2.4 15.2c-0.8 4-4.8 8.8-8.8 8.8l-15.2 2.4c-4 0.8-8 4-8 7.2s3.2 6.4 8 7.2l15.2 2.4c4 0.8 8.8 4.8 8.8 8.8l2.4 15.2c0.8 4 4 8 7.2 8s6.4-3.2 6.4-8l2.4-16.8c0.8-4 4.8-8 8.8-8.8l14.4-0.8c6.4-1.6 9.6-4 9.6-7.2zM168.8 571.2c0-3.2-3.2-6.4-8-7.2l-15.2-2.4c-4-0.8-8.8-4.8-8.8-8.8l-2.4-15.2c-0.8-4-4-8-7.2-8s-6.4 3.2-7.2 8l-2.4 15.2c-0.8 4-4.8 8.8-8.8 8.8l-15.2 2.4c-4 0.8-8 4-8 7.2s3.2 6.4 8 7.2l15.2 2.4c4 0.8 8.8 4.8 8.8 8.8l2.4 15.2c0.8 4 4 8 7.2 8s6.4-3.2 6.4-8l2.4-16.8c0.8-4 4.8-8 8.8-8.8l14.4-0.8c6.4-1.6 9.6-4.8 9.6-7.2z" fill="#FFFFFF" /></svg>