<?xml version="1.0" standalone="no"?><!DOCTYPE svg PUBLIC "-//W3C//DTD SVG 1.1//EN" "http://www.w3.org/Graphics/SVG/1.1/DTD/svg11.dtd"><svg class="icon" width="200px" height="200.00px" viewBox="0 0 1024 1024" version="1.1" xmlns="http://www.w3.org/2000/svg"><path d="M512 512m-512 0a512 512 0 1 0 1024 0 512 512 0 1 0-1024 0Z" fill="#5E52F7" /><path d="M512 513.6m-384 0a384 384 0 1 0 768 0 384 384 0 1 0-768 0Z" fill="#8D8AF9" /><path d="M512 904c-216 0-392-176-392-392s176-392 392-392 392 176 392 392-176 392-392 392z m0-768c-207.2 0-376 168.8-376 376s168.8 376 376 376 376-168.8 376-376-168.8-376-376-376z" fill="#333182" /><path d="M512 513.6m-237.6 0a237.6 237.6 0 1 0 475.2 0 237.6 237.6 0 1 0-475.2 0Z" fill="#5E52F7" /><path d="M512 760c-136.8 0-248-111.2-248-248s111.2-248 248-248 248 111.2 248 248-111.2 248-248 248z m0-480c-128 0-232 104-232 232s104 232 232 232 232-104 232-232-104-232-232-232z" fill="#333182" /><path d="M512 513.6m-90.4 0a90.4 90.4 0 1 0 180.8 0 90.4 90.4 0 1 0-180.8 0Z" fill="#8D8AF9" /><path d="M512 608c-52.8 0-96-43.2-96-96s43.2-96 96-96 96 43.2 96 96-43.2 96-96 96z m0-176c-44 0-80 36-80 80s36 80 80 80 80-36 80-80-36-80-80-80z" fill="#333182" /><path d="M898.4 136c36.8 36.8 117.6 16.8 80 53.6l-99.2 99.2c-36.8 36.8-96.8 36.8-133.6 0s-36.8-96.8 0-133.6L844.8 56c36.8-36.8 16.8 43.2 53.6 80z" fill="#FBD000" /><path d="M898.4 136c-10.4-10.4-16-24-20-36.8L723.2 254.4c4.8 12.8 12 24.8 21.6 34.4 10.4 10.4 22.4 17.6 35.2 22.4l154.4-154.4c-12.8-4.8-26.4-10.4-36-20.8z" fill="#E3BD59" /><path d="M812 328c-27.2 0-52-10.4-71.2-30.4-19.2-19.2-29.6-45.6-29.6-72.8s10.4-53.6 29.6-72.8l96.8-100c8-8 14.4-12 20-12 13.6 0 16.8 16 20 35.2 4 19.2 8 43.2 22.4 57.6 14.4 15.2 37.6 20 56 23.2 17.6 3.2 30.4 6.4 33.6 16.8 2.4 9.6-4.8 18.4-11.2 24.8l-96.8 100c-16.8 20-42.4 30.4-69.6 30.4z m46.4-272c-0.8 0.8-4 2.4-8.8 7.2L752.8 163.2c-16 16.8-24.8 38.4-24.8 61.6s8.8 44.8 24.8 61.6c16 16 37.6 25.6 60 25.6s44-8.8 60-25.6l96.8-100c4.8-4.8 6.4-8 6.4-8.8-3.2-2.4-13.6-4-20.8-5.6-19.2-4-46.4-9.6-64-28s-23.2-46.4-27.2-66.4c-1.6-7.2-4-18.4-5.6-21.6z" fill="#333182" /><path d="M936 98.4c7.2 7.2 7.2 19.2 0 26.4l-400 400c-7.2 7.2-19.2 7.2-26.4 0-7.2-7.2-7.2-19.2 0-26.4l400-400c6.4-7.2 18.4-7.2 26.4 0z" fill="#EDEEEF" /><path d="M523.2 536c-7.2 0-14.4-2.4-19.2-8-4.8-4.8-8-12-8-18.4 0-7.2 3.2-13.6 8-19.2l401.6-395.2c10.4-10.4 28-10.4 38.4 0 10.4 10.4 10.4 27.2 0 37.6L542.4 528c-5.6 5.6-12 8-19.2 8z m401.6-432.8c-3.2 0-5.6 0.8-8 3.2L515.2 501.6c-2.4 2.4-3.2 4.8-3.2 8s0.8 5.6 3.2 8c4 4 11.2 4 15.2 0l401.6-395.2c4-4 4-11.2 0-15.2-1.6-2.4-4-4-7.2-4zM102.4 127.2c-2.4 0-4-0.8-5.6-2.4L45.6 74.4c-3.2-3.2-3.2-8 0-11.2 3.2-3.2 8-3.2 11.2 0l51.2 51.2c3.2 3.2 3.2 8 0 11.2-1.6 0.8-3.2 1.6-5.6 1.6zM78.4 169.6h-1.6l-51.2-10.4c-4-0.8-7.2-4.8-6.4-9.6 0.8-4 4.8-7.2 9.6-6.4l51.2 10.4c4 0.8 7.2 4.8 6.4 9.6-0.8 3.2-4 6.4-8 6.4zM144.8 103.2c-4 0-7.2-2.4-8-6.4l-10.4-51.2c-0.8-4 1.6-8.8 6.4-9.6 4-0.8 8.8 1.6 9.6 6.4l10.4 51.2c0.8 4-1.6 8.8-6.4 9.6h-1.6z" fill="#333182" /><path d="M759.2 189.6c-2.4 0-4-0.8-5.6-2.4-3.2-3.2-3.2-8 0-11.2l84-84c3.2-3.2 8-3.2 11.2 0 3.2 3.2 3.2 8 0 11.2L764.8 187.2c-1.6 1.6-3.2 2.4-5.6 2.4z" fill="#FFFFFF" /><path d="M512 921.6C246.4 921.6 28 719.2 2.4 460.8 0.8 477.6 0 494.4 0 512c0 282.4 229.6 512 512 512s512-229.6 512-512c0-17.6-0.8-34.4-2.4-51.2-25.6 258.4-244 460.8-509.6 460.8z" fill="#4343D1" /><path d="M176 520c-4.8 0-8-4-8-8 0-189.6 155.2-344 346.4-344 56 0 112 13.6 161.6 40 4 2.4 5.6 7.2 3.2 11.2-2.4 4-7.2 5.6-11.2 3.2C620.8 196.8 568 184 514.4 184 332 184 184 331.2 184 512c0 4-3.2 8-8 8zM816 664c-0.8 0-2.4 0-3.2-0.8-4-1.6-5.6-7.2-4-11.2 11.2-24.8 18.4-50.4 24-77.6 0.8-4.8 4.8-7.2 9.6-6.4 4 0.8 7.2 5.6 6.4 9.6-4.8 28-13.6 55.2-24.8 81.6-2.4 3.2-4.8 4.8-8 4.8zM848 521.6c-4.8 0-8-3.2-8-8 0-58.4-16-116-46.4-165.6-2.4-4-0.8-8.8 2.4-11.2 4-2.4 8.8-0.8 11.2 2.4 32 52 48.8 112.8 48.8 173.6 0 5.6-4 8.8-8 8.8zM736 104c-1.6 0-2.4 0-4-0.8-68-36.8-144.8-56-222.4-56C456 47.2 404 56 354.4 73.6c-4 1.6-8.8-0.8-10.4-4.8-1.6-4 0.8-8.8 4.8-9.6C400.8 40.8 454.4 32 509.6 32c80.8 0 160 20 229.6 57.6 4 2.4 5.6 6.4 3.2 10.4-0.8 2.4-3.2 4-6.4 4zM152 208c-1.6 0-4-0.8-5.6-1.6-3.2-3.2-4-8-0.8-11.2 32.8-35.2 71.2-65.6 112.8-90.4 4-2.4 8.8-0.8 11.2 2.4 2.4 4 1.6 8.8-2.4 11.2-40.8 24-77.6 53.6-109.6 87.2-0.8 1.6-3.2 2.4-5.6 2.4zM984 496.8c-4 0-7.2-3.2-8-7.2-3.2-64-19.2-124.8-47.2-181.6-1.6-4 0-8.8 3.2-10.4 4-1.6 8.8 0 10.4 3.2 29.6 58.4 45.6 121.6 49.6 188 0 4-3.2 7.2-8 8 0.8 0 0 0 0 0z" fill="#FFFFFF" opacity=".5" /></svg>