<?xml version="1.0" standalone="no"?><!DOCTYPE svg PUBLIC "-//W3C//DTD SVG 1.1//EN" "http://www.w3.org/Graphics/SVG/1.1/DTD/svg11.dtd"><svg class="icon" width="200px" height="200.00px" viewBox="0 0 1024 1024" version="1.1" xmlns="http://www.w3.org/2000/svg"><path d="M512 512m-512 0a512 512 0 1 0 1024 0 512 512 0 1 0-1024 0Z" fill="#3CB29D" /><path d="M481.6 124.8h53.6v97.6h-53.6z" fill="#EAEAEA" /><path d="M480 168h64v24h-64z" fill="#D4D6D6" /><path d="M544 231.2h-64c-4.8 0-8-3.2-8-8V124.8c0-4.8 3.2-8 8-8h64c4.8 0 8 3.2 8 8v97.6c0 4.8-3.2 8.8-8 8.8z m-56-16h48V132.8h-48v82.4z" fill="#6A3B1B" /><path d="M576 120c0 26.4-23.2 48-52 48h-21.6c-28.8 0-52-21.6-52-48v-8c0-26.4 23.2-48 52-48h21.6c28.8 0 52 21.6 52 48v8z" fill="#EAEAEA" /><path d="M528 176h-32c-31.2 0-56-24.8-56-56v-8c0-31.2 24.8-56 56-56h32c31.2 0 56 24.8 56 56v8c0 31.2-24.8 56-56 56zM496 72c-22.4 0-40 17.6-40 40v8c0 22.4 17.6 40 40 40h32c22.4 0 40-17.6 40-40v-8c0-22.4-17.6-40-40-40h-32z" fill="#6A3B1B" /><path d="M706.4 268.8c-4.8 7.2-13.6 9.6-18.4 6.4-4.8-4-5.6-12.8 0-20l12.8-17.6c4.8-7.2 13.6-9.6 18.4-6.4 4.8 4 5.6 12.8 0 20l-12.8 17.6z" fill="#EAEAEA" /><path d="M694.4 288c-4 0-8-0.8-11.2-3.2-4-2.4-6.4-7.2-8-12-0.8-6.4 0.8-14.4 5.6-20l13.6-18.4c8-11.2 23.2-15.2 32.8-8 9.6 6.4 10.4 20.8 2.4 32.8l-13.6 18.4c-4.8 5.6-13.6 10.4-21.6 10.4z m23.2-48.8c-2.4 0-5.6 1.6-8 4.8L696 262.4c-2.4 3.2-2.4 5.6-2.4 8 0 0.8 0 0.8 0.8 1.6h0.8c1.6 0 4.8-1.6 7.2-4.8l13.6-18.4c3.2-4.8 2.4-8.8 1.6-9.6z" fill="#6A3B1B" /><path d="M508 520.8m-312.8 0a312.8 312.8 0 1 0 625.6 0 312.8 312.8 0 1 0-625.6 0Z" fill="#EAEAEA" /><path d="M508 800.8c-167.2 0-304-131.2-312-296 0 5.6-0.8 11.2-0.8 16 0 172.8 140 312.8 312.8 312.8s312.8-140 312.8-312.8c0-5.6 0-11.2-0.8-16-8 164.8-144.8 296-312 296z" fill="#D4D6D6" /><path d="M508 848C329.6 848 184 702.4 184 524S329.6 200 508 200 832 345.6 832 524 686.4 848 508 848z m0-632C338.4 216 200 354.4 200 524S338.4 832 508 832 816 693.6 816 524 677.6 216 508 216z" fill="#6A3B1B" /><path d="M508 520.8m-256 0a256 256 0 1 0 512 0 256 256 0 1 0-512 0Z" fill="#FFFFFF" /><path d="M508 304c134.4 0 244.8 104 255.2 236 0.8-6.4 0.8-12.8 0.8-20 0-141.6-114.4-256-256-256s-256 114.4-256 256c0 6.4 0 12.8 0.8 20C263.2 408 373.6 304 508 304z" fill="#EAEAEA" /><path d="M512 304.8c-4.8 0-8-3.2-8-8v-28c0-4.8 3.2-8 8-8s8 3.2 8 8v28c0 4.8-3.2 8-8 8zM512 778.4c-4.8 0-8-3.2-8-8v-28c0-4.8 3.2-8 8-8s8 3.2 8 8v28c0 4.8-3.2 8-8 8zM759.2 528h-27.2c-4.8 0-8-3.2-8-8s3.2-8 8-8h27.2c4.8 0 8 3.2 8 8s-4 8-8 8zM284.8 528h-27.2c-4.8 0-8-3.2-8-8s3.2-8 8-8h27.2c4.8 0 8 3.2 8 8s-3.2 8-8 8zM698.4 411.2c-2.4 0-5.6-1.6-7.2-4-2.4-4-0.8-8.8 2.4-11.2l23.2-14.4c4-2.4 8.8-0.8 11.2 2.4 2.4 4 0.8 8.8-2.4 11.2l-23.2 14.4c-0.8 1.6-2.4 1.6-4 1.6zM294.4 659.2c-2.4 0-5.6-1.6-7.2-4-2.4-4-0.8-8.8 2.4-11.2l23.2-14.4c4-2.4 8.8-0.8 11.2 2.4 2.4 4 0.8 8.8-2.4 11.2l-23.2 14.4c-0.8 0.8-2.4 1.6-4 1.6zM639.2 741.6c-2.4 0-5.6-1.6-7.2-4l-14.4-23.2c-2.4-4-0.8-8.8 2.4-11.2 4-2.4 8.8-0.8 11.2 2.4l14.4 23.2c2.4 4 0.8 8.8-2.4 11.2-0.8 1.6-2.4 1.6-4 1.6zM392 337.6c-2.4 0-5.6-1.6-7.2-4l-14.4-23.2c-2.4-4-0.8-8.8 2.4-11.2 4-2.4 8.8-0.8 11.2 2.4l14.4 23.2c2.4 4 0.8 8.8-2.4 11.2-1.6 1.6-3.2 1.6-4 1.6zM316 414.4c-1.6 0-2.4 0-4-0.8l-24-14.4c-4-2.4-4.8-7.2-3.2-11.2 2.4-4 7.2-4.8 11.2-3.2l24 14.4c4 2.4 4.8 7.2 3.2 11.2-1.6 2.4-4 4-7.2 4zM724 656c-1.6 0-2.4 0-4-0.8l-24-14.4c-4-2.4-4.8-7.2-3.2-11.2 2.4-4 7.2-4.8 11.2-3.2l24 14.4c4 2.4 4.8 7.2 3.2 11.2-1.6 2.4-4.8 4-7.2 4zM380.8 744c-1.6 0-2.4 0-4-0.8-4-2.4-4.8-7.2-3.2-11.2l14.4-24c2.4-4 7.2-4.8 11.2-3.2 4 2.4 4.8 7.2 3.2 11.2l-14.4 24c-2.4 2.4-4.8 4-7.2 4zM621.6 336c-1.6 0-2.4 0-4-0.8-4-2.4-4.8-7.2-3.2-11.2l14.4-24c2.4-4 7.2-4.8 11.2-3.2 4 2.4 4.8 7.2 3.2 11.2l-14.4 24c-1.6 2.4-4 4-7.2 4z" fill="#6A3B1B" /><path d="M508 784C360 784 240 665.6 240 520s120-264 268-264S776 374.4 776 520 656 784 508 784z m0-512C368.8 272 256 383.2 256 520s112.8 248 252 248S760 656.8 760 520 647.2 272 508 272z" fill="#6A3B1B" /><path d="M740 242.4c-4.8 7.2-15.2 8.8-22.4 4l-12-8.8c-7.2-4.8-8.8-15.2-3.2-22.4l12.8-17.6c4.8-7.2 15.2-8.8 22.4-4l12 8.8c7.2 4.8 8.8 15.2 4 22.4l-13.6 17.6z" fill="#EAEAEA" /><path d="M728 264c-5.6 0-11.2-1.6-15.2-4.8l-12.8-9.6c-5.6-4-9.6-10.4-10.4-16.8-0.8-7.2 0.8-13.6 4.8-19.2l13.6-18.4c8-11.2 25.6-13.6 36.8-5.6l12.8 9.6c5.6 4 9.6 10.4 10.4 16.8 0.8 7.2-0.8 13.6-4.8 19.2l-13.6 18.4C744 260 736 264 728 264z m0-63.2c-3.2 0-5.6 1.6-7.2 3.2l-13.6 18.4c-1.6 1.6-1.6 4-1.6 6.4 0 2.4 1.6 4 3.2 5.6l12.8 9.6c4 2.4 9.6 1.6 12-1.6l13.6-18.4c1.6-1.6 1.6-4 1.6-6.4 0-2.4-1.6-4-3.2-5.6l-12.8-9.6c-0.8-0.8-2.4-1.6-4.8-1.6z" fill="#6A3B1B" /><path d="M480 149.6c-4.8 0-8-3.2-8-8v-43.2c0-4.8 3.2-8 8-8s8 3.2 8 8v43.2c0 4-3.2 8-8 8zM512 149.6c-4.8 0-8-3.2-8-8V96c0-4.8 3.2-8 8-8s8 3.2 8 8v45.6c0 4-3.2 8-8 8zM544 149.6c-4.8 0-8-3.2-8-8v-43.2c0-4.8 3.2-8 8-8s8 3.2 8 8v43.2c0 4-3.2 8-8 8z" fill="#A99282" /><path d="M492 601.6c-0.8 0-1.6 0-2.4-0.8-4-1.6-6.4-6.4-4.8-10.4l84.8-242.4c1.6-4 6.4-6.4 10.4-4.8 4 1.6 6.4 6.4 4.8 10.4L499.2 596c-0.8 3.2-4 5.6-7.2 5.6z" fill="#EAEAEA" /><path d="M430.4 557.6c-4 0-7.2-2.4-8-6.4-0.8-4 2.4-8.8 6.4-9.6l296-54.4c4-0.8 8.8 2.4 9.6 6.4 0.8 4-2.4 8.8-6.4 9.6l-296 54.4h-1.6z" fill="#EAEAEA" /><path d="M490.4 580c-0.8 0-1.6 0-2.4-0.8-4-1.6-6.4-6.4-4.8-10.4L568 326.4c1.6-4 6.4-6.4 10.4-4.8 4 1.6 6.4 6.4 4.8 10.4L497.6 574.4c-0.8 3.2-4 5.6-7.2 5.6z" fill="#6A3B1B" /><path d="M424 544c-4 0-7.2-2.4-8-6.4-0.8-4 2.4-8.8 6.4-9.6l300-54.4c4-0.8 8.8 2.4 9.6 6.4 0.8 4-2.4 8.8-6.4 9.6L425.6 544H424z" fill="#F74541" /><path d="M508 520.8m-20 0a20 20 0 1 0 40 0 20 20 0 1 0-40 0Z" fill="#FFFFFF" /><path d="M508 552c-15.2 0-28-12.8-28-28s12.8-28 28-28 28 12.8 28 28-12 28-28 28z m0-40c-6.4 0-12 5.6-12 12s5.6 12 12 12 12-5.6 12-12-4.8-12-12-12z" fill="#6A3B1B" /><path d="M780 624.8c-0.8 0-1.6 0-2.4-0.8-4-1.6-6.4-6.4-4.8-10.4 10.4-30.4 16-61.6 16-93.6 0-88-40-169.6-110.4-223.2-3.2-2.4-4-8-1.6-11.2 2.4-3.2 8-4 11.2-1.6 74.4 56.8 116.8 142.4 116.8 236 0 33.6-5.6 67.2-16.8 99.2-1.6 4-4.8 5.6-8 5.6zM388.8 267.2c-3.2 0-5.6-1.6-7.2-4.8-1.6-4 0-8.8 4-10.4 38.4-17.6 80-26.4 123.2-26.4 32 0 63.2 4.8 92.8 15.2 4 1.6 6.4 5.6 4.8 10.4-1.6 4-5.6 6.4-10.4 4.8-28-9.6-57.6-14.4-88-14.4-40.8 0-80 8.8-116.8 25.6-0.8-0.8-1.6 0-2.4 0zM230.4 606.4c-3.2 0-6.4-2.4-8-5.6-7.2-25.6-10.4-52.8-10.4-79.2 0-81.6 32.8-158.4 92-214.4 3.2-3.2 8-3.2 11.2 0 3.2 3.2 3.2 8 0 11.2-56 53.6-87.2 125.6-87.2 203.2 0 25.6 3.2 50.4 10.4 75.2 0.8 4-1.6 8.8-5.6 9.6h-2.4zM726.4 234.4c-1.6 0-3.2-0.8-4.8-1.6-3.2-2.4-4.8-7.2-1.6-11.2l7.2-9.6c2.4-3.2 7.2-4.8 11.2-1.6 3.2 2.4 4.8 7.2 1.6 11.2l-7.2 9.6c-1.6 2.4-4 3.2-6.4 3.2zM273.6 229.6c0-3.2-3.2-6.4-8-7.2l-15.2-2.4c-4-0.8-8.8-4.8-8.8-8.8l-2.4-15.2c-0.8-4-4-8-7.2-8s-6.4 3.2-7.2 8l-2.4 15.2c-0.8 4-4.8 8.8-8.8 8.8l-15.2 2.4c-4 0.8-8 4-8 7.2s3.2 6.4 8 7.2l15.2 2.4c4 0.8 8.8 4.8 8.8 8.8l2.4 15.2c0.8 4 4 8 7.2 8s6.4-3.2 7.2-8l2.4-16.8c0.8-4 4.8-8 8.8-8.8l14.4-0.8c4.8-0.8 8.8-4 8.8-7.2zM144 488.8c0-3.2-3.2-6.4-8-7.2l-15.2-1.6c-4-0.8-8.8-4.8-8.8-8.8l-2.4-15.2c-0.8-4-4-8-7.2-8s-6.4 3.2-7.2 8l-2.4 15.2c-0.8 4-4.8 8.8-8.8 8.8l-15.2 2.4c-4 0.8-8 4-8 7.2s3.2 6.4 8 7.2l15.2 2.4c4 0.8 8.8 4.8 8.8 8.8l2.4 15.2c0.8 4 4 8 7.2 8s6.4-3.2 7.2-8l2.4-16.8c0.8-4 4.8-8 8.8-8.8l14.4-0.8c4.8-2.4 8.8-4.8 8.8-8zM928.8 696c0-3.2-3.2-6.4-8-7.2l-15.2-2.4c-4-0.8-8.8-4.8-8.8-8.8l-2.4-15.2c-0.8-4-4-8-7.2-8s-6.4 3.2-7.2 8l-2.4 15.2c-0.8 4-4.8 8.8-8.8 8.8l-15.2 2.4c-4 0.8-8 4-8 7.2s3.2 6.4 8 7.2l15.2 2.4c4 0.8 8.8 4.8 8.8 8.8l2.4 15.2c0.8 4 4 8 7.2 8s6.4-3.2 7.2-8l2.4-16.8c0.8-4 4.8-8 8.8-8.8l14.4-0.8c5.6-0.8 8.8-4 8.8-7.2zM272 864c-17.6 0-32-14.4-32-32s14.4-32 32-32 32 14.4 32 32-14.4 32-32 32z m0-48.8c-9.6 0-16.8 8-16.8 16.8 0 9.6 8 16.8 16.8 16.8 9.6 0 16.8-8 16.8-16.8 0-9.6-7.2-16.8-16.8-16.8zM872 368c-17.6 0-32-14.4-32-32s14.4-32 32-32 32 14.4 32 32-14.4 32-32 32z m0-48.8c-9.6 0-16.8 8-16.8 16.8 0 9.6 8 16.8 16.8 16.8 9.6 0 16.8-8 16.8-16.8 0-9.6-7.2-16.8-16.8-16.8zM648 936c-17.6 0-32-14.4-32-32s14.4-32 32-32 32 14.4 32 32-14.4 32-32 32z m0-48.8c-9.6 0-16.8 8-16.8 16.8 0 9.6 8 16.8 16.8 16.8s16.8-8 16.8-16.8c0-9.6-7.2-16.8-16.8-16.8z" fill="#FFFFFF" /></svg>