<?xml version="1.0" standalone="no"?><!DOCTYPE svg PUBLIC "-//W3C//DTD SVG 1.1//EN" "http://www.w3.org/Graphics/SVG/1.1/DTD/svg11.dtd"><svg class="icon" width="200px" height="200.00px" viewBox="0 0 1024 1024" version="1.1" xmlns="http://www.w3.org/2000/svg"><path d="M512 512m-512 0a512 512 0 1 0 1024 0 512 512 0 1 0-1024 0Z" fill="#FC8BA4" /><path d="M902.4 526.4c0-3.2-3.2-6.4-8-7.2l-15.2-2.4c-4-0.8-8.8-4.8-8.8-8.8l-2.4-15.2c-0.8-4-4-8-7.2-8s-6.4 3.2-7.2 8l-2.4 15.2c-0.8 4-4.8 8.8-8.8 8.8l-15.2 2.4c-4 0.8-8 4-8 7.2s3.2 6.4 8 7.2l15.2 2.4c4 0.8 8.8 4.8 8.8 8.8l2.4 15.2c0.8 4 4 8 7.2 8s6.4-3.2 7.2-8l2.4-16.8c0.8-4 4.8-8 8.8-8.8l14.4-0.8c5.6-1.6 8.8-4.8 8.8-7.2zM484.8 928.8c0-3.2-3.2-6.4-8-7.2l-15.2-2.4c-4-0.8-8.8-4.8-8.8-8.8l-2.4-15.2c-0.8-4-4-8-7.2-8s-6.4 3.2-7.2 8l-2.4 15.2c-0.8 4-4.8 8.8-8.8 8.8l-15.2 2.4c-4 0.8-8 4-8 7.2s3.2 6.4 8 7.2l15.2 2.4c4 0.8 8.8 4.8 8.8 8.8l2.4 15.2c0.8 4 4 8 7.2 8s6.4-3.2 7.2-8l2.4-16.8c0.8-4 4.8-8 8.8-8.8l14.4-0.8c5.6-0.8 8.8-4 8.8-7.2zM194.4 400.8c0-3.2-3.2-6.4-8-7.2l-15.2-1.6c-4-0.8-8.8-4.8-8.8-8.8L160 368c-0.8-4-4-8-7.2-8s-6.4 3.2-7.2 8l-1.6 14.4c-0.8 4-4.8 8.8-8.8 8.8l-15.2 3.2c-4 0.8-8 4-8 7.2s3.2 6.4 8 7.2l15.2 2.4c4 0.8 8.8 4.8 8.8 8.8l2.4 15.2c0.8 4 4 8 7.2 8s6.4-3.2 7.2-8l2.4-16.8c0.8-4 4.8-8 8.8-8.8l14.4-0.8c4-1.6 8-4.8 8-8zM394.4 143.2c0-3.2-3.2-6.4-8-7.2l-15.2-2.4c-4-0.8-8.8-4.8-8.8-8.8l-2.4-15.2c-0.8-4-4-8-7.2-8s-6.4 3.2-7.2 8l-1.6 15.2c-0.8 4-4.8 8.8-8.8 8.8L320 136c-4 0.8-8 4-8 7.2s3.2 6.4 8 7.2l15.2 2.4c4 0.8 8.8 4.8 8.8 8.8l2.4 15.2c0.8 4 4 8 7.2 8s6.4-3.2 7.2-8l2.4-16.8c0.8-4 4.8-8 8.8-8.8l14.4-0.8c4-1.6 8-4 8-7.2z" fill="#FFFFFF" opacity=".5" /><path d="M695.2 824H340L320 288l392 8z" fill="#D4D6D6" /><path d="M320 388.8h392v-72z" fill="#ADADAD" /><path d="M320 288l20 536H400l-20-534.4z" fill="#ADADAD" /><path d="M695.2 832H340c-4 0-8-3.2-8-8L312 288c0-2.4 0.8-4 2.4-5.6 1.6-1.6 4-2.4 5.6-2.4l392 8c2.4 0 4 0.8 5.6 2.4 1.6 1.6 2.4 4 2.4 5.6l-16.8 528c-0.8 4.8-4 8-8 8z m-347.2-16h339.2L704 304l-376-8 20 520z" fill="#0C508E" /><path d="M432 744c0 17.6-12.8 32-28 32S376 761.6 376 744V464c0-17.6 12.8-32 28-32s28 14.4 28 32v280z" fill="#C9C9C9" /><path d="M370.4 820s28-22.4 5.6-39.2-60-12-60-12l-14.4 17.6S280 767.2 275.2 768s-36 16.8-36 16.8-29.6 20-24 20 25.6 16 25.6 16l129.6-0.8z" fill="#FBD000" /><path d="M241.6 829.6c-1.6 0-3.2-0.8-4.8-1.6-8-6.4-17.6-13.6-20.8-14.4-3.2 0-6.4-2.4-7.2-5.6-1.6-5.6-1.6-8.8 27.2-28.8 0 0 0.8 0 0.8-0.8 12-6.4 32-16.8 37.6-17.6 2.4 0 8-0.8 26.4 14.4l9.6-11.2c1.6-1.6 3.2-2.4 4.8-2.4 1.6 0 40-5.6 64.8 12.8 9.6 7.2 12 16 12 21.6 0 16-15.2 28.8-16.8 30.4-3.2 2.4-8 2.4-11.2-1.6-2.4-3.2-2.4-8.8 1.6-11.2 3.2-2.4 11.2-10.4 11.2-17.6 0-0.8 0-4.8-5.6-8.8-16-12-41.6-11.2-50.4-10.4L308 792c-1.6 1.6-3.2 2.4-5.6 3.2-2.4 0-4-0.8-5.6-1.6-8-7.2-16.8-14.4-20.8-16-4.8 1.6-19.2 8.8-32 15.2-4.8 3.2-10.4 7.2-14.4 10.4 4 2.4 9.6 6.4 16.8 12 3.2 2.4 4 8 1.6 11.2-1.6 1.6-4 3.2-6.4 3.2z" fill="#0C508E" /><path d="M544 744c0 17.6-12.8 32-28 32S488 761.6 488 744V464c0-17.6 12.8-32 28-32s28 14.4 28 32v280zM656 744c0 17.6-12.8 32-28 32S600 761.6 600 744V464c0-17.6 12.8-32 28-32s28 14.4 28 32v280z" fill="#C9C9C9" /><path d="M404 432c-15.2 0-28 14.4-28 32v32c0-17.6 12.8-32 28-32s28 14.4 28 32v-32c0-17.6-12.8-32-28-32zM516 432c-15.2 0-28 14.4-28 32v32c0-17.6 12.8-32 28-32s28 14.4 28 32v-32c0-17.6-12.8-32-28-32zM628 432c-15.2 0-28 14.4-28 32v32c0-17.6 12.8-32 28-32s28 14.4 28 32v-32c0-17.6-12.8-32-28-32z" fill="#ADADAD" /><path d="M404 784C384 784 368 766.4 368 744V464c0-22.4 16-40 36-40s36 17.6 36 40v280c0 22.4-16 40-36 40z m0-344c-11.2 0-20 10.4-20 24v280c0 13.6 8.8 24 20 24s20-10.4 20-24V464c0-13.6-8.8-24-20-24zM516 784C496 784 480 766.4 480 744V464c0-22.4 16-40 36-40s36 17.6 36 40v280c0 22.4-16 40-36 40z m0-344c-11.2 0-20 10.4-20 24v280c0 13.6 8.8 24 20 24s20-10.4 20-24V464c0-13.6-8.8-24-20-24zM628 784C608 784 592 766.4 592 744V464c0-22.4 16-40 36-40s36 17.6 36 40v280c0 22.4-16 40-36 40z m0-344c-11.2 0-20 10.4-20 24v280c0 13.6 8.8 24 20 24s20-10.4 20-24V464c0-13.6-8.8-24-20-24z" fill="#0C508E" /><path d="M672 408c0 22.4-10.4 40-24 40s-24-17.6-24-40v-56c0-22.4 10.4-40 24-40s24 17.6 24 40v56z" fill="#FBD000" /><path d="M648 456c-17.6 0-32-20.8-32-48v-56c0-27.2 14.4-48 32-48s32 20.8 32 48v56c0 27.2-14.4 48-32 48z m0-136c-7.2 0-16 13.6-16 32v56c0 18.4 8.8 32 16 32s16-13.6 16-32v-56c0-18.4-8.8-32-16-32z" fill="#0C508E" /><path d="M732.8 312c1.6 17.6-10.4 33.6-28 35.2l-373.6 41.6c-17.6 1.6-33.6-10.4-35.2-28l-5.6-48c-1.6-17.6 10.4-33.6 28-35.2l373.6-41.6c17.6-1.6 33.6 10.4 35.2 28l5.6 48z" fill="#D4D6D6" /><path d="M730.4 296l-1.6-16c-0.8-5.6-2.4-11.2-4.8-16l0.8 8.8c3.2 26.4-16 50.4-42.4 52.8l-341.6 37.6c-20.8 2.4-39.2-8.8-48-26.4l0.8 7.2c3.2 26.4 26.4 45.6 52.8 42.4L688 348.8c26.4-2.4 45.6-26.4 42.4-52.8z" fill="#ADADAD" /><path d="M325.6 400c-20.8 0-37.6-16-40-36.8l-5.6-49.6c-2.4-23.2 13.6-43.2 36-45.6L693.6 224c22.4-2.4 42.4 14.4 44.8 36.8l5.6 49.6c2.4 23.2-13.6 43.2-36 45.6L330.4 400h-4.8z m372.8-159.2H696l-377.6 43.2c-13.6 1.6-23.2 13.6-21.6 27.2l5.6 49.6c1.6 13.6 13.6 24 26.4 22.4l377.6-43.2c13.6-1.6 23.2-13.6 21.6-27.2l-5.6-49.6c-1.6-12.8-12-22.4-24-22.4z" fill="#0C508E" /><path d="M354.4 364.8c-4 0-7.2-3.2-8-7.2l-4.8-44c-0.8-4 2.4-8 7.2-8.8 4-0.8 8 2.4 8.8 7.2l4.8 44c0.8 4-2.4 8-7.2 8.8h-0.8zM405.6 356.8c-4 0-7.2-3.2-8-7.2l-4.8-44c-0.8-4 2.4-8 7.2-8.8 4-0.8 8 2.4 8.8 7.2l4.8 44c0.8 4-2.4 8-7.2 8.8h-0.8zM456.8 353.6c-4 0-7.2-3.2-8-7.2l-4.8-44c-0.8-4 2.4-8 7.2-8.8 4.8-0.8 8 2.4 8.8 7.2l4.8 44c0.8 4-2.4 8-7.2 8.8h-0.8zM508 345.6c-4 0-7.2-3.2-8-7.2l-4.8-44c-0.8-4 2.4-8 7.2-8.8 4.8-0.8 8 2.4 8.8 7.2l4.8 44c0.8 4-2.4 8-7.2 8.8h-0.8zM559.2 340.8c-4 0-7.2-3.2-8-7.2l-4.8-44c-0.8-4 2.4-8 7.2-8.8 4.8-0.8 8 2.4 8.8 7.2l4.8 44c0.8 4-2.4 8-7.2 8.8h-0.8zM610.4 332.8c-4 0-7.2-3.2-8-7.2l-4.8-44c-0.8-4 2.4-8 7.2-8.8 4.8-0.8 8 2.4 8.8 7.2l4.8 44c0.8 4-2.4 8-7.2 8.8h-0.8zM662.4 329.6c-4.8 0-8.8-3.2-8.8-7.2l-5.6-44c-0.8-4 3.2-8 8-8.8 4.8-0.8 9.6 2.4 10.4 7.2l5.6 44c0.8 4-3.2 8-8 8.8h-1.6z" fill="#0C508E" /><path d="M456 752c-4.8 0-8-3.2-8-8V448c0-28-23.2-32-48-32-4.8 0-8-3.2-8-8s3.2-8 8-8c16 0 64 0 64 48v296c0 4.8-3.2 8-8 8zM568 752c-4.8 0-8-3.2-8-8v-72c0-4.8 3.2-8 8-8s8 3.2 8 8v72c0 4.8-3.2 8-8 8zM568 648c-4.8 0-8-3.2-8-8V448c0-28-23.2-32-48-32-4.8 0-8-3.2-8-8s3.2-8 8-8c16 0 64 0 64 48v192c0 4.8-3.2 8-8 8zM392 296c-4 0-7.2-3.2-8-7.2-0.8-4 2.4-8 7.2-8.8l280-32c4-0.8 8 2.4 8.8 7.2 0.8 4-2.4 8-7.2 8.8l-280 32H392zM648 424c-4.8 0-8-3.2-8-8v-40c0-4.8 3.2-8 8-8s8 3.2 8 8v40c0 4.8-3.2 8-8 8z" fill="#FFFFFF" /><path d="M192 616c-17.6 0-32-14.4-32-32s14.4-32 32-32 32 14.4 32 32-14.4 32-32 32z m0-48.8c-9.6 0-16.8 8-16.8 16.8 0 9.6 8 16.8 16.8 16.8 9.6 0 16.8-8 16.8-16.8 0-9.6-7.2-16.8-16.8-16.8zM648 936c-17.6 0-32-14.4-32-32s14.4-32 32-32 32 14.4 32 32-14.4 32-32 32z m0-48.8c-9.6 0-16.8 8-16.8 16.8 0 9.6 8 16.8 16.8 16.8 9.6 0 16.8-8 16.8-16.8 0-9.6-7.2-16.8-16.8-16.8zM619.2 10.4C585.6 4 550.4 0 515.2 0c-16.8 0-33.6 0.8-50.4 2.4C448 8 432 8 432 32c0 13.6 10.4 24 24 24h112c13.6 0 24 10.4 24 24s10.4 24 24 24h40c13.6 0 24 10.4 24 24s-10.4 24-24 24c-1.6 0-19.2 0.8-42.4 0.8S584 164.8 584 176c0 13.6 10.4 24 24 24h56c13.6 0 24-10.4 24-24s10.4-24 24-24h24c13.6 0 24-10.4 24-24s-10.4-24-24-24h-24c-13.6 0-24-10.4-24-24s-10.4-24-24-24h-32c-13.6 0-24-10.4-24-24 0-9.6 4.8-17.6 11.2-21.6z" fill="#FFFFFF" opacity=".5" /><path d="M624 748c-4.8 0-8-3.2-8-8V480c0-4.8 3.2-8 8-8s8 3.2 8 8v260c0 4.8-3.2 8-8 8z" fill="#FFFFFF" /><path d="M740 810.4c0-7.2 7.2-13.6 16-13.6h60c8.8 0 16-7.2 16-16s-7.2-16-16-16h-60c-8.8 0-16-6.4-16-13.6s-7.2-13.6-16-13.6H593.6c-8.8 0-16 7.2-16 16v54.4c0 8.8 7.2 16 16 16h129.6c9.6 0 16.8-6.4 16.8-13.6z" fill="#75B600" /><path d="M816 776h-60c-8.8 0-16 8.8-16 16 0 7.2-7.2 8-16 8H593.6c-8.8 0-16-1.6-16-10.4v18.4c0 8.8 7.2 16 16 16h129.6c8.8 0 16-6.4 16-13.6s7.2-13.6 16-13.6h60c8.8 0 16-7.2 16-16 0-3.2-0.8-6.4-3.2-9.6-2.4 4.8-7.2 4.8-12 4.8z" fill="#5C8E0D" /><path d="M724 830.4H593.6c-13.6 0-24-10.4-24-24V752c0-13.6 10.4-24 24-24h130.4c13.6 0 24 9.6 24 21.6 0 2.4 3.2 5.6 8 5.6h60c13.6 0 24 10.4 24 24s-10.4 20.8-24 20.8h-60c-4.8 0-8 5.6-8 8.8 0 11.2-11.2 21.6-24 21.6zM593.6 744c-4.8 0-9.6 3.2-9.6 8v54.4c0 4.8 5.6 9.6 9.6 9.6h130.4c4.8 0 8-4.8 8-7.2 0-12 10.4-24.8 24-24.8h60c4.8 0 8-0.8 8-4.8s-3.2-11.2-8-11.2h-60c-13.6 0-24-6.4-24-18.4 0-2.4-3.2-5.6-8-5.6H593.6z" fill="#0C508E" /><path d="M716.8 768h-23.2c-4.8 0-8-3.2-8-8s3.2-8 8-8h23.2c4.8 0 8 3.2 8 8s-4 8-8 8zM667.2 768H600c-4.8 0-8-3.2-8-8s3.2-8 8-8h67.2c4.8 0 8 3.2 8 8s-3.2 8-8 8z" fill="#FFFFFF" opacity=".5" /><path d="M948 832H88c-4.8 0-8-3.2-8-8s3.2-8 8-8h860c4.8 0 8 3.2 8 8s-3.2 8-8 8z" fill="#0C508E" /></svg>