<?xml version="1.0" standalone="no"?><!DOCTYPE svg PUBLIC "-//W3C//DTD SVG 1.1//EN" "http://www.w3.org/Graphics/SVG/1.1/DTD/svg11.dtd"><svg class="icon" width="200px" height="200.00px" viewBox="0 0 1024 1024" version="1.1" xmlns="http://www.w3.org/2000/svg"><path d="M512 512m-512 0a512 512 0 1 0 1024 0 512 512 0 1 0-1024 0Z" fill="#FBD000" /><path d="M816 345.6c0-29.6-16-43.2-36.8-43.2H268.8c-12 0-21.6 8.8-21.6 19.2 0 10.4 9.6 19.2 21.6 19.2h512.8c48.8 0 72 15.2 72 58.4v292c0 38.4-31.2 69.6-69.6 69.6H256c-38.4 0-69.6-31.2-69.6-69.6V337.6c0-38.4 31.2-69.6 69.6-69.6h466.4c38.4 0 50.4 4.8 50.4 34.4" fill="#AD5114" /><path d="M784.8 680h-528c-38.4 0-69.6-31.2-69.6-69.6v81.6c0 38.4 31.2 69.6 69.6 69.6h528c38.4 0 69.6-31.2 69.6-69.6V610.4c0 38.4-32 69.6-69.6 69.6zM854.4 600V512H762.4c-28.8 0-44.8 20-44.8 44s16.8 44 44.8 44h92z" fill="#993F0D" /><path d="M816 345.6c0-29.6-16-43.2-36.8-43.2H268.8c-12 0-21.6 8.8-21.6 19.2 0 10.4 9.6 19.2 21.6 19.2h512.8" fill="#75B600" /><path d="M196 359.2c-3.2 0-6.4-2.4-7.2-5.6-2.4-7.2-4-15.2-4-22.4 0-4.8 3.2-8 8-8s8 3.2 8 8c0 5.6 0.8 12 2.4 16.8 1.6 4-0.8 8.8-4.8 10.4-0.8 0.8-1.6 0.8-2.4 0.8zM732.8 728h-32.8c-4.8 0-8-3.2-8-8s3.2-8 8-8h40c4 0 8 3.2 8 8s-3.2 8-8 8h-7.2z m-72 0h-40c-4.8 0-8-3.2-8-8s3.2-8 8-8h40c4.8 0 8 3.2 8 8s-4 8-8 8z m-79.2 0h-40c-4.8 0-8-3.2-8-8s3.2-8 8-8h40c4.8 0 8 3.2 8 8s-4 8-8 8z m-80 0h-40c-4.8 0-8-3.2-8-8s3.2-8 8-8h40c4.8 0 8 3.2 8 8s-3.2 8-8 8z m-79.2 0h-40c-4.8 0-8-3.2-8-8s3.2-8 8-8h40c4.8 0 8 3.2 8 8s-3.2 8-8 8z m-79.2 0h-40c-4.8 0-8-3.2-8-8s3.2-8 8-8h40c4.8 0 8 3.2 8 8s-4 8-8 8zM264 728c-0.8 0-0.8 0 0 0-13.6-0.8-28.8-4-41.6-9.6-4-1.6-5.6-6.4-4-10.4 1.6-4 6.4-5.6 10.4-4 11.2 4.8 24 8 35.2 8 4.8 0 8 4 8 8-0.8 4.8-4 8-8 8z m515.2-6.4c-3.2 0-6.4-2.4-7.2-5.6-1.6-4 0.8-8.8 4.8-10.4 12.8-4 20.8-11.2 23.2-19.2 0.8-4 5.6-7.2 9.6-6.4 4 0.8 7.2 5.6 6.4 9.6-1.6 8-8.8 22.4-33.6 31.2-1.6 0.8-2.4 0.8-3.2 0.8z m28.8-64.8c-4.8 0-8-3.2-8-8v-40c0-4.8 3.2-8 8-8s8 3.2 8 8v40c0 4.8-3.2 8-8 8z m0-79.2c-4.8 0-8-3.2-8-8v-40c0-4.8 3.2-8 8-8s8 3.2 8 8v40c0 4-3.2 8-8 8z m0-79.2c-4.8 0-8-3.2-8-8v-40c0-4.8 3.2-8 8-8s8 3.2 8 8v40c0 4-3.2 8-8 8z m-3.2-79.2c-3.2 0-6.4-2.4-7.2-5.6-2.4-6.4-7.2-13.6-23.2-13.6-4.8 0-8-3.2-8-8s3.2-8 8-8h0.8c24 0 34.4 13.6 38.4 24 1.6 4-0.8 8.8-4.8 10.4-2.4 0.8-3.2 0.8-4 0.8zM733.6 400h-40c-4.8 0-8-3.2-8-8s3.2-8 8-8h40c4.8 0 8 3.2 8 8s-3.2 8-8 8z m-79.2 0h-40c-4.8 0-8-3.2-8-8s3.2-8 8-8h40c4.8 0 8 3.2 8 8s-4 8-8 8z m-79.2 0h-40c-4.8 0-8-3.2-8-8s3.2-8 8-8h40c4.8 0 8 3.2 8 8s-4 8-8 8z m-80 0h-40c-4.8 0-8-3.2-8-8s3.2-8 8-8h40c4.8 0 8 3.2 8 8s-3.2 8-8 8zM416 400h-40c-4.8 0-8-3.2-8-8s3.2-8 8-8h40c4.8 0 8 3.2 8 8s-3.2 8-8 8z m-79.2 0h-40c-4.8 0-8-3.2-8-8s3.2-8 8-8h40c4.8 0 8 3.2 8 8s-4 8-8 8z m-80 0c-16.8 0-30.4-4-42.4-11.2-4-2.4-4.8-7.2-2.4-11.2 2.4-4 7.2-4.8 11.2-2.4 8.8 5.6 20 8.8 33.6 8.8 4.8 0 8 4 8 8 0 4.8-3.2 8-8 8zM195.2 696.8c-2.4 0-4.8-0.8-6.4-3.2-4.8-6.4-8-13.6-8.8-21.6-0.8-4 2.4-8.8 6.4-9.6 4-0.8 8.8 2.4 9.6 6.4 0.8 5.6 3.2 10.4 6.4 15.2 2.4 3.2 1.6 8.8-1.6 11.2-2.4 0.8-4 1.6-5.6 1.6z" fill="#663210" /><path d="M857.6 456c25.6 0 36 12 38.4 36.8v42.4c0 24-23.2 35.2-52 35.2H762.4c-28.8 0-44.8-20-44.8-44s16.8-44 44.8-44h100" fill="#AD5114" /><path d="M843.2 584H762.4c-33.6 0-52.8-29.6-52.8-57.6 0-27.2 18.4-54.4 52.8-54.4h100c4.8 0 8 3.2 8 8s-3.2 8-8 8H762.4c-25.6 0-36.8 20-36.8 38.4 0 20 12.8 41.6 36.8 41.6h80.8c22.4 0 44.8-11.2 44.8-32v-4.8-37.6c-1.6-21.6-10.4-29.6-30.4-29.6-4.8 0-8-3.2-8-8s3.2-8 8-8c28.8 0 44 14.4 46.4 44V536c0 28-25.6 48-60.8 48z" fill="#663210" /><path d="M764 524m-20 0a20 20 0 1 0 40 0 20 20 0 1 0-40 0Z" fill="#663210" /><path d="M784.8 776h-528C214.4 776 176 736 176 692.8V337.6c0-40.8 36-73.6 80.8-73.6h466.4c36.8 0 60.8 0 60.8 39.2 0 4.8-3.2 8-8 8s-8-3.2-8-8c0-20.8-4-23.2-44.8-23.2H256.8c-36 0-64.8 25.6-64.8 57.6v355.2c0 34.4 31.2 67.2 64.8 67.2h528c32.8 0 63.2-32.8 63.2-67.2V576c0-4.8 3.2-8 8-8s8 3.2 8 8v116.8c0 43.2-37.6 83.2-79.2 83.2z" fill="#663210" /><path d="M856 488.8c-4.8 0-8-3.2-8-8v-80c0-28.8-12-43.2-42.4-47.2l-24-1.6h-512c-16 0-29.6-13.6-29.6-29.6 0-15.2 12.8-26.4 29.6-26.4h510.4c26.4 0 42.4 16.8 44 44.8 22.4 7.2 40 23.2 40 60v80c0 4.8-3.2 8-8 8z m-49.6-151.2c-1.6-16.8-10.4-25.6-27.2-25.6H269.6c-7.2 0-13.6 4.8-13.6 10.4 0 6.4 5.6 13.6 13.6 13.6h512.8c8 0 16 0 24 1.6z" fill="#663210" /><path d="M856 512h-56c-4.8 0-8-3.2-8-8s4-8 8-8h56c4.8 0 8 3.2 8 8s-4 8-8 8zM832 466.4c-4.8 0-8-3.2-8-8v-48c0-30.4-25.6-34.4-41.6-34.4H544c-4.8 0-8-3.2-8-8s3.2-8 8-8h238.4c28 0 57.6 13.6 57.6 50.4v48c0 4.8-3.2 8-8 8zM472 376H268c-56 0-60-43.2-60-56 0-4.8 3.2-8 8-8s8 3.2 8 8c0 18.4 8 40 44 40H472c4.8 0 8 3.2 8 8s-3.2 8-8 8z" fill="#FFFFFF" opacity=".5" /><path d="M664 912c-17.6 0-32-14.4-32-32s14.4-32 32-32 32 14.4 32 32-14.4 32-32 32z m0-48c-8.8 0-16 7.2-16 16s7.2 16 16 16 16-7.2 16-16-7.2-16-16-16zM296 200c-17.6 0-32-14.4-32-32s14.4-32 32-32 32 14.4 32 32-14.4 32-32 32z m0-48c-8.8 0-16 7.2-16 16s7.2 16 16 16 16-7.2 16-16-7.2-16-16-16zM776 224c-17.6 0-32-14.4-32-32s14.4-32 32-32 32 14.4 32 32-14.4 32-32 32z m0-48c-8.8 0-16 7.2-16 16s7.2 16 16 16 16-7.2 16-16-7.2-16-16-16zM606.4 140.8c0-3.2-3.2-6.4-8-7.2l-15.2-2.4c-4-0.8-8.8-4.8-8.8-8.8l-2.4-15.2c-0.8-4-4-8-7.2-8s-6.4 3.2-7.2 8l-2.4 15.2c-0.8 4-4.8 8.8-8.8 8.8l-15.2 2.4c-4 0.8-8 4-8 7.2s3.2 6.4 8 7.2l15.2 2.4c4 0.8 8.8 4.8 8.8 8.8l2.4 15.2c0.8 4 4 8 7.2 8s6.4-3.2 6.4-8l2.4-16.8c0.8-4 4.8-8 8.8-8.8l14.4-0.8c5.6-0.8 9.6-4 9.6-7.2zM425.6 870.4c0-3.2-3.2-6.4-8-7.2l-15.2-2.4c-4-0.8-8.8-4.8-8.8-8.8l-2.4-15.2c-0.8-4-4-8-7.2-8s-6.4 3.2-7.2 8l-2.4 15.2c-0.8 4-4.8 8.8-8.8 8.8l-15.2 2.4c-4 0.8-8 4-8 7.2s3.2 6.4 8 7.2l15.2 2.4c4 0.8 8.8 4.8 8.8 8.8l2.4 15.2c0.8 4 4 8 7.2 8s6.4-3.2 6.4-8l2.4-16.8c0.8-4 4.8-8 8.8-8.8l14.4-0.8c5.6-1.6 9.6-4 9.6-7.2zM142.4 508c0-3.2-3.2-6.4-8-7.2l-15.2-2.4c-4-0.8-8.8-4.8-8.8-8.8l-2.4-15.2c-0.8-4-4-8-7.2-8s-6.4 3.2-7.2 8l-2.4 15.2c-0.8 4-4.8 8.8-8.8 8.8l-15.2 2.4c-4 0.8-8 4-8 7.2s3.2 6.4 8 7.2l15.2 2.4c4 0.8 8.8 4.8 8.8 8.8l2.4 15.2c0.8 4 4 8 7.2 8s6.4-3.2 6.4-8l2.4-16.8c0.8-4 4.8-8 8.8-8.8l14.4-0.8c5.6-0.8 9.6-4 9.6-7.2z" fill="#FFFFFF" /><path d="M216 625.6c-4.8 0-8-3.2-8-8v-192c0-4.8 3.2-8 8-8s8 3.2 8 8v192c0 4.8-3.2 8-8 8z" fill="#FFFFFF" opacity=".5" /></svg>