<?xml version="1.0" standalone="no"?><!DOCTYPE svg PUBLIC "-//W3C//DTD SVG 1.1//EN" "http://www.w3.org/Graphics/SVG/1.1/DTD/svg11.dtd"><svg class="icon" width="200px" height="200.00px" viewBox="0 0 1024 1024" version="1.1" xmlns="http://www.w3.org/2000/svg"><path d="M512 512m-512 0a512 512 0 1 0 1024 0 512 512 0 1 0-1024 0Z" fill="#75B600" /><path d="M328 34.4v955.2c56.8 22.4 119.2 34.4 184 34.4 61.6 0 120.8-11.2 176-31.2V31.2C632.8 11.2 573.6 0 512 0c-64.8 0-127.2 12-184 34.4z" fill="#AD5114" /><path d="M947.2 695.2c0-3.2-3.2-6.4-8-7.2l-15.2-2.4c-4-0.8-8.8-4.8-8.8-8.8l-2.4-15.2c-0.8-4-4-8-7.2-8s-6.4 3.2-7.2 8l-2.4 15.2c-0.8 4-4.8 8.8-8.8 8.8l-15.2 2.4c-4 0.8-8 4-8 7.2s3.2 6.4 8 7.2l16 1.6c4 0.8 8.8 4.8 8.8 8.8l2.4 15.2c0.8 4 4 8 7.2 8s6.4-3.2 7.2-8l2.4-16.8c0.8-4 4.8-8 8.8-8.8l14.4-0.8c4-0.8 8-3.2 8-6.4zM225.6 220.8c0-3.2-3.2-6.4-8-7.2l-15.2-2.4c-4-0.8-8.8-4.8-8.8-8.8l-1.6-15.2c-0.8-4-4-8-7.2-8s-6.4 3.2-7.2 8l-1.6 15.2c-0.8 4-4.8 8.8-8.8 8.8l-15.2 2.4c-4 0.8-8 4-8 7.2s3.2 6.4 8 7.2l15.2 2.4c4 0.8 8.8 4.8 8.8 8.8l2.4 15.2c0.8 4 4 8 7.2 8s6.4-3.2 7.2-8l2.4-16.8c0.8-4 4.8-8 8.8-8.8l14.4-0.8c4-1.6 7.2-4 7.2-7.2zM128 712c-17.6 0-32-14.4-32-32s14.4-32 32-32 32 14.4 32 32-14.4 32-32 32z m0-48c-8.8 0-16 7.2-16 16s7.2 16 16 16 16-7.2 16-16-7.2-16-16-16zM840 264c-17.6 0-32-14.4-32-32s14.4-32 32-32 32 14.4 32 32-14.4 32-32 32z m0-48c-8.8 0-16 7.2-16 16s7.2 16 16 16 16-7.2 16-16-7.2-16-16-16z" fill="#FFFFFF" opacity=".5" /><path d="M936 572c0 11.2-8.8 20-20 20h-95.2c-11.2 0-20-8.8-20-20v-96c0-11.2 8.8-20 20-20h95.2c11.2 0 20 8.8 20 20v96z" fill="#FBD000" /><path d="M328 888h360v48H328zM328 80h360v48H328z" fill="#993F0D" /><path d="M936 564c0-11.2-8.8-20-20-20h-95.2c-11.2 0-20 8.8-20 20v7.2c0 11.2 8.8 20 20 20h95.2c11.2 0 20-8.8 20-20v-7.2z" fill="#F4B10B" /><path d="M916 600h-95.2c-15.2 0-28-12.8-28-28v-96c0-15.2 12.8-28 28-28h95.2c15.2 0 28 12.8 28 28v95.2c0 16-12.8 28.8-28 28.8z m-96-136c-6.4 0-12 5.6-12 12v95.2c0 6.4 5.6 12 12 12h95.2c6.4 0 12-5.6 12-12V476c0-6.4-5.6-12-12-12h-95.2zM680 996c5.6-1.6 10.4-4 16-5.6V34.4c-5.6-2.4-10.4-4-16-5.6v967.2zM320 986.4c5.6 2.4 10.4 4 16 6.4V31.2c-5.6 1.6-10.4 4-16 6.4v948.8z" fill="#7C4119" /><path d="M760 180c0 28.8-23.2 52-52 52h-392c-28.8 0-52-23.2-52-52s23.2-52 52-52h392c28.8 0 52 23.2 52 52zM760 836c0 28.8-23.2 52-52 52h-392c-28.8 0-52-23.2-52-52s23.2-52 52-52h392c28.8 0 52 23.2 52 52z" fill="#FBD000" /><path d="M400 888h223.2c49.6-16 93.6-43.2 130.4-78.4a51.76 51.76 0 0 0-44.8-25.6h-392c-20 0-37.6 11.2-46.4 28 37.6 33.6 80.8 60 129.6 76z" fill="#F4B10B" /><path d="M708 240h-392c-32.8 0-60-27.2-60-60s27.2-60 60-60h392c32.8 0 60 27.2 60 60S740.8 240 708 240z m-392-104c-24 0-44 20-44 44s20 44 44 44h392c24 0 44-20 44-44S732 136 708 136h-392zM708 896h-392c-32.8 0-60-27.2-60-60s27.2-60 60-60h392c32.8 0 60 27.2 60 60s-27.2 60-60 60z m-392-104c-24 0-44 20-44 44s20 44 44 44h392c24 0 44-20 44-44S732 792 708 792h-392z" fill="#7C4119" /><path d="M511.2 512m-354.4 0a354.4 354.4 0 1 0 708.8 0 354.4 354.4 0 1 0-708.8 0Z" fill="#FBD000" /><path d="M511.2 826.4c-188.8 0-343.2-148-353.6-334.4 0 6.4-0.8 13.6-0.8 20 0 196 158.4 354.4 354.4 354.4 196 0 354.4-158.4 354.4-354.4 0-6.4 0-13.6-0.8-20-9.6 186.4-164 334.4-353.6 334.4z" fill="#F4B10B" /><path d="M512 872c-198.4 0-360-161.6-360-360s161.6-360 360-360 360 161.6 360 360-161.6 360-360 360z m0-704c-189.6 0-344 154.4-344 344s154.4 344 344 344 344-154.4 344-344-154.4-344-344-344z" fill="#7C4119" /><path d="M511.2 512m-280 0a280 280 0 1 0 560 0 280 280 0 1 0-560 0Z" fill="#FFFFFF" /><path d="M511.2 302.4c142.4 0 260 106.4 277.6 244.8 1.6-11.2 2.4-23.2 2.4-35.2 0-154.4-125.6-280-280-280s-280 125.6-280 280c0 12 0.8 24 2.4 35.2 17.6-137.6 135.2-244.8 277.6-244.8z" fill="#EAEAEA" /><path d="M512 800c-159.2 0-288-128.8-288-288 0-158.4 128.8-288 288-288 158.4 0 288 128.8 288 288s-128.8 288-288 288z m0-560c-149.6 0-272 122.4-272 272s122.4 272 272 272 272-122.4 272-272-122.4-272-272-272z" fill="#7C4119" /><path d="M520.8 502.4c6.4 6.4 6.4 17.6 0 24l-0.8 0.8c-6.4 6.4-17.6 6.4-24 0L380 411.2c-6.4-6.4-6.4-17.6 0-24l0.8-0.8c6.4-6.4 17.6-6.4 24 0l116 116z" fill="#EAEAEA" /><path d="M628.8 416c8 9.6 7.2 23.2-2.4 31.2L532.8 528c-9.6 8-23.2 7.2-31.2-2.4l-0.8-0.8c-8-9.6-7.2-23.2 2.4-31.2l92.8-80.8c9.6-8 24-7.2 32.8 3.2z" fill="#EAEAEA" /><path d="M509.6 544c-6.4 0-12.8-2.4-17.6-7.2L375.2 420c-9.6-9.6-9.6-25.6 0-35.2l1.6-1.6c9.6-9.6 25.6-9.6 35.2 0l116.8 116.8c9.6 9.6 9.6 25.6 0 35.2l-0.8 0.8c-5.6 5.6-11.2 8-18.4 8zM394.4 392c-2.4 0-4.8 0.8-6.4 2.4l-1.6 0.8c-3.2 3.2-3.2 8.8 0 12.8l116.8 116.8c3.2 3.2 9.6 3.2 12.8 0l0.8-0.8c3.2-3.2 3.2-8.8 0-12.8L400.8 394.4c-2.4-1.6-4-2.4-6.4-2.4z" fill="#7C4119" /><path d="M518.4 544c-8.8 0-16.8-4-22.4-10.4l-0.8-0.8c-5.6-6.4-8-14.4-7.2-22.4 0.8-8 4-16 10.4-20.8L590.4 408c5.6-4.8 12-7.2 19.2-7.2 8.8 0 16.8 4 22.4 10.4l0.8 0.8c10.4 12.8 9.6 32-3.2 43.2L538.4 536.8c-5.6 4.8-12.8 7.2-20 7.2z m91.2-128c-3.2 0-6.4 1.6-9.6 3.2L508.8 501.6c-3.2 2.4-4.8 5.6-4.8 9.6s0.8 8 3.2 10.4l0.8 0.8c4.8 5.6 14.4 6.4 20 1.6l92-81.6c5.6-5.6 6.4-14.4 1.6-20.8l-0.8-0.8c-3.2-2.4-7.2-4.8-11.2-4.8z" fill="#7C4119" /><path d="M830.4 565.6h-0.8c-4-0.8-7.2-4.8-7.2-8.8 2.4-14.4 3.2-29.6 3.2-44.8 0-140.8-94.4-265.6-230.4-304-4-0.8-6.4-5.6-5.6-9.6 0.8-4 5.6-6.4 9.6-5.6 142.4 40 242.4 171.2 242.4 319.2 0 16-0.8 31.2-3.2 47.2 0 4-4 6.4-8 6.4zM317.6 260.8c-2.4 0-4.8-0.8-6.4-3.2-2.4-3.2-1.6-8.8 1.6-11.2 57.6-43.2 126.4-65.6 198.4-65.6 4.8 0 8 3.2 8 8s-3.2 8-8 8c-68.8 0-133.6 21.6-188.8 62.4-1.6 0.8-3.2 1.6-4.8 1.6zM520 272v24" fill="#FFFFFF" /><path d="M520 304c-4.8 0-8-3.2-8-8v-24c0-4.8 3.2-8 8-8s8 3.2 8 8v24c0 4.8-3.2 8-8 8z" fill="#7C4119" /><path d="M520 728v24" fill="#FFFFFF" /><path d="M520 760c-4.8 0-8-3.2-8-8v-24c0-4.8 3.2-8 8-8s8 3.2 8 8v24c0 4.8-3.2 8-8 8z" fill="#7C4119" /><path d="M760 512h-24" fill="#FFFFFF" /><path d="M760 520h-24c-4.8 0-8-3.2-8-8s3.2-8 8-8h24c4.8 0 8 3.2 8 8s-3.2 8-8 8z" fill="#7C4119" /><path d="M296 512h-24" fill="#FFFFFF" /><path d="M296 520h-24c-4.8 0-8-3.2-8-8s3.2-8 8-8h24c4.8 0 8 3.2 8 8s-3.2 8-8 8z" fill="#7C4119" /><path d="M511.2 528m-39.2 0a39.2 39.2 0 1 0 78.4 0 39.2 39.2 0 1 0-78.4 0Z" fill="#EAEAEA" /><path d="M511.2 512m-39.2 0a39.2 39.2 0 1 0 78.4 0 39.2 39.2 0 1 0-78.4 0Z" fill="#7C4119" /><path d="M904 488h-16c-4.8 0-8-3.2-8-8s3.2-8 8-8h16c4.8 0 8 3.2 8 8s-3.2 8-8 8zM712 168h-56c-4.8 0-8-3.2-8-8s3.2-8 8-8h56c4.8 0 8 3.2 8 8s-3.2 8-8 8zM360 168h-56c-4.8 0-8-3.2-8-8s3.2-8 8-8h56c4.8 0 8 3.2 8 8s-3.2 8-8 8z" fill="#FFFFFF" /><path d="M531.2 518.4c-4.8 0-8-3.2-8-8 0-6.4-4.8-11.2-11.2-11.2-4.8 0-8-3.2-8-8s3.2-8 8-8c15.2 0 27.2 12 27.2 27.2 0 4.8-4 8-8 8z" fill="#FFFFFF" opacity=".5" /></svg>