<?xml version="1.0" standalone="no"?><!DOCTYPE svg PUBLIC "-//W3C//DTD SVG 1.1//EN" "http://www.w3.org/Graphics/SVG/1.1/DTD/svg11.dtd"><svg class="icon" width="200px" height="200.00px" viewBox="0 0 1024 1024" version="1.1" xmlns="http://www.w3.org/2000/svg"><path d="M512 512m-512 0a512 512 0 1 0 1024 0 512 512 0 1 0-1024 0Z" fill="#FC8BA4" /><path d="M448.8 876c-23.2 37.6-72.8 48.8-110.4 25.6l-13.6-8.8c-37.6-23.2-48.8-72.8-25.6-110.4l293.6-475.2c23.2-37.6 72.8-48.8 110.4-25.6l13.6 8.8c37.6 23.2 48.8 72.8 25.6 110.4l-293.6 475.2z" fill="#415E6D" /><path d="M380.8 920c-16 0-32-4.8-45.6-12.8l-13.6-8c-40.8-25.6-53.6-80-28.8-120.8L586.4 304c16-26.4 44-41.6 75.2-41.6 16 0 32 4.8 45.6 12.8l13.6 8c20 12 33.6 32 39.2 54.4 5.6 23.2 1.6 46.4-10.4 66.4L456 878.4c-16 26.4-44 41.6-75.2 41.6z m280-641.6c-25.6 0-48 12.8-61.6 33.6L306.4 786.4c-20.8 33.6-10.4 78.4 23.2 99.2l13.6 8c11.2 7.2 24 10.4 37.6 10.4 25.6 0 48-12.8 61.6-33.6l292.8-473.6c10.4-16 12.8-35.2 8.8-54.4-4.8-18.4-16-34.4-32-44.8l-13.6-8c-11.2-8-24-11.2-37.6-11.2z" fill="#233E49" /><path d="M899.2 104.8l-85.6 138.4c-13.6 22.4-24.8 40.8-24.8 40.8l-72-44.8c-22.4-13.6-29.6-44-15.2-66.4L799.2 16c-80-17.6-164.8 16-210.4 89.6-57.6 92.8-28.8 215.2 64 272.8 92.8 57.6 207.2 28.8 264-64 45.6-73.6 33.6-146.4-17.6-209.6z" fill="#415E6D" /><path d="M688.8 196L799.2 16c-10.4-2.4-21.6-4-32-4l-80 131.2c-10.4 16.8-9.6 37.6 1.6 52.8z" fill="#324D5B" /><path d="M917.6 257.6C881.6 316 824 352 760 352c-36.8 0-72-8.8-107.2-30.4-52-32-84-84.8-92-140.8C550.4 256 584 334.4 652.8 377.6c92.8 57.6 207.2 28.8 264-64 25.6-40.8 32.8-81.6 25.6-120-3.2 21.6-12 42.4-24.8 64z" fill="#324D5B" /><path d="M889.6 353.6c-1.6 0-3.2 0-4-0.8l-99.2-61.6c-4-2.4-4.8-7.2-2.4-11.2 2.4-4 7.2-4.8 11.2-2.4l99.2 61.6c4 2.4 4.8 7.2 2.4 11.2-1.6 2.4-4.8 3.2-7.2 3.2z" fill="#233E49" /><path d="M464.8 747.2c-11.2 18.4-34.4 25.6-49.6 16-16-9.6-19.2-32.8-8-52l170.4-276c11.2-18.4 34.4-25.6 49.6-16 16 9.6 19.2 32.8 8 52L464.8 747.2z" fill="#324D5B" /><path d="M359.040394 851.651024a32 32 0 1 0 33.651091-54.438994 32 32 0 1 0-33.651091 54.438994Z" fill="#324D5B" /><path d="M754.4 416c-36.8 0-72.8-10.4-105.6-31.2-46.4-28.8-79.2-74.4-91.2-128-12.8-53.6-4-108.8 24.8-156C620 40 685.6 0 756.8 0c14.4 0 28.8 4.8 43.2 8 2.4 0.8 4.8 2.4 5.6 4.8 0.8 2.4 0.8 4.8-0.8 7.2l-96 157.6c-5.6 8.8-7.2 20-4.8 30.4 2.4 10.4 8.8 19.2 17.6 24.8l64.8 40c4.8-7.2 12-20 20.8-34.4l84.8-138.4c1.6-2.4 4-4 6.4-4 2.4 0 4.8 0.8 6.4 3.2 56.8 70.4 62.4 146.4 18.4 218.4-37.6 61.6-100.8 98.4-168.8 98.4z m2.4-396.8c-66.4 0-126.4 33.6-160.8 90.4-26.4 43.2-34.4 94.4-23.2 143.2C584 302.4 614.4 344 657.6 370.4c29.6 18.4 63.2 28.8 96.8 28.8 62.4 0 120-33.6 154.4-89.6 38.4-63.2 35.2-128.8-10.4-191.2l-79.2 128c-13.6 22.4-24.8 40.8-24.8 40.8-0.8 1.6-3.2 3.2-4.8 4-2.4 0.8-4 0-6.4-0.8L712 245.6c-12.8-8-21.6-20-24.8-34.4-3.2-14.4-0.8-29.6 6.4-42.4L785.6 21.6c-9.6-1.6-19.2-2.4-28.8-2.4zM431.2 776c-7.2 0-14.4-1.6-20.8-5.6-9.6-5.6-16.8-16-18.4-28-1.6-12 0.8-24 8-34.4L574.4 432c9.6-15.2 25.6-24 41.6-24 7.2 0 14.4 1.6 20.8 5.6 20 12 24.8 40 10.4 62.4L473.6 752c-9.6 14.4-25.6 24-42.4 24z m185.6-352c-10.4 0-21.6 6.4-28 16.8L414.4 716c-4.8 7.2-6.4 16-5.6 24 0.8 7.2 4.8 13.6 10.4 16.8 3.2 2.4 7.2 3.2 12 3.2 10.4 0 21.6-6.4 28-16.8l174.4-275.2c9.6-15.2 7.2-33.6-5.6-40.8-3.2-2.4-7.2-3.2-11.2-3.2zM376 864c-7.2 0-14.4-2.4-20.8-5.6-18.4-11.2-24.8-36-12.8-55.2 7.2-12 20-19.2 34.4-19.2 7.2 0 14.4 2.4 20.8 5.6 8.8 5.6 15.2 14.4 17.6 24.8 2.4 10.4 0.8 20.8-4.8 30.4-8 12-20.8 19.2-34.4 19.2z m0-64c-8 0-16 4-20.8 11.2-7.2 11.2-3.2 26.4 8 32.8 4 2.4 8 3.2 12.8 3.2 8 0 16-4 20.8-11.2 3.2-5.6 4.8-12 3.2-18.4-1.6-6.4-5.6-11.2-10.4-15.2-4.8-0.8-8.8-2.4-13.6-2.4z" fill="#233E49" /><path d="M599.2 160h-2.4c-4-1.6-6.4-5.6-4.8-9.6C616.8 65.6 707.2 41.6 710.4 40c4-0.8 8 1.6 8.8 5.6 0.8 4-1.6 8-5.6 9.6-0.8 0-85.6 23.2-107.2 99.2-0.8 3.2-4 5.6-7.2 5.6zM784 320c-1.6 0-2.4 0-4-0.8-3.2-1.6-79.2-44-96-55.2-20-14.4-20-39.2-20-40 0-4 3.2-8 8-8 4 0 8 3.2 8 8 0 0.8 0.8 18.4 13.6 27.2 16.8 11.2 93.6 54.4 94.4 55.2 4 2.4 4.8 7.2 3.2 10.4-1.6 1.6-4 3.2-7.2 3.2zM336 776c-1.6 0-3.2 0-4-0.8-4-2.4-4.8-7.2-2.4-11.2l184-288c2.4-4 7.2-4.8 11.2-2.4 4 2.4 4.8 7.2 2.4 11.2l-184 288c-1.6 1.6-4 3.2-7.2 3.2zM544 448c-1.6 0-3.2 0-4-1.6-4-2.4-4.8-7.2-2.4-11.2l40-64c2.4-4 7.2-4.8 11.2-2.4 4 2.4 4.8 7.2 2.4 11.2l-40 64c-1.6 2.4-4 4-7.2 4z" fill="#FFFFFF" opacity=".5" /><path d="M152 656c-17.6 0-32-14.4-32-32s14.4-32 32-32 32 14.4 32 32-14.4 32-32 32z m0-48c-8.8 0-16 7.2-16 16s7.2 16 16 16 16-7.2 16-16-7.2-16-16-16zM808 736c-17.6 0-32-14.4-32-32s14.4-32 32-32 32 14.4 32 32-14.4 32-32 32z m0-48c-8.8 0-16 7.2-16 16s7.2 16 16 16 16-7.2 16-16-7.2-16-16-16zM376 184c-17.6 0-32-14.4-32-32s14.4-32 32-32 32 14.4 32 32-14.4 32-32 32z m0-48c-8.8 0-16 7.2-16 16s7.2 16 16 16 16-7.2 16-16-7.2-16-16-16zM368 464c-17.6 0-32-14.4-32-32s14.4-32 32-32 32 14.4 32 32-14.4 32-32 32z m0-48c-8.8 0-16 7.2-16 16s7.2 16 16 16 16-7.2 16-16-7.2-16-16-16zM244 321.6c0-3.2-3.2-6.4-8-7.2l-15.2-2.4c-4-0.8-8.8-4.8-8.8-8.8l-2.4-15.2c-0.8-4-4-8-7.2-8s-6.4 3.2-7.2 8l-2.4 15.2c-0.8 4-4.8 8.8-8.8 8.8l-15.2 2.4c-4 0.8-8 4-8 7.2s3.2 6.4 8 7.2l15.2 2.4c4 0.8 8.8 4.8 8.8 8.8l2.4 15.2c0.8 4 4 8 7.2 8s6.4-3.2 6.4-8l2.4-16.8c0.8-4 4.8-8 8.8-8.8l14.4-0.8c6.4-1.6 9.6-4 9.6-7.2zM940 516c0-3.2-3.2-6.4-8-7.2l-15.2-2.4c-4-0.8-8.8-4.8-8.8-8.8l-2.4-15.2c-0.8-4-4-8-7.2-8s-6.4 3.2-7.2 8l-2.4 15.2c-0.8 4-4.8 8.8-8.8 8.8l-15.2 2.4c-4 0.8-8 4-8 7.2s3.2 6.4 8 7.2l15.2 2.4c4 0.8 8.8 4.8 8.8 8.8l2.4 15.2c0.8 4 4 8 7.2 8s6.4-3.2 6.4-8l2.4-16.8c0.8-4 4.8-8 8.8-8.8l14.4-0.8c6.4-0.8 9.6-4 9.6-7.2zM649.6 870.4c0-3.2-3.2-6.4-8-7.2l-15.2-2.4c-4-0.8-8.8-4.8-8.8-8.8l-2.4-15.2c-0.8-4-4-8-7.2-8s-6.4 3.2-7.2 8l-2.4 15.2c-0.8 4-4.8 8.8-8.8 8.8l-15.2 2.4c-4 0.8-8 4-8 7.2s3.2 6.4 8 7.2l15.2 2.4c4 0.8 8.8 4.8 8.8 8.8l2.4 15.2c0.8 4 4 8 7.2 8s6.4-3.2 6.4-8l2.4-16.8c0.8-4 4.8-8 8.8-8.8l14.4-0.8c5.6-0.8 9.6-4 9.6-7.2z" fill="#FFFFFF" /></svg>