<?xml version="1.0" standalone="no"?><!DOCTYPE svg PUBLIC "-//W3C//DTD SVG 1.1//EN" "http://www.w3.org/Graphics/SVG/1.1/DTD/svg11.dtd"><svg class="icon" width="200px" height="200.00px" viewBox="0 0 1024 1024" version="1.1" xmlns="http://www.w3.org/2000/svg"><path d="M528.35 787.39L422.11 683.84l146.81-21.33a13 13 0 0 0 9.79-7.11l65.66-133 65.63 133a13 13 0 0 0 9.79 7.11l7.81 1.14V229.89a42.17 42.17 0 0 0-42.12-42.12h-90v69.82a6.09 6.09 0 0 1-6 6H292.92a6.09 6.09 0 0 1-6-6v-69.82h-90a42.17 42.17 0 0 0-42.12 42.12V837a42.17 42.17 0 0 0 42.12 42.12h321.4l13.76-80.26a13 13 0 0 0-3.73-11.47zM650.42 876.08a13 13 0 0 0-12.1 0l-5.85 3.08h23.8z" fill="#C5EAFF" /><path d="M644.37 874.59a13.1 13.1 0 0 1 6 1.49l5.85 3.08 125.46 66-25.03-146.26a13 13 0 0 1 3.74-11.51l106.23-103.55-139-20.19-7.81-1.14a13 13 0 0 1-9.81-7.11l-65.65-133-65.66 133a13 13 0 0 1-9.79 7.11l-146.79 21.33 106.24 103.55a13 13 0 0 1 3.73 11.51l-13.76 80.26-11.31 66 125.46-66 5.85-3.08a13 13 0 0 1 6.05-1.49z" fill="#F9DB91" /><path d="M292.92 263.6h296.57a6.09 6.09 0 0 0 6-6v-94.43a6.09 6.09 0 0 0-6-6h-57l-0.88-12C528.77 106.92 489.08 77 441.21 77s-87.57 29.92-90.37 68.11l-0.88 12h-57a6.09 6.09 0 0 0-6 6v94.42a6.09 6.09 0 0 0 5.96 6.07z" fill="#EF6A6A" /><path d="M287.22 443.9h272.57a13 13 0 0 0 0-26H287.22a13 13 0 0 0 0 26zM509.8 564a13 13 0 0 0-13-13H287.22a13 13 0 0 0 0 26H496.8a13 13 0 0 0 13-13z" fill="#512C56" /><path d="M873 671.63L740.62 652.4V229.89a55.28 55.28 0 0 0-55.12-55.12h-77v-11.6a19.07 19.07 0 0 0-19-19h-45C541.26 99.44 496.25 64 441.21 64s-100.06 35.44-103.33 80.16h-45a19.07 19.07 0 0 0-19 19v11.6h-77a55.28 55.28 0 0 0-55.12 55.12V837a55.28 55.28 0 0 0 55.12 55.12h306l-9.48 55.24A10.78 10.78 0 0 0 504 960a10.66 10.66 0 0 0 5-1.26l135.34-71.15 135.36 71.15a10.73 10.73 0 0 0 15.61-11.34l-25.85-150.7L879 690a10.76 10.76 0 0 0-6-18.37zM299.91 170.16H362l1.77-24.1c1-14.27 9-27.85 22.3-38.24C400.85 96.33 420.42 90 441.21 90s40.35 6.33 55.09 17.82c13.34 10.39 21.26 24 22.3 38.24l1.77 24.1h62.13v80.44H299.91z m207.45 696H196.91A29.3 29.3 0 0 1 167.79 837V229.89a29.3 29.3 0 0 1 29.12-29.12h77v56.82a19.07 19.07 0 0 0 19 19h296.58a19.07 19.07 0 0 0 19-19v-56.82h77a29.3 29.3 0 0 1 29.12 29.12v405.46L654 512.53a10.76 10.76 0 0 0-19.29 0l-67.66 137.12-151.31 22a10.76 10.76 0 0 0-6 18.35l109.53 106.7z m243.95-88.08a26 26 0 0 0-7.48 23l20.63 120.25-108-56.77a26 26 0 0 0-24.2 0l-108 56.77L544.9 801.1a26 26 0 0 0-7.48-23l-87.37-85.16 120.74-17.54a26 26 0 0 0 19.58-14.23l54-109.41 54 109.41a26 26 0 0 0 19.58 14.23l120.74 17.54z" fill="#512C56" /></svg>