<?xml version="1.0" standalone="no"?><!DOCTYPE svg PUBLIC "-//W3C//DTD SVG 1.1//EN" "http://www.w3.org/Graphics/SVG/1.1/DTD/svg11.dtd"><svg class="icon" width="200px" height="200.00px" viewBox="0 0 1024 1024" version="1.1" xmlns="http://www.w3.org/2000/svg"><path d="M512 512m-512 0a512 512 0 1 0 1024 0 512 512 0 1 0-1024 0Z" fill="#FBD000" /><path d="M904 844l-49.6-49.6c-16.8-16.8-40-27.2-64-27.2-8 0-15.2 0.8-22.4 3.2l-64-64.8c36.8-49.6 57.6-110.4 57.6-173.6 0-77.6-30.4-150.4-84.8-204.8-54.4-55.2-127.2-84.8-204-84.8s-149.6 30.4-204 84.8C156 440 156 624 268.8 737.6 323.2 792 395.2 824 472 824c64 0 126.4-22.4 176-61.6l65.6 66.4c-6.4 28 2.4 59.2 24.8 81.6l38.4 38.4c48-28 91.2-63.2 127.2-104.8z" fill="#F4B10B" /><path d="M633.256 655.384l45.248-45.264 124.464 124.432-45.248 45.264z" fill="#00B3F9" /><path d="M678.4 610.4L632.8 656l48 48c8-6.4 15.2-12.8 22.4-20 8-8 15.2-16.8 22.4-25.6l-47.2-48z" fill="#00B3F9" /><path d="M757.6 788c-2.4 0-4-0.8-5.6-2.4L627.2 661.6c-1.6-1.6-2.4-3.2-2.4-5.6 0-2.4 0.8-4 2.4-5.6l45.6-45.6c3.2-3.2 8-3.2 11.2 0l124.8 124.8c3.2 3.2 3.2 8 0 11.2l-45.6 45.6c-1.6 0.8-3.2 1.6-5.6 1.6zM644.8 656l112.8 112.8 33.6-33.6-112.8-113.6-33.6 34.4z" fill="#0C508E" /><path d="M272.219628 651.856503a282.4 282.4 0 1 0 399.36694-399.38088 282.4 282.4 0 1 0-399.36694 399.38088Z" fill="#00B3F9" /><path d="M472 736c-76.8 0-149.6-29.6-204-84-112-112-112-295.2 0-407.2C322.4 189.6 395.2 160 472 160s149.6 29.6 204 84C730.4 298.4 760 371.2 760 448s-29.6 149.6-84 204C621.6 706.4 548.8 736 472 736z m0-560c-72.8 0-140.8 28-192.8 80-106.4 106.4-106.4 278.4 0 384.8 51.2 51.2 120 80 192.8 80 72.8 0 140.8-28 192.8-80 51.2-51.2 80-120 80-192.8s-28-140.8-80-192.8C612.8 204 544.8 176 472 176z" fill="#0C508E" /><path d="M335.006301 589.072326a193.6 193.6 0 1 0 273.786967-273.796525 193.6 193.6 0 1 0-273.786967 273.796525Z" fill="#9BEBF9" /><path d="M969.6 840c31.2 31.2 32.8 80 4 108.8-28.8 28.8-77.6 27.2-108.8-4l-120-120c-31.2-31.2-32.8-80-4-108.8 28.8-28.8 77.6-27.2 108.8 4l120 120z" fill="#C68D55" /><path d="M982.4 908.8c-28.8 28.8-77.6 27.2-108.8-4l-120-120c-14.4-14.4-23.2-33.6-24-52-15.2 28.8-9.6 66.4 16 92l120 120c31.2 31.2 80 32.8 108.8 4 15.2-15.2 21.6-36 20-56.8-3.2 6.4-7.2 12-12 16.8z" fill="#A55F26" /><path d="M921.6 976c-23.2 0-46.4-9.6-64-27.2l-119.2-119.2c-34.4-34.4-36-88-4-119.2 14.4-14.4 34.4-22.4 56-22.4 23.2 0 46.4 9.6 64 27.2l119.2 119.2c34.4 34.4 36 88 4 119.2-15.2 14.4-34.4 22.4-56 22.4zM790.4 704c-16.8 0-32.8 6.4-44.8 17.6-25.6 25.6-24 68.8 4 96.8l119.2 119.2c14.4 14.4 32.8 22.4 52 22.4 16.8 0 32.8-6.4 44.8-17.6 25.6-25.6 24-68.8-4-96.8l-119.2-119.2c-13.6-14.4-32.8-22.4-52-22.4z" fill="#7C4119" /><path d="M320 424h-1.6c-4-0.8-7.2-5.6-5.6-9.6 21.6-88.8 112-143.2 200.8-120.8 25.6 6.4 48.8 18.4 68 35.2 3.2 3.2 4 8 0.8 11.2-3.2 3.2-8 4-11.2 0.8-17.6-15.2-38.4-26.4-61.6-32-80-20-161.6 29.6-180.8 109.6-1.6 3.2-4.8 5.6-8.8 5.6zM628.8 495.2h-1.6c-4-0.8-6.4-5.6-5.6-9.6 6.4-30.4 4.8-61.6-4.8-90.4-1.6-4 0.8-8.8 4-10.4 4-1.6 8 0.8 9.6 4.8 11.2 32 12.8 66.4 5.6 100-1.6 3.2-4 5.6-7.2 5.6z" fill="#FFFFFF" /><path d="M608.8 524.8c-75.2 75.2-197.6 75.2-273.6 0-29.6-29.6-47.2-66.4-53.6-104.8-9.6 59.2 8 122.4 53.6 168.8 75.2 75.2 197.6 75.2 273.6 0 45.6-45.6 64-108.8 53.6-168.8-6.4 38.4-24 75.2-53.6 104.8z" fill="#00B3F9" opacity=".3" /><path d="M472 656c-53.6 0-104-21.6-141.6-60-77.6-79.2-77.6-208.8 0-288.8C368 269.6 418.4 248 472 248c53.6 0 104 21.6 141.6 60 37.6 38.4 58.4 89.6 58.4 144 0 54.4-20.8 105.6-58.4 144C576 634.4 525.6 656 472 656z m0-392c-48.8 0-95.2 19.2-130.4 55.2-72 73.6-72 192 0 265.6C376.8 620 422.4 640 472 640s95.2-19.2 130.4-55.2c34.4-35.2 53.6-82.4 53.6-132.8 0-50.4-19.2-97.6-53.6-132.8C567.2 284 520.8 264 472 264z" fill="#0C508E" /><path d="M928 864c-1.6 0-4-0.8-5.6-2.4l-56.8-56.8c-3.2-3.2-3.2-8 0-11.2 3.2-3.2 8-3.2 11.2 0l56.8 56.8c3.2 3.2 3.2 8 0 11.2-1.6 1.6-3.2 2.4-5.6 2.4zM824 760c-1.6 0-4-0.8-5.6-2.4-14.4-15.2-36-18.4-45.6-8-3.2 3.2-8 3.2-11.2 0-3.2-3.2-3.2-8 0-11.2 16-16.8 46.4-12.8 67.2 8 3.2 3.2 3.2 8 0 11.2-0.8 1.6-2.4 2.4-4.8 2.4zM473.6 688c-62.4 0-120.8-24-164.8-68-72.8-72.8-89.6-183.2-40.8-273.6 11.2-20 24.8-39.2 40.8-55.2 3.2-3.2 8-3.2 11.2 0 3.2 3.2 3.2 8 0 11.2-15.2 15.2-28 32.8-38.4 52-44.8 84.8-29.6 187.2 38.4 255.2 40.8 40.8 96 63.2 153.6 63.2 58.4 0 112.8-22.4 153.6-63.2 3.2-3.2 8-3.2 11.2 0 3.2 3.2 3.2 8 0 11.2C594.4 664 536 688 473.6 688zM667.2 576c-1.6 0-2.4 0-4-0.8-3.2-2.4-4.8-7.2-2.4-11.2 18.4-34.4 28.8-74.4 28.8-115.2 0-4.8 3.2-8 7.2-8s7.2 4 7.2 8c0 43.2-10.4 86.4-30.4 123.2-1.6 2.4-4 4-6.4 4z" fill="#FFFFFF" opacity=".5" /><path d="M840 336c-17.6 0-32-14.4-32-32s14.4-32 32-32 32 14.4 32 32-14.4 32-32 32z m0-48c-8.8 0-16 7.2-16 16s7.2 16 16 16 16-7.2 16-16-7.2-16-16-16zM112 568c-17.6 0-32-14.4-32-32s14.4-32 32-32 32 14.4 32 32-14.4 32-32 32z m0-48c-8.8 0-16 7.2-16 16s7.2 16 16 16 16-7.2 16-16-7.2-16-16-16zM196.8 804.8c0-3.2 3.2-6.4 8-7.2l15.2-2.4c4-0.8 8.8-4.8 8.8-8.8l2.4-15.2c0.8-4 4-8 7.2-8s6.4 3.2 7.2 8l2.4 15.2c0.8 4 4.8 8.8 8.8 8.8l15.2 2.4c4 0.8 8 4 8 7.2s-3.2 6.4-8 7.2l-15.2 2.4c-4 0.8-8.8 4.8-8.8 8.8l-2.4 15.2c-0.8 4-4 8-7.2 8s-6.4-3.2-7.2-8l-2.4-16.8c-0.8-4-4.8-8-8.8-8.8l-14.4-0.8c-4.8-1.6-8.8-4.8-8.8-7.2zM857.6 610.4c0-3.2 3.2-6.4 8-7.2l15.2-2.4c4-0.8 8.8-4.8 8.8-8.8l2.4-15.2c0.8-4 4-8 7.2-8s6.4 3.2 7.2 8l2.4 15.2c0.8 4 4.8 8.8 8.8 8.8l15.2 2.4c4 0.8 8 4 8 7.2s-3.2 6.4-8 7.2l-15.2 2.4c-4 0.8-8.8 4.8-8.8 8.8l-2.4 15.2c-0.8 4-4 8-7.2 8s-6.4-3.2-7.2-8l-2.4-16.8c-0.8-4-4.8-8-8.8-8.8l-14.4-0.8c-5.6-0.8-8.8-4-8.8-7.2zM529.6 85.6c0-3.2 3.2-6.4 8-7.2l14.4-2.4c4-0.8 8.8-4.8 8.8-8.8l2.4-15.2c0.8-4 4-8 7.2-8s6.4 3.2 7.2 8l2.4 15.2c0.8 4 4.8 8.8 8.8 8.8l15.2 2.4c4 0.8 8 4 8 7.2s-3.2 6.4-8 7.2l-15.2 2.4c-4 0.8-8.8 4.8-8.8 8.8l-2.4 15.2c-0.8 4-4 8-7.2 8s-6.4-3.2-7.2-8l-2.4-16.8c-0.8-4-4.8-8-8.8-8.8l-14.4-0.8c-4.8-1.6-8-4.8-8-7.2zM645.6 302.4c0-3.2-3.2-6.4-8-7.2L600 288c-4-0.8-8.8-4.8-9.6-9.6L584 240c-0.8-4-4-8-7.2-8s-6.4 3.2-7.2 8l-6.4 38.4c-0.8 4-4.8 8.8-9.6 9.6l-38.4 6.4c-4 0.8-8 4-8 7.2s3.2 6.4 8 7.2l37.6 4.8c4 0.8 8.8 4.8 9.6 8.8l7.2 40c0.8 4 4 8 7.2 8s6.4-3.2 7.2-8l7.2-40.8c0.8-4 4.8-8 9.6-8.8l37.6-4.8c3.2 0.8 7.2-2.4 7.2-5.6z" fill="#FFFFFF" /></svg>