<?xml version="1.0" standalone="no"?><!DOCTYPE svg PUBLIC "-//W3C//DTD SVG 1.1//EN" "http://www.w3.org/Graphics/SVG/1.1/DTD/svg11.dtd"><svg class="icon" width="200px" height="200.00px" viewBox="0 0 1024 1024" version="1.1" xmlns="http://www.w3.org/2000/svg"><path d="M350.3 123.49l-189.19 33.36a67.06 67.06 0 0 0-54.34 77.61l115.13 653a66.86 66.86 0 0 0 65.89 55.38 68.18 68.18 0 0 0 11.73-1l61.66-10.87a45.43 45.43 0 0 1-10.88-29.53z" fill="#AEF0FF" /><path d="M912.74 77H395.92a45.67 45.67 0 0 0-45.62 45.62v778.76A45.68 45.68 0 0 0 395.92 947h516.82a5.54 5.54 0 0 0 5.53-5.53V82.53a5.54 5.54 0 0 0-5.53-5.53z m-141 263h-256V216h256z" fill="#EF6A6A" /><path d="M515.77 216.03H771.8v124.02H515.77z" fill="#F9DB91" /><path d="M912.74 64H395.92a58.62 58.62 0 0 0-57.72 48.42l-179.34 31.63A80 80 0 0 0 94 236.72l115.14 653a79.91 79.91 0 0 0 92.68 64.89l54.88-9.67A58.4 58.4 0 0 0 395.92 960h516.82a18.53 18.53 0 0 0 18.53-18.53V82.53A18.53 18.53 0 0 0 912.74 64zM297.26 929a55 55 0 0 1-9.47 0.83 53.87 53.87 0 0 1-53.09-44.64l-115.13-653a54 54 0 0 1 43.8-62.56L337.3 139v60.51c-33.52 2.39-60 28.6-60 60.51s26.49 58.12 60 60.51v47c-33.52 2.39-60 28.6-60 60.51s26.49 58.12 60 60.51v47c-33.52 2.39-60 28.6-60 60.51s26.49 58.12 60 60.51v47c-33.52 2.39-60 28.6-60 60.51s26.49 58.12 60 60.51v76.87a58.46 58.46 0 0 0 3.48 19.92z m40-703.4v68.84c-19.16-2.19-34-16.79-34-34.42s14.88-32.25 34.04-34.44z m0 168v68.84c-19.16-2.19-34-16.79-34-34.42s14.88-32.25 34.04-34.44z m0 168v68.84c-19.16-2.19-34-16.79-34-34.42s14.88-32.25 34.04-34.44z m0 168v68.84c-19.16-2.19-34-16.79-34-34.42s14.88-32.25 34.04-34.44zM905.27 934H395.92a32.66 32.66 0 0 1-32.62-32.62v-166.6c10.8 6.18 18 17 18 29.22a31.26 31.26 0 0 1-4.8 16.66 13 13 0 1 0 22.12 13.67 57.64 57.64 0 0 0 8.67-30.33c0-26.61-18.44-49.26-44-57.44V566.78c10.8 6.18 18 17 18 29.22a31.26 31.26 0 0 1-4.8 16.66 13 13 0 1 0 22.12 13.67 57.64 57.64 0 0 0 8.68-30.33c0-26.61-18.44-49.26-44-57.44V398.78c10.8 6.18 18 17 18 29.22a31.26 31.26 0 0 1-4.8 16.66 13 13 0 1 0 22.12 13.67 57.64 57.64 0 0 0 8.68-30.33c0-26.61-18.44-49.26-44-57.44V230.78c10.8 6.18 18 17 18 29.22a31.26 31.26 0 0 1-4.8 16.66 13 13 0 1 0 22.12 13.67 57.64 57.64 0 0 0 8.68-30.33c0-26.61-18.44-49.26-44-57.44v-79.94A32.66 32.66 0 0 1 395.92 90h509.35z" fill="#512C56" /><path d="M506.72 353h274.12a4 4 0 0 0 3.95-4V207a4 4 0 0 0-3.95-3.95H506.72a4 4 0 0 0-4 3.95v142.1a4 4 0 0 0 4 3.9z m22-124h230v98h-230zM732.29 697.81h-177a13 13 0 0 0 0 26h177a13 13 0 0 0 0-26zM732.29 789.85h-177a13 13 0 0 0 0 26h177a13 13 0 0 0 0-26z" fill="#512C56" /></svg>